<svg width="229" height="73" viewBox="0 0 229 73" fill="none" xmlns="http://www.w3.org/2000/svg">
<path d="M19.3174 23.5863H8.53014L6.3544 30H0L10.2992 1H17.7821L28 30H21.4423L19.3072 23.5863H19.3174ZM13.8882 6.60297L10.0654 18.4246H17.7516L13.8882 6.60297Z" fill="black"/>
<path d="M29 17.6773V1H35.2283V17.9575C35.2283 20.1999 35.6469 21.8716 36.474 22.9727C37.3011 24.0739 38.6464 24.6144 40.5199 24.6144C42.3934 24.6144 43.7985 24.0639 44.5858 22.9727C45.373 21.8816 45.7717 20.2099 45.7717 17.9575V1H52V17.7574C52 21.9016 51.0035 24.9848 49.0204 26.9869C47.0373 28.989 44.1772 30 40.4402 30C36.7032 30 33.8631 28.999 31.9199 27.0069C29.9766 25.0149 29 21.9016 29 17.6773Z" fill="black"/>
<path d="M63.7949 6.56194H55V1H79V6.56194H70.1643V30H63.7949V6.56194Z" fill="black"/>
<path d="M81 15.0809C81 11.8767 81.5555 9.15769 82.6664 6.90365C83.7774 4.64961 85.3545 2.94139 87.3979 1.75878C89.4412 0.576166 91.8317 0 94.5794 0C97.327 0 99.7076 0.576146 101.721 1.73854C103.735 2.90094 105.282 4.58896 106.373 6.80257C107.454 9.01618 108 11.7048 108 14.8787C108 18.0525 107.454 20.8019 106.353 23.0559C105.252 25.31 103.695 27.0283 101.681 28.221C99.6679 29.4036 97.2575 30 94.4603 30C91.6631 30 89.3321 29.4239 87.3185 28.2615C85.3049 27.0991 83.7476 25.411 82.6466 23.1974C81.5456 20.9838 81 18.2749 81 15.0809ZM87.4375 15C87.4375 17.9919 88.0228 20.3268 89.2032 22.0249C90.3836 23.723 92.1492 24.562 94.5 24.562C96.8509 24.562 98.5867 23.7129 99.777 22.0249C100.967 20.3268 101.562 17.9919 101.562 15C101.562 12.0081 100.967 9.67319 99.777 7.97508C98.5867 6.27696 96.8211 5.43801 94.5 5.43801C92.1789 5.43801 90.3736 6.28707 89.2032 7.97508C88.0228 9.67319 87.4375 12.0081 87.4375 15Z" fill="black"/>
<path d="M112 1H117.525L129.198 20.046V1H135V30H129.554L117.802 10.995V30H112V1Z" fill="black"/>
<path d="M140 15.0809C140 11.8767 140.555 9.15769 141.666 6.90365C142.777 4.64961 144.355 2.94139 146.398 1.75878C148.441 0.576166 150.832 0 153.579 0C156.327 0 158.708 0.576146 160.721 1.73854C162.735 2.90094 164.282 4.58896 165.373 6.80257C166.454 9.01618 167 11.7048 167 14.8787C167 18.0525 166.454 20.8019 165.353 23.0559C164.252 25.31 162.695 27.0283 160.681 28.221C158.668 29.4036 156.258 30 153.46 30C150.663 30 148.332 29.4239 146.319 28.2615C144.305 27.0991 142.748 25.411 141.647 23.1974C140.546 20.9838 140 18.2749 140 15.0809ZM146.438 15C146.438 17.9919 147.023 20.3268 148.203 22.0249C149.384 23.723 151.149 24.562 153.5 24.562C155.851 24.562 157.587 23.7129 158.777 22.0249C159.967 20.3268 160.562 17.9919 160.562 15C160.562 12.0081 159.967 9.67319 158.777 7.97508C157.587 6.27696 155.821 5.43801 153.5 5.43801C151.179 5.43801 149.374 6.28707 148.203 7.97508C147.023 9.67319 146.438 12.0081 146.438 15Z" fill="black"/>
<path d="M171.01 1H178.317L185.505 22.4062L192.812 1H200V30H194.27V10.6256L187.671 30H183.089L176.61 10.7898V30H171V1H171.01Z" fill="black"/>
<path d="M212.804 18.4657L203 1H209.957L216.062 13.304L222.289 1H229L219.278 18.4657V30H212.814V18.4657H212.804Z" fill="black"/>
<path d="M207.01 44H226.768V48.982H213.193V55.2119H225.961V60.1939H213.193V67.018H227V72H207V44.0099L207.01 44Z" fill="black"/>
<path d="M195.878 66.0808C194.959 67.0505 193.549 67.5455 191.628 67.5455C189.36 67.5455 187.644 66.7071 186.469 65.0303C185.294 63.3535 184.712 60.9899 184.712 57.9495C184.712 54.9091 185.294 52.6263 186.449 50.9495C187.603 49.2727 189.279 48.4344 191.465 48.4344C193.222 48.4344 194.53 48.8788 195.408 49.7576C196.144 50.495 196.706 51.5252 197.094 52.8384H203.602C203.009 49.7475 201.773 47.3333 199.903 45.596C198.034 43.8586 195.286 43 191.669 43C188.921 43 186.52 43.5959 184.467 44.7778C182.413 45.9596 180.83 47.6869 179.696 49.9394C178.562 52.1919 178 54.9293 178 58.1616C178 62.8788 179.195 66.5354 181.576 69.1212C183.966 71.7071 187.276 73 191.506 73C195.357 73 198.34 72.0101 200.445 70.0202C202.549 68.0303 203.734 65.4142 204 62.1616H197.605C197.36 63.8182 196.777 65.1313 195.868 66.101L195.878 66.0808Z" fill="black"/>
<path d="M118.878 66.0808C117.959 67.0505 116.549 67.5455 114.628 67.5455C112.36 67.5455 110.644 66.7071 109.469 65.0303C108.294 63.3535 107.712 60.9899 107.712 57.9495C107.712 54.9091 108.294 52.6263 109.449 50.9495C110.603 49.2727 112.279 48.4344 114.465 48.4344C116.222 48.4344 117.53 48.8788 118.408 49.7576C119.144 50.495 119.706 51.5252 120.094 52.8384H126.602C126.009 49.7475 124.773 47.3333 122.903 45.596C121.034 43.8586 118.286 43 114.669 43C111.921 43 109.52 43.5959 107.467 44.7778C105.413 45.9596 103.83 47.6869 102.696 49.9394C101.562 52.1919 101 54.9293 101 58.1616C101 62.8788 102.195 66.5354 104.576 69.1212C106.966 71.7071 110.276 73 114.506 73C118.357 73 121.34 72.0101 123.445 70.0202C125.549 68.0303 126.734 65.4142 127 62.1616H120.605C120.36 63.8182 119.777 65.1313 118.868 66.101L118.878 66.0808Z" fill="black"/>
<path d="M95 44.8673C96.1735 44.8673 97.1326 45.8163 97.1326 47C97.1326 48.1837 96.1837 49.1327 95 49.1327C93.8163 49.1327 92.8674 48.1837 92.8674 47C92.8674 45.8163 93.8163 44.8673 95 44.8673ZM95 41C91.6939 41 89 43.6939 89 47C89 50.3061 91.6939 53 95 53C98.3061 53 101 50.3061 101 47C101 43.6939 98.3061 41 95 41Z" fill="black"/>
<path d="M2.00989 44H12.0745C14.7663 44 16.9039 44.3762 18.4972 45.1188C20.0905 45.8614 21.2384 46.9109 21.9411 48.2574C22.6437 49.6039 23 51.1881 23 53.0198C23 54.8515 22.6437 56.5445 21.9213 57.9406C21.1989 59.3366 20.0509 60.4257 18.4576 61.198C16.8643 61.9703 14.7465 62.3564 12.114 62.3564H7.95758V72H2V44.0198L2.00989 44ZM17.2502 53.0891C17.2502 51.6535 16.8841 50.604 16.1517 49.9307C15.4194 49.2673 14.0636 48.9307 12.0745 48.9307H7.95758V57.396H12.114C14.123 57.396 15.4788 57.0198 16.1913 56.2772C16.894 55.5346 17.2502 54.4654 17.2502 53.0792V53.0891Z" fill="black"/>
<path d="M27 44H37.6686C40.3332 44 42.4669 44.3666 44.0697 45.0998C45.6725 45.833 46.8245 46.8436 47.5357 48.1415C48.247 49.4395 48.6076 50.9059 48.6076 52.5506C48.6076 54.3241 48.2369 55.8698 47.4956 57.1776C46.7544 58.4855 45.6224 59.5258 44.0897 60.3185L50 72H43.4586L38.5 61.6461C38.2896 61.6461 38.0793 61.6461 37.8689 61.6659C37.6585 61.6758 37.4482 61.6858 37.2378 61.6858H32.9604V72H27.01V44H27ZM42.5771 52.7389C42.5771 51.431 42.1964 50.4402 41.4251 49.7763C40.6638 49.1125 39.2713 48.7757 37.2679 48.7757H32.9503V56.9299H37.5083C39.4617 56.9299 40.794 56.5732 41.5152 55.85C42.2365 55.1267 42.5871 54.0962 42.5871 52.7289L42.5771 52.7389Z" fill="black"/>
<path d="M71.3174 65.8075H60.5301L58.3544 72H52L62.2992 44H69.7821L80 72H73.4423L71.3072 65.8075H71.3174ZM65.8882 49.4197L62.0654 60.8337H69.7516L65.8882 49.4197Z" fill="black"/>
<path d="M149.795 49.3701H141V44H165V49.3701H156.164V72H149.795V49.3701Z" fill="black"/>
<path d="M167 44H173V72H167V44Z" fill="black"/>
</svg>
