<svg width="309" height="54" viewBox="0 0 309 54" fill="none" xmlns="http://www.w3.org/2000/svg">
<path fill-rule="evenodd" clip-rule="evenodd" d="M35.1862 0C47.9202 2.94125e-05 57.6256 5.09768 60.8444 9.0148C61.4258 9.72212 62.4341 10.249 63.3068 10.249C64.802 10.249 65.4578 9.38568 65.4578 8.32079V6.48903C65.4578 3.50563 67.3429 2.01378 71.3222 2.01376L100.854 2.01377C109.074 2.01378 115.468 3.56679 119.66 6.49447C120.597 7.14891 122.583 6.70718 122.583 5.77243C122.583 2.63987 124.633 1.11881 130.078 1.11879C135.524 1.11883 137.481 2.31227 137.481 5.89232V32.5942C137.481 39.1576 142.298 44.3296 151.932 44.3296C160.52 44.3296 166.803 40.3509 166.803 32.5942V5.89236C166.803 2.75976 168.478 1.11881 174.553 1.1188C176.471 1.11883 177.956 1.88491 179.081 2.2869C180.113 2.65615 181.855 2.57058 182.789 2.08554C183.649 1.6383 184.727 0.820584 186.03 0.820539H192.522C196.797 0.82058 198.163 2.61613 198.599 5.83121C198.745 6.90012 201.398 7.40247 202.414 6.60901C207.119 2.93294 214.788 0.745713 225.193 0.74569C236.12 0.745713 247.381 4.03928 252.03 7.12197C252.532 7.4547 253.545 7.2012 253.545 6.71285C253.545 3.5803 255.64 1.86469 259.619 1.86466L298.575 1.86467C302.764 1.86469 304.858 3.20731 304.858 5.89236C304.858 8.42815 302.764 9.77093 298.575 9.77093H277.212C272.605 9.77097 269.044 11.7101 269.044 15.5886C269.044 19.3177 271.767 21.7045 277.212 21.7045H296.271C300.46 21.7045 302.554 23.0472 302.554 25.7322C302.554 28.268 300.46 29.6105 296.271 29.6106H277.212C271.557 29.6106 268.834 31.8483 268.834 36.4725V38.561C268.834 42.5885 272.186 44.5277 277.84 44.5278H301.717C305.905 44.5278 308 45.8706 308 48.5553C308 51.0912 305.277 52.4338 300.041 52.4338H260.038C255.64 52.4338 253.545 50.9421 253.545 47.2127C253.545 46.6277 252.349 46.3871 251.845 46.8491C246.732 51.5372 237.273 54 224.355 54C214.598 54 205.971 51.7554 200.836 49.3393C199.893 48.8956 198.531 49.3086 198.257 50.0895C197.459 52.3629 195.643 53.4781 191.894 53.4781H187.076C179.746 53.4781 179.955 49.4504 179.955 42.5886C179.957 42.4005 179.578 42.3438 179.464 42.5138C175.044 49.138 165.376 53.3916 152.98 53.3916C132.454 53.3916 122.538 45.1244 122.538 33.4891L122.583 27.9333C122.493 27.0194 120.717 26.5575 119.645 27.0636C119.466 27.1481 119.28 27.2505 119.065 27.4034C117.648 28.266 117.451 28.3804 115.933 29.4614C113.629 31.1023 112.582 32.4449 112.582 33.6383C112.582 34.6824 112.776 35.6845 113.404 36.4304L122.491 48.0516C123.748 49.6924 124.655 50.7367 124.655 51.1841C124.655 52.8249 122.769 53.5709 118.999 53.5709H116.695C113.135 53.5709 110.412 52.5266 108.946 50.5871L101.901 41.8426C96.0366 34.3841 93.9419 30.8197 88.4967 30.8197C82.8419 30.8197 79.9095 29.9952 79.9095 34.9549V38.9759C79.9095 40.4049 80.8534 41.6945 81.6743 42.8595C81.9702 43.2797 82.1299 43.7276 82.1299 44.1925C82.1299 46.6007 77.8424 48.5525 72.5534 48.5525C67.2643 48.5525 62.9773 46.6007 62.9768 44.1925C62.9768 43.7531 62.5398 43.2658 62.17 43.4986C61.5097 43.9144 60.9506 44.4341 60.5286 44.9689C57.2322 49.1458 46.935 54 36.2334 54C14.8704 54 -9.07599e-07 42.8122 0 27.0001C3.1766e-06 8.50285 17.8026 4.39586e-05 35.1862 0ZM35.6052 7.71553C26.8087 7.71557 16.3364 14.0222 16.3364 26.7018C16.3364 37.4421 24.0859 46.2846 35.8146 46.2846C45.8677 46.2846 49.219 39.181 53.8264 39.1809C56.041 39.1809 58.2555 39.723 59.8511 40.5646C60.5132 40.9139 61.286 41.17 62.1101 41.17H62.3406C64.0905 41.17 65.4578 40.0377 65.4578 38.7913V15.2452C65.4578 13.9773 64.5706 12.9493 62.7903 12.9493C61.7053 12.9493 60.9928 13.3614 60.1778 13.8715C58.2578 15.0729 55.3072 15.8121 53.8264 15.8122C47.7528 15.8121 46.7054 7.71562 35.6052 7.71553ZM202.207 26.1618C201.142 25.4657 198.805 25.9885 198.805 27.0179V42.9254C198.805 43.7321 200.1 44.037 200.828 43.1614C201.507 42.3447 201.74 40.7239 204.249 40.7239C209.066 40.7239 215.14 45.6465 224.355 45.6465C234.408 45.6465 240.901 42.6631 240.901 38.6356C240.901 31.6246 223.936 32.2211 214.093 30.4311C210.663 29.7797 205.861 28.5506 202.207 26.1618ZM225.403 9.09956C218.282 9.09956 213.045 12.083 213.045 15.3648C213.045 18.0498 215.978 20.4365 221.842 21.3316L237.131 23.5691C242.878 24.4414 247.311 25.7363 250.45 27.576C251.513 28.1994 253.545 27.6917 253.545 26.7106V13.9686C253.545 13.0214 251.487 12.3729 250.301 12.8007C248.489 13.4542 246.408 13.8731 244.881 13.8731C239.645 13.873 235.665 9.09961 225.403 9.09956ZM88.7059 8.87574C82.8415 8.87579 79.9095 11.4116 79.9095 16.3342V19.7652C79.9095 23.942 83.47 26.0304 90.3813 26.0305H96.8739C104.833 26.0304 110.697 22.4503 110.698 17.3785C110.698 12.7542 105.671 8.87574 96.4555 8.87574H88.7059Z" fill="black"/>
</svg>
