<svg width="144" height="107" viewBox="0 0 144 107" fill="none" xmlns="http://www.w3.org/2000/svg">
<path d="M6.92388 17.1996V0H0.125V86H6.92574V25.7994C6.92574 24.8495 7.68613 24.0802 8.625 24.0802C9.56387 24.0802 10.3243 24.8495 10.3243 25.7994V86H17.125V24.0802C17.125 20.2807 14.0797 17.1996 10.3243 17.1996H6.92388Z" fill="black"/>
<path d="M21.125 25.6766V67.3234C21.125 72.1152 24.9307 76 29.625 76C34.3193 76 38.125 72.1152 38.125 67.3234V25.6766C38.125 20.8848 34.3193 17 29.625 17C24.9307 17 21.125 20.8848 21.125 25.6766ZM29.625 69.0617C28.6861 69.0617 27.9257 68.2855 27.9257 67.3272V25.6804C27.9257 24.7221 28.6861 23.9459 29.625 23.9459C30.5639 23.9459 31.3243 24.7221 31.3243 25.6804V67.3272C31.3243 68.2855 30.5639 69.0617 29.625 69.0617Z" fill="black"/>
<path d="M62.125 25.6538V98.3462C62.125 103.125 65.9307 107 70.625 107C75.3193 107 79.125 103.125 79.125 98.3462V58.539H72.3243V98.3462C72.3243 99.3021 71.5639 100.076 70.625 100.076C69.6861 100.076 68.9257 99.3021 68.9257 98.3462V25.6538C68.9257 24.698 69.6861 23.9238 70.625 23.9238C71.5639 23.9238 72.3243 24.698 72.3243 25.6538V55.0771H79.125V25.6538C79.125 20.8745 75.3193 17 70.625 17C65.9307 17 62.125 20.8745 62.125 25.6538Z" fill="black"/>
<path d="M59.125 27.6933V81.3386C59.125 86.1217 55.3181 90 50.6231 90C45.93 90 42.125 86.1236 42.125 81.3424V0H48.9213V17.3076H59.1139V24.2314H48.9213V81.3405C48.9213 82.3002 49.6849 83.0762 50.625 83.0762C51.567 83.0762 52.3287 82.2983 52.3287 81.3405V27.6933H59.125Z" fill="black"/>
<path d="M83.1269 25.5714V44.4277H89.9276V25.5714C89.9276 24.6246 90.688 23.8579 91.6269 23.8579C92.5657 23.8579 93.3261 24.6246 93.3261 25.5714V47.8566H89.9257C86.1703 47.8566 83.125 50.9275 83.125 54.7145V80.4286C83.125 85.1624 86.9307 89 91.625 89C96.3193 89 100.125 85.1624 100.125 80.4286V25.5714C100.125 20.8376 96.3193 17 91.625 17C86.9307 17 83.125 20.8376 83.125 25.5714H83.1269ZM91.6269 82.144C90.688 82.144 89.9276 81.3772 89.9276 80.4305V56.4317C89.9276 55.485 90.688 54.7182 91.6269 54.7182C92.5657 54.7182 93.3261 55.485 93.3261 56.4317V80.4305C93.3261 81.3772 92.5657 82.144 91.6269 82.144Z" fill="black"/>
<path d="M133.625 17C128.931 17 125.125 20.8616 125.125 25.625V77.375C125.125 82.1384 128.931 86 133.625 86C138.319 86 142.125 82.1384 142.125 77.375V48.0496H135.324V77.375C135.324 78.3277 134.564 79.0992 133.625 79.0992C132.686 79.0992 131.926 78.3277 131.926 77.375V44.5992H142.125V25.625C142.125 20.8616 138.319 17 133.625 17ZM135.324 37.7004H131.924V25.625C131.924 24.6723 132.684 23.9008 133.623 23.9008C134.562 23.9008 135.322 24.6723 135.322 25.625V37.7004H135.324Z" fill="black"/>
<path d="M117.725 42.6563C119.6 42.6563 121.125 44.2014 121.125 46.1112V76H114.324V48.3137C114.324 47.3597 113.564 46.5872 112.625 46.5872C111.686 46.5872 110.926 47.3597 110.926 48.3137V76H104.125V0H110.926L110.939 36.4057C110.939 37.3596 111.701 38.1322 112.638 38.1322C113.577 38.1322 114.337 37.3596 114.337 36.4057V31.2886H114.324V17.2726H121.125V38.6007C121.125 41.1092 119.602 42.6563 117.725 42.6563Z" fill="black"/>
</svg>
