<svg width="230" height="75" viewBox="0 0 230 75" fill="none" xmlns="http://www.w3.org/2000/svg">
<g clip-path="url(#clip0_2993_21420)">
<path d="M0 1H11.1212V64.6957H34V74H0V1Z" fill="black"/>
<path d="M51.3914 1H66.6035L81 74H69.7744L67.4192 60.4479H50.5808L48.3173 74H37L51.3914 1ZM65.8796 51.1436L59.2727 12.6546L59.0025 11.4794L58.7324 12.563L52.2121 51.1385H65.8847L65.8796 51.1436Z" fill="black"/>
<path d="M89.9998 48.4322L73 1H84.7273L95.4565 34.9717L95.5486 35.1548V34.9717L106.273 1H118L101 48.4322V74H89.9998V48.4322Z" fill="black"/>
<path d="M109 69.0666C109 65.9586 111.231 64 114 64C116.769 64 119 65.9586 119 69.0666C119 72.1746 116.769 74 114 74C111.231 74 109 72.0414 109 69.0666Z" fill="black"/>
<path d="M123 50.9062V24.0938C123 9.23666 130.03 0 144.454 0C158.879 0 166 9.23666 166 24.0938V50.9062C166 65.7633 158.879 75 144.454 75C130.03 75 123 65.7582 123 50.9062ZM144.454 65.85C151.306 65.85 154.732 61.6831 154.732 53.5328V21.559C154.732 13.4087 151.306 9.14995 144.454 9.14995C137.602 9.14995 134.176 13.3169 134.176 21.4672V53.5328C134.176 61.6831 137.602 65.85 144.454 65.85Z" fill="black"/>
<path d="M171 1H181.293L202.707 49.6989V1H213V74H202.614L181.293 25.3011V74H171V1Z" fill="black"/>
<path d="M219.439 4.31262C219.731 3.64484 220.128 3.06644 220.63 2.57744C221.131 2.08843 221.716 1.69933 222.385 1.42065C223.053 1.14197 223.764 1 224.516 1C225.268 1 225.973 1.14197 226.636 1.42065C227.3 1.69933 227.879 2.08317 228.376 2.57744C228.872 3.0717 229.269 3.6501 229.561 4.31262C229.854 4.9804 230 5.70077 230 6.47897C230 7.25717 229.854 8.00908 229.561 8.68212C229.269 9.35516 228.872 9.93882 228.376 10.4331C227.879 10.9273 227.3 11.3164 226.636 11.5899C225.973 11.8633 225.268 12 224.516 12C223.764 12 223.053 11.8633 222.385 11.5899C221.716 11.3164 221.131 10.9273 220.63 10.4331C220.128 9.93882 219.731 9.35516 219.439 8.68212C219.146 8.00908 219 7.2782 219 6.47897C219 5.67973 219.146 4.9804 219.439 4.31262ZM220.337 8.35612C220.567 8.92926 220.886 9.42878 221.288 9.84943C221.69 10.2701 222.17 10.6013 222.724 10.8432C223.273 11.0851 223.873 11.206 224.516 11.206C225.158 11.206 225.738 11.0851 226.286 10.8432C226.835 10.6013 227.31 10.2701 227.712 9.84943C228.12 9.42878 228.433 8.92926 228.663 8.35612C228.893 7.78298 229.008 7.15727 229.008 6.47897C229.008 5.80067 228.893 5.2065 228.663 4.63862C228.433 4.07075 228.12 3.57648 227.712 3.16109C227.31 2.7457 226.835 2.41444 226.286 2.17256C225.743 1.93069 225.153 1.80975 224.516 1.80975C223.878 1.80975 223.273 1.93069 222.724 2.17256C222.17 2.41444 221.695 2.74044 221.288 3.16109C220.886 3.57648 220.567 4.07075 220.337 4.63862C220.107 5.2065 219.992 5.8217 219.992 6.47897C219.992 7.13623 220.107 7.78298 220.337 8.35612ZM224.85 3.28203C225.613 3.28203 226.171 3.43451 226.537 3.73948C226.903 4.04446 227.085 4.50717 227.085 5.12237C227.085 5.70077 226.924 6.12667 226.605 6.39484C226.281 6.663 225.884 6.826 225.404 6.87333L227.232 9.71797H226.166L224.427 6.94694H223.372V9.71797H222.379V3.28203H224.85ZM224.411 6.13719C224.636 6.13719 224.845 6.13193 225.048 6.11616C225.247 6.10038 225.425 6.05832 225.581 5.98996C225.738 5.92161 225.863 5.81644 225.952 5.67447C226.046 5.53251 226.093 5.3327 226.093 5.08031C226.093 4.86472 226.051 4.69121 225.968 4.56501C225.884 4.43881 225.78 4.33891 225.644 4.27056C225.513 4.2022 225.362 4.15488 225.189 4.12859C225.017 4.10229 224.85 4.09178 224.683 4.09178H223.367V6.13719H224.406H224.411Z" fill="black"/>
</g>
<defs>
<clipPath id="clip0_2993_21420">
<rect width="230" height="75" fill="white"/>
</clipPath>
</defs>
</svg>
