<svg width="242" height="44" viewBox="0 0 242 44" fill="none" xmlns="http://www.w3.org/2000/svg">
<path d="M0 42.9902V12.2344H6.91016V17.4453H7.30664C8.58105 13.9336 11.668 11.8379 15.7461 11.8379C19.9092 11.8379 22.9111 13.9619 24.0723 17.4453H24.4121C25.7432 14.0469 29.1699 11.8379 33.6445 11.8379C39.2803 11.8379 43.2451 15.4629 43.2168 22.3164V42.9902H36.0234V23.4492C36.0234 19.626 33.7012 17.8984 30.7559 17.8984C27.2158 17.8984 25.1484 20.3057 25.1484 23.7891V42.9902H18.125V23.166C18.0967 19.9658 16.001 17.8984 12.9141 17.8984C9.79883 17.8984 7.25 20.4756 7.25 24.2988V42.9902H0Z" fill="#272B2E"/>
<path d="M62.6173 43.6133C53.3566 43.6133 47.6642 37.4395 47.6642 27.8105C47.6642 18.2949 53.4416 11.8379 62.2209 11.8379C69.7541 11.8379 76.2677 16.5674 76.2677 27.3574V29.623H54.8009C54.9142 34.8623 58.0011 37.9775 62.674 37.9492C65.8459 37.9775 67.9699 36.6182 68.9044 34.7773H75.9845C74.6818 40.1016 69.7541 43.6133 62.6173 43.6133ZM54.8293 24.6953H69.3576C69.3293 20.5039 66.4972 17.4453 62.3341 17.4453C58.0011 17.4453 55.0841 20.7871 54.8293 24.6953Z" fill="#272B2E"/>
<path d="M80.7152 42.9902V12.2344H87.7386V17.332H88.0784C89.1829 13.792 92.1282 11.7812 95.6683 11.7812C96.4613 11.7812 97.5941 11.8662 98.2738 11.9512V18.6348C97.6224 18.4082 96.1214 18.21 94.932 18.1816C90.9105 18.21 87.9652 20.9854 87.9652 24.8652V42.9902H80.7152Z" fill="#272B2E"/>
<path d="M108.668 33.1348C108.668 35.7119 109.745 37.0996 112.577 37.0996H113.596V42.9336C113.058 42.9902 112.633 42.9902 112.124 42.9902C105.327 42.9902 101.447 39.875 101.418 33.1914V1.98242H108.668V33.1348Z" fill="#272B2E"/>
<path d="M117.647 42.9902V12.2344H124.897V42.9902H117.647ZM117.137 3.9082C117.137 1.75586 119.035 0 121.329 0C123.623 0 125.52 1.75586 125.52 3.9082C125.52 6.08887 123.623 7.84473 121.329 7.87305C119.035 7.84473 117.137 6.08887 117.137 3.9082Z" fill="#272B2E"/>
<path d="M137.897 24.9785V42.9902H130.647V12.2344H137.557V17.4453H137.954C139.342 14.0186 142.485 11.8379 147.073 11.8379C153.445 11.8379 157.637 16.0293 157.608 23.3926V42.9902H150.415V24.5254C150.415 20.3906 148.178 17.9268 144.411 17.9551C140.588 17.9268 137.897 20.5039 137.897 24.9785Z" fill="#272B2E"/>
<path d="M205.982 22.4863C206.01 35.7402 197.91 43.5566 187.177 43.5566C176.387 43.5566 168.344 35.7119 168.372 22.4863C168.344 9.23242 176.387 1.41602 187.177 1.41602C197.91 1.41602 206.01 9.23242 205.982 22.4863ZM175.792 22.4863C175.764 31.8604 180.493 36.9297 187.177 36.9297C193.889 36.9297 198.59 31.8604 198.562 22.4863C198.59 13.1123 193.889 8.04297 187.177 8.04297C180.493 8.04297 175.764 13.1123 175.792 22.4863Z" fill="#272B2E"/>
<path d="M233.708 13.2539C233.34 9.71387 230.366 7.6748 225.949 7.70312C221.276 7.6748 218.5 9.94043 218.472 13.0273C218.444 16.4824 222.097 17.8984 225.495 18.6914L229.347 19.7109C235.464 21.127 241.355 24.3555 241.355 31.4922C241.355 38.6855 235.662 43.6133 225.835 43.6133C216.291 43.6133 210.231 39.0254 209.919 30.9258H217.169C217.509 35.2021 221.106 37.2979 225.779 37.3262C230.621 37.2979 233.963 34.9473 233.991 31.4355C233.963 28.207 231.018 26.8477 226.572 25.7148L221.927 24.5254C215.187 22.7695 210.995 19.3711 210.995 13.4805C210.995 6.23047 217.424 1.41602 226.062 1.41602C234.756 1.41602 240.675 6.31543 240.788 13.2539H233.708Z" fill="#272B2E"/>
</svg>
