<svg width="89" height="82" viewBox="0 0 89 82" fill="none" xmlns="http://www.w3.org/2000/svg">
<path d="M51.6617 3.65749C56.5439 -1.21916 64.4561 -1.21916 69.3383 3.65749C74.2206 8.53414 74.2206 16.4659 69.3383 21.3425C64.4561 26.2192 56.5439 26.2192 51.6617 21.3425C46.7794 16.4659 46.7794 8.53414 51.6617 3.65749Z" fill="#070707"/>
<path d="M60.5 81C67.4036 81 73 75.4036 73 68.5C73 61.5964 67.4036 56 60.5 56C53.5964 56 48 61.5964 48 68.5C48 75.4036 53.5964 81 60.5 81Z" fill="#070707"/>
<path d="M76.5 53C83.4036 53 89 47.4036 89 40.5C89 33.5964 83.4036 28 76.5 28C69.5964 28 64 33.5964 64 40.5C64 47.4036 69.5964 53 76.5 53Z" fill="#070707"/>
<path d="M12.5 53C19.4036 53 25 47.4036 25 40.5C25 33.5964 19.4036 28 12.5 28C5.59644 28 0 33.5964 0 40.5C0 47.4036 5.59644 53 12.5 53Z" fill="#070707"/>
<path d="M28.5 56C21.5891 56 16 61.5906 16 68.5C16 75.4094 21.5891 81 28.5 81C35.4109 81 41 75.4094 41 68.5C41 61.5906 35.4109 56 28.5 56Z" fill="#070707"/>
<path d="M28.5 25C35.4036 25 41 19.4036 41 12.5C41 5.59644 35.4036 0 28.5 0C21.5964 0 16 5.59644 16 12.5C16 19.4036 21.5964 25 28.5 25Z" fill="#070707"/>
</svg>
