<svg width="130" height="81" viewBox="0 0 130 81" fill="none" xmlns="http://www.w3.org/2000/svg">
<path d="M27.9736 32.0485H28.8131L34.4136 51H44.5869L50.1869 32.0485H51.0269V51H57V29H45.5671L39.9203 48.1712H39.0807L33.4334 29H22V51H27.9736V32.0485Z" fill="#231F20"/>
<path d="M109 29H103V52H109V29Z" fill="#231F20"/>
<path d="M64.9988 3C30.2328 3 3 19.6922 3 41.0007C3 62.3092 30.2328 79 64.9993 79C99.7658 79 127 62.3092 127 41.0007C127 19.6922 99.7653 3 64.9988 3ZM61.8703 72.443C32.9088 71.4939 9.01033 57.4838 9.01033 41.0007C9.01033 24.5176 32.9088 10.5061 61.8703 9.55697V72.443ZM68.1278 72.443V9.55697C97.0893 10.5066 120.989 24.5162 120.989 41.0007C120.989 57.4853 97.0893 71.4934 68.1278 72.443Z" fill="#231F20"/>
<path d="M80.0987 46.3101V45.8738L97.8968 35.0148V30.4698V30.4316V29H73.5139V30.4316V30.4698V33.6507H90.798V34.0875L73 44.946V48.3536V49.5292V51H98V49.5292V48.3536V46.3101H80.0987Z" fill="#231F20"/>
</svg>
