<svg width="247" height="74" viewBox="0 0 247 74" fill="none" xmlns="http://www.w3.org/2000/svg">
<path d="M0 73.9948V0.0078125H12.6124L32.3109 53.6761V0.0078125H42.5265V73.9948H30.4342L10.3196 19.0788V73.9948H0Z" fill="#010101"/>
<path d="M48 73.9948V0.0078125H83.6436V9.17703H58.9436V31.6841H81.4549V40.7494H58.9436V64.613H84.1684V73.9901H48V73.9948Z" fill="#010101"/>
<path d="M98.7188 73.9948L85.8984 0.0078125H97.0501L105.181 55.3445L114.352 0.0078125H125.504L134.362 55.6564L142.493 0.0078125H153.125L140.201 73.9948H128.321L119.67 18.8661L110.915 73.9948H98.7188Z" fill="#010101"/>
<path d="M155.66 73.9948V0.0078125H176.195C186.411 0.0078125 193.913 6.15686 193.913 19.0788V20.1186C193.913 26.6836 191.205 32.2088 186.827 34.917C192.457 37.6252 195.894 44.0862 195.894 52.0076V53.4681C195.894 66.702 188.496 73.9996 177.864 73.9996H155.665L155.66 73.9948ZM166.396 31.4762H174.423C179.424 31.4762 182.762 27.8274 182.762 20.8465V19.9107C182.762 13.0338 179.949 9.28101 174.319 9.28101H166.396V31.4762ZM166.396 64.7169H176.087C181.192 64.7169 184.738 61.1721 184.738 53.3594V52.0029C184.738 44.6061 181.717 40.7494 176.399 40.7494H166.391V64.7169H166.396Z" fill="#010101"/>
<path d="M200.164 73.9948V0.0078125H235.808V9.17703H211.108V31.6841H233.619V40.7494H211.108V64.613H236.332V73.9901H200.164V73.9948Z" fill="#010101"/>
<path d="M243.482 0C241.539 0 239.965 1.57389 239.965 3.51644C239.965 5.45899 241.539 7.03288 243.482 7.03288C245.425 7.03288 246.999 5.45899 246.999 3.51644C246.999 1.57389 245.425 0 243.482 0ZM243.482 6.3381C241.922 6.3381 240.66 5.07615 240.66 3.51644C240.66 1.95673 241.922 0.694781 243.482 0.694781C245.042 0.694781 246.304 1.95673 246.304 3.51644C246.304 5.07615 245.042 6.3381 243.482 6.3381Z" fill="#010101"/>
<path d="M242.055 5.27686V1.63281H243.605C243.992 1.63281 244.276 1.66589 244.456 1.73206C244.631 1.79823 244.772 1.91167 244.881 2.08182C244.985 2.24724 245.042 2.44103 245.042 2.65372C245.042 2.92785 244.961 3.15471 244.801 3.32959C244.64 3.50919 244.399 3.6179 244.078 3.66516C244.238 3.75969 244.366 3.85894 244.47 3.97238C244.574 4.08108 244.711 4.27959 244.891 4.56318L245.335 5.27214H244.456L243.922 4.4781C243.733 4.19451 243.605 4.01492 243.534 3.94402C243.463 3.8684 243.392 3.82113 243.312 3.79277C243.236 3.76441 243.109 3.75024 242.943 3.75024H242.792V5.27214H242.055V5.27686ZM242.792 3.17362H243.336C243.69 3.17362 243.907 3.15944 243.997 3.13108C244.087 3.10272 244.153 3.05073 244.205 2.97511C244.257 2.89949 244.281 2.80968 244.281 2.70098C244.281 2.57809 244.248 2.47883 244.182 2.40321C244.115 2.32759 244.026 2.28033 243.903 2.26142C243.841 2.25197 243.666 2.24725 243.364 2.24725H242.792V3.17362Z" fill="#010101"/>
</svg>
