<svg width="250" height="71" viewBox="0 0 250 71" fill="none" xmlns="http://www.w3.org/2000/svg">
<g clip-path="url(#clip0_2993_21395)">
<path d="M82 15.7857V2.97143C82 1.65846 82.6658 1 84 1H114C115.332 1 116 1.65846 116 2.97143V15.7857C116 17.1007 115.332 17.7571 114 17.7571H108V68.0286C108 69.3434 107.332 70 106 70H91.9998C90.6659 70 89.9999 69.3434 89.9999 68.0286V17.7571H84C82.6658 17.7571 82 17.1007 82 15.7857Z" fill="black"/>
<path d="M160 69.5071C160 69.8363 159.832 70 159.5 70H144C143.132 70 142.432 69.722 141.9 69.1621C141.366 68.6042 141.066 67.8984 141 67.0429L140 48.3144C139.932 47.79 139.716 47.3287 139.35 46.9342C138.982 46.5399 138.532 46.343 138 46.343H137V68.0286C137 69.3434 136.332 70 135 70H121C119.666 70 119 69.3434 119 68.0286V2.97143C119 1.65846 119.666 1 121 1H140C147 1 151.916 2.42928 154.75 5.28785C157.582 8.14643 159 12.3042 159 17.7571V29.5858C159 32.7399 158.382 35.1058 157.15 36.683C155.916 38.2598 154.232 39.4112 152.1 40.1329C153.766 41.1186 155.132 42.4985 156.2 44.2729C157.266 46.0471 157.866 48.3812 158 51.2715L159 67.0429C159.066 67.5042 159.15 67.8649 159.25 68.1272C159.35 68.3913 159.466 68.5885 159.6 68.7184C159.866 68.9827 160 69.2448 160 69.5071ZM137 17.7571V31.5572H139C139.532 31.5572 140 31.36 140.4 30.9657C140.8 30.5715 141 30.1122 141 29.5858V19.7286C141 19.2042 140.8 18.7429 140.4 18.3486C140 17.9543 139.532 17.7571 139 17.7571H137Z" fill="black"/>
<path d="M171 43.3942V48.324C171 49.6391 170.332 50.2958 169 50.2958C167.668 50.2958 167 49.6391 167 48.324V43.3942C167 41.6868 166.816 40.2572 166.45 39.1055C166.082 37.9562 165.632 37.0035 165.1 36.2465C164.566 35.4911 164 34.8998 163.4 34.4717C162.8 34.0458 162.232 33.7323 161.7 33.5353C160.566 33.0759 160 32.287 160 31.1689V2.97184C160 1.65859 160.666 1 162 1H176C177.332 1 178 1.65859 178 2.97184V31.1689C178 32.287 177.432 33.0759 176.3 33.5353C175.766 33.7323 175.2 34.0458 174.6 34.4717C174 34.8998 173.432 35.4911 172.9 36.2465C172.366 37.0035 171.916 37.9562 171.55 39.1055C171.182 40.2572 171 41.6868 171 43.3942ZM160 62.0283C160 59.4649 160.832 57.3629 162.5 55.7183C164.168 54.0737 166.3 53.2535 168.9 53.2535C171.632 53.2535 173.832 54.0757 175.5 55.7183C177.166 57.3629 178 59.4649 178 62.0283C178 64.7236 177.166 66.8927 175.5 68.5353C173.832 70.1778 171.632 71 168.9 71C166.168 71 164.166 70.1778 162.5 68.5353C160.832 66.8927 160 64.7236 160 62.0283Z" fill="black"/>
<path d="M181.976 70C180.658 70 180 69.3434 180 68.0286V2.97143C180 1.65846 180.658 1 181.976 1H195.81C197.126 1 197.786 1.65846 197.786 2.97143V31.5572H198.477L203.418 2.67571C203.616 1.55988 204.274 1 205.394 1H219.129C219.852 1 220.38 1.21488 220.71 1.64072C221.038 2.06851 221.137 2.64417 221.006 3.36571L214.584 35.5L221.895 67.6344C222.093 68.3577 222.01 68.9333 221.648 69.3594C221.285 69.7871 220.742 70 220.018 70H206.283C205.228 70 204.604 69.4756 204.406 68.4228L198.576 39.4428H197.786V68.0286C197.786 69.3434 197.126 70 195.81 70H181.976Z" fill="black"/>
<path d="M60 18.7361V31.5556C60 32.869 59.334 33.5278 58.0001 33.5278H44C42.6681 33.5278 42 32.869 42 31.5556V19.7222C42 17.0262 42.3841 14.4781 43.1499 12.0799C43.9181 9.67966 45.1179 7.59305 46.7499 5.81805C48.384 4.04305 50.45 2.62897 52.95 1.57778C55.4499 0.526583 58.466 0 62 0C65.534 0 68.4682 0.526583 71.0002 1.57778C73.5341 2.62897 75.618 4.04305 77.2501 5.81805C78.8841 7.59305 80.0839 9.67966 80.8501 12.0799C81.6179 14.4781 82 17.0262 82 19.7222V51.2778C82 53.9719 81.6179 56.5199 80.8501 58.92C80.0839 61.3185 78.8841 63.4069 77.2501 65.1818C75.618 66.9569 73.5341 68.369 71.0002 69.4222C68.4682 70.4734 65.4679 71 62 71C58.5321 71 55.4499 70.4734 52.95 69.4222C50.45 68.369 48.384 66.9569 46.7499 65.1818C45.1179 63.4069 43.9181 61.3185 43.1499 58.92C42.3841 56.5199 42 53.9719 42 51.2778V39.4444C42 38.129 42.6681 37.4722 44 37.4722H58.0001C59.334 37.4722 60 38.129 60 39.4444V52.2639C60 52.7885 60.2001 53.25 60.6001 53.6444C61 54.0388 61.468 54.2361 62 54.2361C62.532 54.2361 63 54.0388 63.3999 53.6444C63.8001 53.25 64 52.7885 64 52.2639V18.7361C64 18.2095 63.8001 17.75 63.3999 17.3556C63 16.9611 62.534 16.7639 62 16.7639C61.466 16.7639 61 16.9611 60.6001 17.3556C60.2001 17.75 60 18.2095 60 18.7361Z" fill="black"/>
<path d="M2 70C0.666002 70 0 69.3434 0 68.0286V2.97143C0 1.65648 0.666002 1 2 1H21C24.532 1 27.5 1.52637 29.9001 2.57714C32.3 3.62987 34.2501 5.04143 35.7501 6.81571C37.25 8.59 38.3322 10.6777 39 13.075C39.6661 15.4742 40 18.0213 40 20.7143V37.4714C40 40.1664 39.6661 42.7134 39 45.1106C38.3322 47.51 37.25 49.5957 35.7501 51.3701C34.2501 53.1442 32.3 54.5577 29.9001 55.6085C27.5 56.6612 24.532 57.1856 21 57.1856H18V68.0286C18 69.3434 17.332 70 16 70H2ZM18 17.7571V40.4285H20C20.532 40.4285 21 40.2315 21.4 39.837C21.8 39.4428 22 38.9835 22 38.4571V19.7286C22 19.2042 21.8 18.7429 21.4 18.3486C21 17.9543 20.532 17.7571 20 17.7571H18Z" fill="black"/>
<path d="M245.504 13.2313C245.504 8.45125 241.697 4.57625 237.001 4.57625H236.999C232.303 4.57625 228.496 8.45125 228.496 13.2313V23.7686C228.496 28.5486 232.303 32.4238 236.999 32.4238H237.001C241.697 32.4238 245.504 28.5486 245.504 23.7686V13.2313ZM250 23.7686C250 31.0761 244.18 37 237.001 37H236.999C229.82 37 224 31.0761 224 23.7686V13.2313C224 5.92387 229.82 0 236.999 0H237.001C244.18 0 250 5.92387 250 13.2313V23.7686Z" fill="black"/>
<path d="M237.501 22.5138V19.4438C237.501 19.1295 237.668 18.9724 238 18.9724H241.501C241.834 18.9724 242 19.1295 242 19.4438V22.2781C242 22.9243 241.904 23.5332 241.713 24.1087C241.521 24.6842 241.222 25.1831 240.812 25.6074C240.405 26.0317 239.887 26.3715 239.263 26.6229C238.637 26.8743 237.884 27 237 27C236.116 27 235.384 26.8743 234.749 26.6229C234.115 26.3715 233.595 26.0336 233.187 25.6074C232.78 25.1831 232.478 24.6823 232.287 24.1087C232.096 23.5352 232 22.9243 232 22.2781V14.7219C232 14.0757 232.096 13.4668 232.287 12.8913C232.478 12.3177 232.778 11.8169 233.187 11.3926C233.595 10.9683 234.117 10.6285 234.749 10.3771C235.382 10.1257 236.133 10 237 10C237.867 10 238.637 10.1257 239.263 10.3771C239.889 10.6285 240.405 10.9683 240.812 11.3926C241.22 11.8169 241.521 12.3177 241.713 12.8913C241.904 13.4668 242 14.0757 242 14.7219V17.5543C242 17.8685 241.834 18.0256 241.501 18.0256H238C237.668 18.0256 237.501 17.8685 237.501 17.5543V14.4842C237.501 14.3585 237.451 14.2485 237.351 14.1542C237.251 14.06 237.135 14.0128 237.002 14.0128C236.869 14.0128 236.752 14.06 236.653 14.1542C236.553 14.2485 236.503 14.3585 236.503 14.4842V22.5118C236.503 22.6375 236.553 22.7475 236.653 22.8418C236.752 22.9361 236.869 22.9833 237.002 22.9833C237.135 22.9833 237.251 22.9361 237.351 22.8418C237.451 22.7475 237.501 22.6375 237.501 22.5118V22.5138Z" fill="black"/>
</g>
<defs>
<clipPath id="clip0_2993_21395">
<rect width="250" height="71" fill="white"/>
</clipPath>
</defs>
</svg>
