<svg width="126" height="107" viewBox="0 0 126 107" fill="none" xmlns="http://www.w3.org/2000/svg">
<g clip-path="url(#clip0_2993_21385)">
<path d="M115.813 100.612H119.187C119.462 100.612 119.685 100.387 119.685 100.109V37.7675H126V106.497C126 106.775 125.778 107 125.503 107H109V0H115.315V100.109C115.315 100.387 115.538 100.612 115.813 100.612Z" fill="black"/>
<path d="M22 -7.62939e-06L22 107H28L28 -7.62939e-06H22Z" fill="black"/>
<path d="M93.8127 100.615H97.1873C97.4624 100.615 97.6845 100.39 97.6845 100.111V0H104V106.497C104 106.775 103.778 107 103.503 107H87V0H93.3155V100.106C93.3155 100.384 93.5377 100.609 93.8127 100.609V100.615Z" fill="black"/>
<path d="M55 0H82.4972C82.7754 0 83 0.224801 83 0.503126V107H76.6138V6.8939C76.6138 6.61558 76.3891 6.39078 76.111 6.39078H72.6986C72.4204 6.39078 72.1958 6.61558 72.1958 6.8939V107H65.8095V6.8939C65.8095 6.61558 65.5849 6.39078 65.3068 6.39078H61.8944C61.6162 6.39078 61.3916 6.61558 61.3916 6.8939V107H55.0053V0H55Z" fill="black"/>
<path d="M39.8127 100.612H43.1873C43.4623 100.612 43.6845 100.387 43.6845 100.109V37.7675H50V106.497C50 106.775 49.7778 107 49.5028 107H33V0H39.3155V100.109C39.3155 100.387 39.5376 100.612 39.8127 100.612Z" fill="black"/>
<path d="M0.4972 0H17V27.2529H10.6845V6.955C10.6845 6.6768 10.4624 6.4521 10.1873 6.4521H6.81269C6.53765 6.4521 6.31549 6.6768 6.31549 6.955V31.1745C6.31549 31.4527 6.53765 31.6774 6.81269 31.6774H16.5028C16.7778 31.6774 17 31.9021 17 32.1803V106.497C17 106.775 16.7778 107 16.5028 107H0V42.4844H6.31549V100.104C6.31549 100.382 6.53765 100.607 6.81269 100.607H10.1873C10.4624 100.607 10.6845 100.382 10.6845 100.104V38.5628C10.6845 38.2846 10.4624 38.0599 10.1873 38.0599H0.4972C0.222153 38.0599 0 37.8352 0 37.557V0.50825C0 0.23005 0.222153 0 0.4972 0Z" fill="black"/>
</g>
<defs>
<clipPath id="clip0_2993_21385">
<rect width="126" height="107" fill="white"/>
</clipPath>
</defs>
</svg>
