<svg width="39" height="50" viewBox="0 0 39 50" fill="none" xmlns="http://www.w3.org/2000/svg">
<g clip-path="url(#clip0_2188_9526)">
<path d="M28.2086 36.412C28.7094 36.2967 29.1438 35.9871 29.4163 35.5515C29.6888 35.1158 29.7771 34.5898 29.6618 34.089L24.4429 11.4323C24.3276 10.9316 24.018 10.4972 23.5824 10.2247C23.1468 9.95214 22.6207 9.86384 22.12 9.97919L10.7916 12.5886C10.2909 12.704 9.85646 13.0135 9.58394 13.4491C9.31142 13.8848 9.22312 14.4108 9.33846 14.9116L14.5573 37.5683C14.6727 38.069 14.9822 38.5034 15.4178 38.776C15.8535 39.0485 16.3795 39.1368 16.8803 39.0214L28.2086 36.412ZM17.3152 40.9095C16.3137 41.1402 15.2616 40.9636 14.3903 40.4185C13.519 39.8735 12.8999 39.0047 12.6693 38.0032L7.4504 15.3465C7.21971 14.345 7.39631 13.2929 7.94135 12.4216C8.48639 11.5503 9.35522 10.9312 10.3567 10.7006L21.6851 8.09113C22.6865 7.86044 23.7387 8.03704 24.6099 8.58208C25.4812 9.12712 26.1003 9.99595 26.331 10.9974L31.5498 33.6541C31.7805 34.6556 31.6039 35.7077 31.0589 36.579C30.5138 37.4503 29.645 38.0694 28.6435 38.3001L17.3152 40.9095Z" fill="white"/>
<path d="M17.0146 13.7121C17.358 13.633 17.7187 13.6935 18.0174 13.8804C18.3162 14.0672 18.5284 14.3651 18.6075 14.7085C18.6866 15.0519 18.6261 15.4126 18.4392 15.7113C18.2523 16.01 17.9544 16.2223 17.6111 16.3014C17.2677 16.3805 16.907 16.3199 16.6083 16.1331C16.3095 15.9462 16.0973 15.6483 16.0182 15.3049C15.9391 14.9616 15.9996 14.6008 16.1865 14.3021C16.3734 14.0034 16.6713 13.7911 17.0146 13.7121Z" fill="white"/>
</g>
<g opacity="0.4">
<path d="M9.79446 46.3861C9.68607 46.3344 9.56884 46.3047 9.44954 46.2987C7.92964 46.2123 6.49523 45.5361 5.44729 44.4118C4.39936 43.2876 3.81934 41.8027 3.82896 40.2689C3.8324 40.1475 3.81176 40.0263 3.76824 39.9125C3.72473 39.7987 3.65921 39.6945 3.57553 39.6061C3.49186 39.5177 3.39171 39.4468 3.28096 39.3976C3.17021 39.3484 3.05109 39.3219 2.93058 39.3196C2.81007 39.3173 2.6906 39.3393 2.57918 39.3843C2.46775 39.4293 2.36661 39.4964 2.28169 39.5816C2.19677 39.6668 2.12977 39.7685 2.08463 39.8806C2.03949 39.9928 2.01711 40.1131 2.01881 40.2347C2.0058 42.2407 2.76404 44.1827 4.13438 45.6532C5.50471 47.1238 7.38061 48.0084 9.36838 48.1215C9.48761 48.1291 9.60688 48.1128 9.71933 48.0736C9.83177 48.0345 9.93516 47.9732 10.0235 47.8933C10.1119 47.8134 10.1836 47.7164 10.2343 47.6081C10.2851 47.4997 10.314 47.382 10.3194 47.2618C10.3247 47.1417 10.3064 47.0213 10.2655 46.9077C10.2246 46.7942 10.162 46.6896 10.0811 46.6001C10.0003 46.5106 9.90286 46.4379 9.79446 46.3861Z" fill="white"/>
<path d="M9.95677 42.7406C9.84838 42.6889 9.73116 42.6592 9.61185 42.6532C9.04553 42.6211 8.50935 42.376 8.10934 41.9663C7.70933 41.5567 7.47462 41.0124 7.45163 40.441C7.44231 40.1989 7.33804 39.9694 7.16176 39.8029C6.98547 39.6364 6.75162 39.5466 6.51164 39.5532C6.27165 39.5598 6.0452 39.6623 5.8821 39.8382C5.719 40.014 5.63261 40.2488 5.64193 40.4909C5.68256 41.5199 6.10476 42.5005 6.82493 43.2385C7.5451 43.9766 8.51075 44.4182 9.53069 44.476C9.64993 44.4835 9.7692 44.4673 9.88164 44.4281C9.99408 44.3889 10.0975 44.3276 10.1859 44.2477C10.2743 44.1678 10.3459 44.0709 10.3967 43.9626C10.4474 43.8542 10.4763 43.7365 10.4817 43.6163C10.487 43.4961 10.4687 43.3758 10.4278 43.2622C10.387 43.1486 10.3243 43.0441 10.2434 42.9546C10.1626 42.865 10.0652 42.7923 9.95677 42.7406Z" fill="white"/>
</g>
<g opacity="0.4">
<path d="M29.449 3.61264C29.5577 3.66384 29.675 3.69298 29.7944 3.69838C31.3147 3.77741 32.7523 4.44671 33.8057 5.56587C34.8591 6.68502 35.4463 8.16702 35.4441 9.7009C35.4413 9.82234 35.4625 9.9434 35.5066 10.057C35.5506 10.1706 35.6167 10.2745 35.7008 10.3625C35.7849 10.4505 35.8854 10.5209 35.9963 10.5695C36.1073 10.6182 36.2266 10.6441 36.3471 10.6458C36.4676 10.6475 36.587 10.6249 36.6982 10.5794C36.8094 10.5338 36.9102 10.4663 36.9947 10.3806C37.0792 10.295 37.1457 10.193 37.1903 10.0807C37.2349 9.96831 37.2567 9.84785 37.2544 9.72634C37.2577 7.72028 36.4901 5.78192 35.1126 4.31808C33.7351 2.85423 31.855 1.9787 29.8667 1.87525C29.7474 1.86825 29.6282 1.88509 29.516 1.9248C29.4037 1.96452 29.3006 2.02632 29.2126 2.10664C29.1246 2.18697 29.0535 2.28423 29.0032 2.39284C28.953 2.50145 28.9247 2.61926 28.9199 2.73948C28.9151 2.8597 28.934 2.97996 28.9754 3.09333C29.0169 3.20671 29.08 3.31096 29.1613 3.40009C29.2426 3.48921 29.3404 3.56145 29.449 3.61264Z" fill="white"/>
<path d="M29.3044 7.25891C29.413 7.3101 29.5304 7.33924 29.6497 7.34464C30.2162 7.37402 30.7536 7.61653 31.1556 8.02423C31.5576 8.43192 31.7949 8.97511 31.8207 9.54635C31.8312 9.78838 31.9365 10.0174 32.1136 10.183C32.2907 10.3487 32.525 10.4374 32.7649 10.4296C33.0049 10.4218 33.2308 10.3182 33.3931 10.1416C33.5553 9.96492 33.6406 9.72972 33.6301 9.4877C33.5845 8.45885 33.1575 7.48031 32.4338 6.74579C31.71 6.01128 30.7423 5.57435 29.7221 5.52151C29.6028 5.51451 29.4836 5.53135 29.3713 5.57107C29.2591 5.61078 29.156 5.67258 29.068 5.7529C28.98 5.83323 28.9088 5.9305 28.8586 6.03911C28.8083 6.14772 28.78 6.26552 28.7753 6.38574C28.7705 6.50596 28.7894 6.62622 28.8308 6.7396C28.8722 6.85297 28.9354 6.95722 29.0167 7.04635C29.098 7.13547 29.1957 7.20771 29.3044 7.25891Z" fill="white"/>
</g>
<defs>
<clipPath id="clip0_2188_9526">
<rect width="31" height="31" fill="white" transform="translate(0.917969 12.875) rotate(-12.9715)"/>
</clipPath>
</defs>
</svg>
