<svg width="1089" height="6510" viewBox="0 0 1089 6510" fill="none" xmlns="http://www.w3.org/2000/svg">
<g clip-path="url(#clip0_3980_27745)">
<mask id="mask0_3980_27745" style="mask-type:luminance" maskUnits="userSpaceOnUse" x="837" y="1452" width="230" height="174">
<path d="M1066.5 1452H837V1626H1066.5V1452Z" fill="white"/>
</mask>
<g mask="url(#mask0_3980_27745)">
<path d="M1066.5 1621.5C1066.5 1623.99 1064.49 1626 1062 1626H841.5C839.015 1626 837 1623.99 837 1621.5V1456.5C837 1454.01 839.015 1452 841.5 1452H1062C1064.49 1452 1066.5 1454.01 1066.5 1456.5V1621.5Z" fill="#FFF67F"/>
<path opacity="0.5" d="M1053 1624.5H838.5V1465.5H1053V1624.5Z" fill="#E1F391"/>
<path opacity="0.5" d="M1039.5 1623H840V1479H1039.5V1623Z" fill="#C4F0A2"/>
<path opacity="0.5" d="M1024.5 1621.5H840V1494H1024.5V1621.5Z" fill="#A6EDB3"/>
<path opacity="0.5" d="M1011 1620H841.5V1507.5H1011V1620Z" fill="#88EAC5"/>
<path opacity="0.5" d="M996 1618.5H843V1521H996V1618.5Z" fill="#6BE7D6"/>
<path opacity="0.5" d="M982.5 1617H844.5V1534.5H982.5V1617Z" fill="#4DE4E8"/>
</g>
<mask id="mask1_3980_27745" style="mask-type:luminance" maskUnits="userSpaceOnUse" x="439" y="730" width="202" height="152">
<path d="M640.5 730.5H439.5V882H640.5V730.5Z" fill="white"/>
</mask>
<g mask="url(#mask1_3980_27745)">
<path d="M439.5 735C439.5 732.515 441.515 730.5 444 730.5H636C638.485 730.5 640.5 732.515 640.5 735V877.5C640.5 879.985 638.485 882 636 882H444C441.515 882 439.5 879.985 439.5 877.5V735Z" fill="#FFF67F"/>
<path opacity="0.5" d="M451.594 732H638.992V870H451.594V732Z" fill="#E1F391"/>
<path opacity="0.5" d="M465.188 733.5H638.984V858H465.188V733.5Z" fill="#C4F0A2"/>
<path opacity="0.5" d="M475.766 735H637.472V846H475.766V735Z" fill="#A6EDB3"/>
<path opacity="0.5" d="M487.859 736.5H635.965V835.5H487.859V736.5Z" fill="#88EAC5"/>
<path opacity="0.5" d="M499.945 736.5H634.45V822H499.945V736.5Z" fill="#6BE7D6"/>
<path opacity="0.5" d="M513.547 738H634.45V810H513.547V738Z" fill="#4DE4E8"/>
</g>
<mask id="mask2_3980_27745" style="mask-type:luminance" maskUnits="userSpaceOnUse" x="-24" y="0" width="263" height="167">
<path d="M233.25 0H-18.75C-21.6495 0 -24 2.3505 -24 5.25V161.25C-24 164.149 -21.6495 166.5 -18.75 166.5H233.25C236.15 166.5 238.5 164.149 238.5 161.25V5.25C238.5 2.35051 236.15 0 233.25 0Z" fill="white"/>
</mask>
<g mask="url(#mask2_3980_27745)">
<path d="M239.25 2.25H-23.25V168.75H239.25V2.25Z" fill="#FF682E"/>
<mask id="mask3_3980_27745" style="mask-type:luminance" maskUnits="userSpaceOnUse" x="-3" y="-12" width="243" height="184">
<path d="M-2.25 -12H230.846C235.487 -12 239.25 -8.23725 239.25 -3.5955V163.346C239.25 167.987 235.487 171.75 230.846 171.75H-2.25V-12Z" fill="white"/>
</mask>
<g mask="url(#mask3_3980_27745)">
<path d="M239.253 -57.6504H-54.9141V174.589H239.253V-57.6504Z" fill="#FF682E"/>
<path d="M219.377 -57.6504H-54.9141V152.755H219.377V-57.6504Z" fill="#FF7646"/>
<path d="M199.501 -57.6504H-54.9141V132.905H199.501V-57.6504Z" fill="#FF845D"/>
<path d="M181.612 -57.6504H-54.9141V113.056H181.612V-57.6504Z" fill="#FF9275"/>
<path d="M159.749 -57.6504H-54.9141V91.2209H159.749V-57.6504Z" fill="#FF9F8C"/>
<path d="M141.86 -57.6504H-54.9141V71.3714H141.86V-57.6504Z" fill="#FFADA3"/>
<path d="M121.984 -57.6504H-54.9141V53.5071H121.984V-57.6504Z" fill="#FFBBBB"/>
<path d="M239.258 -12H-35.5781V174.586H239.258V-12Z" fill="#4DE3E8"/>
<path d="M229.165 -7.79297H-21.2969V168.707H229.165V-7.79297Z" fill="#4CD8EC"/>
<path d="M219.085 -4.43555H-13.7266V163.66H219.085V-4.43555Z" fill="#4ACBEE"/>
<path d="M209.835 3.97266H-7.00781V156.94H209.835V3.97266Z" fill="#47BFF1"/>
<path d="M199.755 11.5371H-3.64062V151.056H199.755V11.5371Z" fill="#46B3F5"/>
<path d="M189.657 19.1016H1.39062V144.333H189.657V19.1016Z" fill="#43A7F9"/>
<path d="M181.264 27.5098H6.44531V137.612H181.264V27.5098Z" fill="#4399FC"/>
<path d="M168.655 40.1133H9.80469V133.406H168.655V40.1133Z" fill="#428EFE"/>
</g>
</g>
<mask id="mask4_3980_27745" style="mask-type:luminance" maskUnits="userSpaceOnUse" x="837" y="3099" width="230" height="175">
<path d="M1066.5 3099.75H837V3273.75H1066.5V3099.75Z" fill="white"/>
</mask>
<g mask="url(#mask4_3980_27745)">
<path d="M1066.5 3269.25C1066.5 3271.74 1064.49 3273.75 1062 3273.75H841.5C839.015 3273.75 837 3271.74 837 3269.25V3104.25C837 3101.76 839.015 3099.75 841.5 3099.75H1062C1064.49 3099.75 1066.5 3101.76 1066.5 3104.25V3269.25Z" fill="#FFF67F"/>
<path opacity="0.5" d="M1053 3272.25H838.5V3113.25H1053V3272.25Z" fill="#E1F391"/>
<path opacity="0.5" d="M1039.5 3270.75H840V3126.75H1039.5V3270.75Z" fill="#C4F0A2"/>
<path opacity="0.5" d="M1024.5 3269.25H840V3141.75H1024.5V3269.25Z" fill="#A6EDB3"/>
<path opacity="0.5" d="M1011 3267.75H841.5V3155.25H1011V3267.75Z" fill="#88EAC5"/>
<path opacity="0.5" d="M996 3266.25H843V3168.75H996V3266.25Z" fill="#6BE7D6"/>
<path opacity="0.5" d="M982.5 3264.75H844.5V3182.25H982.5V3264.75Z" fill="#4DE4E8"/>
</g>
<mask id="mask5_3980_27745" style="mask-type:luminance" maskUnits="userSpaceOnUse" x="440" y="2378" width="202" height="152">
<path d="M641.25 2378.25H440.25V2529.75H641.25V2378.25Z" fill="white"/>
</mask>
<g mask="url(#mask5_3980_27745)">
<path d="M440.25 2382.75C440.25 2380.26 442.265 2378.25 444.75 2378.25H636.75C639.235 2378.25 641.25 2380.26 641.25 2382.75V2525.25C641.25 2527.74 639.235 2529.75 636.75 2529.75H444.75C442.265 2529.75 440.25 2527.74 440.25 2525.25V2382.75Z" fill="#FFF67F"/>
<path opacity="0.5" d="M452.344 2379.75H639.742V2517.75H452.344V2379.75Z" fill="#E1F391"/>
<path opacity="0.5" d="M465.938 2381.25H639.734V2505.75H465.938V2381.25Z" fill="#C4F0A2"/>
<path opacity="0.5" d="M476.516 2382.75H638.222V2493.75H476.516V2382.75Z" fill="#A6EDB3"/>
<path opacity="0.5" d="M488.609 2384.25H636.715V2483.25H488.609V2384.25Z" fill="#88EAC5"/>
<path opacity="0.5" d="M500.695 2384.25H635.2V2469.75H500.695V2384.25Z" fill="#6BE7D6"/>
<path opacity="0.5" d="M514.297 2385.75H635.2V2457.75H514.297V2385.75Z" fill="#4DE4E8"/>
</g>
<mask id="mask6_3980_27745" style="mask-type:luminance" maskUnits="userSpaceOnUse" x="-143" y="2461" width="368" height="280">
<path d="M219 2461.5H-136.5C-139.814 2461.5 -142.5 2464.19 -142.5 2467.5V2734.5C-142.5 2737.81 -139.814 2740.5 -136.5 2740.5H219C222.314 2740.5 225 2737.81 225 2734.5V2467.5C225 2464.19 222.314 2461.5 219 2461.5Z" fill="white"/>
</mask>
<g mask="url(#mask6_3980_27745)">
</g>
<path d="M975.613 51H742.5C739.601 51 737.25 53.3505 737.25 56.25V321.176C737.25 324.076 739.601 326.426 742.5 326.426H975.613C978.512 326.426 980.863 324.076 980.863 321.176V56.25C980.863 53.3505 978.512 51 975.613 51Z" fill="#FFF790"/>
<path opacity="0.971" d="M969.094 51H742.5C739.601 51 737.25 53.3505 737.25 56.25V304.891H969.094V51Z" fill="#FFE196"/>
<path opacity="0.943" d="M957.325 51H742.5C739.601 51 737.25 53.3505 737.25 56.25V283.356H957.325V51Z" fill="#FFCC9C"/>
<path opacity="0.914" d="M945.557 51H742.5C739.601 51 737.25 53.3505 737.25 56.25V261.82H945.557V51Z" fill="#FFB6A2"/>
<path opacity="0.886" d="M933.789 51H742.5C739.601 51 737.25 53.3505 737.25 56.25V240.285H933.789V51Z" fill="#FFA1A7"/>
<path opacity="0.857" d="M922.02 51H742.5C739.601 51 737.25 53.3505 737.25 56.25V218.75H922.02V51Z" fill="#FF8BAD"/>
<path opacity="0.829" d="M910.252 51H742.5C739.601 51 737.25 53.3505 737.25 56.25V197.215H910.252V51Z" fill="#FF76B3"/>
<path opacity="0.8" d="M898.483 51H742.5C739.601 51 737.25 53.3505 737.25 56.25V175.679H898.483V51Z" fill="#FF60B9"/>
<path d="M975.613 1701.75H742.5C739.601 1701.75 737.25 1704.1 737.25 1707V1971.93C737.25 1974.83 739.601 1977.18 742.5 1977.18H975.613C978.512 1977.18 980.863 1974.83 980.863 1971.93V1707C980.863 1704.1 978.512 1701.75 975.613 1701.75Z" fill="#FFF790"/>
<path opacity="0.971" d="M969.094 1701.75H742.5C739.601 1701.75 737.25 1704.1 737.25 1707V1955.64H969.094V1701.75Z" fill="#FFE196"/>
<path opacity="0.943" d="M957.325 1701.75H742.5C739.601 1701.75 737.25 1704.1 737.25 1707V1934.11H957.325V1701.75Z" fill="#FFCC9C"/>
<path opacity="0.914" d="M945.557 1701.75H742.5C739.601 1701.75 737.25 1704.1 737.25 1707V1912.57H945.557V1701.75Z" fill="#FFB6A2"/>
<path opacity="0.886" d="M933.789 1701.75H742.5C739.601 1701.75 737.25 1704.1 737.25 1707V1891.04H933.789V1701.75Z" fill="#FFA1A7"/>
<path opacity="0.857" d="M922.02 1701.75H742.5C739.601 1701.75 737.25 1704.1 737.25 1707V1869.5H922.02V1701.75Z" fill="#FF8BAD"/>
<path opacity="0.829" d="M910.252 1701.75H742.5C739.601 1701.75 737.25 1704.1 737.25 1707V1847.96H910.252V1701.75Z" fill="#FF76B3"/>
<path opacity="0.8" d="M898.483 1701.75H742.5C739.601 1701.75 737.25 1704.1 737.25 1707V1826.43H898.483V1701.75Z" fill="#FF60B9"/>
<path d="M556.5 889.5H343.5C341.015 889.5 339 891.515 339 894V1036.5C339 1038.99 341.015 1041 343.5 1041H556.5C558.985 1041 561 1038.99 561 1036.5V894C561 891.515 558.985 889.5 556.5 889.5Z" fill="#FE785C"/>
<path d="M549.229 891.24H340.102V1032.13H549.229V891.24Z" fill="#FE8273"/>
<path d="M537.449 892.98H341.195V1023.25H537.449V892.98Z" fill="#FE8D8A"/>
<path d="M525.677 894.721H342.297V1014.38H525.677V894.721Z" fill="#FE97A1"/>
<path d="M513.898 896.461H343.391V1005.51H513.898V896.461Z" fill="#FDA2B7"/>
<path d="M502.134 898.207H344.5V996.638H502.134V898.207Z" fill="#FDACCE"/>
<path d="M490.355 899.947H345.594V987.764H490.355V899.947Z" fill="#FDB7E5"/>
<path d="M478.591 901.688H346.703V978.89H478.591V901.688Z" fill="#FDC1FC"/>
<path d="M556.5 2537.25H343.5C341.015 2537.25 339 2539.26 339 2541.75V2684.25C339 2686.74 341.015 2688.75 343.5 2688.75H556.5C558.985 2688.75 561 2686.74 561 2684.25V2541.75C561 2539.26 558.985 2537.25 556.5 2537.25Z" fill="#FE785C"/>
<path d="M549.229 2538.99H340.102V2679.88H549.229V2538.99Z" fill="#FE8273"/>
<path d="M537.449 2540.73H341.195V2671H537.449V2540.73Z" fill="#FE8D8A"/>
<path d="M525.677 2542.47H342.297V2662.13H525.677V2542.47Z" fill="#FE97A1"/>
<path d="M513.898 2544.21H343.391V2653.26H513.898V2544.21Z" fill="#FDA2B7"/>
<path d="M502.134 2545.96H344.5V2644.39H502.134V2545.96Z" fill="#FDACCE"/>
<path d="M490.355 2547.7H345.594V2635.51H490.355V2547.7Z" fill="#FDB7E5"/>
<path d="M478.591 2549.44H346.703V2626.64H478.591V2549.44Z" fill="#FDC1FC"/>
</g>
<g clip-path="url(#clip1_3980_27745)">
<mask id="mask7_3980_27745" style="mask-type:luminance" maskUnits="userSpaceOnUse" x="837" y="4688" width="230" height="174">
<path d="M1066.5 4688H837V4862H1066.5V4688Z" fill="white"/>
</mask>
<g mask="url(#mask7_3980_27745)">
<path d="M1066.5 4857.5C1066.5 4859.99 1064.49 4862 1062 4862H841.5C839.015 4862 837 4859.99 837 4857.5V4692.5C837 4690.01 839.015 4688 841.5 4688H1062C1064.49 4688 1066.5 4690.01 1066.5 4692.5V4857.5Z" fill="#FFF67F"/>
<path opacity="0.5" d="M1053 4860.5H838.5V4701.5H1053V4860.5Z" fill="#E1F391"/>
<path opacity="0.5" d="M1039.5 4859H840V4715H1039.5V4859Z" fill="#C4F0A2"/>
<path opacity="0.5" d="M1024.5 4857.5H840V4730H1024.5V4857.5Z" fill="#A6EDB3"/>
<path opacity="0.5" d="M1011 4856H841.5V4743.5H1011V4856Z" fill="#88EAC5"/>
<path opacity="0.5" d="M996 4854.5H843V4757H996V4854.5Z" fill="#6BE7D6"/>
<path opacity="0.5" d="M982.5 4853H844.5V4770.5H982.5V4853Z" fill="#4DE4E8"/>
</g>
<mask id="mask8_3980_27745" style="mask-type:luminance" maskUnits="userSpaceOnUse" x="439" y="3966" width="202" height="152">
<path d="M640.5 3966.5H439.5V4118H640.5V3966.5Z" fill="white"/>
</mask>
<g mask="url(#mask8_3980_27745)">
<path d="M439.5 3971C439.5 3968.51 441.515 3966.5 444 3966.5H636C638.485 3966.5 640.5 3968.51 640.5 3971V4113.5C640.5 4115.99 638.485 4118 636 4118H444C441.515 4118 439.5 4115.99 439.5 4113.5V3971Z" fill="#FFF67F"/>
<path opacity="0.5" d="M451.594 3968H638.992V4106H451.594V3968Z" fill="#E1F391"/>
<path opacity="0.5" d="M465.188 3969.5H638.984V4094H465.188V3969.5Z" fill="#C4F0A2"/>
<path opacity="0.5" d="M475.766 3971H637.472V4082H475.766V3971Z" fill="#A6EDB3"/>
<path opacity="0.5" d="M487.859 3972.5H635.965V4071.5H487.859V3972.5Z" fill="#88EAC5"/>
<path opacity="0.5" d="M499.945 3972.5H634.45V4058H499.945V3972.5Z" fill="#6BE7D6"/>
<path opacity="0.5" d="M513.547 3974H634.45V4046H513.547V3974Z" fill="#4DE4E8"/>
</g>
<mask id="mask9_3980_27745" style="mask-type:luminance" maskUnits="userSpaceOnUse" x="-24" y="3236" width="263" height="167">
<path d="M233.25 3236H-18.75C-21.6495 3236 -24 3238.35 -24 3241.25V3397.25C-24 3400.15 -21.6495 3402.5 -18.75 3402.5H233.25C236.15 3402.5 238.5 3400.15 238.5 3397.25V3241.25C238.5 3238.35 236.15 3236 233.25 3236Z" fill="white"/>
</mask>
<g mask="url(#mask9_3980_27745)">
<path d="M239.25 3238.25H-23.25V3404.75H239.25V3238.25Z" fill="#FF682E"/>
<mask id="mask10_3980_27745" style="mask-type:luminance" maskUnits="userSpaceOnUse" x="-3" y="3224" width="243" height="184">
<path d="M-2.25 3224H230.846C235.487 3224 239.25 3227.76 239.25 3232.4V3399.35C239.25 3403.99 235.487 3407.75 230.846 3407.75H-2.25V3224Z" fill="white"/>
</mask>
<g mask="url(#mask10_3980_27745)">
<path d="M239.253 3178.35H-54.9141V3410.59H239.253V3178.35Z" fill="#FF682E"/>
<path d="M219.377 3178.35H-54.9141V3388.75H219.377V3178.35Z" fill="#FF7646"/>
<path d="M199.501 3178.35H-54.9141V3368.91H199.501V3178.35Z" fill="#FF845D"/>
<path d="M181.612 3178.35H-54.9141V3349.06H181.612V3178.35Z" fill="#FF9275"/>
<path d="M159.749 3178.35H-54.9141V3327.22H159.749V3178.35Z" fill="#FF9F8C"/>
<path d="M141.86 3178.35H-54.9141V3307.37H141.86V3178.35Z" fill="#FFADA3"/>
<path d="M121.984 3178.35H-54.9141V3289.51H121.984V3178.35Z" fill="#FFBBBB"/>
<path d="M239.258 3224H-35.5781V3410.59H239.258V3224Z" fill="#4DE3E8"/>
<path d="M229.165 3228.21H-21.2969V3404.71H229.165V3228.21Z" fill="#4CD8EC"/>
<path d="M219.085 3231.56H-13.7266V3399.66H219.085V3231.56Z" fill="#4ACBEE"/>
<path d="M209.835 3239.97H-7.00781V3392.94H209.835V3239.97Z" fill="#47BFF1"/>
<path d="M199.755 3247.54H-3.64062V3387.06H199.755V3247.54Z" fill="#46B3F5"/>
<path d="M189.657 3255.1H1.39062V3380.33H189.657V3255.1Z" fill="#43A7F9"/>
<path d="M181.264 3263.51H6.44531V3373.61H181.264V3263.51Z" fill="#4399FC"/>
<path d="M168.655 3276.11H9.80469V3369.41H168.655V3276.11Z" fill="#428EFE"/>
</g>
</g>
<mask id="mask11_3980_27745" style="mask-type:luminance" maskUnits="userSpaceOnUse" x="837" y="6335" width="230" height="175">
<path d="M1066.5 6335.75H837V6509.75H1066.5V6335.75Z" fill="white"/>
</mask>
<g mask="url(#mask11_3980_27745)">
<path d="M1066.5 6505.25C1066.5 6507.74 1064.49 6509.75 1062 6509.75H841.5C839.015 6509.75 837 6507.74 837 6505.25V6340.25C837 6337.76 839.015 6335.75 841.5 6335.75H1062C1064.49 6335.75 1066.5 6337.76 1066.5 6340.25V6505.25Z" fill="#FFF67F"/>
<path opacity="0.5" d="M1053 6508.25H838.5V6349.25H1053V6508.25Z" fill="#E1F391"/>
<path opacity="0.5" d="M1039.5 6506.75H840V6362.75H1039.5V6506.75Z" fill="#C4F0A2"/>
<path opacity="0.5" d="M1024.5 6505.25H840V6377.75H1024.5V6505.25Z" fill="#A6EDB3"/>
<path opacity="0.5" d="M1011 6503.75H841.5V6391.25H1011V6503.75Z" fill="#88EAC5"/>
<path opacity="0.5" d="M996 6502.25H843V6404.75H996V6502.25Z" fill="#6BE7D6"/>
<path opacity="0.5" d="M982.5 6500.75H844.5V6418.25H982.5V6500.75Z" fill="#4DE4E8"/>
</g>
<mask id="mask12_3980_27745" style="mask-type:luminance" maskUnits="userSpaceOnUse" x="440" y="5614" width="202" height="152">
<path d="M641.25 5614.25H440.25V5765.75H641.25V5614.25Z" fill="white"/>
</mask>
<g mask="url(#mask12_3980_27745)">
<path d="M440.25 5618.75C440.25 5616.26 442.265 5614.25 444.75 5614.25H636.75C639.235 5614.25 641.25 5616.26 641.25 5618.75V5761.25C641.25 5763.74 639.235 5765.75 636.75 5765.75H444.75C442.265 5765.75 440.25 5763.74 440.25 5761.25V5618.75Z" fill="#FFF67F"/>
<path opacity="0.5" d="M452.344 5615.75H639.742V5753.75H452.344V5615.75Z" fill="#E1F391"/>
<path opacity="0.5" d="M465.938 5617.25H639.734V5741.75H465.938V5617.25Z" fill="#C4F0A2"/>
<path opacity="0.5" d="M476.516 5618.75H638.222V5729.75H476.516V5618.75Z" fill="#A6EDB3"/>
<path opacity="0.5" d="M488.609 5620.25H636.715V5719.25H488.609V5620.25Z" fill="#88EAC5"/>
<path opacity="0.5" d="M500.695 5620.25H635.2V5705.75H500.695V5620.25Z" fill="#6BE7D6"/>
<path opacity="0.5" d="M514.297 5621.75H635.2V5693.75H514.297V5621.75Z" fill="#4DE4E8"/>
</g>
<mask id="mask13_3980_27745" style="mask-type:luminance" maskUnits="userSpaceOnUse" x="-143" y="5697" width="368" height="280">
<path d="M219 5697.5H-136.5C-139.814 5697.5 -142.5 5700.19 -142.5 5703.5V5970.5C-142.5 5973.81 -139.814 5976.5 -136.5 5976.5H219C222.314 5976.5 225 5973.81 225 5970.5V5703.5C225 5700.19 222.314 5697.5 219 5697.5Z" fill="white"/>
</mask>
<g mask="url(#mask13_3980_27745)">
</g>
<path d="M975.613 3287H742.5C739.601 3287 737.25 3289.35 737.25 3292.25V3557.18C737.25 3560.08 739.601 3562.43 742.5 3562.43H975.613C978.512 3562.43 980.863 3560.08 980.863 3557.18V3292.25C980.863 3289.35 978.512 3287 975.613 3287Z" fill="#FFF790"/>
<path opacity="0.971" d="M969.094 3287H742.5C739.601 3287 737.25 3289.35 737.25 3292.25V3540.89H969.094V3287Z" fill="#FFE196"/>
<path opacity="0.943" d="M957.325 3287H742.5C739.601 3287 737.25 3289.35 737.25 3292.25V3519.36H957.325V3287Z" fill="#FFCC9C"/>
<path opacity="0.914" d="M945.557 3287H742.5C739.601 3287 737.25 3289.35 737.25 3292.25V3497.82H945.557V3287Z" fill="#FFB6A2"/>
<path opacity="0.886" d="M933.789 3287H742.5C739.601 3287 737.25 3289.35 737.25 3292.25V3476.29H933.789V3287Z" fill="#FFA1A7"/>
<path opacity="0.857" d="M922.02 3287H742.5C739.601 3287 737.25 3289.35 737.25 3292.25V3454.75H922.02V3287Z" fill="#FF8BAD"/>
<path opacity="0.829" d="M910.252 3287H742.5C739.601 3287 737.25 3289.35 737.25 3292.25V3433.21H910.252V3287Z" fill="#FF76B3"/>
<path opacity="0.8" d="M898.483 3287H742.5C739.601 3287 737.25 3289.35 737.25 3292.25V3411.68H898.483V3287Z" fill="#FF60B9"/>
<path d="M975.613 4937.75H742.5C739.601 4937.75 737.25 4940.1 737.25 4943V5207.93C737.25 5210.83 739.601 5213.18 742.5 5213.18H975.613C978.512 5213.18 980.863 5210.83 980.863 5207.93V4943C980.863 4940.1 978.512 4937.75 975.613 4937.75Z" fill="#FFF790"/>
<path opacity="0.971" d="M969.094 4937.75H742.5C739.601 4937.75 737.25 4940.1 737.25 4943V5191.64H969.094V4937.75Z" fill="#FFE196"/>
<path opacity="0.943" d="M957.325 4937.75H742.5C739.601 4937.75 737.25 4940.1 737.25 4943V5170.11H957.325V4937.75Z" fill="#FFCC9C"/>
<path opacity="0.914" d="M945.557 4937.75H742.5C739.601 4937.75 737.25 4940.1 737.25 4943V5148.57H945.557V4937.75Z" fill="#FFB6A2"/>
<path opacity="0.886" d="M933.789 4937.75H742.5C739.601 4937.75 737.25 4940.1 737.25 4943V5127.04H933.789V4937.75Z" fill="#FFA1A7"/>
<path opacity="0.857" d="M922.02 4937.75H742.5C739.601 4937.75 737.25 4940.1 737.25 4943V5105.5H922.02V4937.75Z" fill="#FF8BAD"/>
<path opacity="0.829" d="M910.252 4937.75H742.5C739.601 4937.75 737.25 4940.1 737.25 4943V5083.96H910.252V4937.75Z" fill="#FF76B3"/>
<path opacity="0.8" d="M898.483 4937.75H742.5C739.601 4937.75 737.25 4940.1 737.25 4943V5062.43H898.483V4937.75Z" fill="#FF60B9"/>
<path d="M556.5 4125.5H343.5C341.015 4125.5 339 4127.51 339 4130V4272.5C339 4274.99 341.015 4277 343.5 4277H556.5C558.985 4277 561 4274.99 561 4272.5V4130C561 4127.51 558.985 4125.5 556.5 4125.5Z" fill="#FE785C"/>
<path d="M549.229 4127.24H340.102V4268.13H549.229V4127.24Z" fill="#FE8273"/>
<path d="M537.449 4128.98H341.195V4259.25H537.449V4128.98Z" fill="#FE8D8A"/>
<path d="M525.677 4130.72H342.297V4250.38H525.677V4130.72Z" fill="#FE97A1"/>
<path d="M513.898 4132.46H343.391V4241.51H513.898V4132.46Z" fill="#FDA2B7"/>
<path d="M502.134 4134.21H344.5V4232.64H502.134V4134.21Z" fill="#FDACCE"/>
<path d="M490.355 4135.95H345.594V4223.76H490.355V4135.95Z" fill="#FDB7E5"/>
<path d="M478.591 4137.69H346.703V4214.89H478.591V4137.69Z" fill="#FDC1FC"/>
<path d="M556.5 5773.25H343.5C341.015 5773.25 339 5775.26 339 5777.75V5920.25C339 5922.74 341.015 5924.75 343.5 5924.75H556.5C558.985 5924.75 561 5922.74 561 5920.25V5777.75C561 5775.26 558.985 5773.25 556.5 5773.25Z" fill="#FE785C"/>
<path d="M549.229 5774.99H340.102V5915.88H549.229V5774.99Z" fill="#FE8273"/>
<path d="M537.449 5776.73H341.195V5907H537.449V5776.73Z" fill="#FE8D8A"/>
<path d="M525.677 5778.47H342.297V5898.13H525.677V5778.47Z" fill="#FE97A1"/>
<path d="M513.898 5780.21H343.391V5889.26H513.898V5780.21Z" fill="#FDA2B7"/>
<path d="M502.134 5781.96H344.5V5880.39H502.134V5781.96Z" fill="#FDACCE"/>
<path d="M490.355 5783.7H345.594V5871.51H490.355V5783.7Z" fill="#FDB7E5"/>
<path d="M478.591 5785.44H346.703V5862.64H478.591V5785.44Z" fill="#FDC1FC"/>
</g>
<g clip-path="url(#clip2_3980_27745)">
<mask id="mask14_3980_27745" style="mask-type:luminance" maskUnits="userSpaceOnUse" x="889" y="1016" width="226" height="242">
<path d="M1114.5 1016.25H889.5V1257.75H1114.5V1016.25Z" fill="white"/>
</mask>
<g mask="url(#mask14_3980_27745)">
<path d="M1131.99 1257.75C1134.48 1257.75 1136.49 1255.74 1136.49 1253.25V1020.75C1136.49 1018.26 1134.48 1016.25 1131.99 1016.25H894C891.515 1016.25 889.5 1018.26 889.5 1020.75V1253.25C889.5 1255.74 891.515 1257.75 894 1257.75H1131.99Z" fill="#FF63BB"/>
<path d="M1136.49 1247.62V1024.69H903.031V1247.62H1136.49Z" fill="#FF70C4"/>
<path d="M1136.49 1239.18V1034.83H916.57V1239.18H1136.49Z" fill="#FE7ECE"/>
<path d="M1136.49 1230.74V1043.27H931.797V1230.74H1136.49Z" fill="#FE8BD7"/>
<path d="M1136.49 1222.28V1053.4H945.32V1222.28H1136.49Z" fill="#FE99E1"/>
<path d="M1136.49 1212.15V1061.85H958.859V1212.15H1136.49Z" fill="#FEA6EA"/>
<path d="M1136.49 1202.02V1070.29H972.391V1202.02H1136.49Z" fill="#FDB4F4"/>
<path d="M1136.49 1195.27V1080.43H987.617V1195.27H1136.49Z" fill="#FDC1FD"/>
</g>
<mask id="mask15_3980_27745" style="mask-type:luminance" maskUnits="userSpaceOnUse" x="396" y="1286" width="434" height="278">
<path d="M823.5 1286.25H402C398.686 1286.25 396 1288.94 396 1292.25V1557.75C396 1561.06 398.686 1563.75 402 1563.75H823.5C826.814 1563.75 829.5 1561.06 829.5 1557.75V1292.25C829.5 1288.94 826.814 1286.25 823.5 1286.25Z" fill="white"/>
</mask>
<g mask="url(#mask15_3980_27745)">
<path d="M396 1291.5C396 1288.6 398.351 1286.25 401.25 1286.25H824.25C827.15 1286.25 829.5 1288.6 829.5 1291.5V1608C829.5 1610.9 827.15 1613.25 824.25 1613.25H401.25C398.35 1613.25 396 1610.9 396 1608V1291.5Z" fill="#FFF790"/>
<path d="M403.844 1557.77L811.002 1557.28L811.152 1295.95L403.993 1296.43L403.844 1557.77Z" fill="#E7F0A0"/>
<path d="M404.695 1537.06L781.294 1549.3L790.212 1313.57L413.604 1301.33L404.695 1537.06Z" fill="#CEE9B1"/>
<path d="M406.984 1514.15L753.007 1539.06L770.73 1329.61L424.698 1304.7L406.984 1514.15Z" fill="#B6E2C1"/>
<path d="M407.789 1492.04L723.235 1529.59L749.763 1346.4L434.317 1308.85L407.789 1492.04Z" fill="#9EDBD1"/>
<path d="M408.641 1471.23L693.501 1521.59L728.829 1364.1L443.978 1313.73L408.641 1471.23Z" fill="#85D4E2"/>
<path d="M454.819 1316.87L707.877 1379.66L663.941 1510.32L410.883 1447.53L454.819 1316.87Z" fill="#6DCDF2"/>
<mask id="mask16_3980_27745" style="mask-type:luminance" maskUnits="userSpaceOnUse" x="396" y="1286" width="433" height="278">
<path d="M828.75 1286.25H396.75V1563.75H828.75V1286.25Z" fill="white"/>
</mask>
<g mask="url(#mask16_3980_27745)">
<path d="M823.5 1286.25H402C399.101 1286.25 396.75 1288.6 396.75 1291.5V1558.5C396.75 1561.4 399.101 1563.75 402 1563.75H823.5C826.4 1563.75 828.75 1561.4 828.75 1558.5V1291.5C828.75 1288.6 826.399 1286.25 823.5 1286.25Z" fill="#FFF790"/>
<path d="M812.25 1286.25H411.75V1571.25H812.25V1286.25Z" fill="#E7F0A0"/>
<path d="M801.75 1301.25H422.25V1571.25H801.75V1301.25Z" fill="#CEE9B1"/>
<path d="M791.25 1326H432.75V1584H791.25V1326Z" fill="#B6E2C1"/>
<path d="M777 1349.25H446.25V1592.25H777V1349.25Z" fill="#9EDBD1"/>
<path d="M766.5 1376.25H457.5V1596.75H766.5V1376.25Z" fill="#85D4E2"/>
<path d="M753 1396.5H471V1597.5H753V1396.5Z" fill="#6DCDF2"/>
<path d="M740.25 1423.5H483.75V1606.5H740.25V1423.5Z" fill="#42C9FD"/>
</g>
</g>
<mask id="mask17_3980_27745" style="mask-type:luminance" maskUnits="userSpaceOnUse" x="396" y="2934" width="434" height="278">
<path d="M823.5 2934H402C398.686 2934 396 2936.69 396 2940V3205.5C396 3208.81 398.686 3211.5 402 3211.5H823.5C826.814 3211.5 829.5 3208.81 829.5 3205.5V2940C829.5 2936.69 826.814 2934 823.5 2934Z" fill="white"/>
</mask>
<g mask="url(#mask17_3980_27745)">
<path d="M396 2939.25C396 2936.35 398.351 2934 401.25 2934H824.25C827.15 2934 829.5 2936.35 829.5 2939.25V3255.75C829.5 3258.65 827.15 3261 824.25 3261H401.25C398.35 3261 396 3258.65 396 3255.75V2939.25Z" fill="#FFF790"/>
<path d="M403.844 3205.52L811.002 3205.03L811.152 2943.7L403.993 2944.18L403.844 3205.52Z" fill="#E7F0A0"/>
<path d="M404.695 3184.81L781.294 3197.05L790.212 2961.32L413.604 2949.08L404.695 3184.81Z" fill="#CEE9B1"/>
<path d="M406.984 3161.9L753.007 3186.81L770.73 2977.36L424.698 2952.45L406.984 3161.9Z" fill="#B6E2C1"/>
<path d="M407.789 3139.79L723.235 3177.34L749.763 2994.15L434.317 2956.6L407.789 3139.79Z" fill="#9EDBD1"/>
<path d="M408.641 3118.98L693.501 3169.34L728.829 3011.85L443.978 2961.48L408.641 3118.98Z" fill="#85D4E2"/>
<path d="M454.819 2964.62L707.877 3027.41L663.941 3158.07L410.883 3095.28L454.819 2964.62Z" fill="#6DCDF2"/>
<mask id="mask18_3980_27745" style="mask-type:luminance" maskUnits="userSpaceOnUse" x="396" y="2934" width="433" height="278">
<path d="M828.75 2934H396.75V3211.5H828.75V2934Z" fill="white"/>
</mask>
<g mask="url(#mask18_3980_27745)">
<path d="M823.5 2934H402C399.101 2934 396.75 2936.35 396.75 2939.25V3206.25C396.75 3209.15 399.101 3211.5 402 3211.5H823.5C826.4 3211.5 828.75 3209.15 828.75 3206.25V2939.25C828.75 2936.35 826.399 2934 823.5 2934Z" fill="#FFF790"/>
<path d="M812.25 2934H411.75V3219H812.25V2934Z" fill="#E7F0A0"/>
<path d="M801.75 2949H422.25V3219H801.75V2949Z" fill="#CEE9B1"/>
<path d="M791.25 2973.75H432.75V3231.75H791.25V2973.75Z" fill="#B6E2C1"/>
<path d="M777 2997H446.25V3240H777V2997Z" fill="#9EDBD1"/>
<path d="M766.5 3024H457.5V3244.5H766.5V3024Z" fill="#85D4E2"/>
<path d="M753 3044.25H471V3245.25H753V3044.25Z" fill="#6DCDF2"/>
<path d="M740.25 3071.25H483.75V3254.25H740.25V3071.25Z" fill="#42C9FD"/>
</g>
</g>
<path d="M133.5 525.75C133.5 528.235 135.515 530.25 138 530.25H510C512.485 530.25 514.5 528.235 514.5 525.75V246.75C514.5 244.265 512.485 242.25 510 242.25H138C135.515 242.25 133.5 244.265 133.5 246.75V525.75Z" fill="#FF63BB"/>
<path opacity="0.6" d="M136.878 245.268L496.429 250.983L493.044 516.681L133.5 510.975L136.878 245.268Z" fill="#F979C5"/>
<path opacity="0.6" d="M143.263 246.773L479.868 258.171L473.121 501.601L136.516 490.196L143.263 246.773Z" fill="#F28ECE"/>
<path opacity="0.6" d="M146.652 248.279L461.797 265.463L451.653 488.028L136.516 470.852L146.652 248.279Z" fill="#ECA4D8"/>
<path opacity="0.6" d="M153.007 249.791L445.227 272.66L431.744 472.954L139.523 450.085L153.007 249.791Z" fill="#E6B9E2"/>
<path opacity="0.6" d="M156.41 252.803L427.156 281.348L410.261 459.379L139.523 430.834L156.41 252.803Z" fill="#E0CFEC"/>
<path opacity="0.6" d="M162.737 254.314L410.586 288.494L390.381 444.304L142.531 410.116L162.737 254.314Z" fill="#D9E4F5"/>
<path opacity="0.6" d="M369.007 430.179L392.513 296.529L165.615 256.418L142.109 390.068L369.007 430.179Z" fill="#D3FAFF"/>
<mask id="mask19_3980_27745" style="mask-type:luminance" maskUnits="userSpaceOnUse" x="687" y="524" width="420" height="331">
<path d="M1107 524.25H687V854.25H1107V524.25Z" fill="white"/>
</mask>
<g mask="url(#mask19_3980_27745)">
<path d="M1107 530.25C1107 526.936 1104.31 524.25 1101 524.25H693C689.686 524.25 687 526.936 687 530.25V848.25C687 851.564 689.686 854.25 693 854.25H1101C1104.31 854.25 1107 851.564 1107 848.25V530.25Z" fill="#FFF790"/>
<path d="M1105.51 830.265L715.584 843.75L707.922 543.746L1097.84 530.25L1105.51 830.265Z" fill="#DBF294"/>
<path d="M1102.52 803.374L742.662 830.25L727.359 561.617L1087.22 534.75L1102.52 803.374Z" fill="#B8ED98"/>
<path d="M1101.02 779.205L771.222 819.75L748.281 579.804L1078.09 539.25L1101.02 779.205Z" fill="#95E89C"/>
<path d="M1101.02 752.443L799.893 806.25L769.203 597.565L1070.33 543.75L1101.02 752.443Z" fill="#71E2A0"/>
<path d="M1099.53 728.439L828.466 795.75L790.141 617.061L1061.2 549.75L1099.53 728.439Z" fill="#4EDDA4"/>
<path d="M1050.54 555.879L809.562 636.748L856.047 787.18L1097.03 706.311L1050.54 555.879Z" fill="#2AD8A8"/>
</g>
<mask id="mask20_3980_27745" style="mask-type:luminance" maskUnits="userSpaceOnUse" x="-144" y="881" width="369" height="280">
<path d="M224.25 881.25H-143.25V1160.25H224.25V881.25Z" fill="white"/>
</mask>
<g mask="url(#mask20_3980_27745)">
<path d="M217.5 881.25H-136.5C-140.228 881.25 -143.25 884.272 -143.25 888V1153.5C-143.25 1157.23 -140.228 1160.25 -136.5 1160.25H217.5C221.228 1160.25 224.25 1157.23 224.25 1153.5V888C224.25 884.272 221.228 881.25 217.5 881.25Z" fill="#FDC1FC"/>
<path d="M-112.501 903.804L-116.945 1171.52L240.006 1177.44L244.449 909.73L-112.501 903.804Z" fill="#FEC7E8"/>
<path d="M-76.0469 928.584L-90.375 1172.41L234.731 1191.52L249.06 947.689L-76.0469 928.584Z" fill="#FDCCD5"/>
<path d="M-38.3584 949.324L-55.5938 1171.34L240.43 1194.32L257.665 972.305L-38.3584 949.324Z" fill="#FCD2C0"/>
<path d="M-7.85031 972.975L-24.0312 1171.57L240.762 1193.14L256.943 994.55L-7.85031 972.975Z" fill="#FCD7AB"/>
<path d="M20.9514 996.009L5.78125 1172.49L241.089 1192.72L256.259 1016.24L20.9514 996.009Z" fill="#FBDD98"/>
<path d="M48.3688 1028.25L31.5 1178.71L232.113 1201.2L248.982 1050.74L48.3688 1028.25Z" fill="#FCE284"/>
<path d="M77.332 1056.77L62.4141 1189.83L239.827 1209.72L254.744 1076.67L77.332 1056.77Z" fill="#FAE86F"/>
</g>
<mask id="mask21_3980_27745" style="mask-type:luminance" maskUnits="userSpaceOnUse" x="883" y="2664" width="226" height="242">
<path d="M1108.5 2664H883.5V2905.5H1108.5V2664Z" fill="white"/>
</mask>
<g mask="url(#mask21_3980_27745)">
<path d="M1125.99 2905.5C1128.48 2905.5 1130.49 2903.49 1130.49 2901V2668.5C1130.49 2666.01 1128.48 2664 1125.99 2664H888C885.515 2664 883.5 2666.01 883.5 2668.5V2901C883.5 2903.49 885.515 2905.5 888 2905.5H1125.99Z" fill="#FF63BB"/>
<path d="M1130.49 2895.37V2672.44H897.031V2895.37H1130.49Z" fill="#FF70C4"/>
<path d="M1130.49 2886.93V2682.58H910.57V2886.93H1130.49Z" fill="#FE7ECE"/>
<path d="M1130.49 2878.49V2691.02H925.797V2878.49H1130.49Z" fill="#FE8BD7"/>
<path d="M1130.49 2870.03V2701.15H939.32V2870.03H1130.49Z" fill="#FE99E1"/>
<path d="M1130.49 2859.9V2709.6H952.859V2859.9H1130.49Z" fill="#FEA6EA"/>
<path d="M1130.49 2849.77V2718.04H966.391V2849.77H1130.49Z" fill="#FDB4F4"/>
<path d="M1130.49 2843.02V2728.18H981.617V2843.02H1130.49Z" fill="#FDC1FD"/>
</g>
<mask id="mask22_3980_27745" style="mask-type:luminance" maskUnits="userSpaceOnUse" x="134" y="1890" width="382" height="288">
<path d="M515.25 1890H134.25V2178H515.25V1890Z" fill="white"/>
</mask>
<g mask="url(#mask22_3980_27745)">
<path d="M134.25 2173.5C134.25 2175.99 136.265 2178 138.75 2178H510.75C513.235 2178 515.25 2175.99 515.25 2173.5V1894.5C515.25 1892.01 513.235 1890 510.75 1890H138.75C136.265 1890 134.25 1892.01 134.25 1894.5V2173.5Z" fill="#FF63BB"/>
<path opacity="0.6" d="M137.628 1893.02L497.179 1898.73L493.794 2164.43L134.25 2158.73L137.628 1893.02Z" fill="#F979C5"/>
<path opacity="0.6" d="M144.013 1894.53L480.618 1905.92L473.871 2149.35L137.266 2137.95L144.013 1894.53Z" fill="#F28ECE"/>
<path opacity="0.6" d="M147.402 1896.03L462.547 1913.21L452.403 2135.77L137.266 2118.6L147.402 1896.03Z" fill="#ECA4D8"/>
<path opacity="0.6" d="M153.757 1897.54L445.977 1920.4L432.494 2120.7L140.273 2097.83L153.757 1897.54Z" fill="#E6B9E2"/>
<path opacity="0.6" d="M157.16 1900.55L427.906 1929.1L411.011 2107.13L140.273 2078.59L157.16 1900.55Z" fill="#E0CFEC"/>
<path opacity="0.6" d="M163.487 1902.07L411.336 1936.25L391.131 2092.06L143.281 2057.87L163.487 1902.07Z" fill="#D9E4F5"/>
<path opacity="0.6" d="M369.757 2077.94L393.263 1944.29L166.365 1904.17L142.859 2037.82L369.757 2077.94Z" fill="#D3FAFF"/>
</g>
<mask id="mask23_3980_27745" style="mask-type:luminance" maskUnits="userSpaceOnUse" x="687" y="2172" width="421" height="330">
<path d="M1107.75 2172H687.75V2502H1107.75V2172Z" fill="white"/>
</mask>
<g mask="url(#mask23_3980_27745)">
<path d="M1107.75 2176.5C1107.75 2174.01 1105.74 2172 1103.25 2172H692.25C689.765 2172 687.75 2174.01 687.75 2176.5V2497.5C687.75 2499.99 689.765 2502 692.25 2502H1103.25C1105.74 2502 1107.75 2499.99 1107.75 2497.5V2176.5Z" fill="#FFF790"/>
<path d="M1106.26 2478.02L716.334 2491.5L708.672 2191.49L1098.59 2178L1106.26 2478.02Z" fill="#DBF294"/>
<path d="M1103.27 2451.13L743.412 2478L728.109 2209.37L1087.97 2182.5L1103.27 2451.13Z" fill="#B8ED98"/>
<path d="M1101.77 2426.95L771.972 2467.5L749.031 2227.55L1078.84 2187L1101.77 2426.95Z" fill="#95E89C"/>
<path d="M1101.77 2400.2L800.643 2454L769.953 2245.31L1071.08 2191.5L1101.77 2400.2Z" fill="#71E2A0"/>
<path d="M1100.28 2376.19L829.216 2443.5L790.891 2264.81L1061.95 2197.5L1100.28 2376.19Z" fill="#4EDDA4"/>
<path d="M1051.29 2203.63L810.312 2284.5L856.797 2434.93L1097.78 2354.06L1051.29 2203.63Z" fill="#2AD8A8"/>
</g>
<path d="M239.25 1679.01C239.25 1676.94 237.571 1675.26 235.5 1675.26H-19.5C-21.5711 1675.26 -23.25 1676.94 -23.25 1679.01V1878.75C-23.25 1880.82 -21.5711 1882.5 -19.5 1882.5H235.5C237.571 1882.5 239.25 1880.82 239.25 1878.75V1679.01Z" fill="#FF682E"/>
<path d="M221.513 1675.26H-23.25V1863.01H221.513V1675.26Z" fill="#FF7646"/>
<path d="M203.777 1675.26H-23.25V1845.3H203.777V1675.26Z" fill="#FF845D"/>
<path d="M187.814 1675.26H-23.25V1827.59H187.814V1675.26Z" fill="#FF9275"/>
<path d="M168.304 1675.26H-23.25V1808.11H168.304V1675.26Z" fill="#FF9F8C"/>
<path d="M152.341 1675.26H-23.25V1790.39H152.341V1675.26Z" fill="#FFADA3"/>
<path d="M134.605 1675.26H-23.25V1774.45H134.605V1675.26Z" fill="#FFBBBB"/>
<mask id="mask24_3980_27745" style="mask-type:luminance" maskUnits="userSpaceOnUse" x="-143" y="2529" width="368" height="280">
<path d="M219 2529.75H-136.5C-139.814 2529.75 -142.5 2532.44 -142.5 2535.75V2802.75C-142.5 2806.06 -139.814 2808.75 -136.5 2808.75H219C222.314 2808.75 225 2806.06 225 2802.75V2535.75C225 2532.44 222.314 2529.75 219 2529.75Z" fill="white"/>
</mask>
<g mask="url(#mask24_3980_27745)">
<path d="M218.25 2529.75H-135.75C-139.478 2529.75 -142.5 2532.77 -142.5 2536.5V2802C-142.5 2805.73 -139.478 2808.75 -135.75 2808.75H218.25C221.978 2808.75 225 2805.73 225 2802V2536.5C225 2532.77 221.978 2529.75 218.25 2529.75Z" fill="#FDC1FC"/>
<path d="M-111.751 2552.3L-116.195 2820.02L240.756 2825.94L245.199 2558.23L-111.751 2552.3Z" fill="#FEC7E8"/>
<path d="M-75.2969 2577.08L-89.625 2820.91L235.481 2840.01L249.809 2596.18L-75.2969 2577.08Z" fill="#FDCCD5"/>
<path d="M-37.6084 2597.82L-54.8438 2819.84L241.18 2842.82L258.415 2620.8L-37.6084 2597.82Z" fill="#FCD2C0"/>
<path d="M-7.10031 2621.48L-23.2812 2820.08L241.512 2841.65L257.693 2643.06L-7.10031 2621.48Z" fill="#FCD7AB"/>
<path d="M21.7014 2644.51L6.53125 2821L241.839 2841.22L257.009 2664.74L21.7014 2644.51Z" fill="#FBDD98"/>
<path d="M49.1188 2676.74L32.25 2827.2L232.863 2849.69L249.732 2699.23L49.1188 2676.74Z" fill="#FCE284"/>
<path d="M78.082 2705.27L63.1641 2838.33L240.577 2858.22L255.494 2725.17L78.082 2705.27Z" fill="#FAE86F"/>
</g>
</g>
<g clip-path="url(#clip3_3980_27745)">
<mask id="mask25_3980_27745" style="mask-type:luminance" maskUnits="userSpaceOnUse" x="889" y="4252" width="226" height="242">
<path d="M1114.5 4252.25H889.5V4493.75H1114.5V4252.25Z" fill="white"/>
</mask>
<g mask="url(#mask25_3980_27745)">
<path d="M1131.99 4493.75C1134.48 4493.75 1136.49 4491.74 1136.49 4489.25V4256.75C1136.49 4254.26 1134.48 4252.25 1131.99 4252.25H894C891.515 4252.25 889.5 4254.26 889.5 4256.75V4489.25C889.5 4491.74 891.515 4493.75 894 4493.75H1131.99Z" fill="#FF63BB"/>
<path d="M1136.49 4483.62V4260.69H903.031V4483.62H1136.49Z" fill="#FF70C4"/>
<path d="M1136.49 4475.18V4270.83H916.57V4475.18H1136.49Z" fill="#FE7ECE"/>
<path d="M1136.49 4466.74V4279.27H931.797V4466.74H1136.49Z" fill="#FE8BD7"/>
<path d="M1136.49 4458.28V4289.4H945.32V4458.28H1136.49Z" fill="#FE99E1"/>
<path d="M1136.49 4448.15V4297.85H958.859V4448.15H1136.49Z" fill="#FEA6EA"/>
<path d="M1136.49 4438.02V4306.29H972.391V4438.02H1136.49Z" fill="#FDB4F4"/>
<path d="M1136.49 4431.27V4316.43H987.617V4431.27H1136.49Z" fill="#FDC1FD"/>
</g>
<mask id="mask26_3980_27745" style="mask-type:luminance" maskUnits="userSpaceOnUse" x="396" y="4522" width="434" height="278">
<path d="M823.5 4522.25H402C398.686 4522.25 396 4524.94 396 4528.25V4793.75C396 4797.06 398.686 4799.75 402 4799.75H823.5C826.814 4799.75 829.5 4797.06 829.5 4793.75V4528.25C829.5 4524.94 826.814 4522.25 823.5 4522.25Z" fill="white"/>
</mask>
<g mask="url(#mask26_3980_27745)">
<path d="M396 4527.5C396 4524.6 398.351 4522.25 401.25 4522.25H824.25C827.15 4522.25 829.5 4524.6 829.5 4527.5V4844C829.5 4846.9 827.15 4849.25 824.25 4849.25H401.25C398.35 4849.25 396 4846.9 396 4844V4527.5Z" fill="#FFF790"/>
<path d="M403.844 4793.77L811.002 4793.28L811.152 4531.95L403.993 4532.43L403.844 4793.77Z" fill="#E7F0A0"/>
<path d="M404.695 4773.06L781.294 4785.3L790.212 4549.57L413.604 4537.33L404.695 4773.06Z" fill="#CEE9B1"/>
<path d="M406.984 4750.15L753.007 4775.06L770.73 4565.61L424.698 4540.7L406.984 4750.15Z" fill="#B6E2C1"/>
<path d="M407.789 4728.04L723.235 4765.59L749.763 4582.4L434.317 4544.85L407.789 4728.04Z" fill="#9EDBD1"/>
<path d="M408.641 4707.23L693.501 4757.59L728.829 4600.1L443.978 4549.73L408.641 4707.23Z" fill="#85D4E2"/>
<path d="M454.819 4552.87L707.877 4615.66L663.941 4746.32L410.883 4683.53L454.819 4552.87Z" fill="#6DCDF2"/>
<mask id="mask27_3980_27745" style="mask-type:luminance" maskUnits="userSpaceOnUse" x="396" y="4522" width="433" height="278">
<path d="M828.75 4522.25H396.75V4799.75H828.75V4522.25Z" fill="white"/>
</mask>
<g mask="url(#mask27_3980_27745)">
<path d="M823.5 4522.25H402C399.101 4522.25 396.75 4524.6 396.75 4527.5V4794.5C396.75 4797.4 399.101 4799.75 402 4799.75H823.5C826.4 4799.75 828.75 4797.4 828.75 4794.5V4527.5C828.75 4524.6 826.399 4522.25 823.5 4522.25Z" fill="#FFF790"/>
<path d="M812.25 4522.25H411.75V4807.25H812.25V4522.25Z" fill="#E7F0A0"/>
<path d="M801.75 4537.25H422.25V4807.25H801.75V4537.25Z" fill="#CEE9B1"/>
<path d="M791.25 4562H432.75V4820H791.25V4562Z" fill="#B6E2C1"/>
<path d="M777 4585.25H446.25V4828.25H777V4585.25Z" fill="#9EDBD1"/>
<path d="M766.5 4612.25H457.5V4832.75H766.5V4612.25Z" fill="#85D4E2"/>
<path d="M753 4632.5H471V4833.5H753V4632.5Z" fill="#6DCDF2"/>
<path d="M740.25 4659.5H483.75V4842.5H740.25V4659.5Z" fill="#42C9FD"/>
</g>
</g>
<mask id="mask28_3980_27745" style="mask-type:luminance" maskUnits="userSpaceOnUse" x="396" y="6170" width="434" height="278">
<path d="M823.5 6170H402C398.686 6170 396 6172.69 396 6176V6441.5C396 6444.81 398.686 6447.5 402 6447.5H823.5C826.814 6447.5 829.5 6444.81 829.5 6441.5V6176C829.5 6172.69 826.814 6170 823.5 6170Z" fill="white"/>
</mask>
<g mask="url(#mask28_3980_27745)">
<path d="M396 6175.25C396 6172.35 398.351 6170 401.25 6170H824.25C827.15 6170 829.5 6172.35 829.5 6175.25V6491.75C829.5 6494.65 827.15 6497 824.25 6497H401.25C398.35 6497 396 6494.65 396 6491.75V6175.25Z" fill="#FFF790"/>
<path d="M403.844 6441.52L811.002 6441.03L811.152 6179.7L403.993 6180.18L403.844 6441.52Z" fill="#E7F0A0"/>
<path d="M404.695 6420.81L781.294 6433.05L790.212 6197.32L413.604 6185.08L404.695 6420.81Z" fill="#CEE9B1"/>
<path d="M406.984 6397.9L753.007 6422.81L770.73 6213.36L424.698 6188.45L406.984 6397.9Z" fill="#B6E2C1"/>
<path d="M407.789 6375.79L723.235 6413.34L749.763 6230.15L434.317 6192.6L407.789 6375.79Z" fill="#9EDBD1"/>
<path d="M408.641 6354.98L693.501 6405.34L728.829 6247.85L443.978 6197.48L408.641 6354.98Z" fill="#85D4E2"/>
<path d="M454.819 6200.62L707.877 6263.41L663.941 6394.07L410.883 6331.28L454.819 6200.62Z" fill="#6DCDF2"/>
<mask id="mask29_3980_27745" style="mask-type:luminance" maskUnits="userSpaceOnUse" x="396" y="6170" width="433" height="278">
<path d="M828.75 6170H396.75V6447.5H828.75V6170Z" fill="white"/>
</mask>
<g mask="url(#mask29_3980_27745)">
<path d="M823.5 6170H402C399.101 6170 396.75 6172.35 396.75 6175.25V6442.25C396.75 6445.15 399.101 6447.5 402 6447.5H823.5C826.4 6447.5 828.75 6445.15 828.75 6442.25V6175.25C828.75 6172.35 826.399 6170 823.5 6170Z" fill="#FFF790"/>
<path d="M812.25 6170H411.75V6455H812.25V6170Z" fill="#E7F0A0"/>
<path d="M801.75 6185H422.25V6455H801.75V6185Z" fill="#CEE9B1"/>
<path d="M791.25 6209.75H432.75V6467.75H791.25V6209.75Z" fill="#B6E2C1"/>
<path d="M777 6233H446.25V6476H777V6233Z" fill="#9EDBD1"/>
<path d="M766.5 6260H457.5V6480.5H766.5V6260Z" fill="#85D4E2"/>
<path d="M753 6280.25H471V6481.25H753V6280.25Z" fill="#6DCDF2"/>
<path d="M740.25 6307.25H483.75V6490.25H740.25V6307.25Z" fill="#42C9FD"/>
</g>
</g>
<path d="M133.5 3761.75C133.5 3764.24 135.515 3766.25 138 3766.25H510C512.485 3766.25 514.5 3764.24 514.5 3761.75V3482.75C514.5 3480.26 512.485 3478.25 510 3478.25H138C135.515 3478.25 133.5 3480.26 133.5 3482.75V3761.75Z" fill="#FF63BB"/>
<path opacity="0.6" d="M136.878 3481.27L496.429 3486.98L493.044 3752.68L133.5 3746.97L136.878 3481.27Z" fill="#F979C5"/>
<path opacity="0.6" d="M143.263 3482.77L479.868 3494.17L473.121 3737.6L136.516 3726.2L143.263 3482.77Z" fill="#F28ECE"/>
<path opacity="0.6" d="M146.652 3484.28L461.797 3501.46L451.653 3724.03L136.516 3706.85L146.652 3484.28Z" fill="#ECA4D8"/>
<path opacity="0.6" d="M153.007 3485.79L445.227 3508.66L431.744 3708.95L139.523 3686.08L153.007 3485.79Z" fill="#E6B9E2"/>
<path opacity="0.6" d="M156.41 3488.8L427.156 3517.35L410.261 3695.38L139.523 3666.83L156.41 3488.8Z" fill="#E0CFEC"/>
<path opacity="0.6" d="M162.737 3490.31L410.586 3524.49L390.381 3680.3L142.531 3646.12L162.737 3490.31Z" fill="#D9E4F5"/>
<path opacity="0.6" d="M369.007 3666.18L392.513 3532.53L165.615 3492.42L142.109 3626.07L369.007 3666.18Z" fill="#D3FAFF"/>
<mask id="mask30_3980_27745" style="mask-type:luminance" maskUnits="userSpaceOnUse" x="687" y="3760" width="420" height="331">
<path d="M1107 3760.25H687V4090.25H1107V3760.25Z" fill="white"/>
</mask>
<g mask="url(#mask30_3980_27745)">
<path d="M1107 3766.25C1107 3762.94 1104.31 3760.25 1101 3760.25H693C689.686 3760.25 687 3762.94 687 3766.25V4084.25C687 4087.56 689.686 4090.25 693 4090.25H1101C1104.31 4090.25 1107 4087.56 1107 4084.25V3766.25Z" fill="#FFF790"/>
<path d="M1105.51 4066.27L715.584 4079.75L707.922 3779.75L1097.84 3766.25L1105.51 4066.27Z" fill="#DBF294"/>
<path d="M1102.52 4039.37L742.662 4066.25L727.359 3797.62L1087.22 3770.75L1102.52 4039.37Z" fill="#B8ED98"/>
<path d="M1101.02 4015.21L771.222 4055.75L748.281 3815.8L1078.09 3775.25L1101.02 4015.21Z" fill="#95E89C"/>
<path d="M1101.02 3988.44L799.893 4042.25L769.203 3833.56L1070.33 3779.75L1101.02 3988.44Z" fill="#71E2A0"/>
<path d="M1099.53 3964.44L828.466 4031.75L790.141 3853.06L1061.2 3785.75L1099.53 3964.44Z" fill="#4EDDA4"/>
<path d="M1050.54 3791.88L809.562 3872.75L856.047 4023.18L1097.03 3942.31L1050.54 3791.88Z" fill="#2AD8A8"/>
</g>
<mask id="mask31_3980_27745" style="mask-type:luminance" maskUnits="userSpaceOnUse" x="-144" y="4117" width="369" height="280">
<path d="M224.25 4117.25H-143.25V4396.25H224.25V4117.25Z" fill="white"/>
</mask>
<g mask="url(#mask31_3980_27745)">
<path d="M217.5 4117.25H-136.5C-140.228 4117.25 -143.25 4120.27 -143.25 4124V4389.5C-143.25 4393.23 -140.228 4396.25 -136.5 4396.25H217.5C221.228 4396.25 224.25 4393.23 224.25 4389.5V4124C224.25 4120.27 221.228 4117.25 217.5 4117.25Z" fill="#FDC1FC"/>
<path d="M-112.501 4139.8L-116.945 4407.52L240.006 4413.44L244.449 4145.73L-112.501 4139.8Z" fill="#FEC7E8"/>
<path d="M-76.0469 4164.58L-90.375 4408.41L234.731 4427.52L249.06 4183.69L-76.0469 4164.58Z" fill="#FDCCD5"/>
<path d="M-38.3584 4185.32L-55.5938 4407.34L240.43 4430.32L257.665 4208.3L-38.3584 4185.32Z" fill="#FCD2C0"/>
<path d="M-7.85031 4208.98L-24.0312 4407.57L240.762 4429.14L256.943 4230.55L-7.85031 4208.98Z" fill="#FCD7AB"/>
<path d="M20.9514 4232.01L5.78125 4408.49L241.089 4428.72L256.259 4252.24L20.9514 4232.01Z" fill="#FBDD98"/>
<path d="M48.3688 4264.25L31.5 4414.71L232.113 4437.2L248.982 4286.74L48.3688 4264.25Z" fill="#FCE284"/>
<path d="M77.332 4292.77L62.4141 4425.83L239.827 4445.72L254.744 4312.67L77.332 4292.77Z" fill="#FAE86F"/>
</g>
<mask id="mask32_3980_27745" style="mask-type:luminance" maskUnits="userSpaceOnUse" x="883" y="5900" width="226" height="242">
<path d="M1108.5 5900H883.5V6141.5H1108.5V5900Z" fill="white"/>
</mask>
<g mask="url(#mask32_3980_27745)">
<path d="M1125.99 6141.5C1128.48 6141.5 1130.49 6139.49 1130.49 6137V5904.5C1130.49 5902.01 1128.48 5900 1125.99 5900H888C885.515 5900 883.5 5902.01 883.5 5904.5V6137C883.5 6139.49 885.515 6141.5 888 6141.5H1125.99Z" fill="#FF63BB"/>
<path d="M1130.49 6131.37V5908.44H897.031V6131.37H1130.49Z" fill="#FF70C4"/>
<path d="M1130.49 6122.93V5918.58H910.57V6122.93H1130.49Z" fill="#FE7ECE"/>
<path d="M1130.49 6114.49V5927.02H925.797V6114.49H1130.49Z" fill="#FE8BD7"/>
<path d="M1130.49 6106.03V5937.15H939.32V6106.03H1130.49Z" fill="#FE99E1"/>
<path d="M1130.49 6095.9V5945.6H952.859V6095.9H1130.49Z" fill="#FEA6EA"/>
<path d="M1130.49 6085.77V5954.04H966.391V6085.77H1130.49Z" fill="#FDB4F4"/>
<path d="M1130.49 6079.02V5964.18H981.617V6079.02H1130.49Z" fill="#FDC1FD"/>
</g>
<mask id="mask33_3980_27745" style="mask-type:luminance" maskUnits="userSpaceOnUse" x="134" y="5126" width="382" height="288">
<path d="M515.25 5126H134.25V5414H515.25V5126Z" fill="white"/>
</mask>
<g mask="url(#mask33_3980_27745)">
<path d="M134.25 5409.5C134.25 5411.99 136.265 5414 138.75 5414H510.75C513.235 5414 515.25 5411.99 515.25 5409.5V5130.5C515.25 5128.01 513.235 5126 510.75 5126H138.75C136.265 5126 134.25 5128.01 134.25 5130.5V5409.5Z" fill="#FF63BB"/>
<path opacity="0.6" d="M137.628 5129.02L497.179 5134.73L493.794 5400.43L134.25 5394.73L137.628 5129.02Z" fill="#F979C5"/>
<path opacity="0.6" d="M144.013 5130.53L480.618 5141.92L473.871 5385.35L137.266 5373.95L144.013 5130.53Z" fill="#F28ECE"/>
<path opacity="0.6" d="M147.402 5132.03L462.547 5149.21L452.403 5371.77L137.266 5354.6L147.402 5132.03Z" fill="#ECA4D8"/>
<path opacity="0.6" d="M153.757 5133.54L445.977 5156.4L432.494 5356.7L140.273 5333.83L153.757 5133.54Z" fill="#E6B9E2"/>
<path opacity="0.6" d="M157.16 5136.55L427.906 5165.1L411.011 5343.13L140.273 5314.59L157.16 5136.55Z" fill="#E0CFEC"/>
<path opacity="0.6" d="M163.487 5138.07L411.336 5172.25L391.131 5328.06L143.281 5293.87L163.487 5138.07Z" fill="#D9E4F5"/>
<path opacity="0.6" d="M369.757 5313.94L393.263 5180.29L166.365 5140.17L142.859 5273.82L369.757 5313.94Z" fill="#D3FAFF"/>
</g>
<mask id="mask34_3980_27745" style="mask-type:luminance" maskUnits="userSpaceOnUse" x="687" y="5408" width="421" height="330">
<path d="M1107.75 5408H687.75V5738H1107.75V5408Z" fill="white"/>
</mask>
<g mask="url(#mask34_3980_27745)">
<path d="M1107.75 5412.5C1107.75 5410.01 1105.74 5408 1103.25 5408H692.25C689.765 5408 687.75 5410.01 687.75 5412.5V5733.5C687.75 5735.99 689.765 5738 692.25 5738H1103.25C1105.74 5738 1107.75 5735.99 1107.75 5733.5V5412.5Z" fill="#FFF790"/>
<path d="M1106.26 5714.02L716.334 5727.5L708.672 5427.49L1098.59 5414L1106.26 5714.02Z" fill="#DBF294"/>
<path d="M1103.27 5687.13L743.412 5714L728.109 5445.37L1087.97 5418.5L1103.27 5687.13Z" fill="#B8ED98"/>
<path d="M1101.77 5662.95L771.972 5703.5L749.031 5463.55L1078.84 5423L1101.77 5662.95Z" fill="#95E89C"/>
<path d="M1101.77 5636.2L800.643 5690L769.953 5481.31L1071.08 5427.5L1101.77 5636.2Z" fill="#71E2A0"/>
<path d="M1100.28 5612.19L829.216 5679.5L790.891 5500.81L1061.95 5433.5L1100.28 5612.19Z" fill="#4EDDA4"/>
<path d="M1051.29 5439.63L810.312 5520.5L856.797 5670.93L1097.78 5590.06L1051.29 5439.63Z" fill="#2AD8A8"/>
</g>
<path d="M239.25 4915.01C239.25 4912.94 237.571 4911.26 235.5 4911.26H-19.5C-21.5711 4911.26 -23.25 4912.94 -23.25 4915.01V5114.75C-23.25 5116.82 -21.5711 5118.5 -19.5 5118.5H235.5C237.571 5118.5 239.25 5116.82 239.25 5114.75V4915.01Z" fill="#FF682E"/>
<path d="M221.513 4911.26H-23.25V5099.01H221.513V4911.26Z" fill="#FF7646"/>
<path d="M203.777 4911.26H-23.25V5081.3H203.777V4911.26Z" fill="#FF845D"/>
<path d="M187.814 4911.26H-23.25V5063.59H187.814V4911.26Z" fill="#FF9275"/>
<path d="M168.304 4911.26H-23.25V5044.11H168.304V4911.26Z" fill="#FF9F8C"/>
<path d="M152.341 4911.26H-23.25V5026.39H152.341V4911.26Z" fill="#FFADA3"/>
<path d="M134.605 4911.26H-23.25V5010.45H134.605V4911.26Z" fill="#FFBBBB"/>
<mask id="mask35_3980_27745" style="mask-type:luminance" maskUnits="userSpaceOnUse" x="-143" y="5765" width="368" height="280">
<path d="M219 5765.75H-136.5C-139.814 5765.75 -142.5 5768.44 -142.5 5771.75V6038.75C-142.5 6042.06 -139.814 6044.75 -136.5 6044.75H219C222.314 6044.75 225 6042.06 225 6038.75V5771.75C225 5768.44 222.314 5765.75 219 5765.75Z" fill="white"/>
</mask>
<g mask="url(#mask35_3980_27745)">
<path d="M218.25 5765.75H-135.75C-139.478 5765.75 -142.5 5768.77 -142.5 5772.5V6038C-142.5 6041.73 -139.478 6044.75 -135.75 6044.75H218.25C221.978 6044.75 225 6041.73 225 6038V5772.5C225 5768.77 221.978 5765.75 218.25 5765.75Z" fill="#FDC1FC"/>
<path d="M-111.751 5788.3L-116.195 6056.02L240.756 6061.94L245.199 5794.23L-111.751 5788.3Z" fill="#FEC7E8"/>
<path d="M-75.2969 5813.08L-89.625 6056.91L235.481 6076.01L249.809 5832.18L-75.2969 5813.08Z" fill="#FDCCD5"/>
<path d="M-37.6084 5833.82L-54.8438 6055.84L241.18 6078.82L258.415 5856.8L-37.6084 5833.82Z" fill="#FCD2C0"/>
<path d="M-7.10031 5857.48L-23.2812 6056.08L241.512 6077.65L257.693 5879.06L-7.10031 5857.48Z" fill="#FCD7AB"/>
<path d="M21.7014 5880.51L6.53125 6057L241.839 6077.22L257.009 5900.74L21.7014 5880.51Z" fill="#FBDD98"/>
<path d="M49.1188 5912.74L32.25 6063.2L232.863 6085.69L249.732 5935.23L49.1188 5912.74Z" fill="#FCE284"/>
<path d="M78.082 5941.27L63.1641 6074.33L240.577 6094.22L255.494 5961.17L78.082 5941.27Z" fill="#FAE86F"/>
</g>
</g>
<defs>
<clipPath id="clip0_3980_27745">
<rect width="1089" height="3273.75" fill="white"/>
</clipPath>
<clipPath id="clip1_3980_27745">
<rect width="1089" height="3273.75" fill="white" transform="translate(0 3236)"/>
</clipPath>
<clipPath id="clip2_3980_27745">
<rect width="1089" height="3273.75" fill="white"/>
</clipPath>
<clipPath id="clip3_3980_27745">
<rect width="1089" height="3273.75" fill="white" transform="translate(0 3236)"/>
</clipPath>
</defs>
</svg>
