<svg width="1452" height="8675" viewBox="0 0 1452 8675" fill="none" xmlns="http://www.w3.org/2000/svg">
<g clip-path="url(#clip0_3106_25782)">
<mask id="mask0_3106_25782" style="mask-type:luminance" maskUnits="userSpaceOnUse" x="1186" y="5665" width="300" height="322">
<path d="M1486 5665H1186V5987H1486V5665Z" fill="white"/>
</mask>
<g mask="url(#mask0_3106_25782)">
<path d="M1509.32 5987C1512.63 5987 1515.32 5984.31 1515.32 5981V5671C1515.32 5667.69 1512.63 5665 1509.32 5665H1192C1188.69 5665 1186 5667.69 1186 5671V5981C1186 5984.31 1188.69 5987 1192 5987H1509.32Z" fill="#FF63BB"/>
<path d="M1515.32 5973.49V5676.26H1204.04V5973.49H1515.32Z" fill="#FF70C4"/>
<path d="M1515.32 5962.23V5689.77H1222.09V5962.23H1515.32Z" fill="#FE7ECE"/>
<path d="M1515.32 5950.98V5701.03H1242.39V5950.98H1515.32Z" fill="#FE8BD7"/>
<path d="M1515.32 5939.71V5714.54H1260.43V5939.71H1515.32Z" fill="#FE99E1"/>
<path d="M1515.32 5926.2V5725.8H1278.48V5926.2H1515.32Z" fill="#FEA6EA"/>
<path d="M1515.32 5912.69V5737.05H1296.52V5912.69H1515.32Z" fill="#FDB4F4"/>
<path d="M1515.32 5903.69V5750.57H1316.82V5903.69H1515.32Z" fill="#FDC1FD"/>
</g>
<mask id="mask1_3106_25782" style="mask-type:luminance" maskUnits="userSpaceOnUse" x="528" y="6025" width="578" height="370">
<path d="M1098 6025H536C531.582 6025 528 6028.58 528 6033V6387C528 6391.42 531.582 6395 536 6395H1098C1102.42 6395 1106 6391.42 1106 6387V6033C1106 6028.58 1102.42 6025 1098 6025Z" fill="white"/>
</mask>
<g mask="url(#mask1_3106_25782)">
<path d="M528 6032C528 6028.13 531.134 6025 535 6025H1099C1102.87 6025 1106 6028.13 1106 6032V6454C1106 6457.87 1102.87 6461 1099 6461H535C531.134 6461 528 6457.87 528 6454V6032Z" fill="#FFF790"/>
<path d="M538.461 6387.03L1081.34 6386.38L1081.54 6037.94L538.66 6038.58L538.461 6387.03Z" fill="#E7F0A0"/>
<path d="M539.594 6359.41L1041.73 6375.73L1053.62 6061.42L551.472 6045.1L539.594 6359.41Z" fill="#CEE9B1"/>
<path d="M542.641 6328.86L1004 6362.07L1027.63 6082.81L566.259 6049.59L542.641 6328.86Z" fill="#B6E2C1"/>
<path d="M543.719 6299.38L964.313 6349.45L999.684 6105.2L579.09 6055.13L543.719 6299.38Z" fill="#9EDBD1"/>
<path d="M544.859 6271.64L924.673 6338.79L971.777 6128.8L591.975 6061.64L544.859 6271.64Z" fill="#85D4E2"/>
<path d="M606.425 6065.82L943.836 6149.54L885.255 6323.76L547.844 6240.04L606.425 6065.82Z" fill="#6DCDF2"/>
<mask id="mask2_3106_25782" style="mask-type:luminance" maskUnits="userSpaceOnUse" x="529" y="6025" width="576" height="370">
<path d="M1105 6025H529V6395H1105V6025Z" fill="white"/>
</mask>
<g mask="url(#mask2_3106_25782)">
<path d="M1098 6025H536C532.134 6025 529 6028.13 529 6032V6388C529 6391.87 532.134 6395 536 6395H1098C1101.87 6395 1105 6391.87 1105 6388V6032C1105 6028.13 1101.87 6025 1098 6025Z" fill="#FFF790"/>
<path d="M1083 6025H549V6405H1083V6025Z" fill="#E7F0A0"/>
<path d="M1069 6045H563V6405H1069V6045Z" fill="#CEE9B1"/>
<path d="M1055 6078H577V6422H1055V6078Z" fill="#B6E2C1"/>
<path d="M1036 6109H595V6433H1036V6109Z" fill="#9EDBD1"/>
<path d="M1022 6145H610V6439H1022V6145Z" fill="#85D4E2"/>
<path d="M1004 6172H628V6440H1004V6172Z" fill="#6DCDF2"/>
<path d="M987 6208H645V6452H987V6208Z" fill="#42C9FD"/>
</g>
</g>
<mask id="mask3_3106_25782" style="mask-type:luminance" maskUnits="userSpaceOnUse" x="528" y="8222" width="578" height="370">
<path d="M1098 8222H536C531.582 8222 528 8225.58 528 8230V8584C528 8588.42 531.582 8592 536 8592H1098C1102.42 8592 1106 8588.42 1106 8584V8230C1106 8225.58 1102.42 8222 1098 8222Z" fill="white"/>
</mask>
<g mask="url(#mask3_3106_25782)">
<path d="M528 8229C528 8225.13 531.134 8222 535 8222H1099C1102.87 8222 1106 8225.13 1106 8229V8651C1106 8654.87 1102.87 8658 1099 8658H535C531.134 8658 528 8654.87 528 8651V8229Z" fill="#FFF790"/>
<path d="M538.461 8584.03L1081.34 8583.38L1081.54 8234.94L538.66 8235.58L538.461 8584.03Z" fill="#E7F0A0"/>
<path d="M539.594 8556.41L1041.73 8572.73L1053.62 8258.42L551.472 8242.1L539.594 8556.41Z" fill="#CEE9B1"/>
<path d="M542.641 8525.86L1004 8559.07L1027.63 8279.81L566.259 8246.59L542.641 8525.86Z" fill="#B6E2C1"/>
<path d="M543.719 8496.38L964.313 8546.45L999.684 8302.2L579.09 8252.13L543.719 8496.38Z" fill="#9EDBD1"/>
<path d="M544.859 8468.64L924.673 8535.79L971.777 8325.8L591.975 8258.64L544.859 8468.64Z" fill="#85D4E2"/>
<path d="M606.425 8262.82L943.836 8346.54L885.255 8520.76L547.844 8437.04L606.425 8262.82Z" fill="#6DCDF2"/>
<mask id="mask4_3106_25782" style="mask-type:luminance" maskUnits="userSpaceOnUse" x="529" y="8222" width="576" height="370">
<path d="M1105 8222H529V8592H1105V8222Z" fill="white"/>
</mask>
<g mask="url(#mask4_3106_25782)">
<path d="M1098 8222H536C532.134 8222 529 8225.13 529 8229V8585C529 8588.87 532.134 8592 536 8592H1098C1101.87 8592 1105 8588.87 1105 8585V8229C1105 8225.13 1101.87 8222 1098 8222Z" fill="#FFF790"/>
<path d="M1083 8222H549V8602H1083V8222Z" fill="#E7F0A0"/>
<path d="M1069 8242H563V8602H1069V8242Z" fill="#CEE9B1"/>
<path d="M1055 8275H577V8619H1055V8275Z" fill="#B6E2C1"/>
<path d="M1036 8306H595V8630H1036V8306Z" fill="#9EDBD1"/>
<path d="M1022 8342H610V8636H1022V8342Z" fill="#85D4E2"/>
<path d="M1004 8369H628V8637H1004V8369Z" fill="#6DCDF2"/>
<path d="M987 8405H645V8649H987V8405Z" fill="#42C9FD"/>
</g>
</g>
<path d="M178 5011C178 5014.31 180.686 5017 184 5017H680C683.314 5017 686 5014.31 686 5011V4639C686 4635.69 683.314 4633 680 4633H184C180.686 4633 178 4635.69 178 4639V5011Z" fill="#FF63BB"/>
<path opacity="0.6" d="M182.504 4637.02L661.905 4644.64L657.392 4998.91L178 4991.3L182.504 4637.02Z" fill="#F979C5"/>
<path opacity="0.6" d="M191.012 4639.03L639.819 4654.23L630.823 4978.8L182.016 4963.59L191.012 4639.03Z" fill="#F28ECE"/>
<path opacity="0.6" d="M195.531 4641.04L615.724 4663.95L602.199 4960.7L182.016 4937.8L195.531 4641.04Z" fill="#ECA4D8"/>
<path opacity="0.6" d="M204.009 4643.05L593.636 4673.55L575.658 4940.6L186.031 4910.11L204.009 4643.05Z" fill="#E6B9E2"/>
<path opacity="0.6" d="M208.547 4647.07L569.541 4685.13L547.015 4922.51L186.031 4884.45L208.547 4647.07Z" fill="#E0CFEC"/>
<path opacity="0.6" d="M216.988 4649.09L547.454 4694.66L520.514 4902.4L190.047 4856.82L216.988 4649.09Z" fill="#D9E4F5"/>
<path opacity="0.6" d="M492.014 4883.57L523.355 4705.37L220.825 4651.89L189.484 4830.09L492.014 4883.57Z" fill="#D3FAFF"/>
<mask id="mask5_3106_25782" style="mask-type:luminance" maskUnits="userSpaceOnUse" x="916" y="5009" width="560" height="440">
<path d="M1476 5009H916V5449H1476V5009Z" fill="white"/>
</mask>
<g mask="url(#mask5_3106_25782)">
<path d="M1476 5017C1476 5012.58 1472.42 5009 1468 5009H924C919.582 5009 916 5012.58 916 5017V5441C916 5445.42 919.582 5449 924 5449H1468C1472.42 5449 1476 5445.42 1476 5441V5017Z" fill="#FFF790"/>
<path d="M1474.01 5417.02L954.114 5435L943.898 5034.99L1463.79 5017L1474.01 5417.02Z" fill="#DBF294"/>
<path d="M1470.03 5381.16L990.216 5417L969.812 5058.82L1449.63 5023L1470.03 5381.16Z" fill="#B8ED98"/>
<path d="M1468.02 5348.94L1028.29 5403L997.703 5083.07L1437.45 5029L1468.02 5348.94Z" fill="#95E89C"/>
<path d="M1468.03 5313.26L1066.53 5385L1025.61 5106.75L1427.11 5035L1468.03 5313.26Z" fill="#71E2A0"/>
<path d="M1466.04 5281.25L1104.62 5371L1053.52 5132.75L1414.93 5043L1466.04 5281.25Z" fill="#4EDDA4"/>
<path d="M1400.72 5051.17L1079.42 5159L1141.4 5359.57L1462.71 5251.75L1400.72 5051.17Z" fill="#2AD8A8"/>
</g>
<mask id="mask6_3106_25782" style="mask-type:luminance" maskUnits="userSpaceOnUse" x="-191" y="5485" width="490" height="372">
<path d="M299 5485H-191V5857H299V5485Z" fill="white"/>
</mask>
<g mask="url(#mask6_3106_25782)">
<path d="M290 5485H-182C-186.971 5485 -191 5489.03 -191 5494V5848C-191 5852.97 -186.971 5857 -182 5857H290C294.971 5857 299 5852.97 299 5848V5494C299 5489.03 294.971 5485 290 5485Z" fill="#FDC1FC"/>
<path d="M-150.004 5515.07L-155.93 5872.02L320.005 5879.92L325.93 5522.97L-150.004 5515.07Z" fill="#FEC7E8"/>
<path d="M-101.396 5548.11L-120.5 5873.22L312.975 5898.69L332.079 5573.58L-101.396 5548.11Z" fill="#FDCCD5"/>
<path d="M-51.1445 5575.77L-74.125 5871.79L320.573 5902.43L343.554 5606.41L-51.1445 5575.77Z" fill="#FCD2C0"/>
<path d="M-10.4645 5607.3L-32.0391 5872.09L321.019 5900.86L342.594 5636.07L-10.4645 5607.3Z" fill="#FCD7AB"/>
<path d="M27.9299 5638.01L7.70312 5873.32L321.447 5900.29L341.674 5664.98L27.9299 5638.01Z" fill="#FBDD98"/>
<path d="M64.4917 5681L42 5881.61L309.484 5911.6L331.976 5710.99L64.4917 5681Z" fill="#FCE284"/>
<path d="M103.109 5719.03L83.2188 5896.45L319.769 5922.97L339.659 5745.55L103.109 5719.03Z" fill="#FAE86F"/>
</g>
<mask id="mask7_3106_25782" style="mask-type:luminance" maskUnits="userSpaceOnUse" x="1178" y="7862" width="300" height="322">
<path d="M1478 7862H1178V8184H1478V7862Z" fill="white"/>
</mask>
<g mask="url(#mask7_3106_25782)">
<path d="M1501.32 8184C1504.63 8184 1507.32 8181.31 1507.32 8178V7868C1507.32 7864.69 1504.63 7862 1501.32 7862H1184C1180.69 7862 1178 7864.69 1178 7868V8178C1178 8181.31 1180.69 8184 1184 8184H1501.32Z" fill="#FF63BB"/>
<path d="M1507.32 8170.49V7873.26H1196.04V8170.49H1507.32Z" fill="#FF70C4"/>
<path d="M1507.32 8159.23V7886.77H1214.09V8159.23H1507.32Z" fill="#FE7ECE"/>
<path d="M1507.32 8147.98V7898.03H1234.39V8147.98H1507.32Z" fill="#FE8BD7"/>
<path d="M1507.32 8136.71V7911.54H1252.43V8136.71H1507.32Z" fill="#FE99E1"/>
<path d="M1507.32 8123.2V7922.8H1270.48V8123.2H1507.32Z" fill="#FEA6EA"/>
<path d="M1507.32 8109.69V7934.05H1288.52V8109.69H1507.32Z" fill="#FDB4F4"/>
<path d="M1507.32 8100.69V7947.57H1308.82V8100.69H1507.32Z" fill="#FDC1FD"/>
</g>
<mask id="mask8_3106_25782" style="mask-type:luminance" maskUnits="userSpaceOnUse" x="179" y="6830" width="508" height="384">
<path d="M687 6830H179V7214H687V6830Z" fill="white"/>
</mask>
<g mask="url(#mask8_3106_25782)">
<path d="M179 7208C179 7211.31 181.686 7214 185 7214H681C684.314 7214 687 7211.31 687 7208V6836C687 6832.69 684.314 6830 681 6830H185C181.686 6830 179 6832.69 179 6836V7208Z" fill="#FF63BB"/>
<path opacity="0.6" d="M183.504 6834.02L662.905 6841.64L658.392 7195.91L179 7188.3L183.504 6834.02Z" fill="#F979C5"/>
<path opacity="0.6" d="M192.012 6836.04L640.819 6851.23L631.823 7175.8L183.016 7160.6L192.012 6836.04Z" fill="#F28ECE"/>
<path opacity="0.6" d="M196.531 6838.04L616.724 6860.95L603.199 7157.7L183.016 7134.8L196.531 6838.04Z" fill="#ECA4D8"/>
<path opacity="0.6" d="M205.009 6840.05L594.636 6870.54L576.658 7137.6L187.031 7107.11L205.009 6840.05Z" fill="#E6B9E2"/>
<path opacity="0.6" d="M209.547 6844.07L570.541 6882.13L548.015 7119.51L187.031 7081.45L209.547 6844.07Z" fill="#E0CFEC"/>
<path opacity="0.6" d="M217.988 6846.09L548.454 6891.66L521.514 7099.41L191.047 7053.82L217.988 6846.09Z" fill="#D9E4F5"/>
<path opacity="0.6" d="M493.014 7080.58L524.355 6902.38L221.825 6848.89L190.484 7027.09L493.014 7080.58Z" fill="#D3FAFF"/>
</g>
<mask id="mask9_3106_25782" style="mask-type:luminance" maskUnits="userSpaceOnUse" x="917" y="7206" width="560" height="440">
<path d="M1477 7206H917V7646H1477V7206Z" fill="white"/>
</mask>
<g mask="url(#mask9_3106_25782)">
<path d="M1477 7212C1477 7208.69 1474.31 7206 1471 7206H923C919.686 7206 917 7208.69 917 7212V7640C917 7643.31 919.686 7646 923 7646H1471C1474.31 7646 1477 7643.31 1477 7640V7212Z" fill="#FFF790"/>
<path d="M1475.01 7614.02L955.114 7632L944.898 7231.99L1464.79 7214L1475.01 7614.02Z" fill="#DBF294"/>
<path d="M1471.03 7578.17L991.216 7614L970.812 7255.82L1450.63 7220L1471.03 7578.17Z" fill="#B8ED98"/>
<path d="M1469.02 7545.94L1029.29 7600L998.703 7280.07L1438.45 7226L1469.02 7545.94Z" fill="#95E89C"/>
<path d="M1469.03 7510.26L1067.53 7582L1026.61 7303.75L1428.11 7232L1469.03 7510.26Z" fill="#71E2A0"/>
<path d="M1467.04 7478.25L1105.62 7568L1054.52 7329.75L1415.93 7240L1467.04 7478.25Z" fill="#4EDDA4"/>
<path d="M1401.72 7248.18L1080.42 7356L1142.4 7556.58L1463.71 7448.75L1401.72 7248.18Z" fill="#2AD8A8"/>
</g>
<path d="M319 6548.68C319 6545.92 316.761 6543.68 314 6543.68H-26C-28.7614 6543.68 -31 6545.92 -31 6548.68V6815C-31 6817.76 -28.7614 6820 -26 6820H314C316.761 6820 319 6817.76 319 6815V6548.68Z" fill="#FF682E"/>
<path d="M295.351 6543.68H-31V6794.02H295.351V6543.68Z" fill="#FF7646"/>
<path d="M271.703 6543.68H-31V6770.4H271.703V6543.68Z" fill="#FF845D"/>
<path d="M250.419 6543.68H-31V6746.79H250.419V6543.68Z" fill="#FF9275"/>
<path d="M224.405 6543.68H-31V6720.81H224.405V6543.68Z" fill="#FF9F8C"/>
<path d="M203.122 6543.68H-31V6697.19H203.122V6543.68Z" fill="#FFADA3"/>
<path d="M179.473 6543.68H-31V6675.94H179.473V6543.68Z" fill="#FFBBBB"/>
<mask id="mask10_3106_25782" style="mask-type:luminance" maskUnits="userSpaceOnUse" x="-190" y="7683" width="490" height="372">
<path d="M292 7683H-182C-186.418 7683 -190 7686.58 -190 7691V8047C-190 8051.42 -186.418 8055 -182 8055H292C296.418 8055 300 8051.42 300 8047V7691C300 7686.58 296.418 7683 292 7683Z" fill="white"/>
</mask>
<g mask="url(#mask10_3106_25782)">
<path d="M291 7683H-181C-185.971 7683 -190 7687.03 -190 7692V8046C-190 8050.97 -185.971 8055 -181 8055H291C295.971 8055 300 8050.97 300 8046V7692C300 7687.03 295.971 7683 291 7683Z" fill="#FDC1FC"/>
<path d="M-149.004 7713.07L-154.93 8070.02L321.005 8077.92L326.93 7720.97L-149.004 7713.07Z" fill="#FEC7E8"/>
<path d="M-100.396 7746.1L-119.5 8071.21L313.975 8096.68L333.079 7771.58L-100.396 7746.1Z" fill="#FDCCD5"/>
<path d="M-50.1445 7773.77L-73.125 8069.79L321.573 8100.43L344.554 7804.41L-50.1445 7773.77Z" fill="#FCD2C0"/>
<path d="M-9.46447 7805.31L-31.0391 8070.1L322.019 8098.87L343.594 7834.07L-9.46447 7805.31Z" fill="#FCD7AB"/>
<path d="M28.9299 7836.02L8.70312 8071.33L322.447 8098.3L342.674 7862.99L28.9299 7836.02Z" fill="#FBDD98"/>
<path d="M65.4917 7878.99L43 8079.6L310.484 8109.59L332.976 7908.98L65.4917 7878.99Z" fill="#FCE284"/>
<path d="M104.109 7917.03L84.2188 8094.45L320.769 8120.97L340.659 7943.55L104.109 7917.03Z" fill="#FAE86F"/>
</g>
</g>
<g clip-path="url(#clip1_3106_25782)">
<mask id="mask11_3106_25782" style="mask-type:luminance" maskUnits="userSpaceOnUse" x="1186" y="1355" width="300" height="322">
<path d="M1486 1355H1186V1677H1486V1355Z" fill="white"/>
</mask>
<g mask="url(#mask11_3106_25782)">
<path d="M1509.32 1677C1512.63 1677 1515.32 1674.31 1515.32 1671V1361C1515.32 1357.69 1512.63 1355 1509.32 1355H1192C1188.69 1355 1186 1357.69 1186 1361V1671C1186 1674.31 1188.69 1677 1192 1677H1509.32Z" fill="#FF63BB"/>
<path d="M1515.32 1663.49V1366.26H1204.04V1663.49H1515.32Z" fill="#FF70C4"/>
<path d="M1515.32 1652.23V1379.77H1222.09V1652.23H1515.32Z" fill="#FE7ECE"/>
<path d="M1515.32 1640.98V1391.03H1242.39V1640.98H1515.32Z" fill="#FE8BD7"/>
<path d="M1515.32 1629.71V1404.54H1260.43V1629.71H1515.32Z" fill="#FE99E1"/>
<path d="M1515.32 1616.2V1415.8H1278.48V1616.2H1515.32Z" fill="#FEA6EA"/>
<path d="M1515.32 1602.69V1427.05H1296.52V1602.69H1515.32Z" fill="#FDB4F4"/>
<path d="M1515.32 1593.69V1440.57H1316.82V1593.69H1515.32Z" fill="#FDC1FD"/>
</g>
<mask id="mask12_3106_25782" style="mask-type:luminance" maskUnits="userSpaceOnUse" x="528" y="1715" width="578" height="370">
<path d="M1098 1715H536C531.582 1715 528 1718.58 528 1723V2077C528 2081.42 531.582 2085 536 2085H1098C1102.42 2085 1106 2081.42 1106 2077V1723C1106 1718.58 1102.42 1715 1098 1715Z" fill="white"/>
</mask>
<g mask="url(#mask12_3106_25782)">
<path d="M528 1722C528 1718.13 531.134 1715 535 1715H1099C1102.87 1715 1106 1718.13 1106 1722V2144C1106 2147.87 1102.87 2151 1099 2151H535C531.134 2151 528 2147.87 528 2144V1722Z" fill="#FFF790"/>
<path d="M538.461 2077.03L1081.34 2076.38L1081.54 1727.94L538.66 1728.58L538.461 2077.03Z" fill="#E7F0A0"/>
<path d="M539.594 2049.41L1041.73 2065.73L1053.62 1751.42L551.472 1735.1L539.594 2049.41Z" fill="#CEE9B1"/>
<path d="M542.641 2018.86L1004 2052.07L1027.63 1772.81L566.259 1739.59L542.641 2018.86Z" fill="#B6E2C1"/>
<path d="M543.719 1989.38L964.313 2039.45L999.684 1795.2L579.09 1745.13L543.719 1989.38Z" fill="#9EDBD1"/>
<path d="M544.859 1961.64L924.673 2028.79L971.777 1818.8L591.975 1751.64L544.859 1961.64Z" fill="#85D4E2"/>
<path d="M606.425 1755.82L943.836 1839.54L885.255 2013.76L547.844 1930.04L606.425 1755.82Z" fill="#6DCDF2"/>
<mask id="mask13_3106_25782" style="mask-type:luminance" maskUnits="userSpaceOnUse" x="529" y="1715" width="576" height="370">
<path d="M1105 1715H529V2085H1105V1715Z" fill="white"/>
</mask>
<g mask="url(#mask13_3106_25782)">
<path d="M1098 1715H536C532.134 1715 529 1718.13 529 1722V2078C529 2081.87 532.134 2085 536 2085H1098C1101.87 2085 1105 2081.87 1105 2078V1722C1105 1718.13 1101.87 1715 1098 1715Z" fill="#FFF790"/>
<path d="M1083 1715H549V2095H1083V1715Z" fill="#E7F0A0"/>
<path d="M1069 1735H563V2095H1069V1735Z" fill="#CEE9B1"/>
<path d="M1055 1768H577V2112H1055V1768Z" fill="#B6E2C1"/>
<path d="M1036 1799H595V2123H1036V1799Z" fill="#9EDBD1"/>
<path d="M1022 1835H610V2129H1022V1835Z" fill="#85D4E2"/>
<path d="M1004 1862H628V2130H1004V1862Z" fill="#6DCDF2"/>
<path d="M987 1898H645V2142H987V1898Z" fill="#42C9FD"/>
</g>
</g>
<mask id="mask14_3106_25782" style="mask-type:luminance" maskUnits="userSpaceOnUse" x="528" y="3912" width="578" height="370">
<path d="M1098 3912H536C531.582 3912 528 3915.58 528 3920V4274C528 4278.42 531.582 4282 536 4282H1098C1102.42 4282 1106 4278.42 1106 4274V3920C1106 3915.58 1102.42 3912 1098 3912Z" fill="white"/>
</mask>
<g mask="url(#mask14_3106_25782)">
<path d="M528 3919C528 3915.13 531.134 3912 535 3912H1099C1102.87 3912 1106 3915.13 1106 3919V4341C1106 4344.87 1102.87 4348 1099 4348H535C531.134 4348 528 4344.87 528 4341V3919Z" fill="#FFF790"/>
<path d="M538.461 4274.03L1081.34 4273.38L1081.54 3924.94L538.66 3925.58L538.461 4274.03Z" fill="#E7F0A0"/>
<path d="M539.594 4246.41L1041.73 4262.73L1053.62 3948.42L551.472 3932.1L539.594 4246.41Z" fill="#CEE9B1"/>
<path d="M542.641 4215.86L1004 4249.07L1027.63 3969.81L566.259 3936.59L542.641 4215.86Z" fill="#B6E2C1"/>
<path d="M543.719 4186.38L964.313 4236.45L999.684 3992.2L579.09 3942.13L543.719 4186.38Z" fill="#9EDBD1"/>
<path d="M544.859 4158.64L924.673 4225.79L971.777 4015.8L591.975 3948.64L544.859 4158.64Z" fill="#85D4E2"/>
<path d="M606.425 3952.82L943.836 4036.54L885.255 4210.76L547.844 4127.04L606.425 3952.82Z" fill="#6DCDF2"/>
<mask id="mask15_3106_25782" style="mask-type:luminance" maskUnits="userSpaceOnUse" x="529" y="3912" width="576" height="370">
<path d="M1105 3912H529V4282H1105V3912Z" fill="white"/>
</mask>
<g mask="url(#mask15_3106_25782)">
<path d="M1098 3912H536C532.134 3912 529 3915.13 529 3919V4275C529 4278.87 532.134 4282 536 4282H1098C1101.87 4282 1105 4278.87 1105 4275V3919C1105 3915.13 1101.87 3912 1098 3912Z" fill="#FFF790"/>
<path d="M1083 3912H549V4292H1083V3912Z" fill="#E7F0A0"/>
<path d="M1069 3932H563V4292H1069V3932Z" fill="#CEE9B1"/>
<path d="M1055 3965H577V4309H1055V3965Z" fill="#B6E2C1"/>
<path d="M1036 3996H595V4320H1036V3996Z" fill="#9EDBD1"/>
<path d="M1022 4032H610V4326H1022V4032Z" fill="#85D4E2"/>
<path d="M1004 4059H628V4327H1004V4059Z" fill="#6DCDF2"/>
<path d="M987 4095H645V4339H987V4095Z" fill="#42C9FD"/>
</g>
</g>
<path d="M178 701C178 704.314 180.686 707 184 707H680C683.314 707 686 704.314 686 701V329C686 325.686 683.314 323 680 323H184C180.686 323 178 325.686 178 329V701Z" fill="#FF63BB"/>
<path opacity="0.6" d="M182.504 327.023L661.905 334.643L657.392 688.908L178 681.299L182.504 327.023Z" fill="#F979C5"/>
<path opacity="0.6" d="M191.012 329.031L639.819 344.228L630.823 668.801L182.016 653.594L191.012 329.031Z" fill="#F28ECE"/>
<path opacity="0.6" d="M195.531 331.039L615.724 353.951L602.199 650.704L182.016 627.803L195.531 331.039Z" fill="#ECA4D8"/>
<path opacity="0.6" d="M204.009 333.055L593.636 363.547L575.658 630.605L186.031 600.113L204.009 333.055Z" fill="#E6B9E2"/>
<path opacity="0.6" d="M208.547 337.07L569.541 375.131L547.015 612.505L186.031 574.445L208.547 337.07Z" fill="#E0CFEC"/>
<path opacity="0.6" d="M216.988 339.086L547.454 384.659L520.514 592.405L190.047 546.822L216.988 339.086Z" fill="#D9E4F5"/>
<path opacity="0.6" d="M492.014 573.572L523.355 395.372L220.825 341.891L189.484 520.091L492.014 573.572Z" fill="#D3FAFF"/>
<mask id="mask16_3106_25782" style="mask-type:luminance" maskUnits="userSpaceOnUse" x="916" y="699" width="560" height="440">
<path d="M1476 699H916V1139H1476V699Z" fill="white"/>
</mask>
<g mask="url(#mask16_3106_25782)">
<path d="M1476 707C1476 702.582 1472.42 699 1468 699H924C919.582 699 916 702.582 916 707V1131C916 1135.42 919.582 1139 924 1139H1468C1472.42 1139 1476 1135.42 1476 1131V707Z" fill="#FFF790"/>
<path d="M1474.01 1107.02L954.114 1125L943.898 724.995L1463.79 707L1474.01 1107.02Z" fill="#DBF294"/>
<path d="M1470.03 1071.16L990.216 1107L969.812 748.823L1449.63 713L1470.03 1071.16Z" fill="#B8ED98"/>
<path d="M1468.02 1038.94L1028.29 1093L997.703 773.072L1437.45 719L1468.02 1038.94Z" fill="#95E89C"/>
<path d="M1468.03 1003.26L1066.53 1075L1025.61 796.753L1427.11 725L1468.03 1003.26Z" fill="#71E2A0"/>
<path d="M1466.04 971.252L1104.62 1061L1053.52 822.748L1414.93 733L1466.04 971.252Z" fill="#4EDDA4"/>
<path d="M1400.72 741.172L1079.42 848.997L1141.4 1049.57L1462.71 941.748L1400.72 741.172Z" fill="#2AD8A8"/>
</g>
<mask id="mask17_3106_25782" style="mask-type:luminance" maskUnits="userSpaceOnUse" x="-191" y="1175" width="490" height="372">
<path d="M299 1175H-191V1547H299V1175Z" fill="white"/>
</mask>
<g mask="url(#mask17_3106_25782)">
<path d="M290 1175H-182C-186.971 1175 -191 1179.03 -191 1184V1538C-191 1542.97 -186.971 1547 -182 1547H290C294.971 1547 299 1542.97 299 1538V1184C299 1179.03 294.971 1175 290 1175Z" fill="#FDC1FC"/>
<path d="M-150.004 1205.07L-155.93 1562.02L320.005 1569.92L325.93 1212.97L-150.004 1205.07Z" fill="#FEC7E8"/>
<path d="M-101.396 1238.11L-120.5 1563.22L312.975 1588.69L332.079 1263.58L-101.396 1238.11Z" fill="#FDCCD5"/>
<path d="M-51.1445 1265.77L-74.125 1561.79L320.573 1592.43L343.554 1296.41L-51.1445 1265.77Z" fill="#FCD2C0"/>
<path d="M-10.4645 1297.3L-32.0391 1562.09L321.019 1590.86L342.594 1326.07L-10.4645 1297.3Z" fill="#FCD7AB"/>
<path d="M27.9299 1328.01L7.70312 1563.32L321.447 1590.29L341.674 1354.98L27.9299 1328.01Z" fill="#FBDD98"/>
<path d="M64.4917 1371L42 1571.61L309.484 1601.6L331.976 1400.99L64.4917 1371Z" fill="#FCE284"/>
<path d="M103.109 1409.03L83.2188 1586.45L319.769 1612.97L339.659 1435.55L103.109 1409.03Z" fill="#FAE86F"/>
</g>
<mask id="mask18_3106_25782" style="mask-type:luminance" maskUnits="userSpaceOnUse" x="1178" y="3552" width="300" height="322">
<path d="M1478 3552H1178V3874H1478V3552Z" fill="white"/>
</mask>
<g mask="url(#mask18_3106_25782)">
<path d="M1501.32 3874C1504.63 3874 1507.32 3871.31 1507.32 3868V3558C1507.32 3554.69 1504.63 3552 1501.32 3552H1184C1180.69 3552 1178 3554.69 1178 3558V3868C1178 3871.31 1180.69 3874 1184 3874H1501.32Z" fill="#FF63BB"/>
<path d="M1507.32 3860.49V3563.26H1196.04V3860.49H1507.32Z" fill="#FF70C4"/>
<path d="M1507.32 3849.23V3576.77H1214.09V3849.23H1507.32Z" fill="#FE7ECE"/>
<path d="M1507.32 3837.98V3588.03H1234.39V3837.98H1507.32Z" fill="#FE8BD7"/>
<path d="M1507.32 3826.71V3601.54H1252.43V3826.71H1507.32Z" fill="#FE99E1"/>
<path d="M1507.32 3813.2V3612.8H1270.48V3813.2H1507.32Z" fill="#FEA6EA"/>
<path d="M1507.32 3799.69V3624.05H1288.52V3799.69H1507.32Z" fill="#FDB4F4"/>
<path d="M1507.32 3790.69V3637.57H1308.82V3790.69H1507.32Z" fill="#FDC1FD"/>
</g>
<mask id="mask19_3106_25782" style="mask-type:luminance" maskUnits="userSpaceOnUse" x="179" y="2520" width="508" height="384">
<path d="M687 2520H179V2904H687V2520Z" fill="white"/>
</mask>
<g mask="url(#mask19_3106_25782)">
<path d="M179 2898C179 2901.31 181.686 2904 185 2904H681C684.314 2904 687 2901.31 687 2898V2526C687 2522.69 684.314 2520 681 2520H185C181.686 2520 179 2522.69 179 2526V2898Z" fill="#FF63BB"/>
<path opacity="0.6" d="M183.504 2524.02L662.905 2531.64L658.392 2885.91L179 2878.3L183.504 2524.02Z" fill="#F979C5"/>
<path opacity="0.6" d="M192.012 2526.04L640.819 2541.23L631.823 2865.8L183.016 2850.6L192.012 2526.04Z" fill="#F28ECE"/>
<path opacity="0.6" d="M196.531 2528.04L616.724 2550.95L603.199 2847.7L183.016 2824.8L196.531 2528.04Z" fill="#ECA4D8"/>
<path opacity="0.6" d="M205.009 2530.05L594.636 2560.54L576.658 2827.6L187.031 2797.11L205.009 2530.05Z" fill="#E6B9E2"/>
<path opacity="0.6" d="M209.547 2534.07L570.541 2572.13L548.015 2809.51L187.031 2771.45L209.547 2534.07Z" fill="#E0CFEC"/>
<path opacity="0.6" d="M217.988 2536.09L548.454 2581.66L521.514 2789.41L191.047 2743.82L217.988 2536.09Z" fill="#D9E4F5"/>
<path opacity="0.6" d="M493.014 2770.58L524.355 2592.38L221.825 2538.89L190.484 2717.09L493.014 2770.58Z" fill="#D3FAFF"/>
</g>
<mask id="mask20_3106_25782" style="mask-type:luminance" maskUnits="userSpaceOnUse" x="917" y="2896" width="560" height="440">
<path d="M1477 2896H917V3336H1477V2896Z" fill="white"/>
</mask>
<g mask="url(#mask20_3106_25782)">
<path d="M1477 2902C1477 2898.69 1474.31 2896 1471 2896H923C919.686 2896 917 2898.69 917 2902V3330C917 3333.31 919.686 3336 923 3336H1471C1474.31 3336 1477 3333.31 1477 3330V2902Z" fill="#FFF790"/>
<path d="M1475.01 3304.02L955.114 3322L944.898 2921.99L1464.79 2904L1475.01 3304.02Z" fill="#DBF294"/>
<path d="M1471.03 3268.17L991.216 3304L970.812 2945.82L1450.63 2910L1471.03 3268.17Z" fill="#B8ED98"/>
<path d="M1469.02 3235.94L1029.29 3290L998.703 2970.07L1438.45 2916L1469.02 3235.94Z" fill="#95E89C"/>
<path d="M1469.03 3200.26L1067.53 3272L1026.61 2993.75L1428.11 2922L1469.03 3200.26Z" fill="#71E2A0"/>
<path d="M1467.04 3168.25L1105.62 3258L1054.52 3019.75L1415.93 2930L1467.04 3168.25Z" fill="#4EDDA4"/>
<path d="M1401.72 2938.18L1080.42 3046L1142.4 3246.58L1463.71 3138.75L1401.72 2938.18Z" fill="#2AD8A8"/>
</g>
<path d="M319 2238.68C319 2235.92 316.761 2233.68 314 2233.68H-26C-28.7614 2233.68 -31 2235.92 -31 2238.68V2505C-31 2507.76 -28.7614 2510 -26 2510H314C316.761 2510 319 2507.76 319 2505V2238.68Z" fill="#FF682E"/>
<path d="M295.351 2233.68H-31V2484.02H295.351V2233.68Z" fill="#FF7646"/>
<path d="M271.703 2233.68H-31V2460.4H271.703V2233.68Z" fill="#FF845D"/>
<path d="M250.419 2233.68H-31V2436.79H250.419V2233.68Z" fill="#FF9275"/>
<path d="M224.405 2233.68H-31V2410.81H224.405V2233.68Z" fill="#FF9F8C"/>
<path d="M203.122 2233.68H-31V2387.19H203.122V2233.68Z" fill="#FFADA3"/>
<path d="M179.473 2233.68H-31V2365.94H179.473V2233.68Z" fill="#FFBBBB"/>
<mask id="mask21_3106_25782" style="mask-type:luminance" maskUnits="userSpaceOnUse" x="-190" y="3373" width="490" height="372">
<path d="M292 3373H-182C-186.418 3373 -190 3376.58 -190 3381V3737C-190 3741.42 -186.418 3745 -182 3745H292C296.418 3745 300 3741.42 300 3737V3381C300 3376.58 296.418 3373 292 3373Z" fill="white"/>
</mask>
<g mask="url(#mask21_3106_25782)">
<path d="M291 3373H-181C-185.971 3373 -190 3377.03 -190 3382V3736C-190 3740.97 -185.971 3745 -181 3745H291C295.971 3745 300 3740.97 300 3736V3382C300 3377.03 295.971 3373 291 3373Z" fill="#FDC1FC"/>
<path d="M-149.004 3403.07L-154.93 3760.02L321.005 3767.92L326.93 3410.97L-149.004 3403.07Z" fill="#FEC7E8"/>
<path d="M-100.396 3436.1L-119.5 3761.21L313.975 3786.68L333.079 3461.58L-100.396 3436.1Z" fill="#FDCCD5"/>
<path d="M-50.1445 3463.77L-73.125 3759.79L321.573 3790.43L344.554 3494.41L-50.1445 3463.77Z" fill="#FCD2C0"/>
<path d="M-9.46447 3495.31L-31.0391 3760.1L322.019 3788.87L343.594 3524.07L-9.46447 3495.31Z" fill="#FCD7AB"/>
<path d="M28.9299 3526.02L8.70312 3761.33L322.447 3788.3L342.674 3552.99L28.9299 3526.02Z" fill="#FBDD98"/>
<path d="M65.4917 3568.99L43 3769.6L310.484 3799.59L332.976 3598.98L65.4917 3568.99Z" fill="#FCE284"/>
<path d="M104.109 3607.03L84.2188 3784.45L320.769 3810.97L340.659 3633.55L104.109 3607.03Z" fill="#FAE86F"/>
</g>
</g>
<g clip-path="url(#clip2_3106_25782)">
<g opacity="0.7">
<mask id="mask22_3106_25782" style="mask-type:luminance" maskUnits="userSpaceOnUse" x="1116" y="6246" width="306" height="232">
<path d="M1422 6246H1116V6478H1422V6246Z" fill="white"/>
</mask>
<g mask="url(#mask22_3106_25782)">
<path d="M1422 6472C1422 6475.31 1419.31 6478 1416 6478H1122C1118.69 6478 1116 6475.31 1116 6472V6252C1116 6248.69 1118.69 6246 1122 6246H1416C1419.31 6246 1422 6248.69 1422 6252V6472Z" fill="#FFF67F"/>
<path opacity="0.5" d="M1404 6476H1118V6264H1404V6476Z" fill="#E1F391"/>
<path opacity="0.5" d="M1386 6474H1120V6282H1386V6474Z" fill="#C4F0A2"/>
<path opacity="0.5" d="M1366 6472H1120V6302H1366V6472Z" fill="#A6EDB3"/>
<path opacity="0.5" d="M1348 6470H1122V6320H1348V6470Z" fill="#88EAC5"/>
<path opacity="0.5" d="M1328 6468H1124V6338H1328V6468Z" fill="#6BE7D6"/>
<path opacity="0.5" d="M1310 6466H1126V6356H1310V6466Z" fill="#4DE4E8"/>
</g>
</g>
<g opacity="0.7">
<mask id="mask23_3106_25782" style="mask-type:luminance" maskUnits="userSpaceOnUse" x="586" y="5284" width="268" height="202">
<path d="M854 5284H586V5486H854V5284Z" fill="white"/>
</mask>
<g mask="url(#mask23_3106_25782)">
<path d="M586 5290C586 5286.69 588.686 5284 592 5284H848C851.314 5284 854 5286.69 854 5290V5480C854 5483.31 851.314 5486 848 5486H592C588.686 5486 586 5483.31 586 5480V5290Z" fill="#FFF67F"/>
<path opacity="0.5" d="M602.125 5286H851.989V5470H602.125V5286Z" fill="#E1F391"/>
<path opacity="0.5" d="M620.25 5288H851.979V5454H620.25V5288Z" fill="#C4F0A2"/>
<path opacity="0.5" d="M634.359 5290H849.968V5438H634.359V5290Z" fill="#A6EDB3"/>
<path opacity="0.5" d="M650.484 5292H847.958V5424H650.484V5292Z" fill="#88EAC5"/>
<path opacity="0.5" d="M666.594 5292H845.933V5406H666.594V5292Z" fill="#6BE7D6"/>
<path opacity="0.5" d="M684.734 5294H845.938V5390H684.734V5294Z" fill="#4DE4E8"/>
</g>
</g>
<g opacity="0.7">
<mask id="mask24_3106_25782" style="mask-type:luminance" maskUnits="userSpaceOnUse" x="-32" y="4310" width="350" height="222">
<path d="M311 4310H-25C-28.866 4310 -32 4313.13 -32 4317V4525C-32 4528.87 -28.866 4532 -25 4532H311C314.866 4532 318 4528.87 318 4525V4317C318 4313.13 314.866 4310 311 4310Z" fill="white"/>
</mask>
<g mask="url(#mask24_3106_25782)">
<path d="M319 4313H-31V4535H319V4313Z" fill="#FF682E"/>
<mask id="mask25_3106_25782" style="mask-type:luminance" maskUnits="userSpaceOnUse" x="-3" y="4294" width="322" height="245">
<path d="M-3 4294H307.794C313.983 4294 319 4299.02 319 4305.21V4527.79C319 4533.98 313.983 4539 307.794 4539H-3V4294Z" fill="white"/>
</mask>
<g mask="url(#mask25_3106_25782)">
<path d="M319.004 4233.13H-73.2188V4542.79H319.004V4233.13Z" fill="#FF682E"/>
<path d="M292.502 4233.13H-73.2188V4513.67H292.502V4233.13Z" fill="#FF7646"/>
<path d="M266.001 4233.13H-73.2188V4487.21H266.001V4233.13Z" fill="#FF845D"/>
<path d="M242.149 4233.13H-73.2188V4460.74H242.149V4233.13Z" fill="#FF9275"/>
<path d="M212.998 4233.13H-73.2188V4431.63H212.998V4233.13Z" fill="#FF9F8C"/>
<path d="M189.146 4233.13H-73.2188V4405.16H189.146V4233.13Z" fill="#FFADA3"/>
<path d="M162.645 4233.13H-73.2188V4381.34H162.645V4233.13Z" fill="#FFBBBB"/>
<path d="M319.01 4294H-47.4375V4542.78H319.01V4294Z" fill="#4DE3E8"/>
<path d="M305.558 4299.61H-28.3906V4534.94H305.558V4299.61Z" fill="#4CD8EC"/>
<path d="M292.111 4304.09H-18.3047V4528.21H292.111V4304.09Z" fill="#4ACBEE"/>
<path d="M279.78 4315.3H-9.34375V4519.25H279.78V4315.3Z" fill="#47BFF1"/>
<path d="M266.335 4325.38H-4.85938V4511.41H266.335V4325.38Z" fill="#46B3F5"/>
<path d="M252.881 4335.47H1.85938V4502.44H252.881V4335.47Z" fill="#43A7F9"/>
<path d="M241.686 4346.68H8.59375V4493.48H241.686V4346.68Z" fill="#4399FC"/>
<path d="M224.87 4363.48H13.0703V4487.87H224.87V4363.48Z" fill="#428EFE"/>
</g>
</g>
</g>
<g opacity="0.7">
<mask id="mask26_3106_25782" style="mask-type:luminance" maskUnits="userSpaceOnUse" x="1116" y="8443" width="306" height="232">
<path d="M1422 8443H1116V8675H1422V8443Z" fill="white"/>
</mask>
<g mask="url(#mask26_3106_25782)">
<path d="M1422 8669C1422 8672.31 1419.31 8675 1416 8675H1122C1118.69 8675 1116 8672.31 1116 8669V8449C1116 8445.69 1118.69 8443 1122 8443H1416C1419.31 8443 1422 8445.69 1422 8449V8669Z" fill="#FFF67F"/>
<path opacity="0.5" d="M1404 8673H1118V8461H1404V8673Z" fill="#E1F391"/>
<path opacity="0.5" d="M1386 8671H1120V8479H1386V8671Z" fill="#C4F0A2"/>
<path opacity="0.5" d="M1366 8669H1120V8499H1366V8669Z" fill="#A6EDB3"/>
<path opacity="0.5" d="M1348 8667H1122V8517H1348V8667Z" fill="#88EAC5"/>
<path opacity="0.5" d="M1328 8665H1124V8535H1328V8665Z" fill="#6BE7D6"/>
<path opacity="0.5" d="M1310 8663H1126V8553H1310V8663Z" fill="#4DE4E8"/>
</g>
</g>
<g opacity="0.7">
<mask id="mask27_3106_25782" style="mask-type:luminance" maskUnits="userSpaceOnUse" x="587" y="7481" width="268" height="202">
<path d="M855 7481H587V7683H855V7481Z" fill="white"/>
</mask>
<g mask="url(#mask27_3106_25782)">
<path d="M587 7487C587 7483.69 589.686 7481 593 7481H849C852.314 7481 855 7483.69 855 7487V7677C855 7680.31 852.314 7683 849 7683H593C589.686 7683 587 7680.31 587 7677V7487Z" fill="#FFF67F"/>
<path opacity="0.5" d="M603.125 7483H852.989V7667H603.125V7483Z" fill="#E1F391"/>
<path opacity="0.5" d="M621.25 7485H852.979V7651H621.25V7485Z" fill="#C4F0A2"/>
<path opacity="0.5" d="M635.359 7487H850.968V7635H635.359V7487Z" fill="#A6EDB3"/>
<path opacity="0.5" d="M651.484 7489H848.958V7621H651.484V7489Z" fill="#88EAC5"/>
<path opacity="0.5" d="M667.594 7489H846.933V7603H667.594V7489Z" fill="#6BE7D6"/>
<path opacity="0.5" d="M685.734 7491H846.938V7587H685.734V7491Z" fill="#4DE4E8"/>
</g>
</g>
<mask id="mask28_3106_25782" style="mask-type:luminance" maskUnits="userSpaceOnUse" x="-190" y="7592" width="490" height="372">
<path d="M292 7592H-182C-186.418 7592 -190 7595.58 -190 7600V7956C-190 7960.42 -186.418 7964 -182 7964H292C296.418 7964 300 7960.42 300 7956V7600C300 7595.58 296.418 7592 292 7592Z" fill="white"/>
</mask>
<g mask="url(#mask28_3106_25782)">
</g>
<g opacity="0.7">
<path d="M1300.82 4378H990C986.134 4378 983 4381.13 983 4385V4738.23C983 4742.1 986.134 4745.23 990 4745.23H1300.82C1304.68 4745.23 1307.82 4742.1 1307.82 4738.23V4385C1307.82 4381.13 1304.68 4378 1300.82 4378Z" fill="#FFF790"/>
<path opacity="0.971" d="M1292.13 4378H990C986.134 4378 983 4381.13 983 4385V4716.52H1292.13V4378Z" fill="#FFE196"/>
<path opacity="0.943" d="M1276.43 4378H990C986.134 4378 983 4381.13 983 4385V4687.81H1276.43V4378Z" fill="#FFCC9C"/>
<path opacity="0.914" d="M1260.74 4378H990C986.134 4378 983 4381.13 983 4385V4659.09H1260.74V4378Z" fill="#FFB6A2"/>
<path opacity="0.886" d="M1245.05 4378H990C986.134 4378 983 4381.13 983 4385V4630.38H1245.05V4378Z" fill="#FFA1A7"/>
<path opacity="0.857" d="M1229.36 4378H990C986.134 4378 983 4381.13 983 4385V4601.67H1229.36V4378Z" fill="#FF8BAD"/>
<path opacity="0.829" d="M1213.67 4378H990C986.134 4378 983 4381.13 983 4385V4572.95H1213.67V4378Z" fill="#FF76B3"/>
<path opacity="0.8" d="M1197.98 4378H990C986.134 4378 983 4381.13 983 4385V4544.24H1197.98V4378Z" fill="#FF60B9"/>
</g>
<g opacity="0.7">
<path d="M1300.82 6579H990C986.134 6579 983 6582.13 983 6586V6939.23C983 6943.1 986.134 6946.23 990 6946.23H1300.82C1304.68 6946.23 1307.82 6943.1 1307.82 6939.23V6586C1307.82 6582.13 1304.68 6579 1300.82 6579Z" fill="#FFF790"/>
<path opacity="0.971" d="M1292.13 6579H990C986.134 6579 983 6582.13 983 6586V6917.52H1292.13V6579Z" fill="#FFE196"/>
<path opacity="0.943" d="M1276.43 6579H990C986.134 6579 983 6582.13 983 6586V6888.81H1276.43V6579Z" fill="#FFCC9C"/>
<path opacity="0.914" d="M1260.74 6579H990C986.134 6579 983 6582.13 983 6586V6860.09H1260.74V6579Z" fill="#FFB6A2"/>
<path opacity="0.886" d="M1245.05 6579H990C986.134 6579 983 6582.13 983 6586V6831.38H1245.05V6579Z" fill="#FFA1A7"/>
<path opacity="0.857" d="M1229.36 6579H990C986.134 6579 983 6582.13 983 6586V6802.67H1229.36V6579Z" fill="#FF8BAD"/>
<path opacity="0.829" d="M1213.67 6579H990C986.134 6579 983 6582.13 983 6586V6773.95H1213.67V6579Z" fill="#FF76B3"/>
<path opacity="0.8" d="M1197.98 6579H990C986.134 6579 983 6582.13 983 6586V6745.24H1197.98V6579Z" fill="#FF60B9"/>
</g>
<g opacity="0.7">
<path d="M742 5496H458C454.686 5496 452 5498.69 452 5502V5692C452 5695.31 454.686 5698 458 5698H742C745.314 5698 748 5695.31 748 5692V5502C748 5498.69 745.314 5496 742 5496Z" fill="#FE785C"/>
<path d="M732.305 5498.32H453.469V5686.17H732.305V5498.32Z" fill="#FE8273"/>
<path d="M716.602 5500.64H454.93V5674.34H716.602V5500.64Z" fill="#FE8D8A"/>
<path d="M700.906 5502.96H456.398V5662.5H700.906V5502.96Z" fill="#FE97A1"/>
<path d="M685.202 5505.28H457.859V5650.67H685.202V5505.28Z" fill="#FDA2B7"/>
<path d="M669.507 5507.61H459.328V5638.85H669.507V5507.61Z" fill="#FDACCE"/>
<path d="M653.812 5509.93H460.797V5627.02H653.812V5509.93Z" fill="#FDB7E5"/>
<path d="M638.117 5512.25H462.266V5615.19H638.117V5512.25Z" fill="#FDC1FC"/>
</g>
<g opacity="0.7">
<path d="M742 7693H458C454.686 7693 452 7695.69 452 7699V7889C452 7892.31 454.686 7895 458 7895H742C745.314 7895 748 7892.31 748 7889V7699C748 7695.69 745.314 7693 742 7693Z" fill="#FE785C"/>
<path d="M732.305 7695.32H453.469V7883.17H732.305V7695.32Z" fill="#FE8273"/>
<path d="M716.602 7697.64H454.93V7871.34H716.602V7697.64Z" fill="#FE8D8A"/>
<path d="M700.906 7699.96H456.398V7859.5H700.906V7699.96Z" fill="#FE97A1"/>
<path d="M685.202 7702.28H457.859V7847.67H685.202V7702.28Z" fill="#FDA2B7"/>
<path d="M669.507 7704.61H459.328V7835.85H669.507V7704.61Z" fill="#FDACCE"/>
<path d="M653.812 7706.93H460.797V7824.02H653.812V7706.93Z" fill="#FDB7E5"/>
<path d="M638.117 7709.25H462.266V7812.19H638.117V7709.25Z" fill="#FDC1FC"/>
</g>
</g>
<g clip-path="url(#clip3_3106_25782)">
<g opacity="0.7">
<mask id="mask29_3106_25782" style="mask-type:luminance" maskUnits="userSpaceOnUse" x="1116" y="1936" width="306" height="232">
<path d="M1422 1936H1116V2168H1422V1936Z" fill="white"/>
</mask>
<g mask="url(#mask29_3106_25782)">
<path d="M1422 2162C1422 2165.31 1419.31 2168 1416 2168H1122C1118.69 2168 1116 2165.31 1116 2162V1942C1116 1938.69 1118.69 1936 1122 1936H1416C1419.31 1936 1422 1938.69 1422 1942V2162Z" fill="#FFF67F"/>
<path opacity="0.5" d="M1404 2166H1118V1954H1404V2166Z" fill="#E1F391"/>
<path opacity="0.5" d="M1386 2164H1120V1972H1386V2164Z" fill="#C4F0A2"/>
<path opacity="0.5" d="M1366 2162H1120V1992H1366V2162Z" fill="#A6EDB3"/>
<path opacity="0.5" d="M1348 2160H1122V2010H1348V2160Z" fill="#88EAC5"/>
<path opacity="0.5" d="M1328 2158H1124V2028H1328V2158Z" fill="#6BE7D6"/>
<path opacity="0.5" d="M1310 2156H1126V2046H1310V2156Z" fill="#4DE4E8"/>
</g>
</g>
<g opacity="0.7">
<mask id="mask30_3106_25782" style="mask-type:luminance" maskUnits="userSpaceOnUse" x="586" y="974" width="268" height="202">
<path d="M854 974H586V1176H854V974Z" fill="white"/>
</mask>
<g mask="url(#mask30_3106_25782)">
<path d="M586 980C586 976.686 588.686 974 592 974H848C851.314 974 854 976.686 854 980V1170C854 1173.31 851.314 1176 848 1176H592C588.686 1176 586 1173.31 586 1170V980Z" fill="#FFF67F"/>
<path opacity="0.5" d="M602.125 976H851.989V1160H602.125V976Z" fill="#E1F391"/>
<path opacity="0.5" d="M620.25 978H851.979V1144H620.25V978Z" fill="#C4F0A2"/>
<path opacity="0.5" d="M634.359 980H849.968V1128H634.359V980Z" fill="#A6EDB3"/>
<path opacity="0.5" d="M650.484 982H847.958V1114H650.484V982Z" fill="#88EAC5"/>
<path opacity="0.5" d="M666.594 982H845.933V1096H666.594V982Z" fill="#6BE7D6"/>
<path opacity="0.5" d="M684.734 984H845.938V1080H684.734V984Z" fill="#4DE4E8"/>
</g>
</g>
<g opacity="0.7">
<mask id="mask31_3106_25782" style="mask-type:luminance" maskUnits="userSpaceOnUse" x="-32" y="0" width="350" height="222">
<path d="M311 0H-25C-28.866 0 -32 3.134 -32 7V215C-32 218.866 -28.866 222 -25 222H311C314.866 222 318 218.866 318 215V7C318 3.13401 314.866 0 311 0Z" fill="white"/>
</mask>
<g mask="url(#mask31_3106_25782)">
<path d="M319 3H-31V225H319V3Z" fill="#FF682E"/>
<mask id="mask32_3106_25782" style="mask-type:luminance" maskUnits="userSpaceOnUse" x="-3" y="-16" width="322" height="245">
<path d="M-3 -16H307.794C313.983 -16 319 -10.983 319 -4.794V217.794C319 223.983 313.983 229 307.794 229H-3V-16Z" fill="white"/>
</mask>
<g mask="url(#mask32_3106_25782)">
<path d="M319.004 -76.8672H-73.2188V232.786H319.004V-76.8672Z" fill="#FF682E"/>
<path d="M292.502 -76.8672H-73.2188V203.673H292.502V-76.8672Z" fill="#FF7646"/>
<path d="M266.001 -76.8672H-73.2188V177.207H266.001V-76.8672Z" fill="#FF845D"/>
<path d="M242.149 -76.8672H-73.2188V150.741H242.149V-76.8672Z" fill="#FF9275"/>
<path d="M212.998 -76.8672H-73.2188V121.628H212.998V-76.8672Z" fill="#FF9F8C"/>
<path d="M189.146 -76.8672H-73.2188V95.1618H189.146V-76.8672Z" fill="#FFADA3"/>
<path d="M162.645 -76.8672H-73.2188V71.3428H162.645V-76.8672Z" fill="#FFBBBB"/>
<path d="M319.01 -16H-47.4375V232.781H319.01V-16Z" fill="#4DE3E8"/>
<path d="M305.558 -10.3906H-28.3906V224.942H305.558V-10.3906Z" fill="#4CD8EC"/>
<path d="M292.111 -5.91406H-18.3047V218.213H292.111V-5.91406Z" fill="#4ACBEE"/>
<path d="M279.78 5.29688H-9.34375V209.253H279.78V5.29688Z" fill="#47BFF1"/>
<path d="M266.335 15.3828H-4.85938V201.408H266.335V15.3828Z" fill="#46B3F5"/>
<path d="M252.881 25.4688H1.85938V192.444H252.881V25.4688Z" fill="#43A7F9"/>
<path d="M241.686 36.6797H8.59375V183.483H241.686V36.6797Z" fill="#4399FC"/>
<path d="M224.87 53.4844H13.0703V177.874H224.87V53.4844Z" fill="#428EFE"/>
</g>
</g>
</g>
<g opacity="0.7">
<mask id="mask33_3106_25782" style="mask-type:luminance" maskUnits="userSpaceOnUse" x="1116" y="4133" width="306" height="232">
<path d="M1422 4133H1116V4365H1422V4133Z" fill="white"/>
</mask>
<g mask="url(#mask33_3106_25782)">
<path d="M1422 4359C1422 4362.31 1419.31 4365 1416 4365H1122C1118.69 4365 1116 4362.31 1116 4359V4139C1116 4135.69 1118.69 4133 1122 4133H1416C1419.31 4133 1422 4135.69 1422 4139V4359Z" fill="#FFF67F"/>
<path opacity="0.5" d="M1404 4363H1118V4151H1404V4363Z" fill="#E1F391"/>
<path opacity="0.5" d="M1386 4361H1120V4169H1386V4361Z" fill="#C4F0A2"/>
<path opacity="0.5" d="M1366 4359H1120V4189H1366V4359Z" fill="#A6EDB3"/>
<path opacity="0.5" d="M1348 4357H1122V4207H1348V4357Z" fill="#88EAC5"/>
<path opacity="0.5" d="M1328 4355H1124V4225H1328V4355Z" fill="#6BE7D6"/>
<path opacity="0.5" d="M1310 4353H1126V4243H1310V4353Z" fill="#4DE4E8"/>
</g>
</g>
<g opacity="0.7">
<mask id="mask34_3106_25782" style="mask-type:luminance" maskUnits="userSpaceOnUse" x="587" y="3171" width="268" height="202">
<path d="M855 3171H587V3373H855V3171Z" fill="white"/>
</mask>
<g mask="url(#mask34_3106_25782)">
<path d="M587 3177C587 3173.69 589.686 3171 593 3171H849C852.314 3171 855 3173.69 855 3177V3367C855 3370.31 852.314 3373 849 3373H593C589.686 3373 587 3370.31 587 3367V3177Z" fill="#FFF67F"/>
<path opacity="0.5" d="M603.125 3173H852.989V3357H603.125V3173Z" fill="#E1F391"/>
<path opacity="0.5" d="M621.25 3175H852.979V3341H621.25V3175Z" fill="#C4F0A2"/>
<path opacity="0.5" d="M635.359 3177H850.968V3325H635.359V3177Z" fill="#A6EDB3"/>
<path opacity="0.5" d="M651.484 3179H848.958V3311H651.484V3179Z" fill="#88EAC5"/>
<path opacity="0.5" d="M667.594 3179H846.933V3293H667.594V3179Z" fill="#6BE7D6"/>
<path opacity="0.5" d="M685.734 3181H846.938V3277H685.734V3181Z" fill="#4DE4E8"/>
</g>
</g>
<mask id="mask35_3106_25782" style="mask-type:luminance" maskUnits="userSpaceOnUse" x="-190" y="3282" width="490" height="372">
<path d="M292 3282H-182C-186.418 3282 -190 3285.58 -190 3290V3646C-190 3650.42 -186.418 3654 -182 3654H292C296.418 3654 300 3650.42 300 3646V3290C300 3285.58 296.418 3282 292 3282Z" fill="white"/>
</mask>
<g mask="url(#mask35_3106_25782)">
</g>
<g opacity="0.7">
<path d="M1300.82 68H990C986.134 68 983 71.134 983 75V428.235C983 432.101 986.134 435.235 990 435.235H1300.82C1304.68 435.235 1307.82 432.101 1307.82 428.235V75C1307.82 71.134 1304.68 68 1300.82 68Z" fill="#FFF790"/>
<path opacity="0.971" d="M1292.13 68H990C986.134 68 983 71.134 983 75V406.521H1292.13V68Z" fill="#FFE196"/>
<path opacity="0.943" d="M1276.43 68H990C986.134 68 983 71.134 983 75V377.808H1276.43V68Z" fill="#FFCC9C"/>
<path opacity="0.914" d="M1260.74 68H990C986.134 68 983 71.134 983 75V349.094H1260.74V68Z" fill="#FFB6A2"/>
<path opacity="0.886" d="M1245.05 68H990C986.134 68 983 71.134 983 75V320.38H1245.05V68Z" fill="#FFA1A7"/>
<path opacity="0.857" d="M1229.36 68H990C986.134 68 983 71.134 983 75V291.667H1229.36V68Z" fill="#FF8BAD"/>
<path opacity="0.829" d="M1213.67 68H990C986.134 68 983 71.134 983 75V262.953H1213.67V68Z" fill="#FF76B3"/>
<path opacity="0.8" d="M1197.98 68H990C986.134 68 983 71.134 983 75V234.239H1197.98V68Z" fill="#FF60B9"/>
</g>
<g opacity="0.7">
<path d="M1300.82 2269H990C986.134 2269 983 2272.13 983 2276V2629.23C983 2633.1 986.134 2636.23 990 2636.23H1300.82C1304.68 2636.23 1307.82 2633.1 1307.82 2629.23V2276C1307.82 2272.13 1304.68 2269 1300.82 2269Z" fill="#FFF790"/>
<path opacity="0.971" d="M1292.13 2269H990C986.134 2269 983 2272.13 983 2276V2607.52H1292.13V2269Z" fill="#FFE196"/>
<path opacity="0.943" d="M1276.43 2269H990C986.134 2269 983 2272.13 983 2276V2578.81H1276.43V2269Z" fill="#FFCC9C"/>
<path opacity="0.914" d="M1260.74 2269H990C986.134 2269 983 2272.13 983 2276V2550.09H1260.74V2269Z" fill="#FFB6A2"/>
<path opacity="0.886" d="M1245.05 2269H990C986.134 2269 983 2272.13 983 2276V2521.38H1245.05V2269Z" fill="#FFA1A7"/>
<path opacity="0.857" d="M1229.36 2269H990C986.134 2269 983 2272.13 983 2276V2492.67H1229.36V2269Z" fill="#FF8BAD"/>
<path opacity="0.829" d="M1213.67 2269H990C986.134 2269 983 2272.13 983 2276V2463.95H1213.67V2269Z" fill="#FF76B3"/>
<path opacity="0.8" d="M1197.98 2269H990C986.134 2269 983 2272.13 983 2276V2435.24H1197.98V2269Z" fill="#FF60B9"/>
</g>
<g opacity="0.7">
<path d="M742 1186H458C454.686 1186 452 1188.69 452 1192V1382C452 1385.31 454.686 1388 458 1388H742C745.314 1388 748 1385.31 748 1382V1192C748 1188.69 745.314 1186 742 1186Z" fill="#FE785C"/>
<path d="M732.305 1188.32H453.469V1376.17H732.305V1188.32Z" fill="#FE8273"/>
<path d="M716.602 1190.64H454.93V1364.34H716.602V1190.64Z" fill="#FE8D8A"/>
<path d="M700.906 1192.96H456.398V1352.5H700.906V1192.96Z" fill="#FE97A1"/>
<path d="M685.202 1195.28H457.859V1340.67H685.202V1195.28Z" fill="#FDA2B7"/>
<path d="M669.507 1197.61H459.328V1328.85H669.507V1197.61Z" fill="#FDACCE"/>
<path d="M653.812 1199.93H460.797V1317.02H653.812V1199.93Z" fill="#FDB7E5"/>
<path d="M638.117 1202.25H462.266V1305.19H638.117V1202.25Z" fill="#FDC1FC"/>
</g>
<g opacity="0.7">
<path d="M742 3383H458C454.686 3383 452 3385.69 452 3389V3579C452 3582.31 454.686 3585 458 3585H742C745.314 3585 748 3582.31 748 3579V3389C748 3385.69 745.314 3383 742 3383Z" fill="#FE785C"/>
<path d="M732.305 3385.32H453.469V3573.17H732.305V3385.32Z" fill="#FE8273"/>
<path d="M716.602 3387.64H454.93V3561.34H716.602V3387.64Z" fill="#FE8D8A"/>
<path d="M700.906 3389.96H456.398V3549.5H700.906V3389.96Z" fill="#FE97A1"/>
<path d="M685.202 3392.28H457.859V3537.67H685.202V3392.28Z" fill="#FDA2B7"/>
<path d="M669.507 3394.61H459.328V3525.85H669.507V3394.61Z" fill="#FDACCE"/>
<path d="M653.812 3396.93H460.797V3514.02H653.812V3396.93Z" fill="#FDB7E5"/>
<path d="M638.117 3399.25H462.266V3502.19H638.117V3399.25Z" fill="#FDC1FC"/>
</g>
</g>
<defs>
<clipPath id="clip0_3106_25782">
<rect width="1452" height="4365" fill="white" transform="translate(0 4310)"/>
</clipPath>
<clipPath id="clip1_3106_25782">
<rect width="1452" height="4365" fill="white"/>
</clipPath>
<clipPath id="clip2_3106_25782">
<rect width="1452" height="4365" fill="white" transform="translate(0 4310)"/>
</clipPath>
<clipPath id="clip3_3106_25782">
<rect width="1452" height="4365" fill="white"/>
</clipPath>
</defs>
</svg>
