<svg width="390" height="4346" viewBox="0 0 390 4346" fill="none" xmlns="http://www.w3.org/2000/svg">
<g clip-path="url(#clip0_3980_28314)">
<mask id="mask0_3980_28314" style="mask-type:luminance" maskUnits="userSpaceOnUse" x="282" y="963" width="153" height="117">
<path d="M434.912 963.786H282.578V1079.28H434.912V963.786Z" fill="white"/>
</mask>
<g mask="url(#mask0_3980_28314)">
<path d="M434.912 1076.29C434.912 1077.94 433.575 1079.28 431.925 1079.28H285.565C283.915 1079.28 282.578 1077.94 282.578 1076.29V966.773C282.578 965.123 283.915 963.786 285.565 963.786H431.925C433.575 963.786 434.912 965.123 434.912 966.773V1076.29Z" fill="#FFF67F"/>
<path opacity="0.5" d="M425.948 1078.29H283.57V972.747H425.948V1078.29Z" fill="#E1F391"/>
<path opacity="0.5" d="M416.991 1077.29H284.57V981.709H416.991V1077.29Z" fill="#C4F0A2"/>
<path opacity="0.5" d="M407.035 1076.29H284.57V991.664H407.035V1076.29Z" fill="#A6EDB3"/>
<path opacity="0.5" d="M398.071 1075.3H285.562V1000.63H398.071V1075.3Z" fill="#88EAC5"/>
<path opacity="0.5" d="M388.111 1074.3H286.555V1009.58H388.111V1074.3Z" fill="#6BE7D6"/>
<path opacity="0.5" d="M379.146 1073.31H287.547V1018.55H379.146V1073.31Z" fill="#4DE4E8"/>
</g>
<mask id="mask1_3980_28314" style="mask-type:luminance" maskUnits="userSpaceOnUse" x="18" y="484" width="135" height="102">
<path d="M152.143 484.879H18.7266V585.439H152.143V484.879Z" fill="white"/>
</mask>
<g mask="url(#mask1_3980_28314)">
<path d="M18.7266 487.866C18.7266 486.216 20.0639 484.879 21.7135 484.879H149.156C150.806 484.879 152.143 486.216 152.143 487.866V582.452C152.143 584.102 150.806 585.439 149.156 585.439H21.7135C20.0639 585.439 18.7266 584.102 18.7266 582.452V487.866Z" fill="#FFF67F"/>
<path opacity="0.5" d="M26.75 485.875H151.138V577.475H26.75V485.875Z" fill="#E1F391"/>
<path opacity="0.5" d="M35.7734 486.871H151.134V569.51H35.7734V486.871Z" fill="#C4F0A2"/>
<path opacity="0.5" d="M42.7969 487.867H150.132V561.545H42.7969V487.867Z" fill="#A6EDB3"/>
<path opacity="0.5" d="M50.8203 488.862H149.128V554.575H50.8203V488.862Z" fill="#88EAC5"/>
<path opacity="0.5" d="M58.8438 488.862H148.123V545.614H58.8438V488.862Z" fill="#6BE7D6"/>
<path opacity="0.5" d="M67.8828 489.858H148.134V537.649H67.8828V489.858Z" fill="#4DE4E8"/>
</g>
<mask id="mask2_3980_28314" style="mask-type:luminance" maskUnits="userSpaceOnUse" x="282" y="2057" width="153" height="116">
<path d="M434.912 2057.5H282.578V2173H434.912V2057.5Z" fill="white"/>
</mask>
<g mask="url(#mask2_3980_28314)">
<path d="M434.912 2170.01C434.912 2171.66 433.575 2173 431.925 2173H285.565C283.915 2173 282.578 2171.66 282.578 2170.01V2060.49C282.578 2058.84 283.915 2057.5 285.565 2057.5H431.925C433.575 2057.5 434.912 2058.84 434.912 2060.49V2170.01Z" fill="#FFF67F"/>
<path opacity="0.5" d="M425.948 2172H283.57V2066.46H425.948V2172Z" fill="#E1F391"/>
<path opacity="0.5" d="M416.991 2171.01H284.57V2075.43H416.991V2171.01Z" fill="#C4F0A2"/>
<path opacity="0.5" d="M407.035 2170.01H284.57V2085.38H407.035V2170.01Z" fill="#A6EDB3"/>
<path opacity="0.5" d="M398.071 2169.02H285.562V2094.34H398.071V2169.02Z" fill="#88EAC5"/>
<path opacity="0.5" d="M388.111 2168.02H286.555V2103.3H388.111V2168.02Z" fill="#6BE7D6"/>
<path opacity="0.5" d="M379.146 2167.03H287.547V2112.27H379.146V2167.03Z" fill="#4DE4E8"/>
</g>
<mask id="mask3_3980_28314" style="mask-type:luminance" maskUnits="userSpaceOnUse" x="19" y="1578" width="134" height="102">
<path d="M152.643 1578.6H19.2266V1679.16H152.643V1578.6Z" fill="white"/>
</mask>
<g mask="url(#mask3_3980_28314)">
<path d="M19.2266 1581.59C19.2266 1579.94 20.5639 1578.6 22.2135 1578.6H149.656C151.306 1578.6 152.643 1579.94 152.643 1581.59V1676.17C152.643 1677.82 151.306 1679.16 149.656 1679.16H22.2135C20.5639 1679.16 19.2266 1677.82 19.2266 1676.17V1581.59Z" fill="#FFF67F"/>
<path opacity="0.5" d="M27.25 1579.59H151.638V1671.19H27.25V1579.59Z" fill="#E1F391"/>
<path opacity="0.5" d="M36.2734 1580.59H151.634V1663.23H36.2734V1580.59Z" fill="#C4F0A2"/>
<path opacity="0.5" d="M43.2969 1581.59H150.632V1655.26H43.2969V1581.59Z" fill="#A6EDB3"/>
<path opacity="0.5" d="M51.3203 1582.58H149.628V1648.29H51.3203V1582.58Z" fill="#88EAC5"/>
<path opacity="0.5" d="M59.3438 1582.58H148.623V1639.33H59.3438V1582.58Z" fill="#6BE7D6"/>
<path opacity="0.5" d="M68.375 1583.58H148.626V1631.37H68.375V1583.58Z" fill="#4DE4E8"/>
</g>
<path d="M374.576 33.8525H219.844C217.92 33.8525 216.359 35.4127 216.359 37.3373V213.186C216.359 215.111 217.92 216.671 219.844 216.671H374.576C376.501 216.671 378.061 215.111 378.061 213.186V37.3373C378.061 35.4127 376.501 33.8525 374.576 33.8525Z" fill="#FFF790"/>
<path opacity="0.971" d="M370.25 33.8525H219.844C217.92 33.8525 216.359 35.4127 216.359 37.3373V202.376H370.25V33.8525Z" fill="#FFE196"/>
<path opacity="0.943" d="M362.438 33.8525H219.844C217.92 33.8525 216.359 35.4127 216.359 37.3373V188.082H362.438V33.8525Z" fill="#FFCC9C"/>
<path opacity="0.914" d="M354.626 33.8525H219.844C217.92 33.8525 216.359 35.4127 216.359 37.3373V173.788H354.626V33.8525Z" fill="#FFB6A2"/>
<path opacity="0.886" d="M346.815 33.8525H219.844C217.92 33.8525 216.359 35.4127 216.359 37.3373V159.493H346.815V33.8525Z" fill="#FFA1A7"/>
<path opacity="0.857" d="M339.003 33.8525H219.844C217.92 33.8525 216.359 35.4127 216.359 37.3373V145.199H339.003V33.8525Z" fill="#FF8BAD"/>
<path opacity="0.829" d="M331.192 33.8525H219.844C217.92 33.8525 216.359 35.4127 216.359 37.3373V130.905H331.192V33.8525Z" fill="#FF76B3"/>
<path opacity="0.8" d="M323.38 33.8525H219.844C217.92 33.8525 216.359 35.4127 216.359 37.3373V116.61H323.38V33.8525Z" fill="#FF60B9"/>
<path d="M374.576 1129.56H219.844C217.92 1129.56 216.359 1131.12 216.359 1133.05V1308.9C216.359 1310.82 217.92 1312.38 219.844 1312.38H374.576C376.501 1312.38 378.061 1310.82 378.061 1308.89V1133.05C378.061 1131.12 376.501 1129.56 374.576 1129.56Z" fill="#FFF790"/>
<path opacity="0.971" d="M370.25 1129.56H219.844C217.92 1129.56 216.359 1131.12 216.359 1133.05V1298.09H370.25V1129.56Z" fill="#FFE196"/>
<path opacity="0.943" d="M362.438 1129.56H219.844C217.92 1129.56 216.359 1131.12 216.359 1133.05V1283.79H362.438V1129.56Z" fill="#FFCC9C"/>
<path opacity="0.914" d="M354.626 1129.56H219.844C217.92 1129.56 216.359 1131.12 216.359 1133.05V1269.5H354.626V1129.56Z" fill="#FFB6A2"/>
<path opacity="0.886" d="M346.815 1129.56H219.844C217.92 1129.56 216.359 1131.12 216.359 1133.05V1255.2H346.815V1129.56Z" fill="#FFA1A7"/>
<path opacity="0.857" d="M339.003 1129.56H219.844C217.92 1129.56 216.359 1131.12 216.359 1133.05V1240.91H339.003V1129.56Z" fill="#FF8BAD"/>
<path opacity="0.829" d="M331.192 1129.56H219.844C217.92 1129.56 216.359 1131.12 216.359 1133.05V1226.61H331.192V1129.56Z" fill="#FF76B3"/>
<path opacity="0.8" d="M323.38 1129.56H219.844C217.92 1129.56 216.359 1131.12 216.359 1133.05V1212.32H323.38V1129.56Z" fill="#FF60B9"/>
<path d="M96.3845 590.419H-44.9974C-46.6471 590.419 -47.9844 591.756 -47.9844 593.406V687.992C-47.9844 689.642 -46.6471 690.979 -44.9974 690.979H96.3845C98.0341 690.979 99.3714 689.642 99.3714 687.992V593.406C99.3714 591.756 98.0341 590.419 96.3845 590.419Z" fill="#FE785C"/>
<path d="M91.5689 591.574H-47.2422V685.089H91.5689V591.574Z" fill="#FE8273"/>
<path d="M83.7508 592.729H-46.5156V679.198H83.7508V592.729Z" fill="#FE8D8A"/>
<path d="M75.9323 593.885H-45.7891V673.31H75.9323V593.885Z" fill="#FE97A1"/>
<path d="M68.1142 595.039H-45.0625V667.419H68.1142V595.039Z" fill="#FDA2B7"/>
<path d="M60.2883 596.198H-44.3438V661.533H60.2883V596.198Z" fill="#FDACCE"/>
<path d="M52.478 597.354H-43.6094V655.643H52.478V597.354Z" fill="#FDB7E5"/>
<path d="M44.6756 598.508H-42.8672V649.752H44.6756V598.508Z" fill="#FDC1FC"/>
<path d="M96.3845 1684.14H-44.9974C-46.6471 1684.14 -47.9844 1685.47 -47.9844 1687.12V1781.71C-47.9844 1783.36 -46.6471 1784.7 -44.9974 1784.7H96.3845C98.0341 1784.7 99.3714 1783.36 99.3714 1781.71V1687.12C99.3714 1685.47 98.0341 1684.14 96.3845 1684.14Z" fill="#FE785C"/>
<path d="M91.5689 1685.29H-47.2422V1778.81H91.5689V1685.29Z" fill="#FE8273"/>
<path d="M83.7508 1686.45H-46.5156V1772.92H83.7508V1686.45Z" fill="#FE8D8A"/>
<path d="M75.9323 1687.6H-45.7891V1767.03H75.9323V1687.6Z" fill="#FE97A1"/>
<path d="M68.1142 1688.76H-45.0625V1761.14H68.1142V1688.76Z" fill="#FDA2B7"/>
<path d="M60.2883 1689.92H-44.3438V1755.25H60.2883V1689.92Z" fill="#FDACCE"/>
<path d="M52.478 1691.07H-43.6094V1749.36H52.478V1691.07Z" fill="#FDB7E5"/>
<path d="M44.6756 1692.23H-42.8672V1743.47H44.6756V1692.23Z" fill="#FDC1FC"/>
</g>
<g clip-path="url(#clip1_3980_28314)">
<mask id="mask4_3980_28314" style="mask-type:luminance" maskUnits="userSpaceOnUse" x="282" y="3136" width="153" height="117">
<path d="M434.912 3136.79H282.578V3252.28H434.912V3136.79Z" fill="white"/>
</mask>
<g mask="url(#mask4_3980_28314)">
<path d="M434.912 3249.29C434.912 3250.94 433.575 3252.28 431.925 3252.28H285.565C283.915 3252.28 282.578 3250.94 282.578 3249.29V3139.77C282.578 3138.12 283.915 3136.79 285.565 3136.79H431.925C433.575 3136.79 434.912 3138.12 434.912 3139.77V3249.29Z" fill="#FFF67F"/>
<path opacity="0.5" d="M425.948 3251.29H283.57V3145.75H425.948V3251.29Z" fill="#E1F391"/>
<path opacity="0.5" d="M416.991 3250.29H284.57V3154.71H416.991V3250.29Z" fill="#C4F0A2"/>
<path opacity="0.5" d="M407.035 3249.29H284.57V3164.66H407.035V3249.29Z" fill="#A6EDB3"/>
<path opacity="0.5" d="M398.071 3248.3H285.562V3173.63H398.071V3248.3Z" fill="#88EAC5"/>
<path opacity="0.5" d="M388.111 3247.3H286.555V3182.58H388.111V3247.3Z" fill="#6BE7D6"/>
<path opacity="0.5" d="M379.146 3246.31H287.547V3191.55H379.146V3246.31Z" fill="#4DE4E8"/>
</g>
<mask id="mask5_3980_28314" style="mask-type:luminance" maskUnits="userSpaceOnUse" x="18" y="2657" width="135" height="102">
<path d="M152.143 2657.88H18.7266V2758.44H152.143V2657.88Z" fill="white"/>
</mask>
<g mask="url(#mask5_3980_28314)">
<path d="M18.7266 2660.87C18.7266 2659.22 20.0639 2657.88 21.7135 2657.88H149.156C150.806 2657.88 152.143 2659.22 152.143 2660.87V2755.45C152.143 2757.1 150.806 2758.44 149.156 2758.44H21.7135C20.0639 2758.44 18.7266 2757.1 18.7266 2755.45V2660.87Z" fill="#FFF67F"/>
<path opacity="0.5" d="M26.75 2658.88H151.138V2750.47H26.75V2658.88Z" fill="#E1F391"/>
<path opacity="0.5" d="M35.7734 2659.87H151.134V2742.51H35.7734V2659.87Z" fill="#C4F0A2"/>
<path opacity="0.5" d="M42.7969 2660.87H150.132V2734.55H42.7969V2660.87Z" fill="#A6EDB3"/>
<path opacity="0.5" d="M50.8203 2661.86H149.128V2727.58H50.8203V2661.86Z" fill="#88EAC5"/>
<path opacity="0.5" d="M58.8438 2661.86H148.123V2718.61H58.8438V2661.86Z" fill="#6BE7D6"/>
<path opacity="0.5" d="M67.8828 2662.86H148.134V2710.65H67.8828V2662.86Z" fill="#4DE4E8"/>
</g>
<mask id="mask6_3980_28314" style="mask-type:luminance" maskUnits="userSpaceOnUse" x="282" y="4230" width="153" height="116">
<path d="M434.912 4230.5H282.578V4346H434.912V4230.5Z" fill="white"/>
</mask>
<g mask="url(#mask6_3980_28314)">
<path d="M434.912 4343.01C434.912 4344.66 433.575 4346 431.925 4346H285.565C283.915 4346 282.578 4344.66 282.578 4343.01V4233.49C282.578 4231.84 283.915 4230.5 285.565 4230.5H431.925C433.575 4230.5 434.912 4231.84 434.912 4233.49V4343.01Z" fill="#FFF67F"/>
<path opacity="0.5" d="M425.948 4345H283.57V4239.46H425.948V4345Z" fill="#E1F391"/>
<path opacity="0.5" d="M416.991 4344.01H284.57V4248.43H416.991V4344.01Z" fill="#C4F0A2"/>
<path opacity="0.5" d="M407.035 4343.01H284.57V4258.38H407.035V4343.01Z" fill="#A6EDB3"/>
<path opacity="0.5" d="M398.071 4342.02H285.562V4267.34H398.071V4342.02Z" fill="#88EAC5"/>
<path opacity="0.5" d="M388.111 4341.02H286.555V4276.3H388.111V4341.02Z" fill="#6BE7D6"/>
<path opacity="0.5" d="M379.146 4340.03H287.547V4285.27H379.146V4340.03Z" fill="#4DE4E8"/>
</g>
<mask id="mask7_3980_28314" style="mask-type:luminance" maskUnits="userSpaceOnUse" x="19" y="3751" width="134" height="102">
<path d="M152.643 3751.6H19.2266V3852.16H152.643V3751.6Z" fill="white"/>
</mask>
<g mask="url(#mask7_3980_28314)">
<path d="M19.2266 3754.59C19.2266 3752.94 20.5639 3751.6 22.2135 3751.6H149.656C151.306 3751.6 152.643 3752.94 152.643 3754.59V3849.17C152.643 3850.82 151.306 3852.16 149.656 3852.16H22.2135C20.5639 3852.16 19.2266 3850.82 19.2266 3849.17V3754.59Z" fill="#FFF67F"/>
<path opacity="0.5" d="M27.25 3752.59H151.638V3844.19H27.25V3752.59Z" fill="#E1F391"/>
<path opacity="0.5" d="M36.2734 3753.59H151.634V3836.23H36.2734V3753.59Z" fill="#C4F0A2"/>
<path opacity="0.5" d="M43.2969 3754.59H150.632V3828.26H43.2969V3754.59Z" fill="#A6EDB3"/>
<path opacity="0.5" d="M51.3203 3755.58H149.628V3821.29H51.3203V3755.58Z" fill="#88EAC5"/>
<path opacity="0.5" d="M59.3438 3755.58H148.623V3812.33H59.3438V3755.58Z" fill="#6BE7D6"/>
<path opacity="0.5" d="M68.375 3756.58H148.626V3804.37H68.375V3756.58Z" fill="#4DE4E8"/>
</g>
<path d="M374.576 2206.85H219.844C217.92 2206.85 216.359 2208.41 216.359 2210.34V2386.19C216.359 2388.11 217.92 2389.67 219.844 2389.67H374.576C376.501 2389.67 378.061 2388.11 378.061 2386.19V2210.34C378.061 2208.41 376.501 2206.85 374.576 2206.85Z" fill="#FFF790"/>
<path opacity="0.971" d="M370.25 2206.85H219.844C217.92 2206.85 216.359 2208.41 216.359 2210.34V2375.38H370.25V2206.85Z" fill="#FFE196"/>
<path opacity="0.943" d="M362.438 2206.85H219.844C217.92 2206.85 216.359 2208.41 216.359 2210.34V2361.08H362.438V2206.85Z" fill="#FFCC9C"/>
<path opacity="0.914" d="M354.626 2206.85H219.844C217.92 2206.85 216.359 2208.41 216.359 2210.34V2346.79H354.626V2206.85Z" fill="#FFB6A2"/>
<path opacity="0.886" d="M346.815 2206.85H219.844C217.92 2206.85 216.359 2208.41 216.359 2210.34V2332.49H346.815V2206.85Z" fill="#FFA1A7"/>
<path opacity="0.857" d="M339.003 2206.85H219.844C217.92 2206.85 216.359 2208.41 216.359 2210.34V2318.2H339.003V2206.85Z" fill="#FF8BAD"/>
<path opacity="0.829" d="M331.192 2206.85H219.844C217.92 2206.85 216.359 2208.41 216.359 2210.34V2303.9H331.192V2206.85Z" fill="#FF76B3"/>
<path opacity="0.8" d="M323.38 2206.85H219.844C217.92 2206.85 216.359 2208.41 216.359 2210.34V2289.61H323.38V2206.85Z" fill="#FF60B9"/>
<path d="M374.576 3302.56H219.844C217.92 3302.56 216.359 3304.12 216.359 3306.05V3481.9C216.359 3483.82 217.92 3485.38 219.844 3485.38H374.576C376.501 3485.38 378.061 3483.82 378.061 3481.89V3306.05C378.061 3304.12 376.501 3302.56 374.576 3302.56Z" fill="#FFF790"/>
<path opacity="0.971" d="M370.25 3302.56H219.844C217.92 3302.56 216.359 3304.12 216.359 3306.05V3471.09H370.25V3302.56Z" fill="#FFE196"/>
<path opacity="0.943" d="M362.438 3302.56H219.844C217.92 3302.56 216.359 3304.12 216.359 3306.05V3456.79H362.438V3302.56Z" fill="#FFCC9C"/>
<path opacity="0.914" d="M354.626 3302.56H219.844C217.92 3302.56 216.359 3304.12 216.359 3306.05V3442.5H354.626V3302.56Z" fill="#FFB6A2"/>
<path opacity="0.886" d="M346.815 3302.56H219.844C217.92 3302.56 216.359 3304.12 216.359 3306.05V3428.2H346.815V3302.56Z" fill="#FFA1A7"/>
<path opacity="0.857" d="M339.003 3302.56H219.844C217.92 3302.56 216.359 3304.12 216.359 3306.05V3413.91H339.003V3302.56Z" fill="#FF8BAD"/>
<path opacity="0.829" d="M331.192 3302.56H219.844C217.92 3302.56 216.359 3304.12 216.359 3306.05V3399.61H331.192V3302.56Z" fill="#FF76B3"/>
<path opacity="0.8" d="M323.38 3302.56H219.844C217.92 3302.56 216.359 3304.12 216.359 3306.05V3385.32H323.38V3302.56Z" fill="#FF60B9"/>
<path d="M96.3845 2763.42H-44.9974C-46.6471 2763.42 -47.9844 2764.76 -47.9844 2766.41V2860.99C-47.9844 2862.64 -46.6471 2863.98 -44.9974 2863.98H96.3845C98.0341 2863.98 99.3714 2862.64 99.3714 2860.99V2766.41C99.3714 2764.76 98.0341 2763.42 96.3845 2763.42Z" fill="#FE785C"/>
<path d="M91.5689 2764.57H-47.2422V2858.09H91.5689V2764.57Z" fill="#FE8273"/>
<path d="M83.7508 2765.73H-46.5156V2852.2H83.7508V2765.73Z" fill="#FE8D8A"/>
<path d="M75.9323 2766.88H-45.7891V2846.31H75.9323V2766.88Z" fill="#FE97A1"/>
<path d="M68.1142 2768.04H-45.0625V2840.42H68.1142V2768.04Z" fill="#FDA2B7"/>
<path d="M60.2883 2769.2H-44.3438V2834.53H60.2883V2769.2Z" fill="#FDACCE"/>
<path d="M52.478 2770.35H-43.6094V2828.64H52.478V2770.35Z" fill="#FDB7E5"/>
<path d="M44.6756 2771.51H-42.8672V2822.75H44.6756V2771.51Z" fill="#FDC1FC"/>
<path d="M96.3845 3857.14H-44.9974C-46.6471 3857.14 -47.9844 3858.47 -47.9844 3860.12V3954.71C-47.9844 3956.36 -46.6471 3957.7 -44.9974 3957.7H96.3845C98.0341 3957.7 99.3714 3956.36 99.3714 3954.71V3860.12C99.3714 3858.47 98.0341 3857.14 96.3845 3857.14Z" fill="#FE785C"/>
<path d="M91.5689 3858.29H-47.2422V3951.81H91.5689V3858.29Z" fill="#FE8273"/>
<path d="M83.7508 3859.45H-46.5156V3945.92H83.7508V3859.45Z" fill="#FE8D8A"/>
<path d="M75.9323 3860.6H-45.7891V3940.03H75.9323V3860.6Z" fill="#FE97A1"/>
<path d="M68.1142 3861.76H-45.0625V3934.14H68.1142V3861.76Z" fill="#FDA2B7"/>
<path d="M60.2883 3862.92H-44.3438V3928.25H60.2883V3862.92Z" fill="#FDACCE"/>
<path d="M52.478 3864.07H-43.6094V3922.36H52.478V3864.07Z" fill="#FDB7E5"/>
<path d="M44.6756 3865.23H-42.8672V3916.47H44.6756V3865.23Z" fill="#FDC1FC"/>
</g>
<g clip-path="url(#clip2_3980_28314)">
<mask id="mask8_3980_28314" style="mask-type:luminance" maskUnits="userSpaceOnUse" x="317" y="674" width="150" height="161">
<path d="M466.769 674.551H317.422V834.85H466.769V674.551Z" fill="white"/>
</mask>
<g mask="url(#mask8_3980_28314)">
<path d="M478.378 834.85C480.028 834.85 481.365 833.513 481.365 831.863V677.538C481.365 675.888 480.028 674.551 478.378 674.551H320.409C318.759 674.551 317.422 675.888 317.422 677.538V831.863C317.422 833.513 318.759 834.85 320.409 834.85H478.378Z" fill="#FF63BB"/>
<path d="M481.369 828.123V680.155H326.406V828.123H481.369Z" fill="#FF70C4"/>
<path d="M481.367 822.52V686.883H335.391V822.52H481.367Z" fill="#FE7ECE"/>
<path d="M481.371 816.918V692.487H345.5V816.918H481.371Z" fill="#FE8BD7"/>
<path d="M481.367 811.308V699.213H354.477V811.308H481.367Z" fill="#FE99E1"/>
<path d="M481.365 804.58V704.816H363.461V804.58H481.365Z" fill="#FEA6EA"/>
<path d="M481.361 797.855V710.417H372.438V797.855H481.361Z" fill="#FDB4F4"/>
<path d="M481.365 793.377V717.15H382.547V793.377H481.365Z" fill="#FDC1FD"/>
</g>
<mask id="mask9_3980_28314" style="mask-type:luminance" maskUnits="userSpaceOnUse" x="-11" y="853" width="289" height="185">
<path d="M273.619 853.767H-6.15804C-8.35756 853.767 -10.1406 855.55 -10.1406 857.749V1033.98C-10.1406 1036.18 -8.35757 1037.96 -6.15805 1037.96H273.619C275.818 1037.96 277.601 1036.18 277.601 1033.98V857.749C277.601 855.55 275.818 853.767 273.619 853.767Z" fill="white"/>
</mask>
<g mask="url(#mask9_3980_28314)">
<path d="M-10.1406 857.251C-10.1406 855.327 -8.58044 853.767 -6.65586 853.767H274.117C276.041 853.767 277.601 855.327 277.601 857.251V1067.33C277.601 1069.26 276.041 1070.82 274.117 1070.82H-6.65585C-8.58043 1070.82 -10.1406 1069.26 -10.1406 1067.33V857.251Z" fill="#FFF790"/>
<path d="M-4.94531 1033.99L265.312 1033.67L265.412 860.208L-4.84623 860.527L-4.94531 1033.99Z" fill="#E7F0A0"/>
<path d="M-4.375 1020.25L245.598 1028.37L251.517 871.899L1.53814 863.774L-4.375 1020.25Z" fill="#CEE9B1"/>
<path d="M-2.85156 1005.04L226.826 1021.57L238.59 882.548L8.90606 866.011L-2.85156 1005.04Z" fill="#B6E2C1"/>
<path d="M-2.32031 990.362L207.061 1015.29L224.67 893.695L15.2882 868.769L-2.32031 990.362Z" fill="#9EDBD1"/>
<path d="M-1.76562 976.552L187.315 1009.98L210.764 905.443L21.6898 872.009L-1.76562 976.552Z" fill="#85D4E2"/>
<path d="M28.8896 874.089L196.861 915.767L167.698 1002.5L-0.273438 960.82L28.8896 874.089Z" fill="#6DCDF2"/>
<mask id="mask10_3980_28314" style="mask-type:luminance" maskUnits="userSpaceOnUse" x="-10" y="853" width="288" height="185">
<path d="M277.09 853.767H-9.65625V1037.96H277.09V853.767Z" fill="white"/>
</mask>
<g mask="url(#mask10_3980_28314)">
<path d="M273.605 853.767H-6.17148C-8.09607 853.767 -9.65625 855.327 -9.65625 857.251V1034.48C-9.65625 1036.4 -8.09606 1037.96 -6.17148 1037.96H273.605C275.53 1037.96 277.09 1036.4 277.09 1034.48V857.251C277.09 855.327 275.53 853.767 273.605 853.767Z" fill="#FFF790"/>
<path d="M266.142 853.767H0.304688V1042.94H266.142V853.767Z" fill="#E7F0A0"/>
<path d="M259.164 863.724H7.26562V1042.94H259.164V863.724Z" fill="#CEE9B1"/>
<path d="M252.202 880.152H14.2422V1051.4H252.202V880.152Z" fill="#B6E2C1"/>
<path d="M242.743 895.585H23.2031V1056.88H242.743V895.585Z" fill="#9EDBD1"/>
<path d="M235.775 913.507H30.6719V1059.87H235.775V913.507Z" fill="#85D4E2"/>
<path d="M226.822 926.947H39.6406V1060.36H226.822V926.947Z" fill="#6DCDF2"/>
<path d="M218.349 944.87H48.0938V1066.34H218.349V944.87Z" fill="#42C9FD"/>
</g>
</g>
<mask id="mask11_3980_28314" style="mask-type:luminance" maskUnits="userSpaceOnUse" x="-11" y="1947" width="289" height="185">
<path d="M273.619 1947.49H-6.15804C-8.35756 1947.49 -10.1406 1949.27 -10.1406 1951.47V2127.7C-10.1406 2129.9 -8.35757 2131.68 -6.15805 2131.68H273.619C275.818 2131.68 277.601 2129.9 277.601 2127.7V1951.47C277.601 1949.27 275.818 1947.49 273.619 1947.49Z" fill="white"/>
</mask>
<g mask="url(#mask11_3980_28314)">
<path d="M-10.1406 1950.97C-10.1406 1949.05 -8.58044 1947.49 -6.65586 1947.49H274.117C276.041 1947.49 277.601 1949.05 277.601 1950.97V2161.05C277.601 2162.98 276.041 2164.54 274.117 2164.54H-6.65585C-8.58043 2164.54 -10.1406 2162.98 -10.1406 2161.05V1950.97Z" fill="#FFF790"/>
<path d="M-4.94531 2127.71L265.312 2127.39L265.412 1953.93L-4.84623 1954.25L-4.94531 2127.71Z" fill="#E7F0A0"/>
<path d="M-4.375 2113.96L245.598 2122.09L251.517 1965.62L1.53814 1957.49L-4.375 2113.96Z" fill="#CEE9B1"/>
<path d="M-2.85156 2098.76L226.826 2115.29L238.59 1976.27L8.90606 1959.73L-2.85156 2098.76Z" fill="#B6E2C1"/>
<path d="M-2.32031 2084.08L207.061 2109.01L224.67 1987.41L15.2882 1962.49L-2.32031 2084.08Z" fill="#9EDBD1"/>
<path d="M-1.76562 2070.27L187.315 2103.7L210.764 1999.16L21.6898 1965.73L-1.76562 2070.27Z" fill="#85D4E2"/>
<path d="M28.8896 1967.81L196.861 2009.48L167.698 2096.22L-0.273438 2054.54L28.8896 1967.81Z" fill="#6DCDF2"/>
<mask id="mask12_3980_28314" style="mask-type:luminance" maskUnits="userSpaceOnUse" x="-10" y="1947" width="288" height="185">
<path d="M277.09 1947.49H-9.65625V2131.68H277.09V1947.49Z" fill="white"/>
</mask>
<g mask="url(#mask12_3980_28314)">
<path d="M273.605 1947.49H-6.17148C-8.09607 1947.49 -9.65625 1949.05 -9.65625 1950.97V2128.2C-9.65625 2130.12 -8.09606 2131.68 -6.17148 2131.68H273.605C275.53 2131.68 277.09 2130.12 277.09 2128.2V1950.97C277.09 1949.05 275.53 1947.49 273.605 1947.49Z" fill="#FFF790"/>
<path d="M266.142 1947.49H0.304688V2136.66H266.142V1947.49Z" fill="#E7F0A0"/>
<path d="M259.164 1957.44H7.26562V2136.66H259.164V1957.44Z" fill="#CEE9B1"/>
<path d="M252.202 1973.87H14.2422V2145.12H252.202V1973.87Z" fill="#B6E2C1"/>
<path d="M242.743 1989.3H23.2031V2150.6H242.743V1989.3Z" fill="#9EDBD1"/>
<path d="M235.775 2007.23H30.6719V2153.59H235.775V2007.23Z" fill="#85D4E2"/>
<path d="M226.822 2020.67H39.6406V2154.08H226.822V2020.67Z" fill="#6DCDF2"/>
<path d="M218.349 2038.59H48.0938V2160.06H218.349V2038.59Z" fill="#42C9FD"/>
</g>
</g>
<path d="M-184.383 348.975C-184.383 350.625 -183.046 351.962 -181.396 351.962H65.5246C67.1743 351.962 68.5116 350.625 68.5116 348.975V163.785C68.5116 162.135 67.1743 160.798 65.5246 160.798H-181.396C-183.046 160.798 -184.383 162.135 -184.383 163.785V348.975Z" fill="#FF63BB"/>
<path opacity="0.6" d="M-182.141 162.8L56.5165 166.593L54.2698 342.955L-184.383 339.167L-182.141 162.8Z" fill="#F979C5"/>
<path opacity="0.6" d="M-177.912 163.8L45.5145 171.365L41.0361 332.945L-182.391 325.375L-177.912 163.8Z" fill="#F28ECE"/>
<path opacity="0.6" d="M-175.663 164.799L33.5194 176.205L26.7864 323.936L-182.391 312.535L-175.663 164.799Z" fill="#ECA4D8"/>
<path opacity="0.6" d="M-171.441 165.802L22.5247 180.981L13.5749 313.929L-180.391 298.75L-171.441 165.802Z" fill="#E6B9E2"/>
<path opacity="0.6" d="M-169.182 167.803L10.5297 186.75L-0.684265 304.921L-180.391 285.974L-169.182 167.803Z" fill="#E0CFEC"/>
<mask id="mask13_3980_28314" style="mask-type:luminance" maskUnits="userSpaceOnUse" x="183" y="347" width="279" height="221">
<path d="M461.789 347.98H183.008V567.023H461.789V347.98Z" fill="white"/>
</mask>
<g mask="url(#mask13_3980_28314)">
<path d="M461.789 351.963C461.789 349.764 460.006 347.98 457.806 347.98H186.99C184.791 347.98 183.008 349.764 183.008 351.963V563.04C183.008 565.24 184.791 567.023 186.99 567.023H457.806C460.006 567.023 461.789 565.24 461.789 563.04V351.963Z" fill="#FFF790"/>
<path d="M460.793 551.101L201.976 560.052L196.891 360.92L455.705 351.962L460.793 551.101Z" fill="#DBF294"/>
<path d="M458.809 533.252L219.947 551.092L209.789 372.783L448.654 354.949L458.809 533.252Z" fill="#B8ED98"/>
<path d="M457.822 517.209L238.914 544.122L223.688 384.854L442.604 357.936L457.822 517.209Z" fill="#95E89C"/>
<path d="M457.817 499.446L257.941 535.161L237.57 396.643L437.446 360.923L457.817 499.446Z" fill="#71E2A0"/>
<path d="M456.831 483.514L276.908 528.192L251.469 409.585L431.387 364.906L456.831 483.514Z" fill="#4EDDA4"/>
<path d="M424.31 368.974L264.359 422.651L295.214 522.503L455.17 468.825L424.31 368.974Z" fill="#2AD8A8"/>
</g>
<mask id="mask14_3980_28314" style="mask-type:luminance" maskUnits="userSpaceOnUse" x="313" y="1768" width="150" height="161">
<path d="M462.785 1768.27H313.438V1928.57H462.785V1768.27Z" fill="white"/>
</mask>
<g mask="url(#mask14_3980_28314)">
<path d="M474.394 1928.57C476.043 1928.57 477.381 1927.23 477.381 1925.58V1771.26C477.381 1769.61 476.043 1768.27 474.394 1768.27H316.424C314.775 1768.27 313.438 1769.61 313.438 1771.26V1925.58C313.438 1927.23 314.775 1928.57 316.424 1928.57H474.394Z" fill="#FF63BB"/>
<path d="M477.377 1921.84V1773.87H322.414V1921.84H477.377Z" fill="#FF70C4"/>
<path d="M477.383 1916.24V1780.6H331.406V1916.24H477.383Z" fill="#FE7ECE"/>
<path d="M477.387 1910.64V1786.21H341.516V1910.64H477.387Z" fill="#FE8BD7"/>
<path d="M477.382 1905.03V1792.93H350.492V1905.03H477.382Z" fill="#FE99E1"/>
<path d="M477.381 1898.3V1798.54H359.477V1898.3H477.381Z" fill="#FEA6EA"/>
<path d="M477.377 1891.57V1804.14H368.453V1891.57H477.377Z" fill="#FDB4F4"/>
<path d="M477.388 1887.09V1810.87H378.57V1887.09H477.388Z" fill="#FDC1FD"/>
</g>
<mask id="mask15_3980_28314" style="mask-type:luminance" maskUnits="userSpaceOnUse" x="-184" y="1254" width="253" height="192">
<path d="M69.0038 1254.52H-183.891V1445.68H69.0038V1254.52Z" fill="white"/>
</mask>
<g mask="url(#mask15_3980_28314)">
<path d="M-183.891 1442.69C-183.891 1444.34 -182.553 1445.68 -180.904 1445.68H66.0168C67.6664 1445.68 69.0038 1444.34 69.0038 1442.69V1257.5C69.0038 1255.85 67.6664 1254.52 66.0168 1254.52H-180.904C-182.553 1254.52 -183.891 1255.85 -183.891 1257.5V1442.69Z" fill="#FF63BB"/>
<path opacity="0.6" d="M-181.648 1256.52L57.0087 1260.31L54.762 1436.68L-183.891 1432.89L-181.648 1256.52Z" fill="#F979C5"/>
<path opacity="0.6" d="M-177.404 1257.52L46.0223 1265.08L41.5439 1426.66L-181.883 1419.1L-177.404 1257.52Z" fill="#F28ECE"/>
<path opacity="0.6" d="M-175.155 1258.52L34.0273 1269.92L27.2942 1417.65L-181.883 1406.25L-175.155 1258.52Z" fill="#ECA4D8"/>
<path opacity="0.6" d="M-170.941 1259.52L23.0247 1274.7L14.0749 1407.64L-179.891 1392.47L-170.941 1259.52Z" fill="#E6B9E2"/>
<path opacity="0.6" d="M-168.682 1261.52L11.0297 1280.47L-0.184265 1398.64L-179.891 1379.69L-168.682 1261.52Z" fill="#E0CFEC"/>
<path opacity="0.6" d="M-164.487 1262.53L0.0271912 1285.21L-13.3842 1388.64L-177.898 1365.94L-164.487 1262.53Z" fill="#D9E4F5"/>
</g>
<mask id="mask16_3980_28314" style="mask-type:luminance" maskUnits="userSpaceOnUse" x="183" y="1441" width="280" height="220">
<path d="M462.281 1441.7H183.5V1660.74H462.281V1441.7Z" fill="white"/>
</mask>
<g mask="url(#mask16_3980_28314)">
<path d="M462.281 1444.69C462.281 1443.04 460.944 1441.7 459.294 1441.7H186.487C184.837 1441.7 183.5 1443.04 183.5 1444.69V1657.75C183.5 1659.4 184.837 1660.74 186.487 1660.74H459.294C460.944 1660.74 462.281 1659.4 462.281 1657.75V1444.69Z" fill="#FFF790"/>
<path d="M461.293 1644.82L202.476 1653.77L197.391 1454.64L456.205 1445.68L461.293 1644.82Z" fill="#DBF294"/>
<path d="M459.317 1626.97L220.454 1644.81L210.297 1466.5L449.162 1448.67L459.317 1626.97Z" fill="#B8ED98"/>
<path d="M458.315 1610.93L239.407 1637.84L224.18 1478.57L443.096 1451.65L458.315 1610.93Z" fill="#95E89C"/>
<path d="M458.31 1593.17L258.433 1628.88L238.062 1490.36L437.939 1454.64L458.31 1593.17Z" fill="#71E2A0"/>
<path d="M457.331 1577.23L277.408 1621.91L251.969 1503.3L431.887 1458.62L457.331 1577.23Z" fill="#4EDDA4"/>
<path d="M424.81 1462.7L264.859 1516.37L295.714 1616.23L455.67 1562.54L424.81 1462.7Z" fill="#2AD8A8"/>
</g>
</g>
<g clip-path="url(#clip3_3980_28314)">
<mask id="mask17_3980_28314" style="mask-type:luminance" maskUnits="userSpaceOnUse" x="317" y="2847" width="150" height="161">
<path d="M466.769 2847.55H317.422V3007.85H466.769V2847.55Z" fill="white"/>
</mask>
<g mask="url(#mask17_3980_28314)">
<path d="M478.378 3007.85C480.028 3007.85 481.365 3006.51 481.365 3004.86V2850.54C481.365 2848.89 480.028 2847.55 478.378 2847.55H320.409C318.759 2847.55 317.422 2848.89 317.422 2850.54V3004.86C317.422 3006.51 318.759 3007.85 320.409 3007.85H478.378Z" fill="#FF63BB"/>
<path d="M481.369 3001.12V2853.16H326.406V3001.12H481.369Z" fill="#FF70C4"/>
<path d="M481.367 2995.52V2859.88H335.391V2995.52H481.367Z" fill="#FE7ECE"/>
<path d="M481.371 2989.92V2865.49H345.5V2989.92H481.371Z" fill="#FE8BD7"/>
<path d="M481.367 2984.31V2872.21H354.477V2984.31H481.367Z" fill="#FE99E1"/>
<path d="M481.365 2977.58V2877.82H363.461V2977.58H481.365Z" fill="#FEA6EA"/>
<path d="M481.361 2970.85V2883.42H372.438V2970.85H481.361Z" fill="#FDB4F4"/>
<path d="M481.365 2966.38V2890.15H382.547V2966.38H481.365Z" fill="#FDC1FD"/>
</g>
<mask id="mask18_3980_28314" style="mask-type:luminance" maskUnits="userSpaceOnUse" x="-11" y="3026" width="289" height="185">
<path d="M273.619 3026.77H-6.15804C-8.35756 3026.77 -10.1406 3028.55 -10.1406 3030.75V3206.98C-10.1406 3209.18 -8.35757 3210.96 -6.15805 3210.96H273.619C275.818 3210.96 277.601 3209.18 277.601 3206.98V3030.75C277.601 3028.55 275.818 3026.77 273.619 3026.77Z" fill="white"/>
</mask>
<g mask="url(#mask18_3980_28314)">
<path d="M-10.1406 3030.25C-10.1406 3028.33 -8.58044 3026.77 -6.65586 3026.77H274.117C276.041 3026.77 277.601 3028.33 277.601 3030.25V3240.33C277.601 3242.26 276.041 3243.82 274.117 3243.82H-6.65585C-8.58043 3243.82 -10.1406 3242.26 -10.1406 3240.33V3030.25Z" fill="#FFF790"/>
<path d="M-4.94531 3206.99L265.312 3206.67L265.412 3033.21L-4.84623 3033.53L-4.94531 3206.99Z" fill="#E7F0A0"/>
<path d="M-4.375 3193.25L245.598 3201.37L251.517 3044.9L1.53814 3036.77L-4.375 3193.25Z" fill="#CEE9B1"/>
<path d="M-2.85156 3178.04L226.826 3194.57L238.59 3055.55L8.90606 3039.01L-2.85156 3178.04Z" fill="#B6E2C1"/>
<path d="M-2.32031 3163.36L207.061 3188.29L224.67 3066.69L15.2882 3041.77L-2.32031 3163.36Z" fill="#9EDBD1"/>
<path d="M-1.76562 3149.55L187.315 3182.98L210.764 3078.44L21.6898 3045.01L-1.76562 3149.55Z" fill="#85D4E2"/>
<path d="M28.8896 3047.09L196.861 3088.77L167.698 3175.5L-0.273438 3133.82L28.8896 3047.09Z" fill="#6DCDF2"/>
<mask id="mask19_3980_28314" style="mask-type:luminance" maskUnits="userSpaceOnUse" x="-10" y="3026" width="288" height="185">
<path d="M277.09 3026.77H-9.65625V3210.96H277.09V3026.77Z" fill="white"/>
</mask>
<g mask="url(#mask19_3980_28314)">
<path d="M273.605 3026.77H-6.17148C-8.09607 3026.77 -9.65625 3028.33 -9.65625 3030.25V3207.48C-9.65625 3209.4 -8.09606 3210.96 -6.17148 3210.96H273.605C275.53 3210.96 277.09 3209.4 277.09 3207.48V3030.25C277.09 3028.33 275.53 3026.77 273.605 3026.77Z" fill="#FFF790"/>
<path d="M266.142 3026.77H0.304688V3215.94H266.142V3026.77Z" fill="#E7F0A0"/>
<path d="M259.164 3036.72H7.26562V3215.94H259.164V3036.72Z" fill="#CEE9B1"/>
<path d="M252.202 3053.15H14.2422V3224.4H252.202V3053.15Z" fill="#B6E2C1"/>
<path d="M242.743 3068.58H23.2031V3229.88H242.743V3068.58Z" fill="#9EDBD1"/>
<path d="M235.775 3086.51H30.6719V3232.87H235.775V3086.51Z" fill="#85D4E2"/>
<path d="M226.822 3099.95H39.6406V3233.36H226.822V3099.95Z" fill="#6DCDF2"/>
<path d="M218.349 3117.87H48.0938V3239.34H218.349V3117.87Z" fill="#42C9FD"/>
</g>
</g>
<mask id="mask20_3980_28314" style="mask-type:luminance" maskUnits="userSpaceOnUse" x="-11" y="4120" width="289" height="185">
<path d="M273.619 4120.49H-6.15804C-8.35756 4120.49 -10.1406 4122.27 -10.1406 4124.47V4300.7C-10.1406 4302.9 -8.35757 4304.68 -6.15805 4304.68H273.619C275.818 4304.68 277.601 4302.9 277.601 4300.7V4124.47C277.601 4122.27 275.818 4120.49 273.619 4120.49Z" fill="white"/>
</mask>
<g mask="url(#mask20_3980_28314)">
<path d="M-10.1406 4123.97C-10.1406 4122.05 -8.58044 4120.49 -6.65586 4120.49H274.117C276.041 4120.49 277.601 4122.05 277.601 4123.97V4334.05C277.601 4335.98 276.041 4337.54 274.117 4337.54H-6.65585C-8.58043 4337.54 -10.1406 4335.98 -10.1406 4334.05V4123.97Z" fill="#FFF790"/>
<path d="M-4.94531 4300.71L265.312 4300.39L265.412 4126.93L-4.84623 4127.25L-4.94531 4300.71Z" fill="#E7F0A0"/>
<path d="M-4.375 4286.96L245.598 4295.09L251.517 4138.62L1.53814 4130.49L-4.375 4286.96Z" fill="#CEE9B1"/>
<path d="M-2.85156 4271.76L226.826 4288.29L238.59 4149.27L8.90606 4132.73L-2.85156 4271.76Z" fill="#B6E2C1"/>
<path d="M-2.32031 4257.08L207.061 4282.01L224.67 4160.41L15.2882 4135.49L-2.32031 4257.08Z" fill="#9EDBD1"/>
<path d="M-1.76562 4243.27L187.315 4276.7L210.764 4172.16L21.6898 4138.73L-1.76562 4243.27Z" fill="#85D4E2"/>
<path d="M28.8896 4140.81L196.861 4182.48L167.698 4269.22L-0.273438 4227.54L28.8896 4140.81Z" fill="#6DCDF2"/>
<mask id="mask21_3980_28314" style="mask-type:luminance" maskUnits="userSpaceOnUse" x="-10" y="4120" width="288" height="185">
<path d="M277.09 4120.49H-9.65625V4304.68H277.09V4120.49Z" fill="white"/>
</mask>
<g mask="url(#mask21_3980_28314)">
<path d="M273.605 4120.49H-6.17148C-8.09607 4120.49 -9.65625 4122.05 -9.65625 4123.97V4301.2C-9.65625 4303.12 -8.09606 4304.68 -6.17148 4304.68H273.605C275.53 4304.68 277.09 4303.12 277.09 4301.2V4123.97C277.09 4122.05 275.53 4120.49 273.605 4120.49Z" fill="#FFF790"/>
<path d="M266.142 4120.49H0.304688V4309.66H266.142V4120.49Z" fill="#E7F0A0"/>
<path d="M259.164 4130.44H7.26562V4309.66H259.164V4130.44Z" fill="#CEE9B1"/>
<path d="M252.202 4146.87H14.2422V4318.12H252.202V4146.87Z" fill="#B6E2C1"/>
<path d="M242.743 4162.3H23.2031V4323.6H242.743V4162.3Z" fill="#9EDBD1"/>
<path d="M235.775 4180.23H30.6719V4326.59H235.775V4180.23Z" fill="#85D4E2"/>
<path d="M226.822 4193.67H39.6406V4327.08H226.822V4193.67Z" fill="#6DCDF2"/>
<path d="M218.349 4211.59H48.0938V4333.06H218.349V4211.59Z" fill="#42C9FD"/>
</g>
</g>
<path d="M-184.383 2521.98C-184.383 2523.62 -183.046 2524.96 -181.396 2524.96H65.5246C67.1743 2524.96 68.5116 2523.62 68.5116 2521.98V2336.78C68.5116 2335.14 67.1743 2333.8 65.5246 2333.8H-181.396C-183.046 2333.8 -184.383 2335.14 -184.383 2336.78V2521.98Z" fill="#FF63BB"/>
<path opacity="0.6" d="M-182.141 2335.8L56.5165 2339.59L54.2698 2515.95L-184.383 2512.17L-182.141 2335.8Z" fill="#F979C5"/>
<path opacity="0.6" d="M-177.912 2336.8L45.5145 2344.37L41.0361 2505.95L-182.391 2498.37L-177.912 2336.8Z" fill="#F28ECE"/>
<path opacity="0.6" d="M-175.663 2337.8L33.5194 2349.2L26.7864 2496.94L-182.391 2485.53L-175.663 2337.8Z" fill="#ECA4D8"/>
<path opacity="0.6" d="M-171.441 2338.8L22.5247 2353.98L13.5749 2486.93L-180.391 2471.75L-171.441 2338.8Z" fill="#E6B9E2"/>
<path opacity="0.6" d="M-169.182 2340.8L10.5297 2359.75L-0.684265 2477.92L-180.391 2458.97L-169.182 2340.8Z" fill="#E0CFEC"/>
<mask id="mask22_3980_28314" style="mask-type:luminance" maskUnits="userSpaceOnUse" x="183" y="2520" width="279" height="221">
<path d="M461.789 2520.98H183.008V2740.02H461.789V2520.98Z" fill="white"/>
</mask>
<g mask="url(#mask22_3980_28314)">
<path d="M461.789 2524.96C461.789 2522.76 460.006 2520.98 457.806 2520.98H186.99C184.791 2520.98 183.008 2522.76 183.008 2524.96V2736.04C183.008 2738.24 184.791 2740.02 186.99 2740.02H457.806C460.006 2740.02 461.789 2738.24 461.789 2736.04V2524.96Z" fill="#FFF790"/>
<path d="M460.793 2724.1L201.976 2733.05L196.891 2533.92L455.705 2524.96L460.793 2724.1Z" fill="#DBF294"/>
<path d="M458.809 2706.25L219.947 2724.09L209.789 2545.78L448.654 2527.95L458.809 2706.25Z" fill="#B8ED98"/>
<path d="M457.822 2690.21L238.914 2717.12L223.688 2557.85L442.604 2530.94L457.822 2690.21Z" fill="#95E89C"/>
<path d="M457.817 2672.45L257.941 2708.16L237.57 2569.64L437.446 2533.92L457.817 2672.45Z" fill="#71E2A0"/>
<path d="M456.831 2656.51L276.908 2701.19L251.469 2582.58L431.387 2537.91L456.831 2656.51Z" fill="#4EDDA4"/>
<path d="M424.31 2541.97L264.359 2595.65L295.214 2695.5L455.17 2641.83L424.31 2541.97Z" fill="#2AD8A8"/>
</g>
<mask id="mask23_3980_28314" style="mask-type:luminance" maskUnits="userSpaceOnUse" x="313" y="3941" width="150" height="161">
<path d="M462.785 3941.27H313.438V4101.57H462.785V3941.27Z" fill="white"/>
</mask>
<g mask="url(#mask23_3980_28314)">
<path d="M474.394 4101.57C476.043 4101.57 477.381 4100.23 477.381 4098.58V3944.26C477.381 3942.61 476.043 3941.27 474.394 3941.27H316.424C314.775 3941.27 313.438 3942.61 313.438 3944.26V4098.58C313.438 4100.23 314.775 4101.57 316.424 4101.57H474.394Z" fill="#FF63BB"/>
<path d="M477.377 4094.84V3946.87H322.414V4094.84H477.377Z" fill="#FF70C4"/>
<path d="M477.383 4089.24V3953.6H331.406V4089.24H477.383Z" fill="#FE7ECE"/>
<path d="M477.387 4083.64V3959.21H341.516V4083.64H477.387Z" fill="#FE8BD7"/>
<path d="M477.382 4078.03V3965.93H350.492V4078.03H477.382Z" fill="#FE99E1"/>
<path d="M477.381 4071.3V3971.54H359.477V4071.3H477.381Z" fill="#FEA6EA"/>
<path d="M477.377 4064.57V3977.14H368.453V4064.57H477.377Z" fill="#FDB4F4"/>
<path d="M477.388 4060.09V3983.87H378.57V4060.09H477.388Z" fill="#FDC1FD"/>
</g>
<mask id="mask24_3980_28314" style="mask-type:luminance" maskUnits="userSpaceOnUse" x="-184" y="3427" width="253" height="192">
<path d="M69.0038 3427.52H-183.891V3618.68H69.0038V3427.52Z" fill="white"/>
</mask>
<g mask="url(#mask24_3980_28314)">
<path d="M-183.891 3615.69C-183.891 3617.34 -182.553 3618.68 -180.904 3618.68H66.0168C67.6664 3618.68 69.0038 3617.34 69.0038 3615.69V3430.5C69.0038 3428.85 67.6664 3427.52 66.0168 3427.52H-180.904C-182.553 3427.52 -183.891 3428.85 -183.891 3430.5V3615.69Z" fill="#FF63BB"/>
<path opacity="0.6" d="M-181.648 3429.52L57.0087 3433.31L54.762 3609.68L-183.891 3605.89L-181.648 3429.52Z" fill="#F979C5"/>
<path opacity="0.6" d="M-177.404 3430.52L46.0223 3438.08L41.5439 3599.66L-181.883 3592.1L-177.404 3430.52Z" fill="#F28ECE"/>
<path opacity="0.6" d="M-175.155 3431.52L34.0273 3442.92L27.2942 3590.65L-181.883 3579.25L-175.155 3431.52Z" fill="#ECA4D8"/>
<path opacity="0.6" d="M-170.941 3432.52L23.0247 3447.7L14.0749 3580.64L-179.891 3565.47L-170.941 3432.52Z" fill="#E6B9E2"/>
<path opacity="0.6" d="M-168.682 3434.52L11.0297 3453.47L-0.184265 3571.64L-179.891 3552.69L-168.682 3434.52Z" fill="#E0CFEC"/>
<path opacity="0.6" d="M-164.487 3435.53L0.0271912 3458.21L-13.3842 3561.64L-177.898 3538.94L-164.487 3435.53Z" fill="#D9E4F5"/>
</g>
<mask id="mask25_3980_28314" style="mask-type:luminance" maskUnits="userSpaceOnUse" x="183" y="3614" width="280" height="220">
<path d="M462.281 3614.7H183.5V3833.74H462.281V3614.7Z" fill="white"/>
</mask>
<g mask="url(#mask25_3980_28314)">
<path d="M462.281 3617.69C462.281 3616.04 460.944 3614.7 459.294 3614.7H186.487C184.837 3614.7 183.5 3616.04 183.5 3617.69V3830.75C183.5 3832.4 184.837 3833.74 186.487 3833.74H459.294C460.944 3833.74 462.281 3832.4 462.281 3830.75V3617.69Z" fill="#FFF790"/>
<path d="M461.293 3817.82L202.476 3826.77L197.391 3627.64L456.205 3618.68L461.293 3817.82Z" fill="#DBF294"/>
<path d="M459.317 3799.97L220.454 3817.81L210.297 3639.5L449.162 3621.67L459.317 3799.97Z" fill="#B8ED98"/>
<path d="M458.315 3783.93L239.407 3810.84L224.18 3651.57L443.096 3624.65L458.315 3783.93Z" fill="#95E89C"/>
<path d="M458.31 3766.17L258.433 3801.88L238.062 3663.36L437.939 3627.64L458.31 3766.17Z" fill="#71E2A0"/>
<path d="M457.331 3750.23L277.408 3794.91L251.969 3676.3L431.887 3631.62L457.331 3750.23Z" fill="#4EDDA4"/>
<path d="M424.81 3635.7L264.859 3689.37L295.714 3789.23L455.67 3735.54L424.81 3635.7Z" fill="#2AD8A8"/>
</g>
</g>
<defs>
<clipPath id="clip0_3980_28314">
<rect width="390" height="2173" fill="white"/>
</clipPath>
<clipPath id="clip1_3980_28314">
<rect width="390" height="2173" fill="white" transform="translate(0 2173)"/>
</clipPath>
<clipPath id="clip2_3980_28314">
<rect width="390" height="2173" fill="white"/>
</clipPath>
<clipPath id="clip3_3980_28314">
<rect width="390" height="2173" fill="white" transform="translate(0 2173)"/>
</clipPath>
</defs>
</svg>
