<svg width="390" height="4346" viewBox="0 0 390 4346" fill="none" xmlns="http://www.w3.org/2000/svg">
<g clip-path="url(#clip0_2758_17345)">
<g opacity="0.7">
<mask id="mask0_2758_17345" style="mask-type:luminance" maskUnits="userSpaceOnUse" x="282" y="963" width="153" height="117">
<path d="M434.912 963.786H282.578V1079.28H434.912V963.786Z" fill="white"/>
</mask>
<g mask="url(#mask0_2758_17345)">
<path d="M434.912 1076.29C434.912 1077.94 433.575 1079.28 431.925 1079.28H285.565C283.915 1079.28 282.578 1077.94 282.578 1076.29V966.773C282.578 965.123 283.915 963.786 285.565 963.786H431.925C433.575 963.786 434.912 965.123 434.912 966.773V1076.29Z" fill="#FFF67F"/>
<path opacity="0.5" d="M425.948 1078.29H283.57V972.747H425.948V1078.29Z" fill="#E1F391"/>
<path opacity="0.5" d="M416.991 1077.29H284.57V981.709H416.991V1077.29Z" fill="#C4F0A2"/>
<path opacity="0.5" d="M407.035 1076.29H284.57V991.664H407.035V1076.29Z" fill="#A6EDB3"/>
<path opacity="0.5" d="M398.071 1075.3H285.562V1000.63H398.071V1075.3Z" fill="#88EAC5"/>
<path opacity="0.5" d="M388.111 1074.3H286.555V1009.58H388.111V1074.3Z" fill="#6BE7D6"/>
<path opacity="0.5" d="M379.146 1073.31H287.547V1018.55H379.146V1073.31Z" fill="#4DE4E8"/>
</g>
</g>
<g opacity="0.7">
<mask id="mask1_2758_17345" style="mask-type:luminance" maskUnits="userSpaceOnUse" x="18" y="484" width="135" height="102">
<path d="M152.143 484.879H18.7266V585.439H152.143V484.879Z" fill="white"/>
</mask>
<g mask="url(#mask1_2758_17345)">
<path d="M18.7266 487.866C18.7266 486.216 20.0639 484.879 21.7135 484.879H149.156C150.806 484.879 152.143 486.216 152.143 487.866V582.452C152.143 584.102 150.806 585.439 149.156 585.439H21.7135C20.0639 585.439 18.7266 584.102 18.7266 582.452V487.866Z" fill="#FFF67F"/>
<path opacity="0.5" d="M26.75 485.875H151.138V577.475H26.75V485.875Z" fill="#E1F391"/>
<path opacity="0.5" d="M35.7734 486.871H151.134V569.51H35.7734V486.871Z" fill="#C4F0A2"/>
<path opacity="0.5" d="M42.7969 487.867H150.132V561.545H42.7969V487.867Z" fill="#A6EDB3"/>
<path opacity="0.5" d="M50.8203 488.862H149.128V554.575H50.8203V488.862Z" fill="#88EAC5"/>
<path opacity="0.5" d="M58.8438 488.862H148.123V545.614H58.8438V488.862Z" fill="#6BE7D6"/>
<path opacity="0.5" d="M67.8828 489.858H148.134V537.649H67.8828V489.858Z" fill="#4DE4E8"/>
</g>
</g>
<g opacity="0.7">
<mask id="mask2_2758_17345" style="mask-type:luminance" maskUnits="userSpaceOnUse" x="282" y="2057" width="153" height="116">
<path d="M434.912 2057.5H282.578V2173H434.912V2057.5Z" fill="white"/>
</mask>
<g mask="url(#mask2_2758_17345)">
<path d="M434.912 2170.01C434.912 2171.66 433.575 2173 431.925 2173H285.565C283.915 2173 282.578 2171.66 282.578 2170.01V2060.49C282.578 2058.84 283.915 2057.5 285.565 2057.5H431.925C433.575 2057.5 434.912 2058.84 434.912 2060.49V2170.01Z" fill="#FFF67F"/>
<path opacity="0.5" d="M425.948 2172H283.57V2066.46H425.948V2172Z" fill="#E1F391"/>
<path opacity="0.5" d="M416.991 2171.01H284.57V2075.43H416.991V2171.01Z" fill="#C4F0A2"/>
<path opacity="0.5" d="M407.035 2170.01H284.57V2085.38H407.035V2170.01Z" fill="#A6EDB3"/>
<path opacity="0.5" d="M398.071 2169.02H285.562V2094.34H398.071V2169.02Z" fill="#88EAC5"/>
<path opacity="0.5" d="M388.111 2168.02H286.555V2103.3H388.111V2168.02Z" fill="#6BE7D6"/>
<path opacity="0.5" d="M379.146 2167.03H287.547V2112.27H379.146V2167.03Z" fill="#4DE4E8"/>
</g>
</g>
<g opacity="0.7">
<mask id="mask3_2758_17345" style="mask-type:luminance" maskUnits="userSpaceOnUse" x="19" y="1578" width="134" height="102">
<path d="M152.643 1578.6H19.2266V1679.16H152.643V1578.6Z" fill="white"/>
</mask>
<g mask="url(#mask3_2758_17345)">
<path d="M19.2266 1581.59C19.2266 1579.94 20.5639 1578.6 22.2135 1578.6H149.656C151.306 1578.6 152.643 1579.94 152.643 1581.59V1676.17C152.643 1677.82 151.306 1679.16 149.656 1679.16H22.2135C20.5639 1679.16 19.2266 1677.82 19.2266 1676.17V1581.59Z" fill="#FFF67F"/>
<path opacity="0.5" d="M27.25 1579.59H151.638V1671.19H27.25V1579.59Z" fill="#E1F391"/>
<path opacity="0.5" d="M36.2734 1580.59H151.634V1663.23H36.2734V1580.59Z" fill="#C4F0A2"/>
<path opacity="0.5" d="M43.2969 1581.59H150.632V1655.26H43.2969V1581.59Z" fill="#A6EDB3"/>
<path opacity="0.5" d="M51.3203 1582.58H149.628V1648.29H51.3203V1582.58Z" fill="#88EAC5"/>
<path opacity="0.5" d="M59.3438 1582.58H148.623V1639.33H59.3438V1582.58Z" fill="#6BE7D6"/>
<path opacity="0.5" d="M68.375 1583.58H148.626V1631.37H68.375V1583.58Z" fill="#4DE4E8"/>
</g>
</g>
<g opacity="0.7">
<path d="M374.576 33.8525H219.844C217.92 33.8525 216.359 35.4127 216.359 37.3373V213.186C216.359 215.111 217.92 216.671 219.844 216.671H374.576C376.501 216.671 378.061 215.111 378.061 213.186V37.3373C378.061 35.4127 376.501 33.8525 374.576 33.8525Z" fill="#FFF790"/>
<path opacity="0.971" d="M370.25 33.8525H219.844C217.92 33.8525 216.359 35.4127 216.359 37.3373V202.376H370.25V33.8525Z" fill="#FFE196"/>
<path opacity="0.943" d="M362.438 33.8525H219.844C217.92 33.8525 216.359 35.4127 216.359 37.3373V188.082H362.438V33.8525Z" fill="#FFCC9C"/>
<path opacity="0.914" d="M354.626 33.8525H219.844C217.92 33.8525 216.359 35.4127 216.359 37.3373V173.788H354.626V33.8525Z" fill="#FFB6A2"/>
<path opacity="0.886" d="M346.815 33.8525H219.844C217.92 33.8525 216.359 35.4127 216.359 37.3373V159.493H346.815V33.8525Z" fill="#FFA1A7"/>
<path opacity="0.857" d="M339.003 33.8525H219.844C217.92 33.8525 216.359 35.4127 216.359 37.3373V145.199H339.003V33.8525Z" fill="#FF8BAD"/>
<path opacity="0.829" d="M331.192 33.8525H219.844C217.92 33.8525 216.359 35.4127 216.359 37.3373V130.905H331.192V33.8525Z" fill="#FF76B3"/>
<path opacity="0.8" d="M323.38 33.8525H219.844C217.92 33.8525 216.359 35.4127 216.359 37.3373V116.61H323.38V33.8525Z" fill="#FF60B9"/>
</g>
<g opacity="0.7">
<path d="M374.576 1129.56H219.844C217.92 1129.56 216.359 1131.12 216.359 1133.05V1308.9C216.359 1310.82 217.92 1312.38 219.844 1312.38H374.576C376.501 1312.38 378.061 1310.82 378.061 1308.89V1133.05C378.061 1131.12 376.501 1129.56 374.576 1129.56Z" fill="#FFF790"/>
<path opacity="0.971" d="M370.25 1129.56H219.844C217.92 1129.56 216.359 1131.12 216.359 1133.05V1298.09H370.25V1129.56Z" fill="#FFE196"/>
<path opacity="0.943" d="M362.438 1129.56H219.844C217.92 1129.56 216.359 1131.12 216.359 1133.05V1283.79H362.438V1129.56Z" fill="#FFCC9C"/>
<path opacity="0.914" d="M354.626 1129.56H219.844C217.92 1129.56 216.359 1131.12 216.359 1133.05V1269.5H354.626V1129.56Z" fill="#FFB6A2"/>
<path opacity="0.886" d="M346.815 1129.56H219.844C217.92 1129.56 216.359 1131.12 216.359 1133.05V1255.2H346.815V1129.56Z" fill="#FFA1A7"/>
<path opacity="0.857" d="M339.003 1129.56H219.844C217.92 1129.56 216.359 1131.12 216.359 1133.05V1240.91H339.003V1129.56Z" fill="#FF8BAD"/>
<path opacity="0.829" d="M331.192 1129.56H219.844C217.92 1129.56 216.359 1131.12 216.359 1133.05V1226.61H331.192V1129.56Z" fill="#FF76B3"/>
<path opacity="0.8" d="M323.38 1129.56H219.844C217.92 1129.56 216.359 1131.12 216.359 1133.05V1212.32H323.38V1129.56Z" fill="#FF60B9"/>
</g>
<g opacity="0.7">
<path d="M96.3845 590.419H-44.9974C-46.6471 590.419 -47.9844 591.756 -47.9844 593.406V687.992C-47.9844 689.642 -46.6471 690.979 -44.9974 690.979H96.3845C98.0341 690.979 99.3714 689.642 99.3714 687.992V593.406C99.3714 591.756 98.0341 590.419 96.3845 590.419Z" fill="#FE785C"/>
<path d="M91.5689 591.574H-47.2422V685.089H91.5689V591.574Z" fill="#FE8273"/>
<path d="M83.7508 592.729H-46.5156V679.198H83.7508V592.729Z" fill="#FE8D8A"/>
<path d="M75.9323 593.885H-45.7891V673.31H75.9323V593.885Z" fill="#FE97A1"/>
<path d="M68.1142 595.039H-45.0625V667.419H68.1142V595.039Z" fill="#FDA2B7"/>
<path d="M60.2883 596.198H-44.3438V661.533H60.2883V596.198Z" fill="#FDACCE"/>
<path d="M52.478 597.354H-43.6094V655.643H52.478V597.354Z" fill="#FDB7E5"/>
<path d="M44.6756 598.508H-42.8672V649.752H44.6756V598.508Z" fill="#FDC1FC"/>
</g>
<g opacity="0.7">
<path d="M96.3845 1684.14H-44.9974C-46.6471 1684.14 -47.9844 1685.47 -47.9844 1687.12V1781.71C-47.9844 1783.36 -46.6471 1784.7 -44.9974 1784.7H96.3845C98.0341 1784.7 99.3714 1783.36 99.3714 1781.71V1687.12C99.3714 1685.47 98.0341 1684.14 96.3845 1684.14Z" fill="#FE785C"/>
<path d="M91.5689 1685.29H-47.2422V1778.81H91.5689V1685.29Z" fill="#FE8273"/>
<path d="M83.7508 1686.45H-46.5156V1772.92H83.7508V1686.45Z" fill="#FE8D8A"/>
<path d="M75.9323 1687.6H-45.7891V1767.03H75.9323V1687.6Z" fill="#FE97A1"/>
<path d="M68.1142 1688.76H-45.0625V1761.14H68.1142V1688.76Z" fill="#FDA2B7"/>
<path d="M60.2883 1689.92H-44.3438V1755.25H60.2883V1689.92Z" fill="#FDACCE"/>
<path d="M52.478 1691.07H-43.6094V1749.36H52.478V1691.07Z" fill="#FDB7E5"/>
<path d="M44.6756 1692.23H-42.8672V1743.47H44.6756V1692.23Z" fill="#FDC1FC"/>
</g>
</g>
<g clip-path="url(#clip1_2758_17345)">
<g opacity="0.7">
<mask id="mask4_2758_17345" style="mask-type:luminance" maskUnits="userSpaceOnUse" x="282" y="3136" width="153" height="117">
<path d="M434.912 3136.79H282.578V3252.28H434.912V3136.79Z" fill="white"/>
</mask>
<g mask="url(#mask4_2758_17345)">
<path d="M434.912 3249.29C434.912 3250.94 433.575 3252.28 431.925 3252.28H285.565C283.915 3252.28 282.578 3250.94 282.578 3249.29V3139.77C282.578 3138.12 283.915 3136.79 285.565 3136.79H431.925C433.575 3136.79 434.912 3138.12 434.912 3139.77V3249.29Z" fill="#FFF67F"/>
<path opacity="0.5" d="M425.948 3251.29H283.57V3145.75H425.948V3251.29Z" fill="#E1F391"/>
<path opacity="0.5" d="M416.991 3250.29H284.57V3154.71H416.991V3250.29Z" fill="#C4F0A2"/>
<path opacity="0.5" d="M407.035 3249.29H284.57V3164.66H407.035V3249.29Z" fill="#A6EDB3"/>
<path opacity="0.5" d="M398.071 3248.3H285.562V3173.63H398.071V3248.3Z" fill="#88EAC5"/>
<path opacity="0.5" d="M388.111 3247.3H286.555V3182.58H388.111V3247.3Z" fill="#6BE7D6"/>
<path opacity="0.5" d="M379.146 3246.31H287.547V3191.55H379.146V3246.31Z" fill="#4DE4E8"/>
</g>
</g>
<g opacity="0.7">
<mask id="mask5_2758_17345" style="mask-type:luminance" maskUnits="userSpaceOnUse" x="18" y="2657" width="135" height="102">
<path d="M152.143 2657.88H18.7266V2758.44H152.143V2657.88Z" fill="white"/>
</mask>
<g mask="url(#mask5_2758_17345)">
<path d="M18.7266 2660.87C18.7266 2659.22 20.0639 2657.88 21.7135 2657.88H149.156C150.806 2657.88 152.143 2659.22 152.143 2660.87V2755.45C152.143 2757.1 150.806 2758.44 149.156 2758.44H21.7135C20.0639 2758.44 18.7266 2757.1 18.7266 2755.45V2660.87Z" fill="#FFF67F"/>
<path opacity="0.5" d="M26.75 2658.88H151.138V2750.47H26.75V2658.88Z" fill="#E1F391"/>
<path opacity="0.5" d="M35.7734 2659.87H151.134V2742.51H35.7734V2659.87Z" fill="#C4F0A2"/>
<path opacity="0.5" d="M42.7969 2660.87H150.132V2734.55H42.7969V2660.87Z" fill="#A6EDB3"/>
<path opacity="0.5" d="M50.8203 2661.86H149.128V2727.58H50.8203V2661.86Z" fill="#88EAC5"/>
<path opacity="0.5" d="M58.8438 2661.86H148.123V2718.61H58.8438V2661.86Z" fill="#6BE7D6"/>
<path opacity="0.5" d="M67.8828 2662.86H148.134V2710.65H67.8828V2662.86Z" fill="#4DE4E8"/>
</g>
</g>
<g opacity="0.7">
<mask id="mask6_2758_17345" style="mask-type:luminance" maskUnits="userSpaceOnUse" x="282" y="4230" width="153" height="116">
<path d="M434.912 4230.5H282.578V4346H434.912V4230.5Z" fill="white"/>
</mask>
<g mask="url(#mask6_2758_17345)">
<path d="M434.912 4343.01C434.912 4344.66 433.575 4346 431.925 4346H285.565C283.915 4346 282.578 4344.66 282.578 4343.01V4233.49C282.578 4231.84 283.915 4230.5 285.565 4230.5H431.925C433.575 4230.5 434.912 4231.84 434.912 4233.49V4343.01Z" fill="#FFF67F"/>
<path opacity="0.5" d="M425.948 4345H283.57V4239.46H425.948V4345Z" fill="#E1F391"/>
<path opacity="0.5" d="M416.991 4344.01H284.57V4248.43H416.991V4344.01Z" fill="#C4F0A2"/>
<path opacity="0.5" d="M407.035 4343.01H284.57V4258.38H407.035V4343.01Z" fill="#A6EDB3"/>
<path opacity="0.5" d="M398.071 4342.02H285.562V4267.34H398.071V4342.02Z" fill="#88EAC5"/>
<path opacity="0.5" d="M388.111 4341.02H286.555V4276.3H388.111V4341.02Z" fill="#6BE7D6"/>
<path opacity="0.5" d="M379.146 4340.03H287.547V4285.27H379.146V4340.03Z" fill="#4DE4E8"/>
</g>
</g>
<g opacity="0.7">
<mask id="mask7_2758_17345" style="mask-type:luminance" maskUnits="userSpaceOnUse" x="19" y="3751" width="134" height="102">
<path d="M152.643 3751.6H19.2266V3852.16H152.643V3751.6Z" fill="white"/>
</mask>
<g mask="url(#mask7_2758_17345)">
<path d="M19.2266 3754.59C19.2266 3752.94 20.5639 3751.6 22.2135 3751.6H149.656C151.306 3751.6 152.643 3752.94 152.643 3754.59V3849.17C152.643 3850.82 151.306 3852.16 149.656 3852.16H22.2135C20.5639 3852.16 19.2266 3850.82 19.2266 3849.17V3754.59Z" fill="#FFF67F"/>
<path opacity="0.5" d="M27.25 3752.59H151.638V3844.19H27.25V3752.59Z" fill="#E1F391"/>
<path opacity="0.5" d="M36.2734 3753.59H151.634V3836.23H36.2734V3753.59Z" fill="#C4F0A2"/>
<path opacity="0.5" d="M43.2969 3754.59H150.632V3828.26H43.2969V3754.59Z" fill="#A6EDB3"/>
<path opacity="0.5" d="M51.3203 3755.58H149.628V3821.29H51.3203V3755.58Z" fill="#88EAC5"/>
<path opacity="0.5" d="M59.3438 3755.58H148.623V3812.33H59.3438V3755.58Z" fill="#6BE7D6"/>
<path opacity="0.5" d="M68.375 3756.58H148.626V3804.37H68.375V3756.58Z" fill="#4DE4E8"/>
</g>
</g>
<g opacity="0.7">
<path d="M374.576 2206.85H219.844C217.92 2206.85 216.359 2208.41 216.359 2210.34V2386.19C216.359 2388.11 217.92 2389.67 219.844 2389.67H374.576C376.501 2389.67 378.061 2388.11 378.061 2386.19V2210.34C378.061 2208.41 376.501 2206.85 374.576 2206.85Z" fill="#FFF790"/>
<path opacity="0.971" d="M370.25 2206.85H219.844C217.92 2206.85 216.359 2208.41 216.359 2210.34V2375.38H370.25V2206.85Z" fill="#FFE196"/>
<path opacity="0.943" d="M362.438 2206.85H219.844C217.92 2206.85 216.359 2208.41 216.359 2210.34V2361.08H362.438V2206.85Z" fill="#FFCC9C"/>
<path opacity="0.914" d="M354.626 2206.85H219.844C217.92 2206.85 216.359 2208.41 216.359 2210.34V2346.79H354.626V2206.85Z" fill="#FFB6A2"/>
<path opacity="0.886" d="M346.815 2206.85H219.844C217.92 2206.85 216.359 2208.41 216.359 2210.34V2332.49H346.815V2206.85Z" fill="#FFA1A7"/>
<path opacity="0.857" d="M339.003 2206.85H219.844C217.92 2206.85 216.359 2208.41 216.359 2210.34V2318.2H339.003V2206.85Z" fill="#FF8BAD"/>
<path opacity="0.829" d="M331.192 2206.85H219.844C217.92 2206.85 216.359 2208.41 216.359 2210.34V2303.9H331.192V2206.85Z" fill="#FF76B3"/>
<path opacity="0.8" d="M323.38 2206.85H219.844C217.92 2206.85 216.359 2208.41 216.359 2210.34V2289.61H323.38V2206.85Z" fill="#FF60B9"/>
</g>
<g opacity="0.7">
<path d="M374.576 3302.56H219.844C217.92 3302.56 216.359 3304.12 216.359 3306.05V3481.9C216.359 3483.82 217.92 3485.38 219.844 3485.38H374.576C376.501 3485.38 378.061 3483.82 378.061 3481.89V3306.05C378.061 3304.12 376.501 3302.56 374.576 3302.56Z" fill="#FFF790"/>
<path opacity="0.971" d="M370.25 3302.56H219.844C217.92 3302.56 216.359 3304.12 216.359 3306.05V3471.09H370.25V3302.56Z" fill="#FFE196"/>
<path opacity="0.943" d="M362.438 3302.56H219.844C217.92 3302.56 216.359 3304.12 216.359 3306.05V3456.79H362.438V3302.56Z" fill="#FFCC9C"/>
<path opacity="0.914" d="M354.626 3302.56H219.844C217.92 3302.56 216.359 3304.12 216.359 3306.05V3442.5H354.626V3302.56Z" fill="#FFB6A2"/>
<path opacity="0.886" d="M346.815 3302.56H219.844C217.92 3302.56 216.359 3304.12 216.359 3306.05V3428.2H346.815V3302.56Z" fill="#FFA1A7"/>
<path opacity="0.857" d="M339.003 3302.56H219.844C217.92 3302.56 216.359 3304.12 216.359 3306.05V3413.91H339.003V3302.56Z" fill="#FF8BAD"/>
<path opacity="0.829" d="M331.192 3302.56H219.844C217.92 3302.56 216.359 3304.12 216.359 3306.05V3399.61H331.192V3302.56Z" fill="#FF76B3"/>
<path opacity="0.8" d="M323.38 3302.56H219.844C217.92 3302.56 216.359 3304.12 216.359 3306.05V3385.32H323.38V3302.56Z" fill="#FF60B9"/>
</g>
<g opacity="0.7">
<path d="M96.3845 2763.42H-44.9974C-46.6471 2763.42 -47.9844 2764.76 -47.9844 2766.41V2860.99C-47.9844 2862.64 -46.6471 2863.98 -44.9974 2863.98H96.3845C98.0341 2863.98 99.3714 2862.64 99.3714 2860.99V2766.41C99.3714 2764.76 98.0341 2763.42 96.3845 2763.42Z" fill="#FE785C"/>
<path d="M91.5689 2764.57H-47.2422V2858.09H91.5689V2764.57Z" fill="#FE8273"/>
<path d="M83.7508 2765.73H-46.5156V2852.2H83.7508V2765.73Z" fill="#FE8D8A"/>
<path d="M75.9323 2766.88H-45.7891V2846.31H75.9323V2766.88Z" fill="#FE97A1"/>
<path d="M68.1142 2768.04H-45.0625V2840.42H68.1142V2768.04Z" fill="#FDA2B7"/>
<path d="M60.2883 2769.2H-44.3438V2834.53H60.2883V2769.2Z" fill="#FDACCE"/>
<path d="M52.478 2770.35H-43.6094V2828.64H52.478V2770.35Z" fill="#FDB7E5"/>
<path d="M44.6756 2771.51H-42.8672V2822.75H44.6756V2771.51Z" fill="#FDC1FC"/>
</g>
<g opacity="0.7">
<path d="M96.3845 3857.14H-44.9974C-46.6471 3857.14 -47.9844 3858.47 -47.9844 3860.12V3954.71C-47.9844 3956.36 -46.6471 3957.7 -44.9974 3957.7H96.3845C98.0341 3957.7 99.3714 3956.36 99.3714 3954.71V3860.12C99.3714 3858.47 98.0341 3857.14 96.3845 3857.14Z" fill="#FE785C"/>
<path d="M91.5689 3858.29H-47.2422V3951.81H91.5689V3858.29Z" fill="#FE8273"/>
<path d="M83.7508 3859.45H-46.5156V3945.92H83.7508V3859.45Z" fill="#FE8D8A"/>
<path d="M75.9323 3860.6H-45.7891V3940.03H75.9323V3860.6Z" fill="#FE97A1"/>
<path d="M68.1142 3861.76H-45.0625V3934.14H68.1142V3861.76Z" fill="#FDA2B7"/>
<path d="M60.2883 3862.92H-44.3438V3928.25H60.2883V3862.92Z" fill="#FDACCE"/>
<path d="M52.478 3864.07H-43.6094V3922.36H52.478V3864.07Z" fill="#FDB7E5"/>
<path d="M44.6756 3865.23H-42.8672V3916.47H44.6756V3865.23Z" fill="#FDC1FC"/>
</g>
</g>
<defs>
<clipPath id="clip0_2758_17345">
<rect width="390" height="2173" fill="white"/>
</clipPath>
<clipPath id="clip1_2758_17345">
<rect width="390" height="2173" fill="white" transform="translate(0 2173)"/>
</clipPath>
</defs>
</svg>
