<svg width="390" height="4346" viewBox="0 0 390 4346" fill="none" xmlns="http://www.w3.org/2000/svg">
<g clip-path="url(#clip0_2758_17344)">
<mask id="mask0_2758_17344" style="mask-type:luminance" maskUnits="userSpaceOnUse" x="317" y="674" width="150" height="161">
<path d="M466.769 674.551H317.422V834.85H466.769V674.551Z" fill="white"/>
</mask>
<g mask="url(#mask0_2758_17344)">
<path d="M478.378 834.85C480.028 834.85 481.365 833.513 481.365 831.863V677.538C481.365 675.888 480.028 674.551 478.378 674.551H320.409C318.759 674.551 317.422 675.888 317.422 677.538V831.863C317.422 833.513 318.759 834.85 320.409 834.85H478.378Z" fill="#FF63BB"/>
<path d="M481.369 828.123V680.155H326.406V828.123H481.369Z" fill="#FF70C4"/>
<path d="M481.367 822.52V686.883H335.391V822.52H481.367Z" fill="#FE7ECE"/>
<path d="M481.371 816.918V692.487H345.5V816.918H481.371Z" fill="#FE8BD7"/>
<path d="M481.367 811.308V699.213H354.477V811.308H481.367Z" fill="#FE99E1"/>
<path d="M481.365 804.58V704.816H363.461V804.58H481.365Z" fill="#FEA6EA"/>
<path d="M481.361 797.855V710.417H372.438V797.855H481.361Z" fill="#FDB4F4"/>
<path d="M481.365 793.377V717.15H382.547V793.377H481.365Z" fill="#FDC1FD"/>
</g>
<mask id="mask1_2758_17344" style="mask-type:luminance" maskUnits="userSpaceOnUse" x="-11" y="853" width="289" height="185">
<path d="M273.619 853.767H-6.15804C-8.35756 853.767 -10.1406 855.55 -10.1406 857.749V1033.98C-10.1406 1036.18 -8.35757 1037.96 -6.15805 1037.96H273.619C275.818 1037.96 277.601 1036.18 277.601 1033.98V857.749C277.601 855.55 275.818 853.767 273.619 853.767Z" fill="white"/>
</mask>
<g mask="url(#mask1_2758_17344)">
<path d="M-10.1406 857.251C-10.1406 855.327 -8.58044 853.767 -6.65586 853.767H274.117C276.041 853.767 277.601 855.327 277.601 857.251V1067.33C277.601 1069.26 276.041 1070.82 274.117 1070.82H-6.65585C-8.58043 1070.82 -10.1406 1069.26 -10.1406 1067.33V857.251Z" fill="#FFF790"/>
<path d="M-4.94531 1033.99L265.312 1033.67L265.412 860.208L-4.84623 860.527L-4.94531 1033.99Z" fill="#E7F0A0"/>
<path d="M-4.375 1020.25L245.598 1028.37L251.517 871.899L1.53814 863.774L-4.375 1020.25Z" fill="#CEE9B1"/>
<path d="M-2.85156 1005.04L226.826 1021.57L238.59 882.548L8.90606 866.011L-2.85156 1005.04Z" fill="#B6E2C1"/>
<path d="M-2.32031 990.362L207.061 1015.29L224.67 893.695L15.2882 868.769L-2.32031 990.362Z" fill="#9EDBD1"/>
<path d="M-1.76562 976.552L187.315 1009.98L210.764 905.443L21.6898 872.009L-1.76562 976.552Z" fill="#85D4E2"/>
<path d="M28.8896 874.089L196.861 915.767L167.698 1002.5L-0.273438 960.82L28.8896 874.089Z" fill="#6DCDF2"/>
<mask id="mask2_2758_17344" style="mask-type:luminance" maskUnits="userSpaceOnUse" x="-10" y="853" width="288" height="185">
<path d="M277.09 853.767H-9.65625V1037.96H277.09V853.767Z" fill="white"/>
</mask>
<g mask="url(#mask2_2758_17344)">
<path d="M273.605 853.767H-6.17148C-8.09607 853.767 -9.65625 855.327 -9.65625 857.251V1034.48C-9.65625 1036.4 -8.09606 1037.96 -6.17148 1037.96H273.605C275.53 1037.96 277.09 1036.4 277.09 1034.48V857.251C277.09 855.327 275.53 853.767 273.605 853.767Z" fill="#FFF790"/>
<path d="M266.142 853.767H0.304688V1042.94H266.142V853.767Z" fill="#E7F0A0"/>
<path d="M259.164 863.724H7.26562V1042.94H259.164V863.724Z" fill="#CEE9B1"/>
<path d="M252.202 880.152H14.2422V1051.4H252.202V880.152Z" fill="#B6E2C1"/>
<path d="M242.743 895.585H23.2031V1056.88H242.743V895.585Z" fill="#9EDBD1"/>
<path d="M235.775 913.507H30.6719V1059.87H235.775V913.507Z" fill="#85D4E2"/>
<path d="M226.822 926.947H39.6406V1060.36H226.822V926.947Z" fill="#6DCDF2"/>
<path d="M218.349 944.87H48.0938V1066.34H218.349V944.87Z" fill="#42C9FD"/>
</g>
</g>
<mask id="mask3_2758_17344" style="mask-type:luminance" maskUnits="userSpaceOnUse" x="-11" y="1947" width="289" height="185">
<path d="M273.619 1947.49H-6.15804C-8.35756 1947.49 -10.1406 1949.27 -10.1406 1951.47V2127.7C-10.1406 2129.9 -8.35757 2131.68 -6.15805 2131.68H273.619C275.818 2131.68 277.601 2129.9 277.601 2127.7V1951.47C277.601 1949.27 275.818 1947.49 273.619 1947.49Z" fill="white"/>
</mask>
<g mask="url(#mask3_2758_17344)">
<path d="M-10.1406 1950.97C-10.1406 1949.05 -8.58044 1947.49 -6.65586 1947.49H274.117C276.041 1947.49 277.601 1949.05 277.601 1950.97V2161.05C277.601 2162.98 276.041 2164.54 274.117 2164.54H-6.65585C-8.58043 2164.54 -10.1406 2162.98 -10.1406 2161.05V1950.97Z" fill="#FFF790"/>
<path d="M-4.94531 2127.71L265.312 2127.39L265.412 1953.93L-4.84623 1954.25L-4.94531 2127.71Z" fill="#E7F0A0"/>
<path d="M-4.375 2113.96L245.598 2122.09L251.517 1965.62L1.53814 1957.49L-4.375 2113.96Z" fill="#CEE9B1"/>
<path d="M-2.85156 2098.76L226.826 2115.29L238.59 1976.27L8.90606 1959.73L-2.85156 2098.76Z" fill="#B6E2C1"/>
<path d="M-2.32031 2084.08L207.061 2109.01L224.67 1987.41L15.2882 1962.49L-2.32031 2084.08Z" fill="#9EDBD1"/>
<path d="M-1.76562 2070.27L187.315 2103.7L210.764 1999.16L21.6898 1965.73L-1.76562 2070.27Z" fill="#85D4E2"/>
<path d="M28.8896 1967.81L196.861 2009.48L167.698 2096.22L-0.273438 2054.54L28.8896 1967.81Z" fill="#6DCDF2"/>
<mask id="mask4_2758_17344" style="mask-type:luminance" maskUnits="userSpaceOnUse" x="-10" y="1947" width="288" height="185">
<path d="M277.09 1947.49H-9.65625V2131.68H277.09V1947.49Z" fill="white"/>
</mask>
<g mask="url(#mask4_2758_17344)">
<path d="M273.605 1947.49H-6.17148C-8.09607 1947.49 -9.65625 1949.05 -9.65625 1950.97V2128.2C-9.65625 2130.12 -8.09606 2131.68 -6.17148 2131.68H273.605C275.53 2131.68 277.09 2130.12 277.09 2128.2V1950.97C277.09 1949.05 275.53 1947.49 273.605 1947.49Z" fill="#FFF790"/>
<path d="M266.142 1947.49H0.304688V2136.66H266.142V1947.49Z" fill="#E7F0A0"/>
<path d="M259.164 1957.44H7.26562V2136.66H259.164V1957.44Z" fill="#CEE9B1"/>
<path d="M252.202 1973.87H14.2422V2145.12H252.202V1973.87Z" fill="#B6E2C1"/>
<path d="M242.743 1989.3H23.2031V2150.6H242.743V1989.3Z" fill="#9EDBD1"/>
<path d="M235.775 2007.23H30.6719V2153.59H235.775V2007.23Z" fill="#85D4E2"/>
<path d="M226.822 2020.67H39.6406V2154.08H226.822V2020.67Z" fill="#6DCDF2"/>
<path d="M218.349 2038.59H48.0938V2160.06H218.349V2038.59Z" fill="#42C9FD"/>
</g>
</g>
<path d="M-184.383 348.975C-184.383 350.625 -183.046 351.962 -181.396 351.962H65.5246C67.1743 351.962 68.5116 350.625 68.5116 348.975V163.785C68.5116 162.135 67.1743 160.798 65.5246 160.798H-181.396C-183.046 160.798 -184.383 162.135 -184.383 163.785V348.975Z" fill="#FF63BB"/>
<path opacity="0.6" d="M-182.141 162.8L56.5165 166.593L54.2698 342.955L-184.383 339.167L-182.141 162.8Z" fill="#F979C5"/>
<path opacity="0.6" d="M-177.912 163.8L45.5145 171.365L41.0361 332.945L-182.391 325.375L-177.912 163.8Z" fill="#F28ECE"/>
<path opacity="0.6" d="M-175.663 164.799L33.5194 176.205L26.7864 323.936L-182.391 312.535L-175.663 164.799Z" fill="#ECA4D8"/>
<path opacity="0.6" d="M-171.441 165.802L22.5247 180.981L13.5749 313.929L-180.391 298.75L-171.441 165.802Z" fill="#E6B9E2"/>
<path opacity="0.6" d="M-169.182 167.803L10.5297 186.75L-0.684265 304.921L-180.391 285.974L-169.182 167.803Z" fill="#E0CFEC"/>
<mask id="mask5_2758_17344" style="mask-type:luminance" maskUnits="userSpaceOnUse" x="183" y="347" width="279" height="221">
<path d="M461.789 347.98H183.008V567.023H461.789V347.98Z" fill="white"/>
</mask>
<g mask="url(#mask5_2758_17344)">
<path d="M461.789 351.963C461.789 349.764 460.006 347.98 457.806 347.98H186.99C184.791 347.98 183.008 349.764 183.008 351.963V563.04C183.008 565.24 184.791 567.023 186.99 567.023H457.806C460.006 567.023 461.789 565.24 461.789 563.04V351.963Z" fill="#FFF790"/>
<path d="M460.793 551.101L201.976 560.052L196.891 360.92L455.705 351.962L460.793 551.101Z" fill="#DBF294"/>
<path d="M458.809 533.252L219.947 551.092L209.789 372.783L448.654 354.949L458.809 533.252Z" fill="#B8ED98"/>
<path d="M457.822 517.209L238.914 544.122L223.688 384.854L442.604 357.936L457.822 517.209Z" fill="#95E89C"/>
<path d="M457.817 499.446L257.941 535.161L237.57 396.643L437.446 360.923L457.817 499.446Z" fill="#71E2A0"/>
<path d="M456.831 483.514L276.908 528.192L251.469 409.585L431.387 364.906L456.831 483.514Z" fill="#4EDDA4"/>
<path d="M424.31 368.974L264.359 422.651L295.214 522.503L455.17 468.825L424.31 368.974Z" fill="#2AD8A8"/>
</g>
<mask id="mask6_2758_17344" style="mask-type:luminance" maskUnits="userSpaceOnUse" x="313" y="1768" width="150" height="161">
<path d="M462.785 1768.27H313.438V1928.57H462.785V1768.27Z" fill="white"/>
</mask>
<g mask="url(#mask6_2758_17344)">
<path d="M474.394 1928.57C476.043 1928.57 477.381 1927.23 477.381 1925.58V1771.26C477.381 1769.61 476.043 1768.27 474.394 1768.27H316.424C314.775 1768.27 313.438 1769.61 313.438 1771.26V1925.58C313.438 1927.23 314.775 1928.57 316.424 1928.57H474.394Z" fill="#FF63BB"/>
<path d="M477.377 1921.84V1773.87H322.414V1921.84H477.377Z" fill="#FF70C4"/>
<path d="M477.383 1916.24V1780.6H331.406V1916.24H477.383Z" fill="#FE7ECE"/>
<path d="M477.387 1910.64V1786.21H341.516V1910.64H477.387Z" fill="#FE8BD7"/>
<path d="M477.382 1905.03V1792.93H350.492V1905.03H477.382Z" fill="#FE99E1"/>
<path d="M477.381 1898.3V1798.54H359.477V1898.3H477.381Z" fill="#FEA6EA"/>
<path d="M477.377 1891.57V1804.14H368.453V1891.57H477.377Z" fill="#FDB4F4"/>
<path d="M477.388 1887.09V1810.87H378.57V1887.09H477.388Z" fill="#FDC1FD"/>
</g>
<mask id="mask7_2758_17344" style="mask-type:luminance" maskUnits="userSpaceOnUse" x="-184" y="1254" width="253" height="192">
<path d="M69.0038 1254.52H-183.891V1445.68H69.0038V1254.52Z" fill="white"/>
</mask>
<g mask="url(#mask7_2758_17344)">
<path d="M-183.891 1442.69C-183.891 1444.34 -182.553 1445.68 -180.904 1445.68H66.0168C67.6664 1445.68 69.0038 1444.34 69.0038 1442.69V1257.5C69.0038 1255.85 67.6664 1254.52 66.0168 1254.52H-180.904C-182.553 1254.52 -183.891 1255.85 -183.891 1257.5V1442.69Z" fill="#FF63BB"/>
<path opacity="0.6" d="M-181.648 1256.52L57.0087 1260.31L54.762 1436.68L-183.891 1432.89L-181.648 1256.52Z" fill="#F979C5"/>
<path opacity="0.6" d="M-177.404 1257.52L46.0223 1265.08L41.5439 1426.66L-181.883 1419.1L-177.404 1257.52Z" fill="#F28ECE"/>
<path opacity="0.6" d="M-175.155 1258.52L34.0273 1269.92L27.2942 1417.65L-181.883 1406.25L-175.155 1258.52Z" fill="#ECA4D8"/>
<path opacity="0.6" d="M-170.941 1259.52L23.0247 1274.7L14.0749 1407.64L-179.891 1392.47L-170.941 1259.52Z" fill="#E6B9E2"/>
<path opacity="0.6" d="M-168.682 1261.52L11.0297 1280.47L-0.184265 1398.64L-179.891 1379.69L-168.682 1261.52Z" fill="#E0CFEC"/>
<path opacity="0.6" d="M-164.487 1262.53L0.0271912 1285.21L-13.3842 1388.64L-177.898 1365.94L-164.487 1262.53Z" fill="#D9E4F5"/>
</g>
<mask id="mask8_2758_17344" style="mask-type:luminance" maskUnits="userSpaceOnUse" x="183" y="1441" width="280" height="220">
<path d="M462.281 1441.7H183.5V1660.74H462.281V1441.7Z" fill="white"/>
</mask>
<g mask="url(#mask8_2758_17344)">
<path d="M462.281 1444.69C462.281 1443.04 460.944 1441.7 459.294 1441.7H186.487C184.837 1441.7 183.5 1443.04 183.5 1444.69V1657.75C183.5 1659.4 184.837 1660.74 186.487 1660.74H459.294C460.944 1660.74 462.281 1659.4 462.281 1657.75V1444.69Z" fill="#FFF790"/>
<path d="M461.293 1644.82L202.476 1653.77L197.391 1454.64L456.205 1445.68L461.293 1644.82Z" fill="#DBF294"/>
<path d="M459.317 1626.97L220.454 1644.81L210.297 1466.5L449.162 1448.67L459.317 1626.97Z" fill="#B8ED98"/>
<path d="M458.315 1610.93L239.407 1637.84L224.18 1478.57L443.096 1451.65L458.315 1610.93Z" fill="#95E89C"/>
<path d="M458.31 1593.17L258.433 1628.88L238.062 1490.36L437.939 1454.64L458.31 1593.17Z" fill="#71E2A0"/>
<path d="M457.331 1577.23L277.408 1621.91L251.969 1503.3L431.887 1458.62L457.331 1577.23Z" fill="#4EDDA4"/>
<path d="M424.81 1462.7L264.859 1516.37L295.714 1616.23L455.67 1562.54L424.81 1462.7Z" fill="#2AD8A8"/>
</g>
</g>
<g clip-path="url(#clip1_2758_17344)">
<mask id="mask9_2758_17344" style="mask-type:luminance" maskUnits="userSpaceOnUse" x="317" y="2847" width="150" height="161">
<path d="M466.769 2847.55H317.422V3007.85H466.769V2847.55Z" fill="white"/>
</mask>
<g mask="url(#mask9_2758_17344)">
<path d="M478.378 3007.85C480.028 3007.85 481.365 3006.51 481.365 3004.86V2850.54C481.365 2848.89 480.028 2847.55 478.378 2847.55H320.409C318.759 2847.55 317.422 2848.89 317.422 2850.54V3004.86C317.422 3006.51 318.759 3007.85 320.409 3007.85H478.378Z" fill="#FF63BB"/>
<path d="M481.369 3001.12V2853.16H326.406V3001.12H481.369Z" fill="#FF70C4"/>
<path d="M481.367 2995.52V2859.88H335.391V2995.52H481.367Z" fill="#FE7ECE"/>
<path d="M481.371 2989.92V2865.49H345.5V2989.92H481.371Z" fill="#FE8BD7"/>
<path d="M481.367 2984.31V2872.21H354.477V2984.31H481.367Z" fill="#FE99E1"/>
<path d="M481.365 2977.58V2877.82H363.461V2977.58H481.365Z" fill="#FEA6EA"/>
<path d="M481.361 2970.85V2883.42H372.438V2970.85H481.361Z" fill="#FDB4F4"/>
<path d="M481.365 2966.38V2890.15H382.547V2966.38H481.365Z" fill="#FDC1FD"/>
</g>
<mask id="mask10_2758_17344" style="mask-type:luminance" maskUnits="userSpaceOnUse" x="-11" y="3026" width="289" height="185">
<path d="M273.619 3026.77H-6.15804C-8.35756 3026.77 -10.1406 3028.55 -10.1406 3030.75V3206.98C-10.1406 3209.18 -8.35757 3210.96 -6.15805 3210.96H273.619C275.818 3210.96 277.601 3209.18 277.601 3206.98V3030.75C277.601 3028.55 275.818 3026.77 273.619 3026.77Z" fill="white"/>
</mask>
<g mask="url(#mask10_2758_17344)">
<path d="M-10.1406 3030.25C-10.1406 3028.33 -8.58044 3026.77 -6.65586 3026.77H274.117C276.041 3026.77 277.601 3028.33 277.601 3030.25V3240.33C277.601 3242.26 276.041 3243.82 274.117 3243.82H-6.65585C-8.58043 3243.82 -10.1406 3242.26 -10.1406 3240.33V3030.25Z" fill="#FFF790"/>
<path d="M-4.94531 3206.99L265.312 3206.67L265.412 3033.21L-4.84623 3033.53L-4.94531 3206.99Z" fill="#E7F0A0"/>
<path d="M-4.375 3193.25L245.598 3201.37L251.517 3044.9L1.53814 3036.77L-4.375 3193.25Z" fill="#CEE9B1"/>
<path d="M-2.85156 3178.04L226.826 3194.57L238.59 3055.55L8.90606 3039.01L-2.85156 3178.04Z" fill="#B6E2C1"/>
<path d="M-2.32031 3163.36L207.061 3188.29L224.67 3066.69L15.2882 3041.77L-2.32031 3163.36Z" fill="#9EDBD1"/>
<path d="M-1.76562 3149.55L187.315 3182.98L210.764 3078.44L21.6898 3045.01L-1.76562 3149.55Z" fill="#85D4E2"/>
<path d="M28.8896 3047.09L196.861 3088.77L167.698 3175.5L-0.273438 3133.82L28.8896 3047.09Z" fill="#6DCDF2"/>
<mask id="mask11_2758_17344" style="mask-type:luminance" maskUnits="userSpaceOnUse" x="-10" y="3026" width="288" height="185">
<path d="M277.09 3026.77H-9.65625V3210.96H277.09V3026.77Z" fill="white"/>
</mask>
<g mask="url(#mask11_2758_17344)">
<path d="M273.605 3026.77H-6.17148C-8.09607 3026.77 -9.65625 3028.33 -9.65625 3030.25V3207.48C-9.65625 3209.4 -8.09606 3210.96 -6.17148 3210.96H273.605C275.53 3210.96 277.09 3209.4 277.09 3207.48V3030.25C277.09 3028.33 275.53 3026.77 273.605 3026.77Z" fill="#FFF790"/>
<path d="M266.142 3026.77H0.304688V3215.94H266.142V3026.77Z" fill="#E7F0A0"/>
<path d="M259.164 3036.72H7.26562V3215.94H259.164V3036.72Z" fill="#CEE9B1"/>
<path d="M252.202 3053.15H14.2422V3224.4H252.202V3053.15Z" fill="#B6E2C1"/>
<path d="M242.743 3068.58H23.2031V3229.88H242.743V3068.58Z" fill="#9EDBD1"/>
<path d="M235.775 3086.51H30.6719V3232.87H235.775V3086.51Z" fill="#85D4E2"/>
<path d="M226.822 3099.95H39.6406V3233.36H226.822V3099.95Z" fill="#6DCDF2"/>
<path d="M218.349 3117.87H48.0938V3239.34H218.349V3117.87Z" fill="#42C9FD"/>
</g>
</g>
<mask id="mask12_2758_17344" style="mask-type:luminance" maskUnits="userSpaceOnUse" x="-11" y="4120" width="289" height="185">
<path d="M273.619 4120.49H-6.15804C-8.35756 4120.49 -10.1406 4122.27 -10.1406 4124.47V4300.7C-10.1406 4302.9 -8.35757 4304.68 -6.15805 4304.68H273.619C275.818 4304.68 277.601 4302.9 277.601 4300.7V4124.47C277.601 4122.27 275.818 4120.49 273.619 4120.49Z" fill="white"/>
</mask>
<g mask="url(#mask12_2758_17344)">
<path d="M-10.1406 4123.97C-10.1406 4122.05 -8.58044 4120.49 -6.65586 4120.49H274.117C276.041 4120.49 277.601 4122.05 277.601 4123.97V4334.05C277.601 4335.98 276.041 4337.54 274.117 4337.54H-6.65585C-8.58043 4337.54 -10.1406 4335.98 -10.1406 4334.05V4123.97Z" fill="#FFF790"/>
<path d="M-4.94531 4300.71L265.312 4300.39L265.412 4126.93L-4.84623 4127.25L-4.94531 4300.71Z" fill="#E7F0A0"/>
<path d="M-4.375 4286.96L245.598 4295.09L251.517 4138.62L1.53814 4130.49L-4.375 4286.96Z" fill="#CEE9B1"/>
<path d="M-2.85156 4271.76L226.826 4288.29L238.59 4149.27L8.90606 4132.73L-2.85156 4271.76Z" fill="#B6E2C1"/>
<path d="M-2.32031 4257.08L207.061 4282.01L224.67 4160.41L15.2882 4135.49L-2.32031 4257.08Z" fill="#9EDBD1"/>
<path d="M-1.76562 4243.27L187.315 4276.7L210.764 4172.16L21.6898 4138.73L-1.76562 4243.27Z" fill="#85D4E2"/>
<path d="M28.8896 4140.81L196.861 4182.48L167.698 4269.22L-0.273438 4227.54L28.8896 4140.81Z" fill="#6DCDF2"/>
<mask id="mask13_2758_17344" style="mask-type:luminance" maskUnits="userSpaceOnUse" x="-10" y="4120" width="288" height="185">
<path d="M277.09 4120.49H-9.65625V4304.68H277.09V4120.49Z" fill="white"/>
</mask>
<g mask="url(#mask13_2758_17344)">
<path d="M273.605 4120.49H-6.17148C-8.09607 4120.49 -9.65625 4122.05 -9.65625 4123.97V4301.2C-9.65625 4303.12 -8.09606 4304.68 -6.17148 4304.68H273.605C275.53 4304.68 277.09 4303.12 277.09 4301.2V4123.97C277.09 4122.05 275.53 4120.49 273.605 4120.49Z" fill="#FFF790"/>
<path d="M266.142 4120.49H0.304688V4309.66H266.142V4120.49Z" fill="#E7F0A0"/>
<path d="M259.164 4130.44H7.26562V4309.66H259.164V4130.44Z" fill="#CEE9B1"/>
<path d="M252.202 4146.87H14.2422V4318.12H252.202V4146.87Z" fill="#B6E2C1"/>
<path d="M242.743 4162.3H23.2031V4323.6H242.743V4162.3Z" fill="#9EDBD1"/>
<path d="M235.775 4180.23H30.6719V4326.59H235.775V4180.23Z" fill="#85D4E2"/>
<path d="M226.822 4193.67H39.6406V4327.08H226.822V4193.67Z" fill="#6DCDF2"/>
<path d="M218.349 4211.59H48.0938V4333.06H218.349V4211.59Z" fill="#42C9FD"/>
</g>
</g>
<path d="M-184.383 2521.98C-184.383 2523.62 -183.046 2524.96 -181.396 2524.96H65.5246C67.1743 2524.96 68.5116 2523.62 68.5116 2521.98V2336.78C68.5116 2335.14 67.1743 2333.8 65.5246 2333.8H-181.396C-183.046 2333.8 -184.383 2335.14 -184.383 2336.78V2521.98Z" fill="#FF63BB"/>
<path opacity="0.6" d="M-182.141 2335.8L56.5165 2339.59L54.2698 2515.95L-184.383 2512.17L-182.141 2335.8Z" fill="#F979C5"/>
<path opacity="0.6" d="M-177.912 2336.8L45.5145 2344.37L41.0361 2505.95L-182.391 2498.37L-177.912 2336.8Z" fill="#F28ECE"/>
<path opacity="0.6" d="M-175.663 2337.8L33.5194 2349.2L26.7864 2496.94L-182.391 2485.53L-175.663 2337.8Z" fill="#ECA4D8"/>
<path opacity="0.6" d="M-171.441 2338.8L22.5247 2353.98L13.5749 2486.93L-180.391 2471.75L-171.441 2338.8Z" fill="#E6B9E2"/>
<path opacity="0.6" d="M-169.182 2340.8L10.5297 2359.75L-0.684265 2477.92L-180.391 2458.97L-169.182 2340.8Z" fill="#E0CFEC"/>
<mask id="mask14_2758_17344" style="mask-type:luminance" maskUnits="userSpaceOnUse" x="183" y="2520" width="279" height="221">
<path d="M461.789 2520.98H183.008V2740.02H461.789V2520.98Z" fill="white"/>
</mask>
<g mask="url(#mask14_2758_17344)">
<path d="M461.789 2524.96C461.789 2522.76 460.006 2520.98 457.806 2520.98H186.99C184.791 2520.98 183.008 2522.76 183.008 2524.96V2736.04C183.008 2738.24 184.791 2740.02 186.99 2740.02H457.806C460.006 2740.02 461.789 2738.24 461.789 2736.04V2524.96Z" fill="#FFF790"/>
<path d="M460.793 2724.1L201.976 2733.05L196.891 2533.92L455.705 2524.96L460.793 2724.1Z" fill="#DBF294"/>
<path d="M458.809 2706.25L219.947 2724.09L209.789 2545.78L448.654 2527.95L458.809 2706.25Z" fill="#B8ED98"/>
<path d="M457.822 2690.21L238.914 2717.12L223.688 2557.85L442.604 2530.94L457.822 2690.21Z" fill="#95E89C"/>
<path d="M457.817 2672.45L257.941 2708.16L237.57 2569.64L437.446 2533.92L457.817 2672.45Z" fill="#71E2A0"/>
<path d="M456.831 2656.51L276.908 2701.19L251.469 2582.58L431.387 2537.91L456.831 2656.51Z" fill="#4EDDA4"/>
<path d="M424.31 2541.97L264.359 2595.65L295.214 2695.5L455.17 2641.83L424.31 2541.97Z" fill="#2AD8A8"/>
</g>
<mask id="mask15_2758_17344" style="mask-type:luminance" maskUnits="userSpaceOnUse" x="313" y="3941" width="150" height="161">
<path d="M462.785 3941.27H313.438V4101.57H462.785V3941.27Z" fill="white"/>
</mask>
<g mask="url(#mask15_2758_17344)">
<path d="M474.394 4101.57C476.043 4101.57 477.381 4100.23 477.381 4098.58V3944.26C477.381 3942.61 476.043 3941.27 474.394 3941.27H316.424C314.775 3941.27 313.438 3942.61 313.438 3944.26V4098.58C313.438 4100.23 314.775 4101.57 316.424 4101.57H474.394Z" fill="#FF63BB"/>
<path d="M477.377 4094.84V3946.87H322.414V4094.84H477.377Z" fill="#FF70C4"/>
<path d="M477.383 4089.24V3953.6H331.406V4089.24H477.383Z" fill="#FE7ECE"/>
<path d="M477.387 4083.64V3959.21H341.516V4083.64H477.387Z" fill="#FE8BD7"/>
<path d="M477.382 4078.03V3965.93H350.492V4078.03H477.382Z" fill="#FE99E1"/>
<path d="M477.381 4071.3V3971.54H359.477V4071.3H477.381Z" fill="#FEA6EA"/>
<path d="M477.377 4064.57V3977.14H368.453V4064.57H477.377Z" fill="#FDB4F4"/>
<path d="M477.388 4060.09V3983.87H378.57V4060.09H477.388Z" fill="#FDC1FD"/>
</g>
<mask id="mask16_2758_17344" style="mask-type:luminance" maskUnits="userSpaceOnUse" x="-184" y="3427" width="253" height="192">
<path d="M69.0038 3427.52H-183.891V3618.68H69.0038V3427.52Z" fill="white"/>
</mask>
<g mask="url(#mask16_2758_17344)">
<path d="M-183.891 3615.69C-183.891 3617.34 -182.553 3618.68 -180.904 3618.68H66.0168C67.6664 3618.68 69.0038 3617.34 69.0038 3615.69V3430.5C69.0038 3428.85 67.6664 3427.52 66.0168 3427.52H-180.904C-182.553 3427.52 -183.891 3428.85 -183.891 3430.5V3615.69Z" fill="#FF63BB"/>
<path opacity="0.6" d="M-181.648 3429.52L57.0087 3433.31L54.762 3609.68L-183.891 3605.89L-181.648 3429.52Z" fill="#F979C5"/>
<path opacity="0.6" d="M-177.404 3430.52L46.0223 3438.08L41.5439 3599.66L-181.883 3592.1L-177.404 3430.52Z" fill="#F28ECE"/>
<path opacity="0.6" d="M-175.155 3431.52L34.0273 3442.92L27.2942 3590.65L-181.883 3579.25L-175.155 3431.52Z" fill="#ECA4D8"/>
<path opacity="0.6" d="M-170.941 3432.52L23.0247 3447.7L14.0749 3580.64L-179.891 3565.47L-170.941 3432.52Z" fill="#E6B9E2"/>
<path opacity="0.6" d="M-168.682 3434.52L11.0297 3453.47L-0.184265 3571.64L-179.891 3552.69L-168.682 3434.52Z" fill="#E0CFEC"/>
<path opacity="0.6" d="M-164.487 3435.53L0.0271912 3458.21L-13.3842 3561.64L-177.898 3538.94L-164.487 3435.53Z" fill="#D9E4F5"/>
</g>
<mask id="mask17_2758_17344" style="mask-type:luminance" maskUnits="userSpaceOnUse" x="183" y="3614" width="280" height="220">
<path d="M462.281 3614.7H183.5V3833.74H462.281V3614.7Z" fill="white"/>
</mask>
<g mask="url(#mask17_2758_17344)">
<path d="M462.281 3617.69C462.281 3616.04 460.944 3614.7 459.294 3614.7H186.487C184.837 3614.7 183.5 3616.04 183.5 3617.69V3830.75C183.5 3832.4 184.837 3833.74 186.487 3833.74H459.294C460.944 3833.74 462.281 3832.4 462.281 3830.75V3617.69Z" fill="#FFF790"/>
<path d="M461.293 3817.82L202.476 3826.77L197.391 3627.64L456.205 3618.68L461.293 3817.82Z" fill="#DBF294"/>
<path d="M459.317 3799.97L220.454 3817.81L210.297 3639.5L449.162 3621.67L459.317 3799.97Z" fill="#B8ED98"/>
<path d="M458.315 3783.93L239.407 3810.84L224.18 3651.57L443.096 3624.65L458.315 3783.93Z" fill="#95E89C"/>
<path d="M458.31 3766.17L258.433 3801.88L238.062 3663.36L437.939 3627.64L458.31 3766.17Z" fill="#71E2A0"/>
<path d="M457.331 3750.23L277.408 3794.91L251.969 3676.3L431.887 3631.62L457.331 3750.23Z" fill="#4EDDA4"/>
<path d="M424.81 3635.7L264.859 3689.37L295.714 3789.23L455.67 3735.54L424.81 3635.7Z" fill="#2AD8A8"/>
</g>
</g>
<defs>
<clipPath id="clip0_2758_17344">
<rect width="390" height="2173" fill="white"/>
</clipPath>
<clipPath id="clip1_2758_17344">
<rect width="390" height="2173" fill="white" transform="translate(0 2173)"/>
</clipPath>
</defs>
</svg>
