<svg width="390" height="2153" viewBox="0 0 390 2153" fill="none" xmlns="http://www.w3.org/2000/svg">
<g clip-path="url(#clip0_1325_6415)">
<g clip-path="url(#clip1_1325_6415)">
<path d="M398 1048H245V932H398V1048Z" fill="#FFF67F"/>
<path opacity="0.5" d="M389 1047H246V941H389V1047Z" fill="#E1F391"/>
<path opacity="0.5" d="M380 1046H247V950H380V1046Z" fill="#C4F0A2"/>
<path opacity="0.5" d="M370 1045H247V960H370V1045Z" fill="#A6EDB3"/>
<path opacity="0.5" d="M361 1044H248V969H361V1044Z" fill="#88EAC5"/>
<path opacity="0.5" d="M351 1043H249V978H351V1043Z" fill="#6BE7D6"/>
<path opacity="0.5" d="M342 1042H250V987H342V1042Z" fill="#4DE4E8"/>
</g>
<g clip-path="url(#clip2_1325_6415)">
<path d="M454.102 740L454.102 596L307.004 596L307.004 740L454.102 740Z" fill="#FF63BB"/>
<path d="M454.102 733.958L454.102 601.035L315.064 601.035L315.064 733.958L454.102 733.958Z" fill="#FF70C4"/>
<path d="M454.102 728.924L454.102 607.078L323.124 607.078L323.124 728.924L454.102 728.924Z" fill="#FE7ECE"/>
<path d="M454.102 723.89L454.102 612.113L332.192 612.113L332.192 723.889L454.102 723.89Z" fill="#FE8BD7"/>
<path d="M454.094 718.852L454.094 618.152L340.244 618.152L340.244 718.852L454.094 718.852Z" fill="#FE99E1"/>
<path d="M454.094 712.81L454.094 623.188L348.304 623.187L348.304 712.81L454.094 712.81Z" fill="#FEA6EA"/>
<path d="M454.094 706.768L454.094 628.223L356.364 628.223L356.364 706.768L454.094 706.768Z" fill="#FDB4F4"/>
<path d="M454.102 702.741L454.102 634.266L365.44 634.266L365.44 702.741L454.102 702.741Z" fill="#FDC1FD"/>
</g>
<g clip-path="url(#clip3_1325_6415)">
<path d="M-44 776H245V994H-44V776Z" fill="#FFF790"/>
<path d="M-43 977.095L225.72 986L231 787.911L-37.7201 779L-43 977.095Z" fill="#E7F0A0"/>
<path d="M-42 961.173L206.435 979L217 800.821L-31.441 783L-42 961.173Z" fill="#CEE9B1"/>
<path d="M-40 944.259L187.198 971L203 812.747L-24.2036 786L-40 944.259Z" fill="#B6E2C1"/>
<path d="M-39 927.334L167.914 963L189 824.672L-17.9136 789L-39 927.334Z" fill="#9EDBD1"/>
<path d="M-38 911.4L148.616 956L175 837.6L-11.6103 793L-38 911.4Z" fill="#85D4E2"/>
<path d="M-4.61667 795.642L161 849L129.441 947.046L-36.1753 893.688L-4.61667 795.642Z" fill="#6DCDF2"/>
</g>
<g clip-path="url(#clip4_1325_6415)">
<path d="M-189 267L65 267L65 75L-189 75L-189 267Z" fill="#FF63BB"/>
<path opacity="0.6" d="M-186.748 77.0107L52.9531 80.8205L50.6963 257.953L-188.999 254.148L-186.748 77.0107Z" fill="#F979C5"/>
<path opacity="0.6" d="M-182.497 78.0175L41.9063 85.6159L37.4085 247.902L-186.995 240.299L-182.497 78.0175Z" fill="#F28ECE"/>
<path opacity="0.6" d="M-180.237 79.0191L29.8594 90.4748L23.0969 238.852L-186.994 227.401L-180.237 79.0191Z" fill="#ECA4D8"/>
<path opacity="0.6" d="M-175.993 80.0259L18.8203 95.2719L9.83155 228.801L-184.982 213.555L-175.993 80.0259Z" fill="#E6B9E2"/>
<path opacity="0.6" d="M-173.723 82.0366L6.77345 101.067L-4.48965 219.754L-184.982 200.724L-173.723 82.0366Z" fill="#E0CFEC"/>
</g>
<g clip-path="url(#clip5_1325_6415)">
<path d="M15 451H149V552H15V451Z" fill="#FFF67F"/>
<path opacity="0.5" d="M23.0599 452H147.992V544H23.0599V452Z" fill="#E1F391"/>
<path opacity="0.5" d="M32.1275 453H147.992V536H32.1275V453Z" fill="#C4F0A2"/>
<path opacity="0.5" d="M39.1799 454H146.984V528H39.1799V454Z" fill="#A6EDB3"/>
<path opacity="0.5" d="M47.2397 455H145.977V521H47.2397V455Z" fill="#88EAC5"/>
<path opacity="0.5" d="M55.2996 455H144.969V512H55.2996V455Z" fill="#6BE7D6"/>
<path opacity="0.5" d="M64.3672 456H144.969V504H64.3672V456Z" fill="#4DE4E8"/>
</g>
<g clip-path="url(#clip6_1325_6415)">
<path d="M460 268H180V488H460V268Z" fill="#FFF790"/>
<path d="M459.007 472.009L199.061 481L193.953 280.997L453.899 272L459.007 472.009Z" fill="#DBF294"/>
<path d="M457.013 454.083L217.108 472L206.906 292.912L446.817 275L457.013 454.083Z" fill="#B8ED98"/>
<path d="M456.012 437.97L236.144 465L220.852 305.036L440.725 278L456.012 437.97Z" fill="#95E89C"/>
<path d="M456.015 420.129L255.263 456L234.805 316.877L435.556 281L456.015 420.129Z" fill="#71E2A0"/>
<path d="M455.013 404.126L274.299 449L248.75 329.874L429.458 285L455.013 404.126Z" fill="#4EDDA4"/>
<path d="M422.362 289.088L261.711 343L292.702 443.288L453.353 389.376L422.362 289.088Z" fill="#2AD8A8"/>
</g>
<g clip-path="url(#clip7_1325_6415)">
<path d="M352 -43.7578H190V182.002H352V-43.7578Z" fill="#FF682E"/>
<path d="M341 -43.7578H190V162.111H341V-43.7578Z" fill="#FF7646"/>
<path d="M330 -43.7578H190V141.226H330V-43.7578Z" fill="#FF845D"/>
<path d="M320 -43.7578H190V122.33H320V-43.7578Z" fill="#FF9275"/>
<path d="M309 -43.7578H190V101.444H309V-43.7578Z" fill="#FF9F8C"/>
<path d="M298 -43.7578H190V81.5537H298V-43.7578Z" fill="#FFADA3"/>
<path d="M287 -43.7578H190V64.6466H287V-43.7578Z" fill="#FFBBBB"/>
</g>
<g clip-path="url(#clip8_1325_6415)">
<path d="M96 529H-52V646H96V529Z" fill="#FF682E"/>
<path d="M86 529H-52V635H86V529Z" fill="#FF7646"/>
<path d="M76 529H-52V625H76V529Z" fill="#FF845D"/>
<path d="M67 529H-52V615H67V529Z" fill="#FF9275"/>
<path d="M56 529H-52V604H56V529Z" fill="#FF9F8C"/>
<path d="M47 529H-52V594H47V529Z" fill="#FFADA3"/>
<path d="M37 529H-52V585H37V529Z" fill="#FFBBBB"/>
</g>
<g clip-path="url(#clip9_1325_6415)">
<path d="M398 2096H245V1980H398V2096Z" fill="#FFF67F"/>
<path opacity="0.5" d="M389 2095H246V1989H389V2095Z" fill="#E1F391"/>
<path opacity="0.5" d="M380 2094H247V1998H380V2094Z" fill="#C4F0A2"/>
<path opacity="0.5" d="M370 2093H247V2008H370V2093Z" fill="#A6EDB3"/>
<path opacity="0.5" d="M361 2092H248V2017H361V2092Z" fill="#88EAC5"/>
<path opacity="0.5" d="M351 2091H249V2026H351V2091Z" fill="#6BE7D6"/>
<path opacity="0.5" d="M342 2090H250V2035H342V2090Z" fill="#4DE4E8"/>
</g>
<g clip-path="url(#clip10_1325_6415)">
<path d="M454.102 1788L454.102 1644L307.004 1644L307.004 1788L454.102 1788Z" fill="#FF63BB"/>
<path d="M454.102 1781.96L454.102 1649.03L315.064 1649.03L315.064 1781.96L454.102 1781.96Z" fill="#FF70C4"/>
<path d="M454.102 1776.92L454.102 1655.08L323.124 1655.08L323.124 1776.92L454.102 1776.92Z" fill="#FE7ECE"/>
<path d="M454.102 1771.89L454.102 1660.11L332.192 1660.11L332.192 1771.89L454.102 1771.89Z" fill="#FE8BD7"/>
<path d="M454.094 1766.85L454.094 1666.15L340.244 1666.15L340.244 1766.85L454.094 1766.85Z" fill="#FE99E1"/>
<path d="M454.094 1760.81L454.094 1671.19L348.304 1671.19L348.304 1760.81L454.094 1760.81Z" fill="#FEA6EA"/>
<path d="M454.094 1754.77L454.094 1676.22L356.364 1676.22L356.364 1754.77L454.094 1754.77Z" fill="#FDB4F4"/>
<path d="M454.102 1750.74L454.102 1682.27L365.44 1682.27L365.44 1750.74L454.102 1750.74Z" fill="#FDC1FD"/>
</g>
<g clip-path="url(#clip11_1325_6415)">
<path d="M-44 1824H245V2042H-44V1824Z" fill="#FFF790"/>
<path d="M-43 2025.09L225.72 2034L231 1835.91L-37.7201 1827L-43 2025.09Z" fill="#E7F0A0"/>
<path d="M-42 2009.17L206.435 2027L217 1848.82L-31.441 1831L-42 2009.17Z" fill="#CEE9B1"/>
<path d="M-40 1992.26L187.198 2019L203 1860.75L-24.2036 1834L-40 1992.26Z" fill="#B6E2C1"/>
<path d="M-39 1975.33L167.914 2011L189 1872.67L-17.9136 1837L-39 1975.33Z" fill="#9EDBD1"/>
<path d="M-38 1959.4L148.616 2004L175 1885.6L-11.6103 1841L-38 1959.4Z" fill="#85D4E2"/>
<path d="M-4.61667 1843.64L161 1897L129.441 1995.05L-36.1753 1941.69L-4.61667 1843.64Z" fill="#6DCDF2"/>
</g>
<g clip-path="url(#clip12_1325_6415)">
<path d="M-189 1315L65 1315L65 1123L-189 1123L-189 1315Z" fill="#FF63BB"/>
<path opacity="0.6" d="M-186.748 1125.01L52.9531 1128.82L50.6963 1305.95L-188.999 1302.15L-186.748 1125.01Z" fill="#F979C5"/>
<path opacity="0.6" d="M-182.497 1126.02L41.9063 1133.62L37.4085 1295.9L-186.995 1288.3L-182.497 1126.02Z" fill="#F28ECE"/>
<path opacity="0.6" d="M-180.237 1127.02L29.8594 1138.47L23.0969 1286.85L-186.994 1275.4L-180.237 1127.02Z" fill="#ECA4D8"/>
<path opacity="0.6" d="M-175.993 1128.03L18.8203 1143.27L9.83155 1276.8L-184.982 1261.55L-175.993 1128.03Z" fill="#E6B9E2"/>
<path opacity="0.6" d="M-173.723 1130.04L6.77345 1149.07L-4.48965 1267.75L-184.982 1248.72L-173.723 1130.04Z" fill="#E0CFEC"/>
</g>
<g clip-path="url(#clip13_1325_6415)">
<path d="M15 1499H149V1600H15V1499Z" fill="#FFF67F"/>
<path opacity="0.5" d="M23.0599 1500H147.992V1592H23.0599V1500Z" fill="#E1F391"/>
<path opacity="0.5" d="M32.1275 1501H147.992V1584H32.1275V1501Z" fill="#C4F0A2"/>
<path opacity="0.5" d="M39.1799 1502H146.984V1576H39.1799V1502Z" fill="#A6EDB3"/>
<path opacity="0.5" d="M47.2397 1503H145.977V1569H47.2397V1503Z" fill="#88EAC5"/>
<path opacity="0.5" d="M55.2996 1503H144.969V1560H55.2996V1503Z" fill="#6BE7D6"/>
<path opacity="0.5" d="M64.3672 1504H144.969V1552H64.3672V1504Z" fill="#4DE4E8"/>
</g>
<g clip-path="url(#clip14_1325_6415)">
<path d="M460 1316H180V1536H460V1316Z" fill="#FFF790"/>
<path d="M459.007 1520.01L199.061 1529L193.953 1329L453.899 1320L459.007 1520.01Z" fill="#DBF294"/>
<path d="M457.013 1502.08L217.108 1520L206.906 1340.91L446.817 1323L457.013 1502.08Z" fill="#B8ED98"/>
<path d="M456.012 1485.97L236.144 1513L220.852 1353.04L440.725 1326L456.012 1485.97Z" fill="#95E89C"/>
<path d="M456.015 1468.13L255.263 1504L234.805 1364.88L435.556 1329L456.015 1468.13Z" fill="#71E2A0"/>
<path d="M455.013 1452.13L274.299 1497L248.75 1377.87L429.458 1333L455.013 1452.13Z" fill="#4EDDA4"/>
<path d="M422.362 1337.09L261.711 1391L292.702 1491.29L453.353 1437.38L422.362 1337.09Z" fill="#2AD8A8"/>
</g>
<g clip-path="url(#clip15_1325_6415)">
<path d="M352 1004.24H190V1230H352V1004.24Z" fill="#FF682E"/>
<path d="M341 1004.24H190V1210.11H341V1004.24Z" fill="#FF7646"/>
<path d="M330 1004.24H190V1189.23H330V1004.24Z" fill="#FF845D"/>
<path d="M320 1004.24H190V1170.33H320V1004.24Z" fill="#FF9275"/>
<path d="M309 1004.24H190V1149.44H309V1004.24Z" fill="#FF9F8C"/>
<path d="M298 1004.24H190V1129.55H298V1004.24Z" fill="#FFADA3"/>
<path d="M287 1004.24H190V1112.65H287V1004.24Z" fill="#FFBBBB"/>
</g>
<g clip-path="url(#clip16_1325_6415)">
<path d="M96 1577H-52V1694H96V1577Z" fill="#FF682E"/>
<path d="M86 1577H-52V1683H86V1577Z" fill="#FF7646"/>
<path d="M76 1577H-52V1673H76V1577Z" fill="#FF845D"/>
<path d="M67 1577H-52V1663H67V1577Z" fill="#FF9275"/>
<path d="M56 1577H-52V1652H56V1577Z" fill="#FF9F8C"/>
<path d="M47 1577H-52V1642H47V1577Z" fill="#FFADA3"/>
<path d="M37 1577H-52V1633H37V1577Z" fill="#FFBBBB"/>
</g>
</g>
<defs>
<clipPath id="clip0_1325_6415">
<rect width="390" height="2153" fill="white"/>
</clipPath>
<clipPath id="clip1_1325_6415">
<rect width="153" height="116" rx="5" transform="matrix(1 0 0 -1 245 1048)" fill="white"/>
</clipPath>
<clipPath id="clip2_1325_6415">
<rect x="441" y="596" width="144" height="134" rx="5" transform="rotate(90 441 596)" fill="white"/>
</clipPath>
<clipPath id="clip3_1325_6415">
<rect width="289" height="185" rx="5" transform="matrix(-1 0 0 1 245 776)" fill="white"/>
</clipPath>
<clipPath id="clip4_1325_6415">
<rect x="65" y="267" width="254" height="192" rx="5" transform="rotate(-180 65 267)" fill="white"/>
</clipPath>
<clipPath id="clip5_1325_6415">
<rect width="134" height="101" rx="5" transform="matrix(-1 0 0 1 149 451)" fill="white"/>
</clipPath>
<clipPath id="clip6_1325_6415">
<rect x="180" y="268" width="280" height="220" rx="5" fill="white"/>
</clipPath>
<clipPath id="clip7_1325_6415">
<rect x="190" width="162" height="182" rx="5" fill="white"/>
</clipPath>
<clipPath id="clip8_1325_6415">
<rect x="-52" y="552" width="148" height="94" rx="5" fill="white"/>
</clipPath>
<clipPath id="clip9_1325_6415">
<rect width="153" height="116" rx="5" transform="matrix(1 0 0 -1 245 2096)" fill="white"/>
</clipPath>
<clipPath id="clip10_1325_6415">
<rect x="441" y="1644" width="144" height="134" rx="5" transform="rotate(90 441 1644)" fill="white"/>
</clipPath>
<clipPath id="clip11_1325_6415">
<rect width="289" height="185" rx="5" transform="matrix(-1 0 0 1 245 1824)" fill="white"/>
</clipPath>
<clipPath id="clip12_1325_6415">
<rect x="65" y="1315" width="254" height="192" rx="5" transform="rotate(-180 65 1315)" fill="white"/>
</clipPath>
<clipPath id="clip13_1325_6415">
<rect width="134" height="101" rx="5" transform="matrix(-1 0 0 1 149 1499)" fill="white"/>
</clipPath>
<clipPath id="clip14_1325_6415">
<rect x="180" y="1316" width="280" height="220" rx="5" fill="white"/>
</clipPath>
<clipPath id="clip15_1325_6415">
<rect x="190" y="1048" width="162" height="182" rx="5" fill="white"/>
</clipPath>
<clipPath id="clip16_1325_6415">
<rect x="-52" y="1600" width="148" height="94" rx="5" fill="white"/>
</clipPath>
</defs>
</svg>
