<svg width="1440" height="4306" viewBox="0 0 1440 4306" fill="none" xmlns="http://www.w3.org/2000/svg">
<g clip-path="url(#clip0_1325_5517)">
<g clip-path="url(#clip1_1325_5517)">
<path d="M1352 2096H1046V1864H1352V2096Z" fill="#FFF67F"/>
<path opacity="0.5" d="M1334 2094H1048V1882H1334V2094Z" fill="#E1F391"/>
<path opacity="0.5" d="M1316 2092H1050V1900H1316V2092Z" fill="#C4F0A2"/>
<path opacity="0.5" d="M1296 2090H1050V1920H1296V2090Z" fill="#A6EDB3"/>
<path opacity="0.5" d="M1278 2088H1052V1938H1278V2088Z" fill="#88EAC5"/>
<path opacity="0.5" d="M1258 2086H1054V1956H1258V2086Z" fill="#6BE7D6"/>
<path opacity="0.5" d="M1240 2084H1056V1974H1240V2084Z" fill="#4DE4E8"/>
</g>
<g clip-path="url(#clip2_1325_5517)">
<path d="M1462.2 1480L1462.2 1192L1168 1192L1168 1480L1462.2 1480Z" fill="#FF63BB"/>
<path d="M1462.2 1467.92L1462.2 1202.07L1184.12 1202.07L1184.12 1467.92L1462.2 1467.92Z" fill="#FF70C4"/>
<path d="M1462.2 1457.85L1462.2 1214.16L1200.24 1214.16L1200.24 1457.85L1462.2 1457.85Z" fill="#FE7ECE"/>
<path d="M1462.2 1447.78L1462.2 1224.23L1218.38 1224.23L1218.38 1447.78L1462.2 1447.78Z" fill="#FE8BD7"/>
<path d="M1462.2 1437.7L1462.2 1236.3L1234.5 1236.3L1234.5 1437.7L1462.2 1437.7Z" fill="#FE99E1"/>
<path d="M1462.2 1425.62L1462.2 1246.38L1250.62 1246.37L1250.62 1425.62L1462.2 1425.62Z" fill="#FEA6EA"/>
<path d="M1462.2 1413.54L1462.2 1256.45L1266.74 1256.45L1266.74 1413.54L1462.2 1413.54Z" fill="#FDB4F4"/>
<path d="M1462.2 1405.48L1462.2 1268.53L1284.87 1268.53L1284.87 1405.48L1462.2 1405.48Z" fill="#FDC1FD"/>
</g>
<g clip-path="url(#clip3_1325_5517)">
<path d="M468 1552H1046V1988H468V1552Z" fill="#FFF790"/>
<path d="M470 1954.19L1007.44 1972L1018 1575.82L480.56 1558L470 1954.19Z" fill="#E7F0A0"/>
<path d="M472 1922.35L968.871 1958L990 1601.64L493.118 1566L472 1922.35Z" fill="#CEE9B1"/>
<path d="M476 1888.52L930.396 1942L962 1625.49L507.593 1572L476 1888.52Z" fill="#B6E2C1"/>
<path d="M478 1854.67L891.827 1926L934 1649.34L520.173 1578L478 1854.67Z" fill="#9EDBD1"/>
<path d="M480 1822.8L853.232 1912L906 1675.2L532.779 1586L480 1822.8Z" fill="#85D4E2"/>
<path d="M546.767 1591.28L878 1698L814.883 1894.09L483.649 1787.38L546.767 1591.28Z" fill="#6DCDF2"/>
</g>
<g clip-path="url(#clip4_1325_5517)">
<path d="M178 534L686 534L686 150L178 150L178 534Z" fill="#FF63BB"/>
<path opacity="0.6" d="M182.505 154.021L661.906 161.641L657.393 515.906L178.001 508.297L182.505 154.021Z" fill="#F979C5"/>
<path opacity="0.6" d="M191.006 156.035L639.813 171.232L630.817 495.805L182.01 480.598L191.006 156.035Z" fill="#F28ECE"/>
<path opacity="0.6" d="M195.526 158.038L615.719 180.95L602.194 477.703L182.011 454.802L195.526 158.038Z" fill="#ECA4D8"/>
<path opacity="0.6" d="M204.006 160.052L593.633 190.544L575.655 457.602L186.028 427.11L204.006 160.052Z" fill="#E6B9E2"/>
<path opacity="0.6" d="M208.553 164.073L569.547 202.133L547.021 439.508L186.037 401.448L208.553 164.073Z" fill="#E0CFEC"/>
<path opacity="0.6" d="M216.987 166.087L547.453 211.66L520.513 419.406L190.046 373.823L216.987 166.087Z" fill="#D9E4F5"/>
<path opacity="0.6" d="M492.018 400.575L523.359 222.375L220.829 168.894L189.488 347.094L492.018 400.575Z" fill="#D3FAFF"/>
</g>
<g clip-path="url(#clip5_1325_5517)">
<path d="M586 902H854V1104H586V902Z" fill="#FFF67F"/>
<path opacity="0.5" d="M602.12 904H851.984V1088H602.12V904Z" fill="#E1F391"/>
<path opacity="0.5" d="M620.255 906H851.984V1072H620.255V906Z" fill="#C4F0A2"/>
<path opacity="0.5" d="M634.36 908H849.969V1056H634.36V908Z" fill="#A6EDB3"/>
<path opacity="0.5" d="M650.479 910H847.953V1042H650.479V910Z" fill="#88EAC5"/>
<path opacity="0.5" d="M666.599 910H845.938V1024H666.599V910Z" fill="#6BE7D6"/>
<path opacity="0.5" d="M684.734 912H845.938V1008H684.734V912Z" fill="#4DE4E8"/>
</g>
<g clip-path="url(#clip6_1325_5517)">
<path d="M156 1820H424V2022H156V1820Z" fill="#FFF67F"/>
<path opacity="0.5" d="M172.12 1822H421.984V2006H172.12V1822Z" fill="#E1F391"/>
<path opacity="0.5" d="M190.255 1824H421.984V1990H190.255V1824Z" fill="#C4F0A2"/>
<path opacity="0.5" d="M204.36 1826H419.969V1974H204.36V1826Z" fill="#A6EDB3"/>
<path opacity="0.5" d="M220.479 1828H417.953V1960H220.479V1828Z" fill="#88EAC5"/>
<path opacity="0.5" d="M236.599 1828H415.938V1942H236.599V1828Z" fill="#6BE7D6"/>
<path opacity="0.5" d="M254.734 1830H415.938V1926H254.734V1830Z" fill="#4DE4E8"/>
</g>
<g clip-path="url(#clip7_1325_5517)">
<path d="M1476 536H916V976H1476V536Z" fill="#FFF790"/>
<path d="M1474.01 944.017L954.114 962L943.898 561.995L1463.79 544L1474.01 944.017Z" fill="#DBF294"/>
<path d="M1470.03 908.165L990.216 944L969.812 585.823L1449.63 550L1470.03 908.165Z" fill="#B8ED98"/>
<path d="M1468.02 875.94L1028.29 930L997.703 610.072L1437.45 556L1468.02 875.94Z" fill="#95E89C"/>
<path d="M1468.03 840.258L1066.53 912L1025.61 633.753L1427.11 562L1468.03 840.258Z" fill="#71E2A0"/>
<path d="M1466.03 808.252L1104.61 898L1053.51 659.748L1414.92 570L1466.03 808.252Z" fill="#4EDDA4"/>
<path d="M1400.72 578.175L1079.42 686L1141.4 886.576L1462.71 778.751L1400.72 578.175Z" fill="#2AD8A8"/>
</g>
<g clip-path="url(#clip8_1325_5517)">
<path d="M1260 -87.5156H936V364.004H1260V-87.5156Z" fill="#FF682E"/>
<path d="M1238 -87.5156H936V324.222H1238V-87.5156Z" fill="#FF7646"/>
<path d="M1216 -87.5156H936V282.452H1216V-87.5156Z" fill="#FF845D"/>
<path d="M1196 -87.5156H936V244.659H1196V-87.5156Z" fill="#FF9275"/>
<path d="M1174 -87.5156H936V202.889H1174V-87.5156Z" fill="#FF9F8C"/>
<path d="M1152 -87.5156H936V163.107H1152V-87.5156Z" fill="#FFADA3"/>
<path d="M1130 -87.5156H936V129.293H1130V-87.5156Z" fill="#FFBBBB"/>
</g>
<g clip-path="url(#clip9_1325_5517)">
<path d="M748 1058H452V1292H748V1058Z" fill="#FF682E"/>
<path d="M728 1058H452V1270H728V1058Z" fill="#FF7646"/>
<path d="M708 1058H452V1250H708V1058Z" fill="#FF845D"/>
<path d="M690 1058H452V1230H690V1058Z" fill="#FF9275"/>
<path d="M668 1058H452V1208H668V1058Z" fill="#FF9F8C"/>
<path d="M650 1058H452V1188H650V1058Z" fill="#FFADA3"/>
<path d="M630 1058H452V1170H630V1058Z" fill="#FFBBBB"/>
</g>
<g clip-path="url(#clip10_1325_5517)">
<path d="M-216.016 1003.83H296V1396H-216.016V1003.83Z" fill="#FF60B9"/>
<path d="M-218.023 1372.36L264.468 1391.92L275.922 1029.52L-206.569 1009.96L-218.023 1372.36Z" fill="#FB8EC9"/>
<path d="M-216.014 1346.55L234.987 1385.79L257.852 1051.24L-193.15 1012L-216.014 1346.55Z" fill="#F69DD1"/>
<path d="M-216.021 1320.95L203.54 1379.66L237.766 1074.8L-181.795 1016.09L-216.021 1320.95Z" fill="#F2ADD8"/>
<path d="M-216.012 1293.4L173.96 1371.49L219.703 1096.21L-170.27 1018.12L-216.012 1293.4Z" fill="#EEBCE0"/>
<path d="M-216.019 1269.49L144.298 1367.4L201.625 1120.12L-158.693 1022.21L-216.019 1269.49Z" fill="#E9CBE8"/>
<path d="M-218.026 1243.4L112.568 1361.28L181.547 1142.14L-149.037 1024.26L-218.026 1243.4Z" fill="#E5DBF0"/>
<path d="M-218.025 1217.99L81.1561 1355.15L161.469 1165.5L-137.713 1028.34L-218.025 1217.99Z" fill="#E0EBF7"/>
<path d="M-122.978 1031.98L143.398 1187.66L51.7022 1348.43L-214.675 1192.75L-122.978 1031.98Z" fill="#DCFAFF"/>
</g>
<g clip-path="url(#clip11_1325_5517)">
<path d="M318 1976H22V2210H318V1976Z" fill="#FF682E"/>
<path d="M298 1976H22V2188H298V1976Z" fill="#FF7646"/>
<path d="M278 1976H22V2168H278V1976Z" fill="#FF845D"/>
<path d="M260 1976H22V2148H260V1976Z" fill="#FF9275"/>
<path d="M238 1976H22V2126H238V1976Z" fill="#FF9F8C"/>
<path d="M220 1976H22V2106H220V1976Z" fill="#FFADA3"/>
<path d="M200 1976H22V2088H200V1976Z" fill="#FFBBBB"/>
</g>
</g>
<g clip-path="url(#clip12_1325_5517)">
<g clip-path="url(#clip13_1325_5517)">
<path d="M1352 4192H1046V3960H1352V4192Z" fill="#FFF67F"/>
<path opacity="0.5" d="M1334 4190H1048V3978H1334V4190Z" fill="#E1F391"/>
<path opacity="0.5" d="M1316 4188H1050V3996H1316V4188Z" fill="#C4F0A2"/>
<path opacity="0.5" d="M1296 4186H1050V4016H1296V4186Z" fill="#A6EDB3"/>
<path opacity="0.5" d="M1278 4184H1052V4034H1278V4184Z" fill="#88EAC5"/>
<path opacity="0.5" d="M1258 4182H1054V4052H1258V4182Z" fill="#6BE7D6"/>
<path opacity="0.5" d="M1240 4180H1056V4070H1240V4180Z" fill="#4DE4E8"/>
</g>
<g clip-path="url(#clip14_1325_5517)">
<path d="M1462.2 3576L1462.2 3288L1168 3288L1168 3576L1462.2 3576Z" fill="#FF63BB"/>
<path d="M1462.2 3563.92L1462.2 3298.07L1184.12 3298.07L1184.12 3563.92L1462.2 3563.92Z" fill="#FF70C4"/>
<path d="M1462.2 3553.85L1462.2 3310.16L1200.24 3310.16L1200.24 3553.85L1462.2 3553.85Z" fill="#FE7ECE"/>
<path d="M1462.2 3543.78L1462.2 3320.23L1218.38 3320.23L1218.38 3543.78L1462.2 3543.78Z" fill="#FE8BD7"/>
<path d="M1462.2 3533.7L1462.2 3332.3L1234.5 3332.3L1234.5 3533.7L1462.2 3533.7Z" fill="#FE99E1"/>
<path d="M1462.2 3521.62L1462.2 3342.38L1250.62 3342.37L1250.62 3521.62L1462.2 3521.62Z" fill="#FEA6EA"/>
<path d="M1462.2 3509.54L1462.2 3352.45L1266.74 3352.45L1266.74 3509.54L1462.2 3509.54Z" fill="#FDB4F4"/>
<path d="M1462.2 3501.48L1462.2 3364.53L1284.87 3364.53L1284.87 3501.48L1462.2 3501.48Z" fill="#FDC1FD"/>
</g>
<g clip-path="url(#clip15_1325_5517)">
<path d="M468 3648H1046V4084H468V3648Z" fill="#FFF790"/>
<path d="M470 4050.19L1007.44 4068L1018 3671.82L480.56 3654L470 4050.19Z" fill="#E7F0A0"/>
<path d="M472 4018.35L968.871 4054L990 3697.64L493.118 3662L472 4018.35Z" fill="#CEE9B1"/>
<path d="M476 3984.52L930.396 4038L962 3721.49L507.593 3668L476 3984.52Z" fill="#B6E2C1"/>
<path d="M478 3950.67L891.827 4022L934 3745.34L520.173 3674L478 3950.67Z" fill="#9EDBD1"/>
<path d="M480 3918.8L853.232 4008L906 3771.2L532.779 3682L480 3918.8Z" fill="#85D4E2"/>
<path d="M546.767 3687.28L878 3794L814.883 3990.09L483.649 3883.38L546.767 3687.28Z" fill="#6DCDF2"/>
</g>
<g clip-path="url(#clip16_1325_5517)">
<path d="M178 2630L686 2630L686 2246L178 2246L178 2630Z" fill="#FF63BB"/>
<path opacity="0.6" d="M182.505 2250.02L661.906 2257.64L657.393 2611.91L178.001 2604.3L182.505 2250.02Z" fill="#F979C5"/>
<path opacity="0.6" d="M191.006 2252.04L639.813 2267.23L630.817 2591.8L182.01 2576.6L191.006 2252.04Z" fill="#F28ECE"/>
<path opacity="0.6" d="M195.526 2254.04L615.719 2276.95L602.194 2573.7L182.011 2550.8L195.526 2254.04Z" fill="#ECA4D8"/>
<path opacity="0.6" d="M204.006 2256.05L593.633 2286.54L575.655 2553.6L186.028 2523.11L204.006 2256.05Z" fill="#E6B9E2"/>
<path opacity="0.6" d="M208.553 2260.07L569.547 2298.13L547.021 2535.51L186.037 2497.45L208.553 2260.07Z" fill="#E0CFEC"/>
<path opacity="0.6" d="M216.987 2262.09L547.453 2307.66L520.513 2515.41L190.046 2469.82L216.987 2262.09Z" fill="#D9E4F5"/>
<path opacity="0.6" d="M492.018 2496.58L523.359 2318.38L220.829 2264.89L189.488 2443.09L492.018 2496.58Z" fill="#D3FAFF"/>
</g>
<g clip-path="url(#clip17_1325_5517)">
<path d="M586 2998H854V3200H586V2998Z" fill="#FFF67F"/>
<path opacity="0.5" d="M602.12 3000H851.984V3184H602.12V3000Z" fill="#E1F391"/>
<path opacity="0.5" d="M620.255 3002H851.984V3168H620.255V3002Z" fill="#C4F0A2"/>
<path opacity="0.5" d="M634.36 3004H849.969V3152H634.36V3004Z" fill="#A6EDB3"/>
<path opacity="0.5" d="M650.479 3006H847.953V3138H650.479V3006Z" fill="#88EAC5"/>
<path opacity="0.5" d="M666.599 3006H845.938V3120H666.599V3006Z" fill="#6BE7D6"/>
<path opacity="0.5" d="M684.734 3008H845.938V3104H684.734V3008Z" fill="#4DE4E8"/>
</g>
<g clip-path="url(#clip18_1325_5517)">
<path d="M156 3916H424V4118H156V3916Z" fill="#FFF67F"/>
<path opacity="0.5" d="M172.12 3918H421.984V4102H172.12V3918Z" fill="#E1F391"/>
<path opacity="0.5" d="M190.255 3920H421.984V4086H190.255V3920Z" fill="#C4F0A2"/>
<path opacity="0.5" d="M204.36 3922H419.969V4070H204.36V3922Z" fill="#A6EDB3"/>
<path opacity="0.5" d="M220.479 3924H417.953V4056H220.479V3924Z" fill="#88EAC5"/>
<path opacity="0.5" d="M236.599 3924H415.938V4038H236.599V3924Z" fill="#6BE7D6"/>
<path opacity="0.5" d="M254.734 3926H415.938V4022H254.734V3926Z" fill="#4DE4E8"/>
</g>
<g clip-path="url(#clip19_1325_5517)">
<path d="M1476 2632H916V3072H1476V2632Z" fill="#FFF790"/>
<path d="M1474.01 3040.02L954.114 3058L943.898 2657.99L1463.79 2640L1474.01 3040.02Z" fill="#DBF294"/>
<path d="M1470.03 3004.17L990.216 3040L969.812 2681.82L1449.63 2646L1470.03 3004.17Z" fill="#B8ED98"/>
<path d="M1468.02 2971.94L1028.29 3026L997.703 2706.07L1437.45 2652L1468.02 2971.94Z" fill="#95E89C"/>
<path d="M1468.03 2936.26L1066.53 3008L1025.61 2729.75L1427.11 2658L1468.03 2936.26Z" fill="#71E2A0"/>
<path d="M1466.03 2904.25L1104.61 2994L1053.51 2755.75L1414.92 2666L1466.03 2904.25Z" fill="#4EDDA4"/>
<path d="M1400.72 2674.18L1079.42 2782L1141.4 2982.58L1462.71 2874.75L1400.72 2674.18Z" fill="#2AD8A8"/>
</g>
<g clip-path="url(#clip20_1325_5517)">
<path d="M1260 2008.48H936V2460H1260V2008.48Z" fill="#FF682E"/>
<path d="M1238 2008.48H936V2420.22H1238V2008.48Z" fill="#FF7646"/>
<path d="M1216 2008.48H936V2378.45H1216V2008.48Z" fill="#FF845D"/>
<path d="M1196 2008.48H936V2340.66H1196V2008.48Z" fill="#FF9275"/>
<path d="M1174 2008.48H936V2298.89H1174V2008.48Z" fill="#FF9F8C"/>
<path d="M1152 2008.48H936V2259.11H1152V2008.48Z" fill="#FFADA3"/>
<path d="M1130 2008.48H936V2225.29H1130V2008.48Z" fill="#FFBBBB"/>
</g>
<g clip-path="url(#clip21_1325_5517)">
<path d="M748 3154H452V3388H748V3154Z" fill="#FF682E"/>
<path d="M728 3154H452V3366H728V3154Z" fill="#FF7646"/>
<path d="M708 3154H452V3346H708V3154Z" fill="#FF845D"/>
<path d="M690 3154H452V3326H690V3154Z" fill="#FF9275"/>
<path d="M668 3154H452V3304H668V3154Z" fill="#FF9F8C"/>
<path d="M650 3154H452V3284H650V3154Z" fill="#FFADA3"/>
<path d="M630 3154H452V3266H630V3154Z" fill="#FFBBBB"/>
</g>
<g clip-path="url(#clip22_1325_5517)">
<path d="M-216.016 3099.83H296V3492H-216.016V3099.83Z" fill="#FF60B9"/>
<path d="M-218.023 3468.36L264.468 3487.92L275.922 3125.52L-206.569 3105.96L-218.023 3468.36Z" fill="#FB8EC9"/>
<path d="M-216.014 3442.55L234.987 3481.79L257.852 3147.24L-193.15 3108L-216.014 3442.55Z" fill="#F69DD1"/>
<path d="M-216.021 3416.95L203.54 3475.66L237.766 3170.8L-181.795 3112.09L-216.021 3416.95Z" fill="#F2ADD8"/>
<path d="M-216.012 3389.4L173.96 3467.49L219.703 3192.21L-170.27 3114.12L-216.012 3389.4Z" fill="#EEBCE0"/>
<path d="M-216.019 3365.49L144.298 3463.4L201.625 3216.12L-158.693 3118.21L-216.019 3365.49Z" fill="#E9CBE8"/>
<path d="M-218.026 3339.4L112.568 3457.28L181.547 3238.14L-149.037 3120.26L-218.026 3339.4Z" fill="#E5DBF0"/>
<path d="M-218.025 3313.99L81.1561 3451.15L161.469 3261.5L-137.713 3124.34L-218.025 3313.99Z" fill="#E0EBF7"/>
<path d="M-122.978 3127.98L143.398 3283.66L51.7022 3444.43L-214.675 3288.75L-122.978 3127.98Z" fill="#DCFAFF"/>
</g>
<g clip-path="url(#clip23_1325_5517)">
<path d="M318 4072H22V4306H318V4072Z" fill="#FF682E"/>
<path d="M298 4072H22V4284H298V4072Z" fill="#FF7646"/>
<path d="M278 4072H22V4264H278V4072Z" fill="#FF845D"/>
<path d="M260 4072H22V4244H260V4072Z" fill="#FF9275"/>
<path d="M238 4072H22V4222H238V4072Z" fill="#FF9F8C"/>
<path d="M220 4072H22V4202H220V4072Z" fill="#FFADA3"/>
<path d="M200 4072H22V4184H200V4072Z" fill="#FFBBBB"/>
</g>
</g>
<defs>
<clipPath id="clip0_1325_5517">
<rect width="1440" height="2210" fill="white"/>
</clipPath>
<clipPath id="clip1_1325_5517">
<rect width="306" height="232" rx="10" transform="matrix(1 0 0 -1 1046 2096)" fill="white"/>
</clipPath>
<clipPath id="clip2_1325_5517">
<rect x="1436" y="1192" width="288" height="268" rx="10" transform="rotate(90 1436 1192)" fill="white"/>
</clipPath>
<clipPath id="clip3_1325_5517">
<rect width="578" height="370" rx="10" transform="matrix(-1 0 0 1 1046 1552)" fill="white"/>
</clipPath>
<clipPath id="clip4_1325_5517">
<rect x="686" y="534" width="508" height="384" rx="10" transform="rotate(-180 686 534)" fill="white"/>
</clipPath>
<clipPath id="clip5_1325_5517">
<rect width="268" height="202" rx="10" transform="matrix(-1 0 0 1 854 902)" fill="white"/>
</clipPath>
<clipPath id="clip6_1325_5517">
<rect width="268" height="202" rx="10" transform="matrix(-1 0 0 1 424 1820)" fill="white"/>
</clipPath>
<clipPath id="clip7_1325_5517">
<rect x="916" y="536" width="560" height="440" rx="10" fill="white"/>
</clipPath>
<clipPath id="clip8_1325_5517">
<rect x="936" width="324" height="364" rx="10" fill="white"/>
</clipPath>
<clipPath id="clip9_1325_5517">
<rect x="452" y="1104" width="296" height="188" rx="10" fill="white"/>
</clipPath>
<clipPath id="clip10_1325_5517">
<rect width="508" height="384" rx="10" transform="matrix(-1 0 0 1 296 1012)" fill="white"/>
</clipPath>
<clipPath id="clip11_1325_5517">
<rect x="22" y="2022" width="296" height="188" rx="10" fill="white"/>
</clipPath>
<clipPath id="clip12_1325_5517">
<rect width="1440" height="2210" fill="white" transform="translate(0 2096)"/>
</clipPath>
<clipPath id="clip13_1325_5517">
<rect width="306" height="232" rx="10" transform="matrix(1 0 0 -1 1046 4192)" fill="white"/>
</clipPath>
<clipPath id="clip14_1325_5517">
<rect x="1436" y="3288" width="288" height="268" rx="10" transform="rotate(90 1436 3288)" fill="white"/>
</clipPath>
<clipPath id="clip15_1325_5517">
<rect width="578" height="370" rx="10" transform="matrix(-1 0 0 1 1046 3648)" fill="white"/>
</clipPath>
<clipPath id="clip16_1325_5517">
<rect x="686" y="2630" width="508" height="384" rx="10" transform="rotate(-180 686 2630)" fill="white"/>
</clipPath>
<clipPath id="clip17_1325_5517">
<rect width="268" height="202" rx="10" transform="matrix(-1 0 0 1 854 2998)" fill="white"/>
</clipPath>
<clipPath id="clip18_1325_5517">
<rect width="268" height="202" rx="10" transform="matrix(-1 0 0 1 424 3916)" fill="white"/>
</clipPath>
<clipPath id="clip19_1325_5517">
<rect x="916" y="2632" width="560" height="440" rx="10" fill="white"/>
</clipPath>
<clipPath id="clip20_1325_5517">
<rect x="936" y="2096" width="324" height="364" rx="10" fill="white"/>
</clipPath>
<clipPath id="clip21_1325_5517">
<rect x="452" y="3200" width="296" height="188" rx="10" fill="white"/>
</clipPath>
<clipPath id="clip22_1325_5517">
<rect width="508" height="384" rx="10" transform="matrix(-1 0 0 1 296 3108)" fill="white"/>
</clipPath>
<clipPath id="clip23_1325_5517">
<rect x="22" y="4118" width="296" height="188" rx="10" fill="white"/>
</clipPath>
</defs>
</svg>
