<svg width="1452" height="8675" viewBox="0 0 1452 8675" fill="none" xmlns="http://www.w3.org/2000/svg">
<g clip-path="url(#clip0_2758_18530)">
<g opacity="0.7">
<mask id="mask0_2758_18530" style="mask-type:luminance" maskUnits="userSpaceOnUse" x="1116" y="6246" width="306" height="232">
<path d="M1422 6246H1116V6478H1422V6246Z" fill="white"/>
</mask>
<g mask="url(#mask0_2758_18530)">
<path d="M1422 6472C1422 6475.31 1419.31 6478 1416 6478H1122C1118.69 6478 1116 6475.31 1116 6472V6252C1116 6248.69 1118.69 6246 1122 6246H1416C1419.31 6246 1422 6248.69 1422 6252V6472Z" fill="#FFF67F"/>
<path opacity="0.5" d="M1404 6476H1118V6264H1404V6476Z" fill="#E1F391"/>
<path opacity="0.5" d="M1386 6474H1120V6282H1386V6474Z" fill="#C4F0A2"/>
<path opacity="0.5" d="M1366 6472H1120V6302H1366V6472Z" fill="#A6EDB3"/>
<path opacity="0.5" d="M1348 6470H1122V6320H1348V6470Z" fill="#88EAC5"/>
<path opacity="0.5" d="M1328 6468H1124V6338H1328V6468Z" fill="#6BE7D6"/>
<path opacity="0.5" d="M1310 6466H1126V6356H1310V6466Z" fill="#4DE4E8"/>
</g>
</g>
<g opacity="0.7">
<mask id="mask1_2758_18530" style="mask-type:luminance" maskUnits="userSpaceOnUse" x="586" y="5284" width="268" height="202">
<path d="M854 5284H586V5486H854V5284Z" fill="white"/>
</mask>
<g mask="url(#mask1_2758_18530)">
<path d="M586 5290C586 5286.69 588.686 5284 592 5284H848C851.314 5284 854 5286.69 854 5290V5480C854 5483.31 851.314 5486 848 5486H592C588.686 5486 586 5483.31 586 5480V5290Z" fill="#FFF67F"/>
<path opacity="0.5" d="M602.125 5286H851.989V5470H602.125V5286Z" fill="#E1F391"/>
<path opacity="0.5" d="M620.25 5288H851.979V5454H620.25V5288Z" fill="#C4F0A2"/>
<path opacity="0.5" d="M634.359 5290H849.968V5438H634.359V5290Z" fill="#A6EDB3"/>
<path opacity="0.5" d="M650.484 5292H847.958V5424H650.484V5292Z" fill="#88EAC5"/>
<path opacity="0.5" d="M666.594 5292H845.933V5406H666.594V5292Z" fill="#6BE7D6"/>
<path opacity="0.5" d="M684.734 5294H845.938V5390H684.734V5294Z" fill="#4DE4E8"/>
</g>
</g>
<g opacity="0.7">
<mask id="mask2_2758_18530" style="mask-type:luminance" maskUnits="userSpaceOnUse" x="-32" y="4310" width="350" height="222">
<path d="M311 4310H-25C-28.866 4310 -32 4313.13 -32 4317V4525C-32 4528.87 -28.866 4532 -25 4532H311C314.866 4532 318 4528.87 318 4525V4317C318 4313.13 314.866 4310 311 4310Z" fill="white"/>
</mask>
<g mask="url(#mask2_2758_18530)">
<path d="M319 4313H-31V4535H319V4313Z" fill="#FF682E"/>
<mask id="mask3_2758_18530" style="mask-type:luminance" maskUnits="userSpaceOnUse" x="-3" y="4294" width="322" height="245">
<path d="M-3 4294H307.794C313.983 4294 319 4299.02 319 4305.21V4527.79C319 4533.98 313.983 4539 307.794 4539H-3V4294Z" fill="white"/>
</mask>
<g mask="url(#mask3_2758_18530)">
<path d="M319.004 4233.13H-73.2188V4542.79H319.004V4233.13Z" fill="#FF682E"/>
<path d="M292.502 4233.13H-73.2188V4513.67H292.502V4233.13Z" fill="#FF7646"/>
<path d="M266.001 4233.13H-73.2188V4487.21H266.001V4233.13Z" fill="#FF845D"/>
<path d="M242.149 4233.13H-73.2188V4460.74H242.149V4233.13Z" fill="#FF9275"/>
<path d="M212.998 4233.13H-73.2188V4431.63H212.998V4233.13Z" fill="#FF9F8C"/>
<path d="M189.146 4233.13H-73.2188V4405.16H189.146V4233.13Z" fill="#FFADA3"/>
<path d="M162.645 4233.13H-73.2188V4381.34H162.645V4233.13Z" fill="#FFBBBB"/>
<path d="M319.01 4294H-47.4375V4542.78H319.01V4294Z" fill="#4DE3E8"/>
<path d="M305.558 4299.61H-28.3906V4534.94H305.558V4299.61Z" fill="#4CD8EC"/>
<path d="M292.111 4304.09H-18.3047V4528.21H292.111V4304.09Z" fill="#4ACBEE"/>
<path d="M279.78 4315.3H-9.34375V4519.25H279.78V4315.3Z" fill="#47BFF1"/>
<path d="M266.335 4325.38H-4.85938V4511.41H266.335V4325.38Z" fill="#46B3F5"/>
<path d="M252.881 4335.47H1.85938V4502.44H252.881V4335.47Z" fill="#43A7F9"/>
<path d="M241.686 4346.68H8.59375V4493.48H241.686V4346.68Z" fill="#4399FC"/>
<path d="M224.87 4363.48H13.0703V4487.87H224.87V4363.48Z" fill="#428EFE"/>
</g>
</g>
</g>
<g opacity="0.7">
<mask id="mask4_2758_18530" style="mask-type:luminance" maskUnits="userSpaceOnUse" x="1116" y="8443" width="306" height="232">
<path d="M1422 8443H1116V8675H1422V8443Z" fill="white"/>
</mask>
<g mask="url(#mask4_2758_18530)">
<path d="M1422 8669C1422 8672.31 1419.31 8675 1416 8675H1122C1118.69 8675 1116 8672.31 1116 8669V8449C1116 8445.69 1118.69 8443 1122 8443H1416C1419.31 8443 1422 8445.69 1422 8449V8669Z" fill="#FFF67F"/>
<path opacity="0.5" d="M1404 8673H1118V8461H1404V8673Z" fill="#E1F391"/>
<path opacity="0.5" d="M1386 8671H1120V8479H1386V8671Z" fill="#C4F0A2"/>
<path opacity="0.5" d="M1366 8669H1120V8499H1366V8669Z" fill="#A6EDB3"/>
<path opacity="0.5" d="M1348 8667H1122V8517H1348V8667Z" fill="#88EAC5"/>
<path opacity="0.5" d="M1328 8665H1124V8535H1328V8665Z" fill="#6BE7D6"/>
<path opacity="0.5" d="M1310 8663H1126V8553H1310V8663Z" fill="#4DE4E8"/>
</g>
</g>
<g opacity="0.7">
<mask id="mask5_2758_18530" style="mask-type:luminance" maskUnits="userSpaceOnUse" x="587" y="7481" width="268" height="202">
<path d="M855 7481H587V7683H855V7481Z" fill="white"/>
</mask>
<g mask="url(#mask5_2758_18530)">
<path d="M587 7487C587 7483.69 589.686 7481 593 7481H849C852.314 7481 855 7483.69 855 7487V7677C855 7680.31 852.314 7683 849 7683H593C589.686 7683 587 7680.31 587 7677V7487Z" fill="#FFF67F"/>
<path opacity="0.5" d="M603.125 7483H852.989V7667H603.125V7483Z" fill="#E1F391"/>
<path opacity="0.5" d="M621.25 7485H852.979V7651H621.25V7485Z" fill="#C4F0A2"/>
<path opacity="0.5" d="M635.359 7487H850.968V7635H635.359V7487Z" fill="#A6EDB3"/>
<path opacity="0.5" d="M651.484 7489H848.958V7621H651.484V7489Z" fill="#88EAC5"/>
<path opacity="0.5" d="M667.594 7489H846.933V7603H667.594V7489Z" fill="#6BE7D6"/>
<path opacity="0.5" d="M685.734 7491H846.938V7587H685.734V7491Z" fill="#4DE4E8"/>
</g>
</g>
<mask id="mask6_2758_18530" style="mask-type:luminance" maskUnits="userSpaceOnUse" x="-190" y="7592" width="490" height="372">
<path d="M292 7592H-182C-186.418 7592 -190 7595.58 -190 7600V7956C-190 7960.42 -186.418 7964 -182 7964H292C296.418 7964 300 7960.42 300 7956V7600C300 7595.58 296.418 7592 292 7592Z" fill="white"/>
</mask>
<g mask="url(#mask6_2758_18530)">
</g>
<g opacity="0.7">
<path d="M1300.82 4378H990C986.134 4378 983 4381.13 983 4385V4738.23C983 4742.1 986.134 4745.23 990 4745.23H1300.82C1304.68 4745.23 1307.82 4742.1 1307.82 4738.23V4385C1307.82 4381.13 1304.68 4378 1300.82 4378Z" fill="#FFF790"/>
<path opacity="0.971" d="M1292.13 4378H990C986.134 4378 983 4381.13 983 4385V4716.52H1292.13V4378Z" fill="#FFE196"/>
<path opacity="0.943" d="M1276.43 4378H990C986.134 4378 983 4381.13 983 4385V4687.81H1276.43V4378Z" fill="#FFCC9C"/>
<path opacity="0.914" d="M1260.74 4378H990C986.134 4378 983 4381.13 983 4385V4659.09H1260.74V4378Z" fill="#FFB6A2"/>
<path opacity="0.886" d="M1245.05 4378H990C986.134 4378 983 4381.13 983 4385V4630.38H1245.05V4378Z" fill="#FFA1A7"/>
<path opacity="0.857" d="M1229.36 4378H990C986.134 4378 983 4381.13 983 4385V4601.67H1229.36V4378Z" fill="#FF8BAD"/>
<path opacity="0.829" d="M1213.67 4378H990C986.134 4378 983 4381.13 983 4385V4572.95H1213.67V4378Z" fill="#FF76B3"/>
<path opacity="0.8" d="M1197.98 4378H990C986.134 4378 983 4381.13 983 4385V4544.24H1197.98V4378Z" fill="#FF60B9"/>
</g>
<g opacity="0.7">
<path d="M1300.82 6579H990C986.134 6579 983 6582.13 983 6586V6939.23C983 6943.1 986.134 6946.23 990 6946.23H1300.82C1304.68 6946.23 1307.82 6943.1 1307.82 6939.23V6586C1307.82 6582.13 1304.68 6579 1300.82 6579Z" fill="#FFF790"/>
<path opacity="0.971" d="M1292.13 6579H990C986.134 6579 983 6582.13 983 6586V6917.52H1292.13V6579Z" fill="#FFE196"/>
<path opacity="0.943" d="M1276.43 6579H990C986.134 6579 983 6582.13 983 6586V6888.81H1276.43V6579Z" fill="#FFCC9C"/>
<path opacity="0.914" d="M1260.74 6579H990C986.134 6579 983 6582.13 983 6586V6860.09H1260.74V6579Z" fill="#FFB6A2"/>
<path opacity="0.886" d="M1245.05 6579H990C986.134 6579 983 6582.13 983 6586V6831.38H1245.05V6579Z" fill="#FFA1A7"/>
<path opacity="0.857" d="M1229.36 6579H990C986.134 6579 983 6582.13 983 6586V6802.67H1229.36V6579Z" fill="#FF8BAD"/>
<path opacity="0.829" d="M1213.67 6579H990C986.134 6579 983 6582.13 983 6586V6773.95H1213.67V6579Z" fill="#FF76B3"/>
<path opacity="0.8" d="M1197.98 6579H990C986.134 6579 983 6582.13 983 6586V6745.24H1197.98V6579Z" fill="#FF60B9"/>
</g>
<g opacity="0.7">
<path d="M742 5496H458C454.686 5496 452 5498.69 452 5502V5692C452 5695.31 454.686 5698 458 5698H742C745.314 5698 748 5695.31 748 5692V5502C748 5498.69 745.314 5496 742 5496Z" fill="#FE785C"/>
<path d="M732.305 5498.32H453.469V5686.17H732.305V5498.32Z" fill="#FE8273"/>
<path d="M716.602 5500.64H454.93V5674.34H716.602V5500.64Z" fill="#FE8D8A"/>
<path d="M700.906 5502.96H456.398V5662.5H700.906V5502.96Z" fill="#FE97A1"/>
<path d="M685.202 5505.28H457.859V5650.67H685.202V5505.28Z" fill="#FDA2B7"/>
<path d="M669.507 5507.61H459.328V5638.85H669.507V5507.61Z" fill="#FDACCE"/>
<path d="M653.812 5509.93H460.797V5627.02H653.812V5509.93Z" fill="#FDB7E5"/>
<path d="M638.117 5512.25H462.266V5615.19H638.117V5512.25Z" fill="#FDC1FC"/>
</g>
<g opacity="0.7">
<path d="M742 7693H458C454.686 7693 452 7695.69 452 7699V7889C452 7892.31 454.686 7895 458 7895H742C745.314 7895 748 7892.31 748 7889V7699C748 7695.69 745.314 7693 742 7693Z" fill="#FE785C"/>
<path d="M732.305 7695.32H453.469V7883.17H732.305V7695.32Z" fill="#FE8273"/>
<path d="M716.602 7697.64H454.93V7871.34H716.602V7697.64Z" fill="#FE8D8A"/>
<path d="M700.906 7699.96H456.398V7859.5H700.906V7699.96Z" fill="#FE97A1"/>
<path d="M685.202 7702.28H457.859V7847.67H685.202V7702.28Z" fill="#FDA2B7"/>
<path d="M669.507 7704.61H459.328V7835.85H669.507V7704.61Z" fill="#FDACCE"/>
<path d="M653.812 7706.93H460.797V7824.02H653.812V7706.93Z" fill="#FDB7E5"/>
<path d="M638.117 7709.25H462.266V7812.19H638.117V7709.25Z" fill="#FDC1FC"/>
</g>
</g>
<g clip-path="url(#clip1_2758_18530)">
<g opacity="0.7">
<mask id="mask7_2758_18530" style="mask-type:luminance" maskUnits="userSpaceOnUse" x="1116" y="1936" width="306" height="232">
<path d="M1422 1936H1116V2168H1422V1936Z" fill="white"/>
</mask>
<g mask="url(#mask7_2758_18530)">
<path d="M1422 2162C1422 2165.31 1419.31 2168 1416 2168H1122C1118.69 2168 1116 2165.31 1116 2162V1942C1116 1938.69 1118.69 1936 1122 1936H1416C1419.31 1936 1422 1938.69 1422 1942V2162Z" fill="#FFF67F"/>
<path opacity="0.5" d="M1404 2166H1118V1954H1404V2166Z" fill="#E1F391"/>
<path opacity="0.5" d="M1386 2164H1120V1972H1386V2164Z" fill="#C4F0A2"/>
<path opacity="0.5" d="M1366 2162H1120V1992H1366V2162Z" fill="#A6EDB3"/>
<path opacity="0.5" d="M1348 2160H1122V2010H1348V2160Z" fill="#88EAC5"/>
<path opacity="0.5" d="M1328 2158H1124V2028H1328V2158Z" fill="#6BE7D6"/>
<path opacity="0.5" d="M1310 2156H1126V2046H1310V2156Z" fill="#4DE4E8"/>
</g>
</g>
<g opacity="0.7">
<mask id="mask8_2758_18530" style="mask-type:luminance" maskUnits="userSpaceOnUse" x="586" y="974" width="268" height="202">
<path d="M854 974H586V1176H854V974Z" fill="white"/>
</mask>
<g mask="url(#mask8_2758_18530)">
<path d="M586 980C586 976.686 588.686 974 592 974H848C851.314 974 854 976.686 854 980V1170C854 1173.31 851.314 1176 848 1176H592C588.686 1176 586 1173.31 586 1170V980Z" fill="#FFF67F"/>
<path opacity="0.5" d="M602.125 976H851.989V1160H602.125V976Z" fill="#E1F391"/>
<path opacity="0.5" d="M620.25 978H851.979V1144H620.25V978Z" fill="#C4F0A2"/>
<path opacity="0.5" d="M634.359 980H849.968V1128H634.359V980Z" fill="#A6EDB3"/>
<path opacity="0.5" d="M650.484 982H847.958V1114H650.484V982Z" fill="#88EAC5"/>
<path opacity="0.5" d="M666.594 982H845.933V1096H666.594V982Z" fill="#6BE7D6"/>
<path opacity="0.5" d="M684.734 984H845.938V1080H684.734V984Z" fill="#4DE4E8"/>
</g>
</g>
<g opacity="0.7">
<mask id="mask9_2758_18530" style="mask-type:luminance" maskUnits="userSpaceOnUse" x="-32" y="0" width="350" height="222">
<path d="M311 0H-25C-28.866 0 -32 3.134 -32 7V215C-32 218.866 -28.866 222 -25 222H311C314.866 222 318 218.866 318 215V7C318 3.13401 314.866 0 311 0Z" fill="white"/>
</mask>
<g mask="url(#mask9_2758_18530)">
<path d="M319 3H-31V225H319V3Z" fill="#FF682E"/>
<mask id="mask10_2758_18530" style="mask-type:luminance" maskUnits="userSpaceOnUse" x="-3" y="-16" width="322" height="245">
<path d="M-3 -16H307.794C313.983 -16 319 -10.983 319 -4.794V217.794C319 223.983 313.983 229 307.794 229H-3V-16Z" fill="white"/>
</mask>
<g mask="url(#mask10_2758_18530)">
<path d="M319.004 -76.8672H-73.2188V232.786H319.004V-76.8672Z" fill="#FF682E"/>
<path d="M292.502 -76.8672H-73.2188V203.673H292.502V-76.8672Z" fill="#FF7646"/>
<path d="M266.001 -76.8672H-73.2188V177.207H266.001V-76.8672Z" fill="#FF845D"/>
<path d="M242.149 -76.8672H-73.2188V150.741H242.149V-76.8672Z" fill="#FF9275"/>
<path d="M212.998 -76.8672H-73.2188V121.628H212.998V-76.8672Z" fill="#FF9F8C"/>
<path d="M189.146 -76.8672H-73.2188V95.1618H189.146V-76.8672Z" fill="#FFADA3"/>
<path d="M162.645 -76.8672H-73.2188V71.3428H162.645V-76.8672Z" fill="#FFBBBB"/>
<path d="M319.01 -16H-47.4375V232.781H319.01V-16Z" fill="#4DE3E8"/>
<path d="M305.558 -10.3906H-28.3906V224.942H305.558V-10.3906Z" fill="#4CD8EC"/>
<path d="M292.111 -5.91406H-18.3047V218.213H292.111V-5.91406Z" fill="#4ACBEE"/>
<path d="M279.78 5.29688H-9.34375V209.253H279.78V5.29688Z" fill="#47BFF1"/>
<path d="M266.335 15.3828H-4.85938V201.408H266.335V15.3828Z" fill="#46B3F5"/>
<path d="M252.881 25.4688H1.85938V192.444H252.881V25.4688Z" fill="#43A7F9"/>
<path d="M241.686 36.6797H8.59375V183.483H241.686V36.6797Z" fill="#4399FC"/>
<path d="M224.87 53.4844H13.0703V177.874H224.87V53.4844Z" fill="#428EFE"/>
</g>
</g>
</g>
<g opacity="0.7">
<mask id="mask11_2758_18530" style="mask-type:luminance" maskUnits="userSpaceOnUse" x="1116" y="4133" width="306" height="232">
<path d="M1422 4133H1116V4365H1422V4133Z" fill="white"/>
</mask>
<g mask="url(#mask11_2758_18530)">
<path d="M1422 4359C1422 4362.31 1419.31 4365 1416 4365H1122C1118.69 4365 1116 4362.31 1116 4359V4139C1116 4135.69 1118.69 4133 1122 4133H1416C1419.31 4133 1422 4135.69 1422 4139V4359Z" fill="#FFF67F"/>
<path opacity="0.5" d="M1404 4363H1118V4151H1404V4363Z" fill="#E1F391"/>
<path opacity="0.5" d="M1386 4361H1120V4169H1386V4361Z" fill="#C4F0A2"/>
<path opacity="0.5" d="M1366 4359H1120V4189H1366V4359Z" fill="#A6EDB3"/>
<path opacity="0.5" d="M1348 4357H1122V4207H1348V4357Z" fill="#88EAC5"/>
<path opacity="0.5" d="M1328 4355H1124V4225H1328V4355Z" fill="#6BE7D6"/>
<path opacity="0.5" d="M1310 4353H1126V4243H1310V4353Z" fill="#4DE4E8"/>
</g>
</g>
<g opacity="0.7">
<mask id="mask12_2758_18530" style="mask-type:luminance" maskUnits="userSpaceOnUse" x="587" y="3171" width="268" height="202">
<path d="M855 3171H587V3373H855V3171Z" fill="white"/>
</mask>
<g mask="url(#mask12_2758_18530)">
<path d="M587 3177C587 3173.69 589.686 3171 593 3171H849C852.314 3171 855 3173.69 855 3177V3367C855 3370.31 852.314 3373 849 3373H593C589.686 3373 587 3370.31 587 3367V3177Z" fill="#FFF67F"/>
<path opacity="0.5" d="M603.125 3173H852.989V3357H603.125V3173Z" fill="#E1F391"/>
<path opacity="0.5" d="M621.25 3175H852.979V3341H621.25V3175Z" fill="#C4F0A2"/>
<path opacity="0.5" d="M635.359 3177H850.968V3325H635.359V3177Z" fill="#A6EDB3"/>
<path opacity="0.5" d="M651.484 3179H848.958V3311H651.484V3179Z" fill="#88EAC5"/>
<path opacity="0.5" d="M667.594 3179H846.933V3293H667.594V3179Z" fill="#6BE7D6"/>
<path opacity="0.5" d="M685.734 3181H846.938V3277H685.734V3181Z" fill="#4DE4E8"/>
</g>
</g>
<mask id="mask13_2758_18530" style="mask-type:luminance" maskUnits="userSpaceOnUse" x="-190" y="3282" width="490" height="372">
<path d="M292 3282H-182C-186.418 3282 -190 3285.58 -190 3290V3646C-190 3650.42 -186.418 3654 -182 3654H292C296.418 3654 300 3650.42 300 3646V3290C300 3285.58 296.418 3282 292 3282Z" fill="white"/>
</mask>
<g mask="url(#mask13_2758_18530)">
</g>
<g opacity="0.7">
<path d="M1300.82 68H990C986.134 68 983 71.134 983 75V428.235C983 432.101 986.134 435.235 990 435.235H1300.82C1304.68 435.235 1307.82 432.101 1307.82 428.235V75C1307.82 71.134 1304.68 68 1300.82 68Z" fill="#FFF790"/>
<path opacity="0.971" d="M1292.13 68H990C986.134 68 983 71.134 983 75V406.521H1292.13V68Z" fill="#FFE196"/>
<path opacity="0.943" d="M1276.43 68H990C986.134 68 983 71.134 983 75V377.808H1276.43V68Z" fill="#FFCC9C"/>
<path opacity="0.914" d="M1260.74 68H990C986.134 68 983 71.134 983 75V349.094H1260.74V68Z" fill="#FFB6A2"/>
<path opacity="0.886" d="M1245.05 68H990C986.134 68 983 71.134 983 75V320.38H1245.05V68Z" fill="#FFA1A7"/>
<path opacity="0.857" d="M1229.36 68H990C986.134 68 983 71.134 983 75V291.667H1229.36V68Z" fill="#FF8BAD"/>
<path opacity="0.829" d="M1213.67 68H990C986.134 68 983 71.134 983 75V262.953H1213.67V68Z" fill="#FF76B3"/>
<path opacity="0.8" d="M1197.98 68H990C986.134 68 983 71.134 983 75V234.239H1197.98V68Z" fill="#FF60B9"/>
</g>
<g opacity="0.7">
<path d="M1300.82 2269H990C986.134 2269 983 2272.13 983 2276V2629.23C983 2633.1 986.134 2636.23 990 2636.23H1300.82C1304.68 2636.23 1307.82 2633.1 1307.82 2629.23V2276C1307.82 2272.13 1304.68 2269 1300.82 2269Z" fill="#FFF790"/>
<path opacity="0.971" d="M1292.13 2269H990C986.134 2269 983 2272.13 983 2276V2607.52H1292.13V2269Z" fill="#FFE196"/>
<path opacity="0.943" d="M1276.43 2269H990C986.134 2269 983 2272.13 983 2276V2578.81H1276.43V2269Z" fill="#FFCC9C"/>
<path opacity="0.914" d="M1260.74 2269H990C986.134 2269 983 2272.13 983 2276V2550.09H1260.74V2269Z" fill="#FFB6A2"/>
<path opacity="0.886" d="M1245.05 2269H990C986.134 2269 983 2272.13 983 2276V2521.38H1245.05V2269Z" fill="#FFA1A7"/>
<path opacity="0.857" d="M1229.36 2269H990C986.134 2269 983 2272.13 983 2276V2492.67H1229.36V2269Z" fill="#FF8BAD"/>
<path opacity="0.829" d="M1213.67 2269H990C986.134 2269 983 2272.13 983 2276V2463.95H1213.67V2269Z" fill="#FF76B3"/>
<path opacity="0.8" d="M1197.98 2269H990C986.134 2269 983 2272.13 983 2276V2435.24H1197.98V2269Z" fill="#FF60B9"/>
</g>
<g opacity="0.7">
<path d="M742 1186H458C454.686 1186 452 1188.69 452 1192V1382C452 1385.31 454.686 1388 458 1388H742C745.314 1388 748 1385.31 748 1382V1192C748 1188.69 745.314 1186 742 1186Z" fill="#FE785C"/>
<path d="M732.305 1188.32H453.469V1376.17H732.305V1188.32Z" fill="#FE8273"/>
<path d="M716.602 1190.64H454.93V1364.34H716.602V1190.64Z" fill="#FE8D8A"/>
<path d="M700.906 1192.96H456.398V1352.5H700.906V1192.96Z" fill="#FE97A1"/>
<path d="M685.202 1195.28H457.859V1340.67H685.202V1195.28Z" fill="#FDA2B7"/>
<path d="M669.507 1197.61H459.328V1328.85H669.507V1197.61Z" fill="#FDACCE"/>
<path d="M653.812 1199.93H460.797V1317.02H653.812V1199.93Z" fill="#FDB7E5"/>
<path d="M638.117 1202.25H462.266V1305.19H638.117V1202.25Z" fill="#FDC1FC"/>
</g>
<g opacity="0.7">
<path d="M742 3383H458C454.686 3383 452 3385.69 452 3389V3579C452 3582.31 454.686 3585 458 3585H742C745.314 3585 748 3582.31 748 3579V3389C748 3385.69 745.314 3383 742 3383Z" fill="#FE785C"/>
<path d="M732.305 3385.32H453.469V3573.17H732.305V3385.32Z" fill="#FE8273"/>
<path d="M716.602 3387.64H454.93V3561.34H716.602V3387.64Z" fill="#FE8D8A"/>
<path d="M700.906 3389.96H456.398V3549.5H700.906V3389.96Z" fill="#FE97A1"/>
<path d="M685.202 3392.28H457.859V3537.67H685.202V3392.28Z" fill="#FDA2B7"/>
<path d="M669.507 3394.61H459.328V3525.85H669.507V3394.61Z" fill="#FDACCE"/>
<path d="M653.812 3396.93H460.797V3514.02H653.812V3396.93Z" fill="#FDB7E5"/>
<path d="M638.117 3399.25H462.266V3502.19H638.117V3399.25Z" fill="#FDC1FC"/>
</g>
</g>
<defs>
<clipPath id="clip0_2758_18530">
<rect width="1452" height="4365" fill="white" transform="translate(0 4310)"/>
</clipPath>
<clipPath id="clip1_2758_18530">
<rect width="1452" height="4365" fill="white"/>
</clipPath>
</defs>
</svg>
