<svg width="1452" height="8675" viewBox="0 0 1452 8675" fill="none" xmlns="http://www.w3.org/2000/svg">
<g clip-path="url(#clip0_2758_18199)">
<mask id="mask0_2758_18199" style="mask-type:luminance" maskUnits="userSpaceOnUse" x="1186" y="5665" width="300" height="322">
<path d="M1486 5665H1186V5987H1486V5665Z" fill="white"/>
</mask>
<g mask="url(#mask0_2758_18199)">
<path d="M1509.32 5987C1512.63 5987 1515.32 5984.31 1515.32 5981V5671C1515.32 5667.69 1512.63 5665 1509.32 5665H1192C1188.69 5665 1186 5667.69 1186 5671V5981C1186 5984.31 1188.69 5987 1192 5987H1509.32Z" fill="#FF63BB"/>
<path d="M1515.32 5973.49V5676.26H1204.04V5973.49H1515.32Z" fill="#FF70C4"/>
<path d="M1515.32 5962.23V5689.77H1222.09V5962.23H1515.32Z" fill="#FE7ECE"/>
<path d="M1515.32 5950.98V5701.03H1242.39V5950.98H1515.32Z" fill="#FE8BD7"/>
<path d="M1515.32 5939.71V5714.54H1260.43V5939.71H1515.32Z" fill="#FE99E1"/>
<path d="M1515.32 5926.2V5725.8H1278.48V5926.2H1515.32Z" fill="#FEA6EA"/>
<path d="M1515.32 5912.69V5737.05H1296.52V5912.69H1515.32Z" fill="#FDB4F4"/>
<path d="M1515.32 5903.69V5750.57H1316.82V5903.69H1515.32Z" fill="#FDC1FD"/>
</g>
<mask id="mask1_2758_18199" style="mask-type:luminance" maskUnits="userSpaceOnUse" x="528" y="6025" width="578" height="370">
<path d="M1098 6025H536C531.582 6025 528 6028.58 528 6033V6387C528 6391.42 531.582 6395 536 6395H1098C1102.42 6395 1106 6391.42 1106 6387V6033C1106 6028.58 1102.42 6025 1098 6025Z" fill="white"/>
</mask>
<g mask="url(#mask1_2758_18199)">
<path d="M528 6032C528 6028.13 531.134 6025 535 6025H1099C1102.87 6025 1106 6028.13 1106 6032V6454C1106 6457.87 1102.87 6461 1099 6461H535C531.134 6461 528 6457.87 528 6454V6032Z" fill="#FFF790"/>
<path d="M538.461 6387.03L1081.34 6386.38L1081.54 6037.94L538.66 6038.58L538.461 6387.03Z" fill="#E7F0A0"/>
<path d="M539.594 6359.41L1041.73 6375.73L1053.62 6061.42L551.472 6045.1L539.594 6359.41Z" fill="#CEE9B1"/>
<path d="M542.641 6328.86L1004 6362.07L1027.63 6082.81L566.259 6049.59L542.641 6328.86Z" fill="#B6E2C1"/>
<path d="M543.719 6299.38L964.313 6349.45L999.684 6105.2L579.09 6055.13L543.719 6299.38Z" fill="#9EDBD1"/>
<path d="M544.859 6271.64L924.673 6338.79L971.777 6128.8L591.975 6061.64L544.859 6271.64Z" fill="#85D4E2"/>
<path d="M606.425 6065.82L943.836 6149.54L885.255 6323.76L547.844 6240.04L606.425 6065.82Z" fill="#6DCDF2"/>
<mask id="mask2_2758_18199" style="mask-type:luminance" maskUnits="userSpaceOnUse" x="529" y="6025" width="576" height="370">
<path d="M1105 6025H529V6395H1105V6025Z" fill="white"/>
</mask>
<g mask="url(#mask2_2758_18199)">
<path d="M1098 6025H536C532.134 6025 529 6028.13 529 6032V6388C529 6391.87 532.134 6395 536 6395H1098C1101.87 6395 1105 6391.87 1105 6388V6032C1105 6028.13 1101.87 6025 1098 6025Z" fill="#FFF790"/>
<path d="M1083 6025H549V6405H1083V6025Z" fill="#E7F0A0"/>
<path d="M1069 6045H563V6405H1069V6045Z" fill="#CEE9B1"/>
<path d="M1055 6078H577V6422H1055V6078Z" fill="#B6E2C1"/>
<path d="M1036 6109H595V6433H1036V6109Z" fill="#9EDBD1"/>
<path d="M1022 6145H610V6439H1022V6145Z" fill="#85D4E2"/>
<path d="M1004 6172H628V6440H1004V6172Z" fill="#6DCDF2"/>
<path d="M987 6208H645V6452H987V6208Z" fill="#42C9FD"/>
</g>
</g>
<mask id="mask3_2758_18199" style="mask-type:luminance" maskUnits="userSpaceOnUse" x="528" y="8222" width="578" height="370">
<path d="M1098 8222H536C531.582 8222 528 8225.58 528 8230V8584C528 8588.42 531.582 8592 536 8592H1098C1102.42 8592 1106 8588.42 1106 8584V8230C1106 8225.58 1102.42 8222 1098 8222Z" fill="white"/>
</mask>
<g mask="url(#mask3_2758_18199)">
<path d="M528 8229C528 8225.13 531.134 8222 535 8222H1099C1102.87 8222 1106 8225.13 1106 8229V8651C1106 8654.87 1102.87 8658 1099 8658H535C531.134 8658 528 8654.87 528 8651V8229Z" fill="#FFF790"/>
<path d="M538.461 8584.03L1081.34 8583.38L1081.54 8234.94L538.66 8235.58L538.461 8584.03Z" fill="#E7F0A0"/>
<path d="M539.594 8556.41L1041.73 8572.73L1053.62 8258.42L551.472 8242.1L539.594 8556.41Z" fill="#CEE9B1"/>
<path d="M542.641 8525.86L1004 8559.07L1027.63 8279.81L566.259 8246.59L542.641 8525.86Z" fill="#B6E2C1"/>
<path d="M543.719 8496.38L964.313 8546.45L999.684 8302.2L579.09 8252.13L543.719 8496.38Z" fill="#9EDBD1"/>
<path d="M544.859 8468.64L924.673 8535.79L971.777 8325.8L591.975 8258.64L544.859 8468.64Z" fill="#85D4E2"/>
<path d="M606.425 8262.82L943.836 8346.54L885.255 8520.76L547.844 8437.04L606.425 8262.82Z" fill="#6DCDF2"/>
<mask id="mask4_2758_18199" style="mask-type:luminance" maskUnits="userSpaceOnUse" x="529" y="8222" width="576" height="370">
<path d="M1105 8222H529V8592H1105V8222Z" fill="white"/>
</mask>
<g mask="url(#mask4_2758_18199)">
<path d="M1098 8222H536C532.134 8222 529 8225.13 529 8229V8585C529 8588.87 532.134 8592 536 8592H1098C1101.87 8592 1105 8588.87 1105 8585V8229C1105 8225.13 1101.87 8222 1098 8222Z" fill="#FFF790"/>
<path d="M1083 8222H549V8602H1083V8222Z" fill="#E7F0A0"/>
<path d="M1069 8242H563V8602H1069V8242Z" fill="#CEE9B1"/>
<path d="M1055 8275H577V8619H1055V8275Z" fill="#B6E2C1"/>
<path d="M1036 8306H595V8630H1036V8306Z" fill="#9EDBD1"/>
<path d="M1022 8342H610V8636H1022V8342Z" fill="#85D4E2"/>
<path d="M1004 8369H628V8637H1004V8369Z" fill="#6DCDF2"/>
<path d="M987 8405H645V8649H987V8405Z" fill="#42C9FD"/>
</g>
</g>
<path d="M178 5011C178 5014.31 180.686 5017 184 5017H680C683.314 5017 686 5014.31 686 5011V4639C686 4635.69 683.314 4633 680 4633H184C180.686 4633 178 4635.69 178 4639V5011Z" fill="#FF63BB"/>
<path opacity="0.6" d="M182.504 4637.02L661.905 4644.64L657.392 4998.91L178 4991.3L182.504 4637.02Z" fill="#F979C5"/>
<path opacity="0.6" d="M191.012 4639.03L639.819 4654.23L630.823 4978.8L182.016 4963.59L191.012 4639.03Z" fill="#F28ECE"/>
<path opacity="0.6" d="M195.531 4641.04L615.724 4663.95L602.199 4960.7L182.016 4937.8L195.531 4641.04Z" fill="#ECA4D8"/>
<path opacity="0.6" d="M204.009 4643.05L593.636 4673.55L575.658 4940.6L186.031 4910.11L204.009 4643.05Z" fill="#E6B9E2"/>
<path opacity="0.6" d="M208.547 4647.07L569.541 4685.13L547.015 4922.51L186.031 4884.45L208.547 4647.07Z" fill="#E0CFEC"/>
<path opacity="0.6" d="M216.988 4649.09L547.454 4694.66L520.514 4902.4L190.047 4856.82L216.988 4649.09Z" fill="#D9E4F5"/>
<path opacity="0.6" d="M492.014 4883.57L523.355 4705.37L220.825 4651.89L189.484 4830.09L492.014 4883.57Z" fill="#D3FAFF"/>
<mask id="mask5_2758_18199" style="mask-type:luminance" maskUnits="userSpaceOnUse" x="916" y="5009" width="560" height="440">
<path d="M1476 5009H916V5449H1476V5009Z" fill="white"/>
</mask>
<g mask="url(#mask5_2758_18199)">
<path d="M1476 5017C1476 5012.58 1472.42 5009 1468 5009H924C919.582 5009 916 5012.58 916 5017V5441C916 5445.42 919.582 5449 924 5449H1468C1472.42 5449 1476 5445.42 1476 5441V5017Z" fill="#FFF790"/>
<path d="M1474.01 5417.02L954.114 5435L943.898 5034.99L1463.79 5017L1474.01 5417.02Z" fill="#DBF294"/>
<path d="M1470.03 5381.16L990.216 5417L969.812 5058.82L1449.63 5023L1470.03 5381.16Z" fill="#B8ED98"/>
<path d="M1468.02 5348.94L1028.29 5403L997.703 5083.07L1437.45 5029L1468.02 5348.94Z" fill="#95E89C"/>
<path d="M1468.03 5313.26L1066.53 5385L1025.61 5106.75L1427.11 5035L1468.03 5313.26Z" fill="#71E2A0"/>
<path d="M1466.04 5281.25L1104.62 5371L1053.52 5132.75L1414.93 5043L1466.04 5281.25Z" fill="#4EDDA4"/>
<path d="M1400.72 5051.17L1079.42 5159L1141.4 5359.57L1462.71 5251.75L1400.72 5051.17Z" fill="#2AD8A8"/>
</g>
<mask id="mask6_2758_18199" style="mask-type:luminance" maskUnits="userSpaceOnUse" x="-191" y="5485" width="490" height="372">
<path d="M299 5485H-191V5857H299V5485Z" fill="white"/>
</mask>
<g mask="url(#mask6_2758_18199)">
<path d="M290 5485H-182C-186.971 5485 -191 5489.03 -191 5494V5848C-191 5852.97 -186.971 5857 -182 5857H290C294.971 5857 299 5852.97 299 5848V5494C299 5489.03 294.971 5485 290 5485Z" fill="#FDC1FC"/>
<path d="M-150.004 5515.07L-155.93 5872.02L320.005 5879.92L325.93 5522.97L-150.004 5515.07Z" fill="#FEC7E8"/>
<path d="M-101.396 5548.11L-120.5 5873.22L312.975 5898.69L332.079 5573.58L-101.396 5548.11Z" fill="#FDCCD5"/>
<path d="M-51.1445 5575.77L-74.125 5871.79L320.573 5902.43L343.554 5606.41L-51.1445 5575.77Z" fill="#FCD2C0"/>
<path d="M-10.4645 5607.3L-32.0391 5872.09L321.019 5900.86L342.594 5636.07L-10.4645 5607.3Z" fill="#FCD7AB"/>
<path d="M27.9299 5638.01L7.70312 5873.32L321.447 5900.29L341.674 5664.98L27.9299 5638.01Z" fill="#FBDD98"/>
<path d="M64.4917 5681L42 5881.61L309.484 5911.6L331.976 5710.99L64.4917 5681Z" fill="#FCE284"/>
<path d="M103.109 5719.03L83.2188 5896.45L319.769 5922.97L339.659 5745.55L103.109 5719.03Z" fill="#FAE86F"/>
</g>
<mask id="mask7_2758_18199" style="mask-type:luminance" maskUnits="userSpaceOnUse" x="1178" y="7862" width="300" height="322">
<path d="M1478 7862H1178V8184H1478V7862Z" fill="white"/>
</mask>
<g mask="url(#mask7_2758_18199)">
<path d="M1501.32 8184C1504.63 8184 1507.32 8181.31 1507.32 8178V7868C1507.32 7864.69 1504.63 7862 1501.32 7862H1184C1180.69 7862 1178 7864.69 1178 7868V8178C1178 8181.31 1180.69 8184 1184 8184H1501.32Z" fill="#FF63BB"/>
<path d="M1507.32 8170.49V7873.26H1196.04V8170.49H1507.32Z" fill="#FF70C4"/>
<path d="M1507.32 8159.23V7886.77H1214.09V8159.23H1507.32Z" fill="#FE7ECE"/>
<path d="M1507.32 8147.98V7898.03H1234.39V8147.98H1507.32Z" fill="#FE8BD7"/>
<path d="M1507.32 8136.71V7911.54H1252.43V8136.71H1507.32Z" fill="#FE99E1"/>
<path d="M1507.32 8123.2V7922.8H1270.48V8123.2H1507.32Z" fill="#FEA6EA"/>
<path d="M1507.32 8109.69V7934.05H1288.52V8109.69H1507.32Z" fill="#FDB4F4"/>
<path d="M1507.32 8100.69V7947.57H1308.82V8100.69H1507.32Z" fill="#FDC1FD"/>
</g>
<mask id="mask8_2758_18199" style="mask-type:luminance" maskUnits="userSpaceOnUse" x="179" y="6830" width="508" height="384">
<path d="M687 6830H179V7214H687V6830Z" fill="white"/>
</mask>
<g mask="url(#mask8_2758_18199)">
<path d="M179 7208C179 7211.31 181.686 7214 185 7214H681C684.314 7214 687 7211.31 687 7208V6836C687 6832.69 684.314 6830 681 6830H185C181.686 6830 179 6832.69 179 6836V7208Z" fill="#FF63BB"/>
<path opacity="0.6" d="M183.504 6834.02L662.905 6841.64L658.392 7195.91L179 7188.3L183.504 6834.02Z" fill="#F979C5"/>
<path opacity="0.6" d="M192.012 6836.04L640.819 6851.23L631.823 7175.8L183.016 7160.6L192.012 6836.04Z" fill="#F28ECE"/>
<path opacity="0.6" d="M196.531 6838.04L616.724 6860.95L603.199 7157.7L183.016 7134.8L196.531 6838.04Z" fill="#ECA4D8"/>
<path opacity="0.6" d="M205.009 6840.05L594.636 6870.54L576.658 7137.6L187.031 7107.11L205.009 6840.05Z" fill="#E6B9E2"/>
<path opacity="0.6" d="M209.547 6844.07L570.541 6882.13L548.015 7119.51L187.031 7081.45L209.547 6844.07Z" fill="#E0CFEC"/>
<path opacity="0.6" d="M217.988 6846.09L548.454 6891.66L521.514 7099.41L191.047 7053.82L217.988 6846.09Z" fill="#D9E4F5"/>
<path opacity="0.6" d="M493.014 7080.58L524.355 6902.38L221.825 6848.89L190.484 7027.09L493.014 7080.58Z" fill="#D3FAFF"/>
</g>
<mask id="mask9_2758_18199" style="mask-type:luminance" maskUnits="userSpaceOnUse" x="917" y="7206" width="560" height="440">
<path d="M1477 7206H917V7646H1477V7206Z" fill="white"/>
</mask>
<g mask="url(#mask9_2758_18199)">
<path d="M1477 7212C1477 7208.69 1474.31 7206 1471 7206H923C919.686 7206 917 7208.69 917 7212V7640C917 7643.31 919.686 7646 923 7646H1471C1474.31 7646 1477 7643.31 1477 7640V7212Z" fill="#FFF790"/>
<path d="M1475.01 7614.02L955.114 7632L944.898 7231.99L1464.79 7214L1475.01 7614.02Z" fill="#DBF294"/>
<path d="M1471.03 7578.17L991.216 7614L970.812 7255.82L1450.63 7220L1471.03 7578.17Z" fill="#B8ED98"/>
<path d="M1469.02 7545.94L1029.29 7600L998.703 7280.07L1438.45 7226L1469.02 7545.94Z" fill="#95E89C"/>
<path d="M1469.03 7510.26L1067.53 7582L1026.61 7303.75L1428.11 7232L1469.03 7510.26Z" fill="#71E2A0"/>
<path d="M1467.04 7478.25L1105.62 7568L1054.52 7329.75L1415.93 7240L1467.04 7478.25Z" fill="#4EDDA4"/>
<path d="M1401.72 7248.18L1080.42 7356L1142.4 7556.58L1463.71 7448.75L1401.72 7248.18Z" fill="#2AD8A8"/>
</g>
<path d="M319 6548.68C319 6545.92 316.761 6543.68 314 6543.68H-26C-28.7614 6543.68 -31 6545.92 -31 6548.68V6815C-31 6817.76 -28.7614 6820 -26 6820H314C316.761 6820 319 6817.76 319 6815V6548.68Z" fill="#FF682E"/>
<path d="M295.351 6543.68H-31V6794.02H295.351V6543.68Z" fill="#FF7646"/>
<path d="M271.703 6543.68H-31V6770.4H271.703V6543.68Z" fill="#FF845D"/>
<path d="M250.419 6543.68H-31V6746.79H250.419V6543.68Z" fill="#FF9275"/>
<path d="M224.405 6543.68H-31V6720.81H224.405V6543.68Z" fill="#FF9F8C"/>
<path d="M203.122 6543.68H-31V6697.19H203.122V6543.68Z" fill="#FFADA3"/>
<path d="M179.473 6543.68H-31V6675.94H179.473V6543.68Z" fill="#FFBBBB"/>
<mask id="mask10_2758_18199" style="mask-type:luminance" maskUnits="userSpaceOnUse" x="-190" y="7683" width="490" height="372">
<path d="M292 7683H-182C-186.418 7683 -190 7686.58 -190 7691V8047C-190 8051.42 -186.418 8055 -182 8055H292C296.418 8055 300 8051.42 300 8047V7691C300 7686.58 296.418 7683 292 7683Z" fill="white"/>
</mask>
<g mask="url(#mask10_2758_18199)">
<path d="M291 7683H-181C-185.971 7683 -190 7687.03 -190 7692V8046C-190 8050.97 -185.971 8055 -181 8055H291C295.971 8055 300 8050.97 300 8046V7692C300 7687.03 295.971 7683 291 7683Z" fill="#FDC1FC"/>
<path d="M-149.004 7713.07L-154.93 8070.02L321.005 8077.92L326.93 7720.97L-149.004 7713.07Z" fill="#FEC7E8"/>
<path d="M-100.396 7746.1L-119.5 8071.21L313.975 8096.68L333.079 7771.58L-100.396 7746.1Z" fill="#FDCCD5"/>
<path d="M-50.1445 7773.77L-73.125 8069.79L321.573 8100.43L344.554 7804.41L-50.1445 7773.77Z" fill="#FCD2C0"/>
<path d="M-9.46447 7805.31L-31.0391 8070.1L322.019 8098.87L343.594 7834.07L-9.46447 7805.31Z" fill="#FCD7AB"/>
<path d="M28.9299 7836.02L8.70312 8071.33L322.447 8098.3L342.674 7862.99L28.9299 7836.02Z" fill="#FBDD98"/>
<path d="M65.4917 7878.99L43 8079.6L310.484 8109.59L332.976 7908.98L65.4917 7878.99Z" fill="#FCE284"/>
<path d="M104.109 7917.03L84.2188 8094.45L320.769 8120.97L340.659 7943.55L104.109 7917.03Z" fill="#FAE86F"/>
</g>
</g>
<g clip-path="url(#clip1_2758_18199)">
<mask id="mask11_2758_18199" style="mask-type:luminance" maskUnits="userSpaceOnUse" x="1186" y="1355" width="300" height="322">
<path d="M1486 1355H1186V1677H1486V1355Z" fill="white"/>
</mask>
<g mask="url(#mask11_2758_18199)">
<path d="M1509.32 1677C1512.63 1677 1515.32 1674.31 1515.32 1671V1361C1515.32 1357.69 1512.63 1355 1509.32 1355H1192C1188.69 1355 1186 1357.69 1186 1361V1671C1186 1674.31 1188.69 1677 1192 1677H1509.32Z" fill="#FF63BB"/>
<path d="M1515.32 1663.49V1366.26H1204.04V1663.49H1515.32Z" fill="#FF70C4"/>
<path d="M1515.32 1652.23V1379.77H1222.09V1652.23H1515.32Z" fill="#FE7ECE"/>
<path d="M1515.32 1640.98V1391.03H1242.39V1640.98H1515.32Z" fill="#FE8BD7"/>
<path d="M1515.32 1629.71V1404.54H1260.43V1629.71H1515.32Z" fill="#FE99E1"/>
<path d="M1515.32 1616.2V1415.8H1278.48V1616.2H1515.32Z" fill="#FEA6EA"/>
<path d="M1515.32 1602.69V1427.05H1296.52V1602.69H1515.32Z" fill="#FDB4F4"/>
<path d="M1515.32 1593.69V1440.57H1316.82V1593.69H1515.32Z" fill="#FDC1FD"/>
</g>
<mask id="mask12_2758_18199" style="mask-type:luminance" maskUnits="userSpaceOnUse" x="528" y="1715" width="578" height="370">
<path d="M1098 1715H536C531.582 1715 528 1718.58 528 1723V2077C528 2081.42 531.582 2085 536 2085H1098C1102.42 2085 1106 2081.42 1106 2077V1723C1106 1718.58 1102.42 1715 1098 1715Z" fill="white"/>
</mask>
<g mask="url(#mask12_2758_18199)">
<path d="M528 1722C528 1718.13 531.134 1715 535 1715H1099C1102.87 1715 1106 1718.13 1106 1722V2144C1106 2147.87 1102.87 2151 1099 2151H535C531.134 2151 528 2147.87 528 2144V1722Z" fill="#FFF790"/>
<path d="M538.461 2077.03L1081.34 2076.38L1081.54 1727.94L538.66 1728.58L538.461 2077.03Z" fill="#E7F0A0"/>
<path d="M539.594 2049.41L1041.73 2065.73L1053.62 1751.42L551.472 1735.1L539.594 2049.41Z" fill="#CEE9B1"/>
<path d="M542.641 2018.86L1004 2052.07L1027.63 1772.81L566.259 1739.59L542.641 2018.86Z" fill="#B6E2C1"/>
<path d="M543.719 1989.38L964.313 2039.45L999.684 1795.2L579.09 1745.13L543.719 1989.38Z" fill="#9EDBD1"/>
<path d="M544.859 1961.64L924.673 2028.79L971.777 1818.8L591.975 1751.64L544.859 1961.64Z" fill="#85D4E2"/>
<path d="M606.425 1755.82L943.836 1839.54L885.255 2013.76L547.844 1930.04L606.425 1755.82Z" fill="#6DCDF2"/>
<mask id="mask13_2758_18199" style="mask-type:luminance" maskUnits="userSpaceOnUse" x="529" y="1715" width="576" height="370">
<path d="M1105 1715H529V2085H1105V1715Z" fill="white"/>
</mask>
<g mask="url(#mask13_2758_18199)">
<path d="M1098 1715H536C532.134 1715 529 1718.13 529 1722V2078C529 2081.87 532.134 2085 536 2085H1098C1101.87 2085 1105 2081.87 1105 2078V1722C1105 1718.13 1101.87 1715 1098 1715Z" fill="#FFF790"/>
<path d="M1083 1715H549V2095H1083V1715Z" fill="#E7F0A0"/>
<path d="M1069 1735H563V2095H1069V1735Z" fill="#CEE9B1"/>
<path d="M1055 1768H577V2112H1055V1768Z" fill="#B6E2C1"/>
<path d="M1036 1799H595V2123H1036V1799Z" fill="#9EDBD1"/>
<path d="M1022 1835H610V2129H1022V1835Z" fill="#85D4E2"/>
<path d="M1004 1862H628V2130H1004V1862Z" fill="#6DCDF2"/>
<path d="M987 1898H645V2142H987V1898Z" fill="#42C9FD"/>
</g>
</g>
<mask id="mask14_2758_18199" style="mask-type:luminance" maskUnits="userSpaceOnUse" x="528" y="3912" width="578" height="370">
<path d="M1098 3912H536C531.582 3912 528 3915.58 528 3920V4274C528 4278.42 531.582 4282 536 4282H1098C1102.42 4282 1106 4278.42 1106 4274V3920C1106 3915.58 1102.42 3912 1098 3912Z" fill="white"/>
</mask>
<g mask="url(#mask14_2758_18199)">
<path d="M528 3919C528 3915.13 531.134 3912 535 3912H1099C1102.87 3912 1106 3915.13 1106 3919V4341C1106 4344.87 1102.87 4348 1099 4348H535C531.134 4348 528 4344.87 528 4341V3919Z" fill="#FFF790"/>
<path d="M538.461 4274.03L1081.34 4273.38L1081.54 3924.94L538.66 3925.58L538.461 4274.03Z" fill="#E7F0A0"/>
<path d="M539.594 4246.41L1041.73 4262.73L1053.62 3948.42L551.472 3932.1L539.594 4246.41Z" fill="#CEE9B1"/>
<path d="M542.641 4215.86L1004 4249.07L1027.63 3969.81L566.259 3936.59L542.641 4215.86Z" fill="#B6E2C1"/>
<path d="M543.719 4186.38L964.313 4236.45L999.684 3992.2L579.09 3942.13L543.719 4186.38Z" fill="#9EDBD1"/>
<path d="M544.859 4158.64L924.673 4225.79L971.777 4015.8L591.975 3948.64L544.859 4158.64Z" fill="#85D4E2"/>
<path d="M606.425 3952.82L943.836 4036.54L885.255 4210.76L547.844 4127.04L606.425 3952.82Z" fill="#6DCDF2"/>
<mask id="mask15_2758_18199" style="mask-type:luminance" maskUnits="userSpaceOnUse" x="529" y="3912" width="576" height="370">
<path d="M1105 3912H529V4282H1105V3912Z" fill="white"/>
</mask>
<g mask="url(#mask15_2758_18199)">
<path d="M1098 3912H536C532.134 3912 529 3915.13 529 3919V4275C529 4278.87 532.134 4282 536 4282H1098C1101.87 4282 1105 4278.87 1105 4275V3919C1105 3915.13 1101.87 3912 1098 3912Z" fill="#FFF790"/>
<path d="M1083 3912H549V4292H1083V3912Z" fill="#E7F0A0"/>
<path d="M1069 3932H563V4292H1069V3932Z" fill="#CEE9B1"/>
<path d="M1055 3965H577V4309H1055V3965Z" fill="#B6E2C1"/>
<path d="M1036 3996H595V4320H1036V3996Z" fill="#9EDBD1"/>
<path d="M1022 4032H610V4326H1022V4032Z" fill="#85D4E2"/>
<path d="M1004 4059H628V4327H1004V4059Z" fill="#6DCDF2"/>
<path d="M987 4095H645V4339H987V4095Z" fill="#42C9FD"/>
</g>
</g>
<path d="M178 701C178 704.314 180.686 707 184 707H680C683.314 707 686 704.314 686 701V329C686 325.686 683.314 323 680 323H184C180.686 323 178 325.686 178 329V701Z" fill="#FF63BB"/>
<path opacity="0.6" d="M182.504 327.023L661.905 334.643L657.392 688.908L178 681.299L182.504 327.023Z" fill="#F979C5"/>
<path opacity="0.6" d="M191.012 329.031L639.819 344.228L630.823 668.801L182.016 653.594L191.012 329.031Z" fill="#F28ECE"/>
<path opacity="0.6" d="M195.531 331.039L615.724 353.951L602.199 650.704L182.016 627.803L195.531 331.039Z" fill="#ECA4D8"/>
<path opacity="0.6" d="M204.009 333.055L593.636 363.547L575.658 630.605L186.031 600.113L204.009 333.055Z" fill="#E6B9E2"/>
<path opacity="0.6" d="M208.547 337.07L569.541 375.131L547.015 612.505L186.031 574.445L208.547 337.07Z" fill="#E0CFEC"/>
<path opacity="0.6" d="M216.988 339.086L547.454 384.659L520.514 592.405L190.047 546.822L216.988 339.086Z" fill="#D9E4F5"/>
<path opacity="0.6" d="M492.014 573.572L523.355 395.372L220.825 341.891L189.484 520.091L492.014 573.572Z" fill="#D3FAFF"/>
<mask id="mask16_2758_18199" style="mask-type:luminance" maskUnits="userSpaceOnUse" x="916" y="699" width="560" height="440">
<path d="M1476 699H916V1139H1476V699Z" fill="white"/>
</mask>
<g mask="url(#mask16_2758_18199)">
<path d="M1476 707C1476 702.582 1472.42 699 1468 699H924C919.582 699 916 702.582 916 707V1131C916 1135.42 919.582 1139 924 1139H1468C1472.42 1139 1476 1135.42 1476 1131V707Z" fill="#FFF790"/>
<path d="M1474.01 1107.02L954.114 1125L943.898 724.995L1463.79 707L1474.01 1107.02Z" fill="#DBF294"/>
<path d="M1470.03 1071.16L990.216 1107L969.812 748.823L1449.63 713L1470.03 1071.16Z" fill="#B8ED98"/>
<path d="M1468.02 1038.94L1028.29 1093L997.703 773.072L1437.45 719L1468.02 1038.94Z" fill="#95E89C"/>
<path d="M1468.03 1003.26L1066.53 1075L1025.61 796.753L1427.11 725L1468.03 1003.26Z" fill="#71E2A0"/>
<path d="M1466.04 971.252L1104.62 1061L1053.52 822.748L1414.93 733L1466.04 971.252Z" fill="#4EDDA4"/>
<path d="M1400.72 741.172L1079.42 848.997L1141.4 1049.57L1462.71 941.748L1400.72 741.172Z" fill="#2AD8A8"/>
</g>
<mask id="mask17_2758_18199" style="mask-type:luminance" maskUnits="userSpaceOnUse" x="-191" y="1175" width="490" height="372">
<path d="M299 1175H-191V1547H299V1175Z" fill="white"/>
</mask>
<g mask="url(#mask17_2758_18199)">
<path d="M290 1175H-182C-186.971 1175 -191 1179.03 -191 1184V1538C-191 1542.97 -186.971 1547 -182 1547H290C294.971 1547 299 1542.97 299 1538V1184C299 1179.03 294.971 1175 290 1175Z" fill="#FDC1FC"/>
<path d="M-150.004 1205.07L-155.93 1562.02L320.005 1569.92L325.93 1212.97L-150.004 1205.07Z" fill="#FEC7E8"/>
<path d="M-101.396 1238.11L-120.5 1563.22L312.975 1588.69L332.079 1263.58L-101.396 1238.11Z" fill="#FDCCD5"/>
<path d="M-51.1445 1265.77L-74.125 1561.79L320.573 1592.43L343.554 1296.41L-51.1445 1265.77Z" fill="#FCD2C0"/>
<path d="M-10.4645 1297.3L-32.0391 1562.09L321.019 1590.86L342.594 1326.07L-10.4645 1297.3Z" fill="#FCD7AB"/>
<path d="M27.9299 1328.01L7.70312 1563.32L321.447 1590.29L341.674 1354.98L27.9299 1328.01Z" fill="#FBDD98"/>
<path d="M64.4917 1371L42 1571.61L309.484 1601.6L331.976 1400.99L64.4917 1371Z" fill="#FCE284"/>
<path d="M103.109 1409.03L83.2188 1586.45L319.769 1612.97L339.659 1435.55L103.109 1409.03Z" fill="#FAE86F"/>
</g>
<mask id="mask18_2758_18199" style="mask-type:luminance" maskUnits="userSpaceOnUse" x="1178" y="3552" width="300" height="322">
<path d="M1478 3552H1178V3874H1478V3552Z" fill="white"/>
</mask>
<g mask="url(#mask18_2758_18199)">
<path d="M1501.32 3874C1504.63 3874 1507.32 3871.31 1507.32 3868V3558C1507.32 3554.69 1504.63 3552 1501.32 3552H1184C1180.69 3552 1178 3554.69 1178 3558V3868C1178 3871.31 1180.69 3874 1184 3874H1501.32Z" fill="#FF63BB"/>
<path d="M1507.32 3860.49V3563.26H1196.04V3860.49H1507.32Z" fill="#FF70C4"/>
<path d="M1507.32 3849.23V3576.77H1214.09V3849.23H1507.32Z" fill="#FE7ECE"/>
<path d="M1507.32 3837.98V3588.03H1234.39V3837.98H1507.32Z" fill="#FE8BD7"/>
<path d="M1507.32 3826.71V3601.54H1252.43V3826.71H1507.32Z" fill="#FE99E1"/>
<path d="M1507.32 3813.2V3612.8H1270.48V3813.2H1507.32Z" fill="#FEA6EA"/>
<path d="M1507.32 3799.69V3624.05H1288.52V3799.69H1507.32Z" fill="#FDB4F4"/>
<path d="M1507.32 3790.69V3637.57H1308.82V3790.69H1507.32Z" fill="#FDC1FD"/>
</g>
<mask id="mask19_2758_18199" style="mask-type:luminance" maskUnits="userSpaceOnUse" x="179" y="2520" width="508" height="384">
<path d="M687 2520H179V2904H687V2520Z" fill="white"/>
</mask>
<g mask="url(#mask19_2758_18199)">
<path d="M179 2898C179 2901.31 181.686 2904 185 2904H681C684.314 2904 687 2901.31 687 2898V2526C687 2522.69 684.314 2520 681 2520H185C181.686 2520 179 2522.69 179 2526V2898Z" fill="#FF63BB"/>
<path opacity="0.6" d="M183.504 2524.02L662.905 2531.64L658.392 2885.91L179 2878.3L183.504 2524.02Z" fill="#F979C5"/>
<path opacity="0.6" d="M192.012 2526.04L640.819 2541.23L631.823 2865.8L183.016 2850.6L192.012 2526.04Z" fill="#F28ECE"/>
<path opacity="0.6" d="M196.531 2528.04L616.724 2550.95L603.199 2847.7L183.016 2824.8L196.531 2528.04Z" fill="#ECA4D8"/>
<path opacity="0.6" d="M205.009 2530.05L594.636 2560.54L576.658 2827.6L187.031 2797.11L205.009 2530.05Z" fill="#E6B9E2"/>
<path opacity="0.6" d="M209.547 2534.07L570.541 2572.13L548.015 2809.51L187.031 2771.45L209.547 2534.07Z" fill="#E0CFEC"/>
<path opacity="0.6" d="M217.988 2536.09L548.454 2581.66L521.514 2789.41L191.047 2743.82L217.988 2536.09Z" fill="#D9E4F5"/>
<path opacity="0.6" d="M493.014 2770.58L524.355 2592.38L221.825 2538.89L190.484 2717.09L493.014 2770.58Z" fill="#D3FAFF"/>
</g>
<mask id="mask20_2758_18199" style="mask-type:luminance" maskUnits="userSpaceOnUse" x="917" y="2896" width="560" height="440">
<path d="M1477 2896H917V3336H1477V2896Z" fill="white"/>
</mask>
<g mask="url(#mask20_2758_18199)">
<path d="M1477 2902C1477 2898.69 1474.31 2896 1471 2896H923C919.686 2896 917 2898.69 917 2902V3330C917 3333.31 919.686 3336 923 3336H1471C1474.31 3336 1477 3333.31 1477 3330V2902Z" fill="#FFF790"/>
<path d="M1475.01 3304.02L955.114 3322L944.898 2921.99L1464.79 2904L1475.01 3304.02Z" fill="#DBF294"/>
<path d="M1471.03 3268.17L991.216 3304L970.812 2945.82L1450.63 2910L1471.03 3268.17Z" fill="#B8ED98"/>
<path d="M1469.02 3235.94L1029.29 3290L998.703 2970.07L1438.45 2916L1469.02 3235.94Z" fill="#95E89C"/>
<path d="M1469.03 3200.26L1067.53 3272L1026.61 2993.75L1428.11 2922L1469.03 3200.26Z" fill="#71E2A0"/>
<path d="M1467.04 3168.25L1105.62 3258L1054.52 3019.75L1415.93 2930L1467.04 3168.25Z" fill="#4EDDA4"/>
<path d="M1401.72 2938.18L1080.42 3046L1142.4 3246.58L1463.71 3138.75L1401.72 2938.18Z" fill="#2AD8A8"/>
</g>
<path d="M319 2238.68C319 2235.92 316.761 2233.68 314 2233.68H-26C-28.7614 2233.68 -31 2235.92 -31 2238.68V2505C-31 2507.76 -28.7614 2510 -26 2510H314C316.761 2510 319 2507.76 319 2505V2238.68Z" fill="#FF682E"/>
<path d="M295.351 2233.68H-31V2484.02H295.351V2233.68Z" fill="#FF7646"/>
<path d="M271.703 2233.68H-31V2460.4H271.703V2233.68Z" fill="#FF845D"/>
<path d="M250.419 2233.68H-31V2436.79H250.419V2233.68Z" fill="#FF9275"/>
<path d="M224.405 2233.68H-31V2410.81H224.405V2233.68Z" fill="#FF9F8C"/>
<path d="M203.122 2233.68H-31V2387.19H203.122V2233.68Z" fill="#FFADA3"/>
<path d="M179.473 2233.68H-31V2365.94H179.473V2233.68Z" fill="#FFBBBB"/>
<mask id="mask21_2758_18199" style="mask-type:luminance" maskUnits="userSpaceOnUse" x="-190" y="3373" width="490" height="372">
<path d="M292 3373H-182C-186.418 3373 -190 3376.58 -190 3381V3737C-190 3741.42 -186.418 3745 -182 3745H292C296.418 3745 300 3741.42 300 3737V3381C300 3376.58 296.418 3373 292 3373Z" fill="white"/>
</mask>
<g mask="url(#mask21_2758_18199)">
<path d="M291 3373H-181C-185.971 3373 -190 3377.03 -190 3382V3736C-190 3740.97 -185.971 3745 -181 3745H291C295.971 3745 300 3740.97 300 3736V3382C300 3377.03 295.971 3373 291 3373Z" fill="#FDC1FC"/>
<path d="M-149.004 3403.07L-154.93 3760.02L321.005 3767.92L326.93 3410.97L-149.004 3403.07Z" fill="#FEC7E8"/>
<path d="M-100.396 3436.1L-119.5 3761.21L313.975 3786.68L333.079 3461.58L-100.396 3436.1Z" fill="#FDCCD5"/>
<path d="M-50.1445 3463.77L-73.125 3759.79L321.573 3790.43L344.554 3494.41L-50.1445 3463.77Z" fill="#FCD2C0"/>
<path d="M-9.46447 3495.31L-31.0391 3760.1L322.019 3788.87L343.594 3524.07L-9.46447 3495.31Z" fill="#FCD7AB"/>
<path d="M28.9299 3526.02L8.70312 3761.33L322.447 3788.3L342.674 3552.99L28.9299 3526.02Z" fill="#FBDD98"/>
<path d="M65.4917 3568.99L43 3769.6L310.484 3799.59L332.976 3598.98L65.4917 3568.99Z" fill="#FCE284"/>
<path d="M104.109 3607.03L84.2188 3784.45L320.769 3810.97L340.659 3633.55L104.109 3607.03Z" fill="#FAE86F"/>
</g>
</g>
<defs>
<clipPath id="clip0_2758_18199">
<rect width="1452" height="4365" fill="white" transform="translate(0 4310)"/>
</clipPath>
<clipPath id="clip1_2758_18199">
<rect width="1452" height="4365" fill="white"/>
</clipPath>
</defs>
</svg>
