<svg width="1080" height="3230" viewBox="0 0 1080 3230" fill="none" xmlns="http://www.w3.org/2000/svg">
<g clip-path="url(#clip0_1325_5724)">
<g clip-path="url(#clip1_1325_5724)">
<path d="M1014 1572H784.5V1398H1014V1572Z" fill="#FFF67F"/>
<path opacity="0.5" d="M1000.5 1570.5H786V1411.5H1000.5V1570.5Z" fill="#E1F391"/>
<path opacity="0.5" d="M987 1569H787.5V1425H987V1569Z" fill="#C4F0A2"/>
<path opacity="0.5" d="M972 1567.5H787.5V1440H972V1567.5Z" fill="#A6EDB3"/>
<path opacity="0.5" d="M958.5 1566H789V1453.5H958.5V1566Z" fill="#88EAC5"/>
<path opacity="0.5" d="M943.5 1564.5H790.5V1467H943.5V1564.5Z" fill="#6BE7D6"/>
<path opacity="0.5" d="M930 1563H792V1480.5H930V1563Z" fill="#4DE4E8"/>
</g>
<g clip-path="url(#clip2_1325_5724)">
<path d="M1097.15 1110L1097.15 894L876.502 894L876.502 1110L1097.15 1110Z" fill="#FF63BB"/>
<path d="M1097.15 1100.94L1097.15 901.553L888.592 901.553L888.592 1100.94L1097.15 1100.94Z" fill="#FF70C4"/>
<path d="M1097.15 1093.39L1097.15 910.617L900.682 910.617L900.682 1093.39L1097.15 1093.39Z" fill="#FE7ECE"/>
<path d="M1097.15 1085.83L1097.15 918.17L914.284 918.17L914.284 1085.83L1097.15 1085.83Z" fill="#FE8BD7"/>
<path d="M1097.15 1078.28L1097.15 927.229L926.374 927.229L926.374 1078.28L1097.15 1078.28Z" fill="#FE99E1"/>
<path d="M1097.15 1069.21L1097.15 934.781L938.464 934.781L938.464 1069.21L1097.15 1069.21Z" fill="#FEA6EA"/>
<path d="M1097.15 1060.15L1097.15 942.334L950.554 942.334L950.554 1060.15L1097.15 1060.15Z" fill="#FDB4F4"/>
<path d="M1097.15 1054.11L1097.15 951.398L964.156 951.398L964.156 1054.11L1097.15 1054.11Z" fill="#FDC1FD"/>
</g>
<g clip-path="url(#clip3_1325_5724)">
<path d="M351 1164H784.5V1491H351V1164Z" fill="#FFF790"/>
<path d="M352.5 1465.64L755.58 1479L763.5 1181.87L360.42 1168.5L352.5 1465.64Z" fill="#E7F0A0"/>
<path d="M354 1441.76L726.653 1468.5L742.5 1201.23L369.839 1174.5L354 1441.76Z" fill="#CEE9B1"/>
<path d="M357 1416.39L697.797 1456.5L721.5 1219.12L380.695 1179L357 1416.39Z" fill="#B6E2C1"/>
<path d="M358.5 1391L668.87 1444.5L700.5 1237.01L390.13 1183.5L358.5 1391Z" fill="#9EDBD1"/>
<path d="M360 1367.1L639.924 1434L679.5 1256.4L399.585 1189.5L360 1367.1Z" fill="#85D4E2"/>
<path d="M410.075 1193.46L658.5 1273.5L611.162 1420.57L362.737 1340.53L410.075 1193.46Z" fill="#6DCDF2"/>
</g>
<g clip-path="url(#clip4_1325_5724)">
<path d="M133.5 400.5L514.5 400.5L514.5 112.5L133.5 112.5L133.5 400.5Z" fill="#FF63BB"/>
<path opacity="0.6" d="M136.879 115.516L496.43 121.231L493.044 386.93L133.501 381.223L136.879 115.516Z" fill="#F979C5"/>
<path opacity="0.6" d="M143.254 117.026L479.859 128.424L473.113 371.854L136.508 360.448L143.254 117.026Z" fill="#F28ECE"/>
<path opacity="0.6" d="M146.645 118.529L461.789 135.712L451.645 358.277L136.508 341.101L146.645 118.529Z" fill="#ECA4D8"/>
<path opacity="0.6" d="M153.006 120.039L445.227 142.908L431.743 343.201L139.523 320.332L153.006 120.039Z" fill="#E6B9E2"/>
<path opacity="0.6" d="M156.411 123.055L427.156 151.6L410.262 329.631L139.524 301.086L156.411 123.055Z" fill="#E0CFEC"/>
<path opacity="0.6" d="M162.736 124.565L410.586 158.745L390.381 314.555L142.531 280.368L162.736 124.565Z" fill="#D9E4F5"/>
<path opacity="0.6" d="M369.01 300.432L392.516 166.781L165.618 126.67L142.112 260.321L369.01 300.432Z" fill="#D3FAFF"/>
</g>
<g clip-path="url(#clip5_1325_5724)">
<path d="M439.5 676.5H640.5V828H439.5V676.5Z" fill="#FFF67F"/>
<path opacity="0.5" d="M451.586 678H638.984V816H451.586V678Z" fill="#E1F391"/>
<path opacity="0.5" d="M465.187 679.5H638.984V804H465.187V679.5Z" fill="#C4F0A2"/>
<path opacity="0.5" d="M475.77 681H637.477V792H475.77V681Z" fill="#A6EDB3"/>
<path opacity="0.5" d="M487.863 682.5H635.969V781.5H487.863V682.5Z" fill="#88EAC5"/>
<path opacity="0.5" d="M499.949 682.5H634.453V768H499.949V682.5Z" fill="#6BE7D6"/>
<path opacity="0.5" d="M513.551 684H634.453V756H513.551V684Z" fill="#4DE4E8"/>
</g>
<g clip-path="url(#clip6_1325_5724)">
<path d="M117 1365H318V1516.5H117V1365Z" fill="#FFF67F"/>
<path opacity="0.5" d="M129.086 1366.5H316.484V1504.5H129.086V1366.5Z" fill="#E1F391"/>
<path opacity="0.5" d="M142.687 1368H316.484V1492.5H142.687V1368Z" fill="#C4F0A2"/>
<path opacity="0.5" d="M153.27 1369.5H314.977V1480.5H153.27V1369.5Z" fill="#A6EDB3"/>
<path opacity="0.5" d="M165.363 1371H313.469V1470H165.363V1371Z" fill="#88EAC5"/>
<path opacity="0.5" d="M177.449 1371H311.953V1456.5H177.449V1371Z" fill="#6BE7D6"/>
<path opacity="0.5" d="M191.051 1372.5H311.953V1444.5H191.051V1372.5Z" fill="#4DE4E8"/>
</g>
<g clip-path="url(#clip7_1325_5724)">
<path d="M1107 402H687V732H1107V402Z" fill="#FFF790"/>
<path d="M1105.5 708.013L715.583 721.5L707.922 421.496L1097.84 408L1105.5 708.013Z" fill="#DBF294"/>
<path d="M1102.52 681.124L742.662 708L727.359 439.368L1087.22 412.5L1102.52 681.124Z" fill="#B8ED98"/>
<path d="M1101.02 656.955L771.22 697.5L748.281 457.554L1078.09 417L1101.02 656.955Z" fill="#95E89C"/>
<path d="M1101.02 630.194L799.891 684L769.203 475.315L1070.33 421.5L1101.02 630.194Z" fill="#71E2A0"/>
<path d="M1099.53 606.189L828.457 673.5L790.133 494.811L1061.2 427.5L1099.53 606.189Z" fill="#4EDDA4"/>
<path d="M1050.54 433.631L809.562 514.5L856.049 664.932L1097.03 584.064L1050.54 433.631Z" fill="#2AD8A8"/>
</g>
<g clip-path="url(#clip8_1325_5724)">
<path d="M945 -65.6367H702V273.003H945V-65.6367Z" fill="#FF682E"/>
<path d="M928.5 -65.6367H702V243.167H928.5V-65.6367Z" fill="#FF7646"/>
<path d="M912 -65.6367H702V211.839H912V-65.6367Z" fill="#FF845D"/>
<path d="M897 -65.6367H702V183.494H897V-65.6367Z" fill="#FF9275"/>
<path d="M880.5 -65.6367H702V152.167H880.5V-65.6367Z" fill="#FF9F8C"/>
<path d="M864 -65.6367H702V122.33H864V-65.6367Z" fill="#FFADA3"/>
<path d="M847.5 -65.6367H702V96.9698H847.5V-65.6367Z" fill="#FFBBBB"/>
</g>
<g clip-path="url(#clip9_1325_5724)">
<path d="M561 793.5H339V969H561V793.5Z" fill="#FF682E"/>
<path d="M546 793.5H339V952.5H546V793.5Z" fill="#FF7646"/>
<path d="M531 793.5H339V937.5H531V793.5Z" fill="#FF845D"/>
<path d="M517.5 793.5H339V922.5H517.5V793.5Z" fill="#FF9275"/>
<path d="M501 793.5H339V906H501V793.5Z" fill="#FF9F8C"/>
<path d="M487.5 793.5H339V891H487.5V793.5Z" fill="#FFADA3"/>
<path d="M472.5 793.5H339V877.5H472.5V793.5Z" fill="#FFBBBB"/>
</g>
<g clip-path="url(#clip10_1325_5724)">
<path d="M-162.012 752.871H222V1047H-162.012V752.871Z" fill="#FF60B9"/>
<path d="M-163.521 1029.27L198.347 1043.94L206.938 772.142L-154.931 757.471L-163.521 1029.27Z" fill="#FB8EC9"/>
<path d="M-162.009 1009.91L176.243 1039.34L193.391 788.43L-144.861 759L-162.009 1009.91Z" fill="#F69DD1"/>
<path d="M-162.012 990.71L152.659 1034.75L178.328 806.1L-136.343 762.064L-162.012 990.71Z" fill="#F2ADD8"/>
<path d="M-162.013 970.054L130.466 1028.62L164.773 822.155L-127.706 763.594L-162.013 970.054Z" fill="#EEBCE0"/>
<path d="M-162.014 952.117L108.224 1025.55L151.219 840.093L-119.019 766.658L-162.014 952.117Z" fill="#E9CBE8"/>
<path d="M-163.516 932.547L84.4301 1020.96L136.164 856.606L-111.774 768.193L-163.516 932.547Z" fill="#E5DBF0"/>
<path d="M-163.519 913.495L60.867 1016.36L121.102 874.127L-103.284 771.258L-163.519 913.495Z" fill="#E0EBF7"/>
<path d="M-92.2357 773.982L107.547 890.742L38.7747 1011.32L-161.008 894.561L-92.2357 773.982Z" fill="#DCFAFF"/>
</g>
<g clip-path="url(#clip11_1325_5724)">
<path d="M238.5 1482H16.5V1657.5H238.5V1482Z" fill="#FF682E"/>
<path d="M223.5 1482H16.5V1641H223.5V1482Z" fill="#FF7646"/>
<path d="M208.5 1482H16.5V1626H208.5V1482Z" fill="#FF845D"/>
<path d="M195 1482H16.5V1611H195V1482Z" fill="#FF9275"/>
<path d="M178.5 1482H16.5V1594.5H178.5V1482Z" fill="#FF9F8C"/>
<path d="M165 1482H16.5V1579.5H165V1482Z" fill="#FFADA3"/>
<path d="M150 1482H16.5V1566H150V1482Z" fill="#FFBBBB"/>
</g>
</g>
<g clip-path="url(#clip12_1325_5724)">
<g clip-path="url(#clip13_1325_5724)">
<path d="M1014 3144H784.5V2970H1014V3144Z" fill="#FFF67F"/>
<path opacity="0.5" d="M1000.5 3142.5H786V2983.5H1000.5V3142.5Z" fill="#E1F391"/>
<path opacity="0.5" d="M987 3141H787.5V2997H987V3141Z" fill="#C4F0A2"/>
<path opacity="0.5" d="M972 3139.5H787.5V3012H972V3139.5Z" fill="#A6EDB3"/>
<path opacity="0.5" d="M958.5 3138H789V3025.5H958.5V3138Z" fill="#88EAC5"/>
<path opacity="0.5" d="M943.5 3136.5H790.5V3039H943.5V3136.5Z" fill="#6BE7D6"/>
<path opacity="0.5" d="M930 3135H792V3052.5H930V3135Z" fill="#4DE4E8"/>
</g>
<g clip-path="url(#clip14_1325_5724)">
<path d="M1097.15 2682L1097.15 2466L876.502 2466L876.502 2682L1097.15 2682Z" fill="#FF63BB"/>
<path d="M1097.15 2672.94L1097.15 2473.55L888.592 2473.55L888.592 2672.94L1097.15 2672.94Z" fill="#FF70C4"/>
<path d="M1097.15 2665.39L1097.15 2482.62L900.682 2482.62L900.682 2665.39L1097.15 2665.39Z" fill="#FE7ECE"/>
<path d="M1097.15 2657.83L1097.15 2490.17L914.284 2490.17L914.284 2657.83L1097.15 2657.83Z" fill="#FE8BD7"/>
<path d="M1097.15 2650.28L1097.15 2499.23L926.374 2499.23L926.374 2650.28L1097.15 2650.28Z" fill="#FE99E1"/>
<path d="M1097.15 2641.21L1097.15 2506.78L938.464 2506.78L938.464 2641.21L1097.15 2641.21Z" fill="#FEA6EA"/>
<path d="M1097.15 2632.15L1097.15 2514.33L950.554 2514.33L950.554 2632.15L1097.15 2632.15Z" fill="#FDB4F4"/>
<path d="M1097.15 2626.11L1097.15 2523.4L964.156 2523.4L964.156 2626.11L1097.15 2626.11Z" fill="#FDC1FD"/>
</g>
<g clip-path="url(#clip15_1325_5724)">
<path d="M351 2736H784.5V3063H351V2736Z" fill="#FFF790"/>
<path d="M352.5 3037.64L755.58 3051L763.5 2753.87L360.42 2740.5L352.5 3037.64Z" fill="#E7F0A0"/>
<path d="M354 3013.76L726.653 3040.5L742.5 2773.23L369.839 2746.5L354 3013.76Z" fill="#CEE9B1"/>
<path d="M357 2988.39L697.797 3028.5L721.5 2791.12L380.695 2751L357 2988.39Z" fill="#B6E2C1"/>
<path d="M358.5 2963L668.87 3016.5L700.5 2809.01L390.13 2755.5L358.5 2963Z" fill="#9EDBD1"/>
<path d="M360 2939.1L639.924 3006L679.5 2828.4L399.585 2761.5L360 2939.1Z" fill="#85D4E2"/>
<path d="M410.075 2765.46L658.5 2845.5L611.162 2992.57L362.737 2912.53L410.075 2765.46Z" fill="#6DCDF2"/>
</g>
<g clip-path="url(#clip16_1325_5724)">
<path d="M133.5 1972.5L514.5 1972.5L514.5 1684.5L133.5 1684.5L133.5 1972.5Z" fill="#FF63BB"/>
<path opacity="0.6" d="M136.879 1687.52L496.43 1693.23L493.044 1958.93L133.501 1953.22L136.879 1687.52Z" fill="#F979C5"/>
<path opacity="0.6" d="M143.254 1689.03L479.859 1700.42L473.113 1943.85L136.508 1932.45L143.254 1689.03Z" fill="#F28ECE"/>
<path opacity="0.6" d="M146.645 1690.53L461.789 1707.71L451.645 1930.28L136.508 1913.1L146.645 1690.53Z" fill="#ECA4D8"/>
<path opacity="0.6" d="M153.006 1692.04L445.227 1714.91L431.743 1915.2L139.523 1892.33L153.006 1692.04Z" fill="#E6B9E2"/>
<path opacity="0.6" d="M156.411 1695.05L427.156 1723.6L410.262 1901.63L139.524 1873.09L156.411 1695.05Z" fill="#E0CFEC"/>
<path opacity="0.6" d="M162.736 1696.57L410.586 1730.74L390.381 1886.55L142.531 1852.37L162.736 1696.57Z" fill="#D9E4F5"/>
<path opacity="0.6" d="M369.01 1872.43L392.516 1738.78L165.618 1698.67L142.112 1832.32L369.01 1872.43Z" fill="#D3FAFF"/>
</g>
<g clip-path="url(#clip17_1325_5724)">
<path d="M439.5 2248.5H640.5V2400H439.5V2248.5Z" fill="#FFF67F"/>
<path opacity="0.5" d="M451.586 2250H638.984V2388H451.586V2250Z" fill="#E1F391"/>
<path opacity="0.5" d="M465.187 2251.5H638.984V2376H465.187V2251.5Z" fill="#C4F0A2"/>
<path opacity="0.5" d="M475.77 2253H637.477V2364H475.77V2253Z" fill="#A6EDB3"/>
<path opacity="0.5" d="M487.863 2254.5H635.969V2353.5H487.863V2254.5Z" fill="#88EAC5"/>
<path opacity="0.5" d="M499.949 2254.5H634.453V2340H499.949V2254.5Z" fill="#6BE7D6"/>
<path opacity="0.5" d="M513.551 2256H634.453V2328H513.551V2256Z" fill="#4DE4E8"/>
</g>
<g clip-path="url(#clip18_1325_5724)">
<path d="M117 2937H318V3088.5H117V2937Z" fill="#FFF67F"/>
<path opacity="0.5" d="M129.086 2938.5H316.484V3076.5H129.086V2938.5Z" fill="#E1F391"/>
<path opacity="0.5" d="M142.687 2940H316.484V3064.5H142.687V2940Z" fill="#C4F0A2"/>
<path opacity="0.5" d="M153.27 2941.5H314.977V3052.5H153.27V2941.5Z" fill="#A6EDB3"/>
<path opacity="0.5" d="M165.363 2943H313.469V3042H165.363V2943Z" fill="#88EAC5"/>
<path opacity="0.5" d="M177.449 2943H311.953V3028.5H177.449V2943Z" fill="#6BE7D6"/>
<path opacity="0.5" d="M191.051 2944.5H311.953V3016.5H191.051V2944.5Z" fill="#4DE4E8"/>
</g>
<g clip-path="url(#clip19_1325_5724)">
<path d="M1107 1974H687V2304H1107V1974Z" fill="#FFF790"/>
<path d="M1105.5 2280.01L715.583 2293.5L707.922 1993.5L1097.84 1980L1105.5 2280.01Z" fill="#DBF294"/>
<path d="M1102.52 2253.12L742.662 2280L727.359 2011.37L1087.22 1984.5L1102.52 2253.12Z" fill="#B8ED98"/>
<path d="M1101.02 2228.95L771.22 2269.5L748.281 2029.55L1078.09 1989L1101.02 2228.95Z" fill="#95E89C"/>
<path d="M1101.02 2202.19L799.891 2256L769.203 2047.32L1070.33 1993.5L1101.02 2202.19Z" fill="#71E2A0"/>
<path d="M1099.53 2178.19L828.457 2245.5L790.133 2066.81L1061.2 1999.5L1099.53 2178.19Z" fill="#4EDDA4"/>
<path d="M1050.54 2005.63L809.562 2086.5L856.049 2236.93L1097.03 2156.06L1050.54 2005.63Z" fill="#2AD8A8"/>
</g>
<g clip-path="url(#clip20_1325_5724)">
<path d="M945 1506.36H702V1845H945V1506.36Z" fill="#FF682E"/>
<path d="M928.5 1506.36H702V1815.17H928.5V1506.36Z" fill="#FF7646"/>
<path d="M912 1506.36H702V1783.84H912V1506.36Z" fill="#FF845D"/>
<path d="M897 1506.36H702V1755.49H897V1506.36Z" fill="#FF9275"/>
<path d="M880.5 1506.36H702V1724.17H880.5V1506.36Z" fill="#FF9F8C"/>
<path d="M864 1506.36H702V1694.33H864V1506.36Z" fill="#FFADA3"/>
<path d="M847.5 1506.36H702V1668.97H847.5V1506.36Z" fill="#FFBBBB"/>
</g>
<g clip-path="url(#clip21_1325_5724)">
<path d="M561 2365.5H339V2541H561V2365.5Z" fill="#FF682E"/>
<path d="M546 2365.5H339V2524.5H546V2365.5Z" fill="#FF7646"/>
<path d="M531 2365.5H339V2509.5H531V2365.5Z" fill="#FF845D"/>
<path d="M517.5 2365.5H339V2494.5H517.5V2365.5Z" fill="#FF9275"/>
<path d="M501 2365.5H339V2478H501V2365.5Z" fill="#FF9F8C"/>
<path d="M487.5 2365.5H339V2463H487.5V2365.5Z" fill="#FFADA3"/>
<path d="M472.5 2365.5H339V2449.5H472.5V2365.5Z" fill="#FFBBBB"/>
</g>
<g clip-path="url(#clip22_1325_5724)">
<path d="M-162.012 2324.87H222V2619H-162.012V2324.87Z" fill="#FF60B9"/>
<path d="M-163.521 2601.27L198.347 2615.94L206.938 2344.14L-154.931 2329.47L-163.521 2601.27Z" fill="#FB8EC9"/>
<path d="M-162.009 2581.91L176.243 2611.34L193.391 2360.43L-144.861 2331L-162.009 2581.91Z" fill="#F69DD1"/>
<path d="M-162.012 2562.71L152.659 2606.75L178.328 2378.1L-136.343 2334.06L-162.012 2562.71Z" fill="#F2ADD8"/>
<path d="M-162.013 2542.05L130.466 2600.62L164.773 2394.16L-127.706 2335.59L-162.013 2542.05Z" fill="#EEBCE0"/>
<path d="M-162.014 2524.12L108.224 2597.55L151.219 2412.09L-119.019 2338.66L-162.014 2524.12Z" fill="#E9CBE8"/>
<path d="M-163.516 2504.55L84.4301 2592.96L136.164 2428.61L-111.774 2340.19L-163.516 2504.55Z" fill="#E5DBF0"/>
<path d="M-163.519 2485.5L60.867 2588.36L121.102 2446.13L-103.284 2343.26L-163.519 2485.5Z" fill="#E0EBF7"/>
<path d="M-92.2357 2345.98L107.547 2462.74L38.7747 2583.32L-161.008 2466.56L-92.2357 2345.98Z" fill="#DCFAFF"/>
</g>
<g clip-path="url(#clip23_1325_5724)">
<path d="M238.5 3054H16.5V3229.5H238.5V3054Z" fill="#FF682E"/>
<path d="M223.5 3054H16.5V3213H223.5V3054Z" fill="#FF7646"/>
<path d="M208.5 3054H16.5V3198H208.5V3054Z" fill="#FF845D"/>
<path d="M195 3054H16.5V3183H195V3054Z" fill="#FF9275"/>
<path d="M178.5 3054H16.5V3166.5H178.5V3054Z" fill="#FF9F8C"/>
<path d="M165 3054H16.5V3151.5H165V3054Z" fill="#FFADA3"/>
<path d="M150 3054H16.5V3138H150V3054Z" fill="#FFBBBB"/>
</g>
</g>
<defs>
<clipPath id="clip0_1325_5724">
<rect width="1080" height="1657.5" fill="white"/>
</clipPath>
<clipPath id="clip1_1325_5724">
<rect width="229.5" height="174" rx="7.5" transform="matrix(1 0 0 -1 784.5 1572)" fill="white"/>
</clipPath>
<clipPath id="clip2_1325_5724">
<rect x="1077.5" y="894" width="216" height="201" rx="7.5" transform="rotate(90 1077.5 894)" fill="white"/>
</clipPath>
<clipPath id="clip3_1325_5724">
<rect width="433.5" height="277.5" rx="7.5" transform="matrix(-1 0 0 1 784.5 1164)" fill="white"/>
</clipPath>
<clipPath id="clip4_1325_5724">
<rect x="514.5" y="400.5" width="381" height="288" rx="7.5" transform="rotate(-180 514.5 400.5)" fill="white"/>
</clipPath>
<clipPath id="clip5_1325_5724">
<rect width="201" height="151.5" rx="7.5" transform="matrix(-1 0 0 1 640.5 676.5)" fill="white"/>
</clipPath>
<clipPath id="clip6_1325_5724">
<rect width="201" height="151.5" rx="7.5" transform="matrix(-1 0 0 1 318 1365)" fill="white"/>
</clipPath>
<clipPath id="clip7_1325_5724">
<rect x="687" y="402" width="420" height="330" rx="7.5" fill="white"/>
</clipPath>
<clipPath id="clip8_1325_5724">
<rect x="702" width="243" height="273" rx="7.5" fill="white"/>
</clipPath>
<clipPath id="clip9_1325_5724">
<rect x="339" y="828" width="222" height="141" rx="7.5" fill="white"/>
</clipPath>
<clipPath id="clip10_1325_5724">
<rect width="381" height="288" rx="7.5" transform="matrix(-1 0 0 1 222 759)" fill="white"/>
</clipPath>
<clipPath id="clip11_1325_5724">
<rect x="16.5" y="1516.5" width="222" height="141" rx="7.5" fill="white"/>
</clipPath>
<clipPath id="clip12_1325_5724">
<rect width="1080" height="1657.5" fill="white" transform="translate(0 1572)"/>
</clipPath>
<clipPath id="clip13_1325_5724">
<rect width="229.5" height="174" rx="7.5" transform="matrix(1 0 0 -1 784.5 3144)" fill="white"/>
</clipPath>
<clipPath id="clip14_1325_5724">
<rect x="1077.5" y="2466" width="216" height="201" rx="7.5" transform="rotate(90 1077.5 2466)" fill="white"/>
</clipPath>
<clipPath id="clip15_1325_5724">
<rect width="433.5" height="277.5" rx="7.5" transform="matrix(-1 0 0 1 784.5 2736)" fill="white"/>
</clipPath>
<clipPath id="clip16_1325_5724">
<rect x="514.5" y="1972.5" width="381" height="288" rx="7.5" transform="rotate(-180 514.5 1972.5)" fill="white"/>
</clipPath>
<clipPath id="clip17_1325_5724">
<rect width="201" height="151.5" rx="7.5" transform="matrix(-1 0 0 1 640.5 2248.5)" fill="white"/>
</clipPath>
<clipPath id="clip18_1325_5724">
<rect width="201" height="151.5" rx="7.5" transform="matrix(-1 0 0 1 318 2937)" fill="white"/>
</clipPath>
<clipPath id="clip19_1325_5724">
<rect x="687" y="1974" width="420" height="330" rx="7.5" fill="white"/>
</clipPath>
<clipPath id="clip20_1325_5724">
<rect x="702" y="1572" width="243" height="273" rx="7.5" fill="white"/>
</clipPath>
<clipPath id="clip21_1325_5724">
<rect x="339" y="2400" width="222" height="141" rx="7.5" fill="white"/>
</clipPath>
<clipPath id="clip22_1325_5724">
<rect width="381" height="288" rx="7.5" transform="matrix(-1 0 0 1 222 2331)" fill="white"/>
</clipPath>
<clipPath id="clip23_1325_5724">
<rect x="16.5" y="3088.5" width="222" height="141" rx="7.5" fill="white"/>
</clipPath>
</defs>
</svg>
