<svg width="1089" height="6510" viewBox="0 0 1089 6510" fill="none" xmlns="http://www.w3.org/2000/svg">
<g clip-path="url(#clip0_2758_18198)">
<g opacity="0.7">
<mask id="mask0_2758_18198" style="mask-type:luminance" maskUnits="userSpaceOnUse" x="837" y="1452" width="230" height="174">
<path d="M1066.5 1452H837V1626H1066.5V1452Z" fill="white"/>
</mask>
<g mask="url(#mask0_2758_18198)">
<path d="M1066.5 1621.5C1066.5 1623.99 1064.49 1626 1062 1626H841.5C839.015 1626 837 1623.99 837 1621.5V1456.5C837 1454.01 839.015 1452 841.5 1452H1062C1064.49 1452 1066.5 1454.01 1066.5 1456.5V1621.5Z" fill="#FFF67F"/>
<path opacity="0.5" d="M1053 1624.5H838.5V1465.5H1053V1624.5Z" fill="#E1F391"/>
<path opacity="0.5" d="M1039.5 1623H840V1479H1039.5V1623Z" fill="#C4F0A2"/>
<path opacity="0.5" d="M1024.5 1621.5H840V1494H1024.5V1621.5Z" fill="#A6EDB3"/>
<path opacity="0.5" d="M1011 1620H841.5V1507.5H1011V1620Z" fill="#88EAC5"/>
<path opacity="0.5" d="M996 1618.5H843V1521H996V1618.5Z" fill="#6BE7D6"/>
<path opacity="0.5" d="M982.5 1617H844.5V1534.5H982.5V1617Z" fill="#4DE4E8"/>
</g>
</g>
<g opacity="0.7">
<mask id="mask1_2758_18198" style="mask-type:luminance" maskUnits="userSpaceOnUse" x="439" y="730" width="202" height="152">
<path d="M640.5 730.5H439.5V882H640.5V730.5Z" fill="white"/>
</mask>
<g mask="url(#mask1_2758_18198)">
<path d="M439.5 735C439.5 732.515 441.515 730.5 444 730.5H636C638.485 730.5 640.5 732.515 640.5 735V877.5C640.5 879.985 638.485 882 636 882H444C441.515 882 439.5 879.985 439.5 877.5V735Z" fill="#FFF67F"/>
<path opacity="0.5" d="M451.594 732H638.992V870H451.594V732Z" fill="#E1F391"/>
<path opacity="0.5" d="M465.188 733.5H638.984V858H465.188V733.5Z" fill="#C4F0A2"/>
<path opacity="0.5" d="M475.766 735H637.472V846H475.766V735Z" fill="#A6EDB3"/>
<path opacity="0.5" d="M487.859 736.5H635.965V835.5H487.859V736.5Z" fill="#88EAC5"/>
<path opacity="0.5" d="M499.945 736.5H634.45V822H499.945V736.5Z" fill="#6BE7D6"/>
<path opacity="0.5" d="M513.547 738H634.45V810H513.547V738Z" fill="#4DE4E8"/>
</g>
</g>
<g opacity="0.7">
<mask id="mask2_2758_18198" style="mask-type:luminance" maskUnits="userSpaceOnUse" x="-24" y="0" width="263" height="167">
<path d="M233.25 0H-18.75C-21.6495 0 -24 2.3505 -24 5.25V161.25C-24 164.149 -21.6495 166.5 -18.75 166.5H233.25C236.15 166.5 238.5 164.149 238.5 161.25V5.25C238.5 2.35051 236.15 0 233.25 0Z" fill="white"/>
</mask>
<g mask="url(#mask2_2758_18198)">
<path d="M239.25 2.25H-23.25V168.75H239.25V2.25Z" fill="#FF682E"/>
<mask id="mask3_2758_18198" style="mask-type:luminance" maskUnits="userSpaceOnUse" x="-3" y="-12" width="243" height="184">
<path d="M-2.25 -12H230.846C235.487 -12 239.25 -8.23725 239.25 -3.5955V163.346C239.25 167.987 235.487 171.75 230.846 171.75H-2.25V-12Z" fill="white"/>
</mask>
<g mask="url(#mask3_2758_18198)">
<path d="M239.253 -57.6504H-54.9141V174.589H239.253V-57.6504Z" fill="#FF682E"/>
<path d="M219.377 -57.6504H-54.9141V152.755H219.377V-57.6504Z" fill="#FF7646"/>
<path d="M199.501 -57.6504H-54.9141V132.905H199.501V-57.6504Z" fill="#FF845D"/>
<path d="M181.612 -57.6504H-54.9141V113.056H181.612V-57.6504Z" fill="#FF9275"/>
<path d="M159.749 -57.6504H-54.9141V91.2209H159.749V-57.6504Z" fill="#FF9F8C"/>
<path d="M141.86 -57.6504H-54.9141V71.3714H141.86V-57.6504Z" fill="#FFADA3"/>
<path d="M121.984 -57.6504H-54.9141V53.5071H121.984V-57.6504Z" fill="#FFBBBB"/>
<path d="M239.258 -12H-35.5781V174.586H239.258V-12Z" fill="#4DE3E8"/>
<path d="M229.165 -7.79297H-21.2969V168.707H229.165V-7.79297Z" fill="#4CD8EC"/>
<path d="M219.085 -4.43555H-13.7266V163.66H219.085V-4.43555Z" fill="#4ACBEE"/>
<path d="M209.835 3.97266H-7.00781V156.94H209.835V3.97266Z" fill="#47BFF1"/>
<path d="M199.755 11.5371H-3.64062V151.056H199.755V11.5371Z" fill="#46B3F5"/>
<path d="M189.657 19.1016H1.39062V144.333H189.657V19.1016Z" fill="#43A7F9"/>
<path d="M181.264 27.5098H6.44531V137.612H181.264V27.5098Z" fill="#4399FC"/>
<path d="M168.655 40.1133H9.80469V133.406H168.655V40.1133Z" fill="#428EFE"/>
</g>
</g>
</g>
<g opacity="0.7">
<mask id="mask4_2758_18198" style="mask-type:luminance" maskUnits="userSpaceOnUse" x="837" y="3099" width="230" height="175">
<path d="M1066.5 3099.75H837V3273.75H1066.5V3099.75Z" fill="white"/>
</mask>
<g mask="url(#mask4_2758_18198)">
<path d="M1066.5 3269.25C1066.5 3271.74 1064.49 3273.75 1062 3273.75H841.5C839.015 3273.75 837 3271.74 837 3269.25V3104.25C837 3101.76 839.015 3099.75 841.5 3099.75H1062C1064.49 3099.75 1066.5 3101.76 1066.5 3104.25V3269.25Z" fill="#FFF67F"/>
<path opacity="0.5" d="M1053 3272.25H838.5V3113.25H1053V3272.25Z" fill="#E1F391"/>
<path opacity="0.5" d="M1039.5 3270.75H840V3126.75H1039.5V3270.75Z" fill="#C4F0A2"/>
<path opacity="0.5" d="M1024.5 3269.25H840V3141.75H1024.5V3269.25Z" fill="#A6EDB3"/>
<path opacity="0.5" d="M1011 3267.75H841.5V3155.25H1011V3267.75Z" fill="#88EAC5"/>
<path opacity="0.5" d="M996 3266.25H843V3168.75H996V3266.25Z" fill="#6BE7D6"/>
<path opacity="0.5" d="M982.5 3264.75H844.5V3182.25H982.5V3264.75Z" fill="#4DE4E8"/>
</g>
</g>
<g opacity="0.7">
<mask id="mask5_2758_18198" style="mask-type:luminance" maskUnits="userSpaceOnUse" x="440" y="2378" width="202" height="152">
<path d="M641.25 2378.25H440.25V2529.75H641.25V2378.25Z" fill="white"/>
</mask>
<g mask="url(#mask5_2758_18198)">
<path d="M440.25 2382.75C440.25 2380.26 442.265 2378.25 444.75 2378.25H636.75C639.235 2378.25 641.25 2380.26 641.25 2382.75V2525.25C641.25 2527.74 639.235 2529.75 636.75 2529.75H444.75C442.265 2529.75 440.25 2527.74 440.25 2525.25V2382.75Z" fill="#FFF67F"/>
<path opacity="0.5" d="M452.344 2379.75H639.742V2517.75H452.344V2379.75Z" fill="#E1F391"/>
<path opacity="0.5" d="M465.938 2381.25H639.734V2505.75H465.938V2381.25Z" fill="#C4F0A2"/>
<path opacity="0.5" d="M476.516 2382.75H638.222V2493.75H476.516V2382.75Z" fill="#A6EDB3"/>
<path opacity="0.5" d="M488.609 2384.25H636.715V2483.25H488.609V2384.25Z" fill="#88EAC5"/>
<path opacity="0.5" d="M500.695 2384.25H635.2V2469.75H500.695V2384.25Z" fill="#6BE7D6"/>
<path opacity="0.5" d="M514.297 2385.75H635.2V2457.75H514.297V2385.75Z" fill="#4DE4E8"/>
</g>
</g>
<mask id="mask6_2758_18198" style="mask-type:luminance" maskUnits="userSpaceOnUse" x="-143" y="2461" width="368" height="280">
<path d="M219 2461.5H-136.5C-139.814 2461.5 -142.5 2464.19 -142.5 2467.5V2734.5C-142.5 2737.81 -139.814 2740.5 -136.5 2740.5H219C222.314 2740.5 225 2737.81 225 2734.5V2467.5C225 2464.19 222.314 2461.5 219 2461.5Z" fill="white"/>
</mask>
<g mask="url(#mask6_2758_18198)">
</g>
<g opacity="0.7">
<path d="M975.613 51H742.5C739.601 51 737.25 53.3505 737.25 56.25V321.176C737.25 324.076 739.601 326.426 742.5 326.426H975.613C978.512 326.426 980.863 324.076 980.863 321.176V56.25C980.863 53.3505 978.512 51 975.613 51Z" fill="#FFF790"/>
<path opacity="0.971" d="M969.094 51H742.5C739.601 51 737.25 53.3505 737.25 56.25V304.891H969.094V51Z" fill="#FFE196"/>
<path opacity="0.943" d="M957.325 51H742.5C739.601 51 737.25 53.3505 737.25 56.25V283.356H957.325V51Z" fill="#FFCC9C"/>
<path opacity="0.914" d="M945.557 51H742.5C739.601 51 737.25 53.3505 737.25 56.25V261.82H945.557V51Z" fill="#FFB6A2"/>
<path opacity="0.886" d="M933.789 51H742.5C739.601 51 737.25 53.3505 737.25 56.25V240.285H933.789V51Z" fill="#FFA1A7"/>
<path opacity="0.857" d="M922.02 51H742.5C739.601 51 737.25 53.3505 737.25 56.25V218.75H922.02V51Z" fill="#FF8BAD"/>
<path opacity="0.829" d="M910.252 51H742.5C739.601 51 737.25 53.3505 737.25 56.25V197.215H910.252V51Z" fill="#FF76B3"/>
<path opacity="0.8" d="M898.483 51H742.5C739.601 51 737.25 53.3505 737.25 56.25V175.679H898.483V51Z" fill="#FF60B9"/>
</g>
<g opacity="0.7">
<path d="M975.613 1701.75H742.5C739.601 1701.75 737.25 1704.1 737.25 1707V1971.93C737.25 1974.83 739.601 1977.18 742.5 1977.18H975.613C978.512 1977.18 980.863 1974.83 980.863 1971.93V1707C980.863 1704.1 978.512 1701.75 975.613 1701.75Z" fill="#FFF790"/>
<path opacity="0.971" d="M969.094 1701.75H742.5C739.601 1701.75 737.25 1704.1 737.25 1707V1955.64H969.094V1701.75Z" fill="#FFE196"/>
<path opacity="0.943" d="M957.325 1701.75H742.5C739.601 1701.75 737.25 1704.1 737.25 1707V1934.11H957.325V1701.75Z" fill="#FFCC9C"/>
<path opacity="0.914" d="M945.557 1701.75H742.5C739.601 1701.75 737.25 1704.1 737.25 1707V1912.57H945.557V1701.75Z" fill="#FFB6A2"/>
<path opacity="0.886" d="M933.789 1701.75H742.5C739.601 1701.75 737.25 1704.1 737.25 1707V1891.04H933.789V1701.75Z" fill="#FFA1A7"/>
<path opacity="0.857" d="M922.02 1701.75H742.5C739.601 1701.75 737.25 1704.1 737.25 1707V1869.5H922.02V1701.75Z" fill="#FF8BAD"/>
<path opacity="0.829" d="M910.252 1701.75H742.5C739.601 1701.75 737.25 1704.1 737.25 1707V1847.96H910.252V1701.75Z" fill="#FF76B3"/>
<path opacity="0.8" d="M898.483 1701.75H742.5C739.601 1701.75 737.25 1704.1 737.25 1707V1826.43H898.483V1701.75Z" fill="#FF60B9"/>
</g>
<g opacity="0.7">
<path d="M556.5 889.5H343.5C341.015 889.5 339 891.515 339 894V1036.5C339 1038.99 341.015 1041 343.5 1041H556.5C558.985 1041 561 1038.99 561 1036.5V894C561 891.515 558.985 889.5 556.5 889.5Z" fill="#FE785C"/>
<path d="M549.229 891.24H340.102V1032.13H549.229V891.24Z" fill="#FE8273"/>
<path d="M537.449 892.98H341.195V1023.25H537.449V892.98Z" fill="#FE8D8A"/>
<path d="M525.677 894.721H342.297V1014.38H525.677V894.721Z" fill="#FE97A1"/>
<path d="M513.898 896.461H343.391V1005.51H513.898V896.461Z" fill="#FDA2B7"/>
<path d="M502.134 898.207H344.5V996.638H502.134V898.207Z" fill="#FDACCE"/>
<path d="M490.355 899.947H345.594V987.764H490.355V899.947Z" fill="#FDB7E5"/>
<path d="M478.591 901.688H346.703V978.89H478.591V901.688Z" fill="#FDC1FC"/>
</g>
<g opacity="0.7">
<path d="M556.5 2537.25H343.5C341.015 2537.25 339 2539.26 339 2541.75V2684.25C339 2686.74 341.015 2688.75 343.5 2688.75H556.5C558.985 2688.75 561 2686.74 561 2684.25V2541.75C561 2539.26 558.985 2537.25 556.5 2537.25Z" fill="#FE785C"/>
<path d="M549.229 2538.99H340.102V2679.88H549.229V2538.99Z" fill="#FE8273"/>
<path d="M537.449 2540.73H341.195V2671H537.449V2540.73Z" fill="#FE8D8A"/>
<path d="M525.677 2542.47H342.297V2662.13H525.677V2542.47Z" fill="#FE97A1"/>
<path d="M513.898 2544.21H343.391V2653.26H513.898V2544.21Z" fill="#FDA2B7"/>
<path d="M502.134 2545.96H344.5V2644.39H502.134V2545.96Z" fill="#FDACCE"/>
<path d="M490.355 2547.7H345.594V2635.51H490.355V2547.7Z" fill="#FDB7E5"/>
<path d="M478.591 2549.44H346.703V2626.64H478.591V2549.44Z" fill="#FDC1FC"/>
</g>
</g>
<g clip-path="url(#clip1_2758_18198)">
<g opacity="0.7">
<mask id="mask7_2758_18198" style="mask-type:luminance" maskUnits="userSpaceOnUse" x="837" y="4688" width="230" height="174">
<path d="M1066.5 4688H837V4862H1066.5V4688Z" fill="white"/>
</mask>
<g mask="url(#mask7_2758_18198)">
<path d="M1066.5 4857.5C1066.5 4859.99 1064.49 4862 1062 4862H841.5C839.015 4862 837 4859.99 837 4857.5V4692.5C837 4690.01 839.015 4688 841.5 4688H1062C1064.49 4688 1066.5 4690.01 1066.5 4692.5V4857.5Z" fill="#FFF67F"/>
<path opacity="0.5" d="M1053 4860.5H838.5V4701.5H1053V4860.5Z" fill="#E1F391"/>
<path opacity="0.5" d="M1039.5 4859H840V4715H1039.5V4859Z" fill="#C4F0A2"/>
<path opacity="0.5" d="M1024.5 4857.5H840V4730H1024.5V4857.5Z" fill="#A6EDB3"/>
<path opacity="0.5" d="M1011 4856H841.5V4743.5H1011V4856Z" fill="#88EAC5"/>
<path opacity="0.5" d="M996 4854.5H843V4757H996V4854.5Z" fill="#6BE7D6"/>
<path opacity="0.5" d="M982.5 4853H844.5V4770.5H982.5V4853Z" fill="#4DE4E8"/>
</g>
</g>
<g opacity="0.7">
<mask id="mask8_2758_18198" style="mask-type:luminance" maskUnits="userSpaceOnUse" x="439" y="3966" width="202" height="152">
<path d="M640.5 3966.5H439.5V4118H640.5V3966.5Z" fill="white"/>
</mask>
<g mask="url(#mask8_2758_18198)">
<path d="M439.5 3971C439.5 3968.51 441.515 3966.5 444 3966.5H636C638.485 3966.5 640.5 3968.51 640.5 3971V4113.5C640.5 4115.99 638.485 4118 636 4118H444C441.515 4118 439.5 4115.99 439.5 4113.5V3971Z" fill="#FFF67F"/>
<path opacity="0.5" d="M451.594 3968H638.992V4106H451.594V3968Z" fill="#E1F391"/>
<path opacity="0.5" d="M465.188 3969.5H638.984V4094H465.188V3969.5Z" fill="#C4F0A2"/>
<path opacity="0.5" d="M475.766 3971H637.472V4082H475.766V3971Z" fill="#A6EDB3"/>
<path opacity="0.5" d="M487.859 3972.5H635.965V4071.5H487.859V3972.5Z" fill="#88EAC5"/>
<path opacity="0.5" d="M499.945 3972.5H634.45V4058H499.945V3972.5Z" fill="#6BE7D6"/>
<path opacity="0.5" d="M513.547 3974H634.45V4046H513.547V3974Z" fill="#4DE4E8"/>
</g>
</g>
<g opacity="0.7">
<mask id="mask9_2758_18198" style="mask-type:luminance" maskUnits="userSpaceOnUse" x="-24" y="3236" width="263" height="167">
<path d="M233.25 3236H-18.75C-21.6495 3236 -24 3238.35 -24 3241.25V3397.25C-24 3400.15 -21.6495 3402.5 -18.75 3402.5H233.25C236.15 3402.5 238.5 3400.15 238.5 3397.25V3241.25C238.5 3238.35 236.15 3236 233.25 3236Z" fill="white"/>
</mask>
<g mask="url(#mask9_2758_18198)">
<path d="M239.25 3238.25H-23.25V3404.75H239.25V3238.25Z" fill="#FF682E"/>
<mask id="mask10_2758_18198" style="mask-type:luminance" maskUnits="userSpaceOnUse" x="-3" y="3224" width="243" height="184">
<path d="M-2.25 3224H230.846C235.487 3224 239.25 3227.76 239.25 3232.4V3399.35C239.25 3403.99 235.487 3407.75 230.846 3407.75H-2.25V3224Z" fill="white"/>
</mask>
<g mask="url(#mask10_2758_18198)">
<path d="M239.253 3178.35H-54.9141V3410.59H239.253V3178.35Z" fill="#FF682E"/>
<path d="M219.377 3178.35H-54.9141V3388.75H219.377V3178.35Z" fill="#FF7646"/>
<path d="M199.501 3178.35H-54.9141V3368.91H199.501V3178.35Z" fill="#FF845D"/>
<path d="M181.612 3178.35H-54.9141V3349.06H181.612V3178.35Z" fill="#FF9275"/>
<path d="M159.749 3178.35H-54.9141V3327.22H159.749V3178.35Z" fill="#FF9F8C"/>
<path d="M141.86 3178.35H-54.9141V3307.37H141.86V3178.35Z" fill="#FFADA3"/>
<path d="M121.984 3178.35H-54.9141V3289.51H121.984V3178.35Z" fill="#FFBBBB"/>
<path d="M239.258 3224H-35.5781V3410.59H239.258V3224Z" fill="#4DE3E8"/>
<path d="M229.165 3228.21H-21.2969V3404.71H229.165V3228.21Z" fill="#4CD8EC"/>
<path d="M219.085 3231.56H-13.7266V3399.66H219.085V3231.56Z" fill="#4ACBEE"/>
<path d="M209.835 3239.97H-7.00781V3392.94H209.835V3239.97Z" fill="#47BFF1"/>
<path d="M199.755 3247.54H-3.64062V3387.06H199.755V3247.54Z" fill="#46B3F5"/>
<path d="M189.657 3255.1H1.39062V3380.33H189.657V3255.1Z" fill="#43A7F9"/>
<path d="M181.264 3263.51H6.44531V3373.61H181.264V3263.51Z" fill="#4399FC"/>
<path d="M168.655 3276.11H9.80469V3369.41H168.655V3276.11Z" fill="#428EFE"/>
</g>
</g>
</g>
<g opacity="0.7">
<mask id="mask11_2758_18198" style="mask-type:luminance" maskUnits="userSpaceOnUse" x="837" y="6335" width="230" height="175">
<path d="M1066.5 6335.75H837V6509.75H1066.5V6335.75Z" fill="white"/>
</mask>
<g mask="url(#mask11_2758_18198)">
<path d="M1066.5 6505.25C1066.5 6507.74 1064.49 6509.75 1062 6509.75H841.5C839.015 6509.75 837 6507.74 837 6505.25V6340.25C837 6337.76 839.015 6335.75 841.5 6335.75H1062C1064.49 6335.75 1066.5 6337.76 1066.5 6340.25V6505.25Z" fill="#FFF67F"/>
<path opacity="0.5" d="M1053 6508.25H838.5V6349.25H1053V6508.25Z" fill="#E1F391"/>
<path opacity="0.5" d="M1039.5 6506.75H840V6362.75H1039.5V6506.75Z" fill="#C4F0A2"/>
<path opacity="0.5" d="M1024.5 6505.25H840V6377.75H1024.5V6505.25Z" fill="#A6EDB3"/>
<path opacity="0.5" d="M1011 6503.75H841.5V6391.25H1011V6503.75Z" fill="#88EAC5"/>
<path opacity="0.5" d="M996 6502.25H843V6404.75H996V6502.25Z" fill="#6BE7D6"/>
<path opacity="0.5" d="M982.5 6500.75H844.5V6418.25H982.5V6500.75Z" fill="#4DE4E8"/>
</g>
</g>
<g opacity="0.7">
<mask id="mask12_2758_18198" style="mask-type:luminance" maskUnits="userSpaceOnUse" x="440" y="5614" width="202" height="152">
<path d="M641.25 5614.25H440.25V5765.75H641.25V5614.25Z" fill="white"/>
</mask>
<g mask="url(#mask12_2758_18198)">
<path d="M440.25 5618.75C440.25 5616.26 442.265 5614.25 444.75 5614.25H636.75C639.235 5614.25 641.25 5616.26 641.25 5618.75V5761.25C641.25 5763.74 639.235 5765.75 636.75 5765.75H444.75C442.265 5765.75 440.25 5763.74 440.25 5761.25V5618.75Z" fill="#FFF67F"/>
<path opacity="0.5" d="M452.344 5615.75H639.742V5753.75H452.344V5615.75Z" fill="#E1F391"/>
<path opacity="0.5" d="M465.938 5617.25H639.734V5741.75H465.938V5617.25Z" fill="#C4F0A2"/>
<path opacity="0.5" d="M476.516 5618.75H638.222V5729.75H476.516V5618.75Z" fill="#A6EDB3"/>
<path opacity="0.5" d="M488.609 5620.25H636.715V5719.25H488.609V5620.25Z" fill="#88EAC5"/>
<path opacity="0.5" d="M500.695 5620.25H635.2V5705.75H500.695V5620.25Z" fill="#6BE7D6"/>
<path opacity="0.5" d="M514.297 5621.75H635.2V5693.75H514.297V5621.75Z" fill="#4DE4E8"/>
</g>
</g>
<mask id="mask13_2758_18198" style="mask-type:luminance" maskUnits="userSpaceOnUse" x="-143" y="5697" width="368" height="280">
<path d="M219 5697.5H-136.5C-139.814 5697.5 -142.5 5700.19 -142.5 5703.5V5970.5C-142.5 5973.81 -139.814 5976.5 -136.5 5976.5H219C222.314 5976.5 225 5973.81 225 5970.5V5703.5C225 5700.19 222.314 5697.5 219 5697.5Z" fill="white"/>
</mask>
<g mask="url(#mask13_2758_18198)">
</g>
<g opacity="0.7">
<path d="M975.613 3287H742.5C739.601 3287 737.25 3289.35 737.25 3292.25V3557.18C737.25 3560.08 739.601 3562.43 742.5 3562.43H975.613C978.512 3562.43 980.863 3560.08 980.863 3557.18V3292.25C980.863 3289.35 978.512 3287 975.613 3287Z" fill="#FFF790"/>
<path opacity="0.971" d="M969.094 3287H742.5C739.601 3287 737.25 3289.35 737.25 3292.25V3540.89H969.094V3287Z" fill="#FFE196"/>
<path opacity="0.943" d="M957.325 3287H742.5C739.601 3287 737.25 3289.35 737.25 3292.25V3519.36H957.325V3287Z" fill="#FFCC9C"/>
<path opacity="0.914" d="M945.557 3287H742.5C739.601 3287 737.25 3289.35 737.25 3292.25V3497.82H945.557V3287Z" fill="#FFB6A2"/>
<path opacity="0.886" d="M933.789 3287H742.5C739.601 3287 737.25 3289.35 737.25 3292.25V3476.29H933.789V3287Z" fill="#FFA1A7"/>
<path opacity="0.857" d="M922.02 3287H742.5C739.601 3287 737.25 3289.35 737.25 3292.25V3454.75H922.02V3287Z" fill="#FF8BAD"/>
<path opacity="0.829" d="M910.252 3287H742.5C739.601 3287 737.25 3289.35 737.25 3292.25V3433.21H910.252V3287Z" fill="#FF76B3"/>
<path opacity="0.8" d="M898.483 3287H742.5C739.601 3287 737.25 3289.35 737.25 3292.25V3411.68H898.483V3287Z" fill="#FF60B9"/>
</g>
<g opacity="0.7">
<path d="M975.613 4937.75H742.5C739.601 4937.75 737.25 4940.1 737.25 4943V5207.93C737.25 5210.83 739.601 5213.18 742.5 5213.18H975.613C978.512 5213.18 980.863 5210.83 980.863 5207.93V4943C980.863 4940.1 978.512 4937.75 975.613 4937.75Z" fill="#FFF790"/>
<path opacity="0.971" d="M969.094 4937.75H742.5C739.601 4937.75 737.25 4940.1 737.25 4943V5191.64H969.094V4937.75Z" fill="#FFE196"/>
<path opacity="0.943" d="M957.325 4937.75H742.5C739.601 4937.75 737.25 4940.1 737.25 4943V5170.11H957.325V4937.75Z" fill="#FFCC9C"/>
<path opacity="0.914" d="M945.557 4937.75H742.5C739.601 4937.75 737.25 4940.1 737.25 4943V5148.57H945.557V4937.75Z" fill="#FFB6A2"/>
<path opacity="0.886" d="M933.789 4937.75H742.5C739.601 4937.75 737.25 4940.1 737.25 4943V5127.04H933.789V4937.75Z" fill="#FFA1A7"/>
<path opacity="0.857" d="M922.02 4937.75H742.5C739.601 4937.75 737.25 4940.1 737.25 4943V5105.5H922.02V4937.75Z" fill="#FF8BAD"/>
<path opacity="0.829" d="M910.252 4937.75H742.5C739.601 4937.75 737.25 4940.1 737.25 4943V5083.96H910.252V4937.75Z" fill="#FF76B3"/>
<path opacity="0.8" d="M898.483 4937.75H742.5C739.601 4937.75 737.25 4940.1 737.25 4943V5062.43H898.483V4937.75Z" fill="#FF60B9"/>
</g>
<g opacity="0.7">
<path d="M556.5 4125.5H343.5C341.015 4125.5 339 4127.51 339 4130V4272.5C339 4274.99 341.015 4277 343.5 4277H556.5C558.985 4277 561 4274.99 561 4272.5V4130C561 4127.51 558.985 4125.5 556.5 4125.5Z" fill="#FE785C"/>
<path d="M549.229 4127.24H340.102V4268.13H549.229V4127.24Z" fill="#FE8273"/>
<path d="M537.449 4128.98H341.195V4259.25H537.449V4128.98Z" fill="#FE8D8A"/>
<path d="M525.677 4130.72H342.297V4250.38H525.677V4130.72Z" fill="#FE97A1"/>
<path d="M513.898 4132.46H343.391V4241.51H513.898V4132.46Z" fill="#FDA2B7"/>
<path d="M502.134 4134.21H344.5V4232.64H502.134V4134.21Z" fill="#FDACCE"/>
<path d="M490.355 4135.95H345.594V4223.76H490.355V4135.95Z" fill="#FDB7E5"/>
<path d="M478.591 4137.69H346.703V4214.89H478.591V4137.69Z" fill="#FDC1FC"/>
</g>
<g opacity="0.7">
<path d="M556.5 5773.25H343.5C341.015 5773.25 339 5775.26 339 5777.75V5920.25C339 5922.74 341.015 5924.75 343.5 5924.75H556.5C558.985 5924.75 561 5922.74 561 5920.25V5777.75C561 5775.26 558.985 5773.25 556.5 5773.25Z" fill="#FE785C"/>
<path d="M549.229 5774.99H340.102V5915.88H549.229V5774.99Z" fill="#FE8273"/>
<path d="M537.449 5776.73H341.195V5907H537.449V5776.73Z" fill="#FE8D8A"/>
<path d="M525.677 5778.47H342.297V5898.13H525.677V5778.47Z" fill="#FE97A1"/>
<path d="M513.898 5780.21H343.391V5889.26H513.898V5780.21Z" fill="#FDA2B7"/>
<path d="M502.134 5781.96H344.5V5880.39H502.134V5781.96Z" fill="#FDACCE"/>
<path d="M490.355 5783.7H345.594V5871.51H490.355V5783.7Z" fill="#FDB7E5"/>
<path d="M478.591 5785.44H346.703V5862.64H478.591V5785.44Z" fill="#FDC1FC"/>
</g>
</g>
<defs>
<clipPath id="clip0_2758_18198">
<rect width="1089" height="3273.75" fill="white"/>
</clipPath>
<clipPath id="clip1_2758_18198">
<rect width="1089" height="3273.75" fill="white" transform="translate(0 3236)"/>
</clipPath>
</defs>
</svg>
